<?xml version="1.0" encoding="utf-8"?>
<!-- Generator: Adobe Illustrator 19.0.0, SVG Export Plug-In . SVG Version: 6.00 Build 0)  -->
<svg version="1.1" id="Layer_1" xmlns="http://www.w3.org/2000/svg" xmlns:xlink="http://www.w3.org/1999/xlink" x="0px" y="0px"
	 viewBox="0 0 500 500" style="enable-background:new 0 0 500 500;" xml:space="preserve">
<style type="text/css">
	.st0{fill:#1F4787;}
</style>
<g id="XMLID_1_">
	<path id="XMLID_12_" class="st0" d="M333.1,290c-10.5-2.8-15.3-8.7-15.3-19c0-9,3.7-14.3,12.2-17.4c2.5-0.9,5.8-1.2,14.7-1.5
		l11.5-0.3l-0.2-3.6c-0.3-5.2-1.9-6.2-10-6.5c-7.9-0.3-10.4,0.2-12.5,2.5l-1.8,1.9l-6.3-1.9c-3.4-1-6.4-2-6.6-2.2
		c-0.8-0.8,2.1-5.7,4.7-8c6.1-5.6,18.8-7.7,31-5.1c4.8,1,8.9,3.3,11.8,6.6c4,4.5,4.4,6.7,4.4,24.9c0,15.1-0.1,15.9-1.5,19
		c-2.7,5.9-7.1,9.1-15.1,11C348.4,291.7,338.8,291.5,333.1,290z M353.3,276.3c2.5-1.3,2.8-2.1,2.8-7.6v-4.5l-9.9,0.2
		c-8.9,0.2-10.1,0.3-11.8,1.6c-1.3,1-1.9,2-2,3.8c-0.4,4.8,0.7,6.3,5.4,7.5C340.9,278,351,277.4,353.3,276.3z M398,290.9
		c-5.5-0.9-10.1-3.1-13.2-6.3c-5.5-5.5-5.5-5.5-5.5-43.1c0-28.6,0.1-32,1-32.4c1.9-0.7,12.2-0.4,13,0.4c0.5,0.5,0.8,3.8,0.8,10.4
		c0,8.8,0.1,9.6,1.1,9.2c2.8-1.1,11-1.6,15.9-1c10.2,1.2,16.7,5,19.8,11.8c1.5,3.2,1.5,3.9,1.5,19.2c0,13.4-0.2,16.3-1.1,19
		c-2.3,6.5-7.4,10.5-15.8,12.2C411.6,291.2,401.8,291.5,398,290.9z M415.2,276.3c1.1-0.6,2.2-1.5,2.4-2.1c0.2-0.6,0.4-7.3,0.4-14.9
		c0-13.7,0-13.8-1.5-15.4c-2-2-4.7-2.5-12.2-2.2c-5,0.2-6.5,0.5-7.9,1.6l-1.8,1.4l-0.2,14.9l-0.2,14.9l1.6,1.1
		c2.6,1.7,5.4,2.2,11.6,1.9C411.1,277.4,413.9,276.9,415.2,276.3L415.2,276.3z M67.5,289c-0.4-1.1,19.9-68.2,21.7-71.9
		c2.5-4.9,7.7-7.8,13.8-7.8c6.2,0,10.6,2.4,13.4,7.4c2,3.4,22.6,71,22.1,72.3c-0.3,0.8-1.7,1-7.1,1c-5.8,0-6.8-0.2-7.3-1.1
		c-0.3-0.6-1.8-5.7-3.4-11.3l-2.8-10.2h-14.8H88.2l-2.8,10.2c-1.6,5.6-3.1,10.7-3.4,11.3c-0.5,1-1.5,1.1-7.3,1.1
		C69.2,290,67.8,289.8,67.5,289z M109.8,239.4c-2.4-8.3-4.6-15.5-4.8-15.8c-0.5-0.8-3.4-0.8-3.9,0.1c-0.2,0.4-2.4,7.5-4.8,15.8
		l-4.4,15.1h11.1h11.1L109.8,239.4z M144.4,289.6c-0.2-0.2-0.4-18.3-0.4-40.2c0-35.7,0.1-39.8,1-40.2c1.9-0.7,12.2-0.4,13,0.4
		c0.5,0.5,0.8,3.8,0.8,10.4c0,5.3,0.2,9.4,0.5,9.3c1.5-1,11.8-1.6,16.6-1.1c9.6,1.1,16,4.7,19.2,10.6c1.4,2.6,1.4,3.2,1.4,26.8v24.2
		h-6.8H183l-0.3-22.2c-0.2-12.2-0.6-22.6-0.9-23.1c-2.4-3.7-20.1-3.6-22.5,0.1c-0.3,0.4-0.5,10.4-0.5,22.2c0,11.8-0.2,21.8-0.4,22.4
		c-0.3,0.8-1.6,1-7,1C147.8,290,144.7,289.8,144.4,289.6z M206.6,289.1c-0.6-0.7-0.7-6.3-0.6-23.4c0.2-21.9,0.3-22.5,1.7-25.8
		c2-4.4,6-8,10.8-9.8c5.2-2,13.4-2.8,19.5-2c10.4,1.3,16.1,4.5,19.2,10.8l1.8,3.8v23.5v23.5H252h-7.1l-0.3-22.5l-0.3-22.5l-1.8-1.4
		c-1.5-1.1-2.9-1.4-8.3-1.6c-6.9-0.2-10.7,0.5-12.2,2.3c-0.7,0.8-1,5.8-1.2,23.4l-0.3,22.3l-6.5,0.2
		C208.8,290,207.2,289.9,206.6,289.1L206.6,289.1z M285.8,289.1c-7.4-1.6-12.5-5.7-15-12c-1.4-3.5-1.4-3.9-1.4-35.8v-32.2h6.8h6.8
		l0.3,30.6c0.3,33.2,0.4,33.3,4,35.2c1.3,0.7,4.5,0.9,12.6,0.9c6,0,11.2,0.2,11.7,0.5c0.6,0.4,0.8,2.2,0.6,6.9l-0.2,6.4l-11.3,0.1
		C293.7,289.9,288,289.6,285.8,289.1z"/>
</g>
</svg>
