<?xml version="1.0" encoding="utf-8"?>
<!-- Generator: Adobe Illustrator 19.0.0, SVG Export Plug-In . SVG Version: 6.00 Build 0)  -->
<svg version="1.1" id="Layer_1" xmlns="http://www.w3.org/2000/svg" xmlns:xlink="http://www.w3.org/1999/xlink" x="0px" y="0px"
	 viewBox="0 0 500 500" style="enable-background:new 0 0 500 500;" xml:space="preserve">
<style type="text/css">
	.st0{fill:#FF6600;}
	.st1{fill:#E74030;}
	.st2{fill:#FAB418;}
	.st3{fill:#DE0732;}
	.st4{fill:#DE0733;}
	.st5{fill:#CC1D46;}
	.st6{fill:#23282C;}
	.st7{fill:#3F3F3F;}
</style>
<g id="XMLID_2_">
	<path id="XMLID_21_" class="st0" d="M155,215.6l-39.4-47.7c-0.8-0.8-2.3-0.4-2.3,0.8l3.3,46.2l-28.6-24.5c-0.8-0.8-2.3,0-2.1,1.2
		l11.4,45.6l-27.6-16.2c-1-0.6-2.3,0.4-1.9,1.7l48.3,109c0.4,1,2.1,0.8,2.3-0.2l10.6-55.9l26.9-45.6
		C158.8,225.5,158.3,219.7,155,215.6z"/>
	<path id="XMLID_22_" class="st1" d="M116.5,215l-28.8-24.5c-0.8-0.8-2.3,0-2.1,1.2L97,237.3l21.8,12.8L116.5,215z"/>
	<path id="XMLID_23_" class="st2" d="M116.9,307.6c-0.4,1.2-2.1,1-2.3-0.2l-17.4-70L69.4,221c-1-0.6-2.3,0.4-1.9,1.7l48.3,109
		c0.4,1,2.1,0.8,2.3-0.2l10.6-56l-0.2,0.2L116.9,307.6z"/>
	<path id="XMLID_24_" class="st3" d="M116.9,307.6l12-31.9l-5.4,8.9c-0.6,1-2.3,0.6-2.3-0.6l-2.3-33.8l-21.8-12.8l17.4,70
		C114.8,308.6,116.5,308.8,116.9,307.6"/>
	<path id="XMLID_25_" class="st0" d="M154.6,215.6l-39.4-47.7c-0.6-0.8-2.1-0.2-2.1,0.8l3.3,46.2l19.9,17.2
		c3.9,3.3,5.4,8.9,3.5,13.9l-11,29v0.4l26.9-45.6C158.6,225.5,157.9,219.7,154.6,215.6"/>
	<path id="XMLID_26_" class="st4" d="M124.6,253.7c4.6,2.7,6.8,7.9,6,13.1l-1.7,8.5l11-29c1.9-5,0.4-10.4-3.5-13.9l-19.9-17.2
		l2.5,35.2L124.6,253.7z"/>
	<polyline id="XMLID_27_" points="128.7,275.9 128.9,275.5 128.9,275.1 	"/>
	<polyline id="XMLID_28_" points="128.7,275.9 128.9,275.5 128.9,275.1 	"/>
	<path id="XMLID_29_" class="st5" d="M124.6,253.7l-5.8-3.5L121,284c0,1.2,1.7,1.7,2.3,0.6l5.2-8.9l0.2-0.6l1.7-8.5
		C131.6,261.6,129.1,256.4,124.6,253.7"/>
	<path id="XMLID_32_" class="st6" d="M184.9,276.5h23.6L196.7,245L184.9,276.5z M196.1,233h1.9c2.5,0,4.8,1.5,5.6,3.9l27.8,70.9H223
		c-1.5,0-2.9-1-3.3-2.3l-7.7-19.9h-30.5l-7.5,19.9c-0.6,1.5-1.9,2.3-3.3,2.3h-8.1l27.6-70.9C191.3,234.6,193.6,233,196.1,233z"/>
	<path id="XMLID_36_" class="st6" d="M345.3,307.8h10.2v-74.6h-10.2 M383.8,249.6v58.2h-9.3v-74.6h6c1.9,0,3.7,1,5,2.5l37.7,53V233
		h9.3v74.8h-4.6c-2.1,0-3.9-1-5-2.5L383.8,249.6z M308.6,307.8h-8.5L280,247.3l-20.1,60.5h-8.5L229,233.2h8.1c1.7,0,3.1,1,3.5,2.7
		l15.5,55.5l18-55.3c0.6-1.9,2.3-3.1,4.4-3.1h3.5c2.1,0,3.7,1.2,4.4,3.1l18,55.3l15.5-55.7c0.4-1.7,1.9-2.7,3.5-2.7h7.9L308.6,307.8
		z"/>
	<polyline id="XMLID_37_" class="st7" points="148.6,275.3 148.4,276.1 148.6,275.7 148.6,275.3 	"/>
</g>
</svg>
