<?xml version="1.0" encoding="utf-8"?>
<!-- Generator: Adobe Illustrator 19.0.0, SVG Export Plug-In . SVG Version: 6.00 Build 0)  -->
<svg version="1.1" id="Layer_1" xmlns="http://www.w3.org/2000/svg" xmlns:xlink="http://www.w3.org/1999/xlink" x="0px" y="0px"
	 viewBox="0 0 500 500" style="enable-background:new 0 0 500 500;" xml:space="preserve">
<style type="text/css">
	.st0{fill:#E92328;}
	.st1{fill:#010101;}
</style>
<g id="XMLID_1_">
	<path id="XMLID_7_" class="st0" d="M372.9,176.4l-5.3,5.5c8.2-0.5,20.7,0.2,28.9,1.6c0,0-7.7,2.8-15,7.9c4.5-0.1,8.4-0.4,9.4-1.2
		c1-0.7,6.4-7,9.1-10.5C392.1,177.7,381.5,176.5,372.9,176.4 M364.5,164.1c-3.1,3-7.8,8-12.5,13.5c-20.3,2.2-37.1,7.6-64.8,18.6
		l19.3,3.4c17.5-8.4,38.1-15.9,56.7-17.2c2.6-6.9,6.5-15.9,12.3-24.4C375.6,157.9,368.3,161.7,364.5,164.1 M67.5,260.1l19.9,1.9
		c67-1,112-9.6,189.9-46c10.7-5,20.2-9.1,23.5-10.3c7.4,0.1,19.2,2.4,28.8,3.9c-5-2.6-14.8-6.5-20.1-8.7c-6.6,0.4-20.1,0.9-25.3,1.2
		c-4,1.7-7.6,3.3-12.4,5.5C177.8,250.3,126.6,260.5,67.5,260.1 M406.9,181.9c6,0.9,12.8,3.4,18.3,6.5c-7.6-1.7-18.5-3.3-26.7-3.5
		C398.5,184.9,403.8,182.6,406.9,181.9"/>
	<path id="XMLID_10_" class="st1" d="M205.3,322.4c0.6-4.5,3.5-7.4,8.1-7.4c4.9,0,7.9,2.9,8,7.4H205.3z M213.8,309.1
		c-9.5,0-16.4,6.6-16.4,16.5c0,9.9,7.3,16.5,17.8,16.5c3.1,0,6-0.5,8.4-1.5l4.5-7.5l-0.6-0.3c-3.9,2-7.9,3-11.6,3
		c-5.4,0-10.1-2.7-10.6-7.5h24v-2.1C229.3,315.3,222.6,309.1,213.8,309.1"/>
	<path id="XMLID_13_" class="st1" d="M374.6,322.4c0.6-4.5,3.5-7.4,8.1-7.4c4.9,0,7.9,2.9,8,7.4H374.6z M383.1,309.1
		c-9.5,0-16.4,6.6-16.4,16.5c0,9.9,7.3,16.5,17.8,16.5c3.1,0,6-0.5,8.4-1.5l4.5-7.5l-0.6-0.3c-3.9,2-7.9,3-11.6,3
		c-5.4,0-10.1-2.7-10.6-7.5h24C399.6,316,392.9,309.1,383.1,309.1"/>
	<path id="XMLID_16_" class="st1" d="M261.1,322.4c0.6-4.5,3.5-7.4,8.1-7.4c4.9,0,7.9,2.9,8,7.4H261.1z M269.7,309.1
		c-9.5,0-16.4,6.6-16.4,16.5c0,9.9,7.3,16.5,17.8,16.5c3.1,0,6-0.5,8.4-1.5l4.5-7.5l-0.6-0.3c-3.8,2-7.9,3-11.6,3
		c-5.4,0-10.1-2.7-10.6-7.5h24C286.2,316,279.5,309.1,269.7,309.1"/>
	<path id="XMLID_20_" class="st1" d="M91.8,334.2h-7.6v-13.4h7.9c6.7,0,9.8,1.7,9.8,6.6C101.9,333.5,96,334.2,91.8,334.2 M84.2,302
		H91c4.6,0,6,0.6,7.4,2c1.1,1,1.6,2.4,1.6,4c0,1.5-0.5,2.8-1.6,3.8c-1.4,1.3-3.2,1.9-6.6,1.9h-7.5V302z M100.1,316.9v-0.1
		c4.8-1.4,8.1-4.9,8.1-10.1c0-8.5-7.2-11.7-14.2-11.7H77h-6.7v0.7l2.4,2c2.9,2.3,3.2,2.7,3.2,4.8v38.8h16.7
		c8.8,0,17.6-3.1,17.6-13.2C110.1,322.1,106,317.5,100.1,316.9"/>
	<path id="XMLID_21_" class="st1" d="M121.8,294.5c-2.9,0-5,2.2-5,4.7c0,2.4,2.1,4.7,5,4.7c2.9,0,5.1-2,5.1-4.7
		C127,296.5,124.7,294.5,121.8,294.5"/>
	<path id="XMLID_22_" class="st1" d="M113.8,310.4l1.2,1c2.8,2.2,3,2.6,3,5.2v24.7h7.9v-31.4h-12.1V310.4z"/>
	<path id="XMLID_25_" class="st1" d="M174.8,335c-5.7,0-9.2-4.5-9.2-9.4c0-4.9,3.5-9.4,9.2-9.4c5.8,0,9.3,4.5,9.3,9.4
		C184,330.5,180.5,335,174.8,335 M178.7,293.5l2.5,1.6c2.2,1.4,2.5,2.1,2.5,4.1v14.6h-0.2c-1.7-2.1-4.8-4.8-10.7-4.8
		c-9,0-15.2,7.2-15.2,16.5c0,9.3,5.8,16.5,15.5,16.5c4.4,0,8.5-1.7,10.8-5.6h0.1l0.8,4.7h6.7V293h-12.9V293.5z"/>
	<path id="XMLID_28_" class="st1" d="M344.1,335c-5.8,0-9.2-4.5-9.2-9.4c0-4.9,3.4-9.4,9.2-9.4c5.8,0,9.2,4.5,9.2,9.4
		C353.3,330.5,349.9,335,344.1,335 M347.7,293.5l1.1,0.8c3.8,2.4,4.2,3,4.2,7.2v12.4h-0.2c-1.6-2.1-4.8-4.8-10.7-4.8
		c-8.9,0-15.1,7.2-15.1,16.5c0,9.3,5.8,16.5,15.5,16.5c4.4,0,8.5-1.7,10.8-5.6h0.1l0.8,4.7h6.6V293h-13.2L347.7,293.5L347.7,293.5z"
		/>
	<path id="XMLID_29_" class="st1" d="M422.1,309.1c-4.2,0-7.6,2.2-9.3,5.8h-0.1v-5h-13.3l0.1,0.4l2,1.3c3.2,2,3.4,2.6,3.4,6.6v23.2
		h7.9v-16.8c0-1.7,1-7.9,8.4-7.9c1.3,0,2.5,0.3,3.8,0.5v-7.6C424,309.3,423.1,309.1,422.1,309.1"/>
	<path id="XMLID_30_" class="st1" d="M244.4,304.1c0-5.5,4.8-7.1,11.2-4.6l0.4-0.4l-1.8-6.6c-12-2.4-17.7,3-17.7,11.5v5.7h-7.6v0.5
		l4,3.3c3.1,2.5,3.6,3,3.6,5.7v22.1h7.9v-24.8h7.3v-6.7h-7.3V304.1z"/>
	<path id="XMLID_31_" class="st1" d="M309.6,309.1c-3.5,0-7.4,1.7-10,5.6h-0.1v-4.8h-6.7v-0.1h-6.1v0.4l2,1.3c3.2,2,3.4,2.6,3.4,6.6
		v23.2h7.9v-17.1c0-4.2,2-8,7.2-8c5.5,0,6.4,4.2,6.4,7.6v17.5h7.9v-19.8C321.3,314.2,317,309.1,309.6,309.1"/>
	<path id="XMLID_32_" class="st1" d="M144.7,330.8v-14.2h8.4v-6.7h-8.4v-9.1h-5l-2.9,9.1h-7.6v0.4l2.8,2.5c4.4,3.6,4.8,3.5,4.8,5.6
		v-1.7V331c0,10.3,7.2,12.1,13.6,10.4l3.9-6.3l-0.2-0.1C148.6,336.6,144.7,336.4,144.7,330.8"/>
	<path id="XMLID_35_" class="st1" d="M428.8,295.9c0,0.3-0.1,0.6-0.2,0.8l-0.6,0.5l-0.7,0.2l-0.8,0h-1.7v-3.2h2l0.7,0.1l0.7,0.2
		l0.5,0.5C428.7,295.3,428.8,295.5,428.8,295.9 M426.7,294h-2.2v6.9h0.2v-3.2h2l0.1,0h0l0,0l2.1,3.2h0.3l-2.1-3.3h0.1l0.7-0.2
		l0.6-0.3l0.4-0.5l0.1-0.8c0-0.6-0.2-1-0.5-1.4C428.1,294.2,427.5,294,426.7,294"/>
	<path id="XMLID_38_" class="st1" d="M428.7,302.7c-0.7,0.3-1.4,0.5-2.2,0.5c-0.8,0-1.6-0.1-2.3-0.5c-0.7-0.3-1.3-0.7-1.8-1.2
		c-0.5-0.5-0.9-1.2-1.2-1.8c-0.3-0.7-0.4-1.5-0.4-2.3c0-0.8,0.1-1.5,0.4-2.2c0.3-0.7,0.7-1.3,1.2-1.8c0.5-0.5,1.1-0.9,1.8-1.2
		c0.7-0.3,1.5-0.4,2.3-0.4c0.8,0,1.5,0.2,2.2,0.4c0.7,0.3,1.3,0.7,1.8,1.2c0.5,0.5,0.9,1.2,1.2,1.8c0.3,0.7,0.5,1.4,0.5,2.2
		c0,0.8-0.2,1.6-0.5,2.3c-0.3,0.7-0.7,1.3-1.2,1.8C430,302,429.4,302.4,428.7,302.7 M432,299.7c0.3-0.7,0.5-1.5,0.5-2.4
		c0-0.8-0.2-1.6-0.5-2.3c-0.3-0.7-0.7-1.4-1.3-1.9c-0.5-0.5-1.2-0.9-1.9-1.3c-0.7-0.3-1.5-0.5-2.3-0.5c-0.8,0-1.6,0.2-2.4,0.5
		c-0.7,0.3-1.4,0.7-1.9,1.3c-0.5,0.6-1,1.2-1.3,1.9c-0.3,0.7-0.5,1.5-0.5,2.3c0,0.8,0.2,1.6,0.5,2.4c0.3,0.7,0.7,1.4,1.3,1.9
		c0.5,0.5,1.2,1,1.9,1.3c0.7,0.3,1.5,0.5,2.4,0.5c0.8,0,1.6-0.2,2.3-0.5c0.7-0.3,1.4-0.8,1.9-1.3C431.3,301.1,431.7,300.4,432,299.7
		"/>
</g>
</svg>
