<?xml version="1.0" encoding="utf-8"?>
<!-- Generator: Adobe Illustrator 19.0.0, SVG Export Plug-In . SVG Version: 6.00 Build 0)  -->
<svg version="1.1" id="Layer_1" xmlns="http://www.w3.org/2000/svg" xmlns:xlink="http://www.w3.org/1999/xlink" x="0px" y="0px"
	 viewBox="0 0 500 500" style="enable-background:new 0 0 500 500;" xml:space="preserve">
<style type="text/css">
	.st0{fill:#003768;}
	.st1{fill:#00768A;}
</style>
<g id="XMLID_1_">
	<path id="XMLID_5_" class="st0" d="M185.9,280h-13.2l-4-9.8h-22L143,280h-13l19.8-49.2h14.2L185.9,280z M157.1,242.5l-7.2,19H165
		L157.1,242.5z"/>
	<polygon id="XMLID_6_" class="st0" points="241.6,280 231.3,280 204.1,248.4 204.1,280 191.8,280 191.8,230.7 203.1,230.7 
		229.3,260.8 229.3,230.7 241.6,230.7 	"/>
	<rect id="XMLID_7_" x="254.2" y="230.7" class="st0" width="12.3" height="49.2"/>
	<path id="XMLID_8_" class="st0" d="M312.4,243.5c-7.2-3.2-11.4-4.4-15.6-4.4c-4.4,0-7.2,1.6-7.2,4.1c0,7.5,25,5.4,25,22.5
		c0,9.5-7.9,15-18.9,15c-8.6,0-12.9-2.3-17.8-4.8v-10.6c7.1,4.7,11.4,6.3,16.8,6.3c4.7,0,7.2-1.6,7.2-4.6c0-8.1-25.1-5.1-25.1-22.8
		c0-8.5,7.4-14.1,18.8-14.1c5.5,0,10.5,1.2,16.7,3.8V243.5z"/>
	<path id="XMLID_9_" class="st0" d="M369.9,275.7c-6.9,3.5-12.1,4.9-19.3,4.9c-19.2,0-28.6-12.5-28.6-25.1
		c0-13.1,10.7-25.4,29.6-25.4c6.9,0,13,1.5,17.8,4.3v11c-5.4-3-10.9-5.1-17-5.1c-10.5,0-17.9,6.2-17.9,14.9
		c0,8.8,7.3,15.1,17.6,15.1c6.4,0,10.8-2,17.8-5.4V275.7z"/>
	<path id="XMLID_12_" class="st0" d="M404.3,280.6c-18.1,0-28.2-12.7-28.2-25.3c0-11.9,9.6-25.3,28.2-25.3
		c18.6,0,28.2,13.4,28.2,25.3C432.5,267.9,422,280.6,404.3,280.6 M404.3,240.3c-9.4,0-15.6,6-15.6,15c0,9,6.2,15,15.6,15
		c9.3,0,15.6-6,15.6-15C419.9,246.3,413.7,240.3,404.3,240.3"/>
	<path id="XMLID_13_" class="st0" d="M102.8,241c9.4,0,13.8,6,13.8,14.3c0,7.2-4.6,14.3-14.4,14.3H90.8v-16.5H79.5v26.9h21.2
		c19.6,0,28.1-12.6,28.1-24.5c0-11.8-8.5-24.7-26-24.7L102.8,241L102.8,241z"/>
	<rect id="XMLID_14_" x="90.8" y="241" class="st0" width="12" height="12"/>
	<polygon id="XMLID_15_" class="st1" points="102.8,219.4 102.8,230.7 79.5,230.7 79.5,253.1 67.5,253.1 67.5,219.4 	"/>
</g>
</svg>
