<?xml version="1.0" encoding="utf-8"?>
<!-- Generator: Adobe Illustrator 19.0.0, SVG Export Plug-In . SVG Version: 6.00 Build 0)  -->
<svg version="1.1" id="Layer_1" xmlns="http://www.w3.org/2000/svg" xmlns:xlink="http://www.w3.org/1999/xlink" x="0px" y="0px"
	 viewBox="0 0 500 500" style="enable-background:new 0 0 500 500;" xml:space="preserve">
<style type="text/css">
	.st0{fill:#261C02;}
	.st1{fill:#004356;}
	.st2{fill:#668E9A;}
	.st3{clip-path:url(#XMLID_47_);fill:url(#XMLID_48_);}
	.st4{fill:#336978;}
	.st5{clip-path:url(#XMLID_52_);fill:url(#XMLID_53_);}
	.st6{clip-path:url(#XMLID_54_);fill:url(#XMLID_55_);}
</style>
<g id="XMLID_1_">
	<rect id="XMLID_3_" x="174.1" y="187.3" class="st0" width="1.7" height="125.5"/>
	<polygon id="XMLID_4_" class="st0" points="195.7,285.7 191.9,285.7 191.9,256.4 195.7,256.4 210.6,278.7 210.6,256.4 214.3,256.4 
		214.3,285.7 210.5,285.6 195.7,263.7 	"/>
	<rect id="XMLID_5_" x="229.7" y="268.7" class="st0" width="12" height="3.4"/>
	<polygon id="XMLID_6_" class="st0" points="242.9,259.8 242.9,256.4 222.1,256.4 222.1,285.7 243.7,285.7 243.8,282.2 225.9,282.1 
		225.9,259.8 	"/>
	<polygon id="XMLID_7_" class="st0" points="248.1,259.8 248.1,256.4 271.3,256.4 271.3,259.8 261.6,259.8 261.6,285.7 257.7,285.7 
		257.7,259.8 	"/>
	<polygon id="XMLID_8_" class="st0" points="275.1,256.4 279.2,256.4 285.1,281.4 292.5,256.4 297.4,256.4 304.6,281.4 310.7,256.4 
		314.5,256.4 306.8,285.7 302.7,285.7 294.9,260.3 287.3,285.7 283.1,285.7 	"/>
	<path id="XMLID_11_" class="st0" d="M332.2,259.2c-5.5,0-10,4.4-10,11.7c0,7.8,4.5,11.7,10,11.7c5.5,0,10-4,10-11.7
		C342.2,263.6,337.7,259.2,332.2,259.2 M345.9,271c0,9.9-6.2,15.1-13.8,15.1c-7.6,0-13.8-5.4-13.8-15.1c0-9.2,6.2-15.1,13.8-15.1
		C339.8,255.9,345.9,261.7,345.9,271"/>
	<path id="XMLID_12_" class="st0" d="M366.4,259.8h-10.2v25.9h-3.8v-29.3h14.1c0,0,8.4,0.1,8.4,7.8c0,7.7-7.6,7.9-7.6,7.9
		s1.7,1.2,2.8,2.5c0.7,0.9,6.8,11.1,6.8,11.1h-4.5c0,0-4.1-7.1-5.2-8.8c-1.1-1.7-1.6-2.3-2.4-3.1c-0.7-0.7-2.2-1.3-2.5-1.3H360v-3.4
		h6.4c0,0,4.6-0.6,4.6-5C371.1,260,366.4,259.8,366.4,259.8"/>
	<polygon id="XMLID_13_" class="st0" points="386.2,285.7 382.5,285.7 382.5,256.4 386.2,256.4 386.2,270.3 400.4,256.4 
		405.7,256.4 393.5,268.7 406.7,285.7 401.8,285.7 390.8,271.3 386.2,275.4 	"/>
	<path id="XMLID_14_" class="st0" d="M427.8,264.8h3.7v-1.2c0-1.7-2.1-4.6-3.1-5.5c-0.9-0.8-3.2-2.2-7.4-2.2c-4.2,0-6.5,1.5-7.6,2.4
		c-1.1,0.9-2.6,3.2-2.6,5.7c0,1.8,0.8,3.7,2.3,5c1.5,1.2,5.3,2.4,7.7,3.1c2.3,0.7,5,1.4,6.1,2.2c1.1,0.8,1.9,1.9,1.9,3.4
		c0,1.5-0.5,2.5-1.9,3.5c-1.5,1-3.7,1.5-5,1.5c-1.3,0-3.3-0.6-4.3-0.9c-1.1-0.4-2.3-1.5-2.8-2.1c-0.5-0.6-1.2-2.3-1.2-2.7v-1.5h-3.9
		v1.2c0,0.7,0.6,3.2,1.3,4.1c0.7,0.9,1.9,2.5,3.1,3.3c1.2,0.7,3.6,2,7.8,2c4.2,0,6.5-1.4,7.8-2.5c1.3-1.1,2.9-3.1,2.9-5.9
		c0-2.8-0.4-3.9-1.5-5.2c-1.2-1.3-3.8-2.6-6-3.2c-2.2-0.6-6.3-1.7-7.8-2.3c-1.4-0.6-2.5-1.9-2.5-2.9s0.1-2.6,1.5-3.5
		c1.4-0.9,2.9-1.4,5-1.4c2.1,0,4.2,0.6,5,1.4c0.8,0.8,1.1,1.3,1.4,1.8c0.3,0.5,0.3,1.7,0.3,1.7V264.8z"/>
	<path id="XMLID_15_" class="st1" d="M115,214.4h33.6c0,0,12.7,3.8,12.7,17.1c0,13.3-11.6,16.9-12.7,16.9H115V214.4z"/>
	<polygon id="XMLID_16_" class="st2" points="148.6,214.4 147.6,217 117.5,217 115,214.4 	"/>
	<g id="XMLID_19_">
		<defs>
			<path id="XMLID_18_" d="M147.6,217c0,0,10.9,4.6,10.9,14.6c0,10-9.9,13.9-9.9,13.9l-31.1,0l-2.5,3h33.6c0.7,0,12.7-3,12.7-16.9
				c0-13.3-12.7-17.1-12.7-17.1L147.6,217z"/>
		</defs>
		<clipPath id="XMLID_47_">
			<use xlink:href="#XMLID_18_"  style="overflow:visible;"/>
		</clipPath>
		
			<linearGradient id="XMLID_48_" gradientUnits="userSpaceOnUse" x1="-4.9946" y1="7.1888" x2="-3.778" y2="7.1888" gradientTransform="matrix(12.4041 21.4845 -21.4845 12.4041 347.1794 242.883)">
			<stop  offset="0" style="stop-color:#668E9A"/>
			<stop  offset="1" style="stop-color:#1A353C"/>
		</linearGradient>
		<path id="XMLID_20_" class="st3" d="M147.6,217c0,0,10.9,4.6,10.9,14.6c0,10-9.9,13.9-9.9,13.9l-31.1,0l-2.5,3h33.6
			c0.7,0,12.7-3,12.7-16.9c0-13.3-12.7-17.1-12.7-17.1L147.6,217z"/>
	</g>
	<polygon id="XMLID_17_" class="st4" points="115,248.5 117.5,245.5 117.5,217 115,214.4 	"/>
	<path id="XMLID_21_" class="st1" d="M67.5,214.3h32.2c0.3,0,12.9,8.3,12.9,34.8c0,26.5-12.9,36-16,36H67.5V214.3z"/>
	<polygon id="XMLID_22_" class="st2" points="70,216.9 67.5,214.3 99.7,214.3 98.3,216.9 	"/>
	<polygon id="XMLID_23_" class="st4" points="67.5,285.1 70,282.2 70,216.9 67.5,214.3 	"/>
	<g id="XMLID_26_">
		<defs>
			<path id="XMLID_25_" d="M98.3,216.9c0,0,11,9.7,11,32.2c0,24.1-12.8,33.1-12.8,33.1H70l-2.5,2.9h29.1c3.1,0,16-9.5,16-36
				c0-26.5-12.6-34.8-12.9-34.8L98.3,216.9z"/>
		</defs>
		<clipPath id="XMLID_52_">
			<use xlink:href="#XMLID_25_"  style="overflow:visible;"/>
		</clipPath>
		
			<linearGradient id="XMLID_53_" gradientUnits="userSpaceOnUse" x1="-2.5952" y1="3.7999" x2="-1.3785" y2="3.7999" gradientTransform="matrix(24.7283 42.8306 -42.8306 24.7283 300.054 246.8569)">
			<stop  offset="0" style="stop-color:#668E9A"/>
			<stop  offset="1" style="stop-color:#1A353C"/>
		</linearGradient>
		<path id="XMLID_27_" class="st5" d="M98.3,216.9c0,0,11,9.7,11,32.2c0,24.1-12.8,33.1-12.8,33.1H70l-2.5,2.9h29.1
			c3.1,0,16-9.5,16-36c0-26.5-12.6-34.8-12.9-34.8L98.3,216.9z"/>
	</g>
	<path id="XMLID_24_" class="st1" d="M115,251.4h34.8c0,0,12.7,3.8,12.7,17c0,13.2-11.6,16.8-12.7,16.8c-1.1,0-34.8,0-34.8,0V251.4z
		"/>
	<polygon id="XMLID_28_" class="st2" points="149.9,251.4 148.9,253.9 117.5,253.9 115,251.4 	"/>
	<g id="XMLID_31_">
		<defs>
			<path id="XMLID_30_" d="M148.9,253.9c0,0,10.9,4.6,10.9,14.5c0,9.9-9.9,13.8-9.9,13.8l-32.4,0l-2.5,2.9c0,0,26.4,0,34.8,0
				c0.7,0,12.7-2.9,12.7-16.8c0-13.2-12.7-17-12.7-17L148.9,253.9L148.9,253.9z"/>
		</defs>
		<clipPath id="XMLID_54_">
			<use xlink:href="#XMLID_30_"  style="overflow:visible;"/>
		</clipPath>
		
			<linearGradient id="XMLID_55_" gradientUnits="userSpaceOnUse" x1="-4.7827" y1="7.3493" x2="-3.566" y2="7.3493" gradientTransform="matrix(12.3079 21.318 -21.318 12.3079 347.1658 273.4247)">
			<stop  offset="0" style="stop-color:#668E9A"/>
			<stop  offset="1" style="stop-color:#1A353C"/>
		</linearGradient>
		<path id="XMLID_32_" class="st6" d="M148.9,253.9c0,0,10.9,4.6,10.9,14.5c0,9.9-9.9,13.8-9.9,13.8l-32.4,0l-2.5,2.9
			c0,0,26.4,0,34.8,0c0.7,0,12.7-2.9,12.7-16.8c0-13.2-12.7-17-12.7-17L148.9,253.9L148.9,253.9z"/>
	</g>
	<polygon id="XMLID_29_" class="st4" points="115,285.1 117.5,282.2 117.5,253.9 115,251.4 	"/>
</g>
</svg>
