<?xml version="1.0" encoding="utf-8"?>
<!-- Generator: Adobe Illustrator 19.0.0, SVG Export Plug-In . SVG Version: 6.00 Build 0)  -->
<svg version="1.1" id="Layer_1" xmlns="http://www.w3.org/2000/svg" xmlns:xlink="http://www.w3.org/1999/xlink" x="0px" y="0px"
	 viewBox="0 0 500 500" style="enable-background:new 0 0 500 500;" xml:space="preserve">
<style type="text/css">
	.st0{fill:#ADAFB2;}
	.st1{fill:#231F20;}
	.st2{fill:#0096D6;}
	.st3{fill:#FFFFFF;}
</style>
<g id="XMLID_3_">
	<path id="XMLID_60_" class="st0" d="M246.9,398.1l-74.7-74.7c-2.5-1.8-4.9-3.3-7.2-4.8c-4.7-3.1-8.8-3.8-12.4-4.5
		c-4.3-0.8-9.7-1.9-12.1-7.5c-2.3-5.3-3.3-11.2-2.8-17.7l-15.3-15.3v-35.2h-20.1c-7.9,0-15.2-4.1-19.5-11l-0.1-0.1l-8.1-13.4
		l7.4-13.8v-57l-14.5-27.1h42.9l-7.6-13.8h294l-7.6,13.8h43.2L418,142.9v59.8c0,4.8-1.3,9.4-3.8,13.4l-6.8,11.2
		c-4.3,6.9-11.7,11-19.5,11h-16.4v35.2l-15.3,15.3c0.4,6.4-0.5,12.4-2.8,17.7c-2.5,5.7-7.8,6.7-12.1,7.5c-3.6,0.7-7.7,1.5-12.4,4.5
		c-2.3,1.5-4.7,3.1-7.2,4.8L246.9,398.1"/>
	<path id="XMLID_61_" class="st1" d="M421.7,122.2h-43.3c0,0-0.1,0-0.1,0l7.6-13.8H113.7l7.6,13.8H78.3l10.2,19.1v60.3l-6.4,12
		l6.2,10.3c3,4.8,8.2,8,14.1,8h26.5v39l15.6,15.6c-0.9,6.3-0.3,12.3,2.1,17.5c2.3,5.2,10.8,1.9,22.2,9.2c2.7,1.8,5.3,3.5,7.8,5.3
		l70.5,70.5l70.5-70.5c2.5-1.7,5.1-3.5,7.8-5.3c11.4-7.4,19.9-4,22.2-9.2c2.3-5.3,2.9-11.2,2.1-17.5l15.6-15.6v-39h22.9
		c5.9,0,11.1-3.2,14.1-8l6.7-11.2c1.8-2.9,2.8-6.3,2.8-10v-61.4L421.7,122.2"/>
	<path id="XMLID_62_" class="st0" d="M246.9,354.9c-7.8,0-15.8-1.3-22.3-4.1l22.3,22.3l22.3-22.3
		C262.8,353.5,254.7,354.9,246.9,354.9"/>
	<path id="XMLID_63_" class="st2" d="M246.9,198.1c-18.2,0-35.9,1.9-53,5.6c2.2,1.6,4.4,3.3,6.4,5c3.7,3.2,9.6,2.1,16.2,0.3
		c8.4-2.3,19.2-3.7,30.4-3.7c11.2,0,22,1.4,30.4,3.7c6.6,1.8,12.5,2.9,16.2-0.3c2-1.7,4.1-3.4,6.4-5
		C282.8,200.1,265.1,198.1,246.9,198.1"/>
	<path id="XMLID_64_" class="st2" d="M142.4,220.9c-0.8,0.4-1.6,0.7-2.4,1.1v44.2l7.8,7.8c1.3-3.3,3-6.7,5-10.1
		c4-6.8,2.9-11.6,0.2-15.8C147.4,239.3,143.7,229.7,142.4,220.9"/>
	<path id="XMLID_65_" class="st2" d="M351.4,220.9c-1.3,8.8-5,18.4-10.6,27.2c-2.7,4.1-3.8,9,0.2,15.8c2,3.4,3.7,6.7,5,10.1l7.8-7.8
		V222C353,221.6,352.2,221.2,351.4,220.9"/>
	<path id="XMLID_66_" class="st3" d="M400.9,151.1v-12.5l3.1-5.8h-25.5c-3.5,0-6.3,3.3-6.3,7.3v29.8c0,4,2.8,7.3,6.3,7.3h3.6
		l9.7-4.7v28.4h-10.4v-16.4l-9.2,4.6v13.5c0,4,2.8,7.3,6.3,7.3h16.2c3.5,0,6.3-3.3,6.3-7.3v-32.7c0-4-2.8-7.3-6.3-7.3h-3.1l-10.2,5
		v-26.2h10.4v14.3L400.9,151.1"/>
	<path id="XMLID_69_" class="st3" d="M299,189.5c-0.9-1.7-2.7-5.4-2.7-5.4v-36.8c0-3.6-2.5-6.6-5.6-6.6h-14.1c-3.1,0-5.6,3-5.6,6.6
		v34.4l-2.8,5c3.9,0.2,7.5,0.4,11,0.7v-11.3l9-4.9v17C292.2,188.6,295.7,189.1,299,189.5 M279.2,168.7v-20.3h9v15.4L279.2,168.7z"/>
	<path id="XMLID_70_" class="st3" d="M357.8,192.9c-2.1-0.6-6.1-1.6-8.3-2.1v-16.5l11.2-6.1v-8l-11.2,6.1v-17.9h8.3v5.6l8.2-4.5
		v-8.7h-27.4l2.7,5.1v46.3c0,0-1.9,3.1-2.8,4.6c9,2.2,18.5,4.9,27.5,7.7v-28.7l-8.2,4.5L357.8,192.9"/>
	<path id="XMLID_71_" class="st3" d="M153.1,190c-2.4,0.6-6.6,1.6-8.3,2.1v-17.8l11.2-6.1v-8l-11.2,6.1v-17.9h8.3v5.6l8.2-4.5v-8.7
		h-27.4l2.7,5.1v52.7c0,0-1.7,3.8-2.5,5.6c8.9-2.8,18.3-5.5,27.2-7.6v-21.2l-8.2,4.5L153.1,190"/>
	<path id="XMLID_72_" class="st3" d="M222.2,179.6c-2.4,0.1-6.2,0.4-8.3,0.6v-9.3l11.2-6.1v-7.4l-11.2,6.1v-15.1h8.3v4.5l8.2-4.5
		v-7.6H203l2.7,5.1v37.9c0,0-1.8,3.6-2.7,5.3c8.9-1.1,17.8-1.9,27.4-2.4v-16.6l-8.2,4.5V179.6"/>
	<path id="XMLID_73_" class="st3" d="M255,178.7c-2.7,0-6.8,0-9,0v-30.3h9v4.9l8.2-4.5l0-1.4c0-3.6-2.5-6.6-5.6-6.6h-14.1
		c-3.1,0-5.6,3-5.6,6.6V180c0,1.9,0.7,3.7,1.9,4.9c1,1,2.4,1.6,3.8,1.5c2.1,0,4.2,0,6.3,0c4.5,0,8.9,0.1,13.3,0.3v-30.2l-12.8,7v7.5
		l4.6-2.5V178.7"/>
	<path id="XMLID_76_" class="st3" d="M118.6,210h12.3l-3.1-5.8v-20.8c0-3-1.5-5.6-3.9-6.8l-7.2-3.5l7.2-3.5c2.4-1.1,3.9-3.8,3.9-6.8
		v-22.8c0-4-2.8-7.3-6.3-7.3H96l3.1,5.8v65.6L96,210h12.3v-30.9l10.4,5V210 M108.3,167.3v-26h10.4v21L108.3,167.3z"/>
	<path id="XMLID_79_" class="st3" d="M329.7,193.4c1.3-0.9,2-2.6,2-4.5v-41.5c0-3.6-2.5-6.6-5.6-6.6h-22.5l2.7,5.1v39.4
		c0,0-2.4,4.1-2.8,4.8c3.7,0.5,7.3,1.1,10.8,1.7c4.1,0.7,8.1,1.5,12,2.3C326.8,194.2,328.3,194.4,329.7,193.4 M323.5,185.2
		c-2.3-0.4-6.5-1.1-9-1.5v-35.4h9V185.2z"/>
	<path id="XMLID_80_" class="st3" d="M166.7,140.8l2.7,5.1v44c0,0-1.8,3.7-2.6,5.5c3.7-0.8,7.3-1.6,10.8-2.3v-39.8l9-4.9v43.1
		c3.7-0.6,7.4-1.2,11-1.7c-0.9-1.5-2.8-4.8-2.8-4.8v-37.6c0-3.6-2.5-6.6-5.6-6.6h-3.2l-8.4,4.6v-4.5H166.7"/>
	<polyline id="XMLID_81_" class="st2" points="147.9,132.4 147.9,116.1 144.7,116.1 144.7,122.7 139.3,122.7 139.3,116.1 
		136.2,116.1 136.2,132.4 139.3,132.4 139.3,125.6 144.7,125.6 144.7,132.4 147.9,132.4 	"/>
	<path id="XMLID_82_" class="st2" d="M164.9,116.1v12.6c0,0.2-0.1,0.4-0.2,0.6c-0.1,0.2-0.4,0.3-0.6,0.3h-3.8
		c-0.2,0-0.4-0.1-0.6-0.3c-0.1-0.1-0.2-0.4-0.2-0.6v-12.6h-3.1V130c0,0.3,0,0.7,0.1,1c0.1,0.3,0.3,0.6,0.4,0.8
		c0.2,0.2,0.4,0.4,0.7,0.5c0.3,0.1,0.5,0.2,0.8,0.2h7.6c0.3,0,0.5-0.1,0.8-0.2c0.3-0.1,0.5-0.3,0.6-0.5c0.2-0.2,0.3-0.5,0.4-0.8
		c0.1-0.3,0.2-0.6,0.2-1v-13.9H164.9"/>
	<path id="XMLID_85_" class="st2" d="M176.5,116.1L176.5,116.1v16.3c0,0.1,0,0,0,0h9.6c0.3,0,0.5-0.1,0.8-0.2
		c0.3-0.1,0.5-0.3,0.6-0.5c0.2-0.2,0.3-0.5,0.4-0.8c0.1-0.3,0.2-0.6,0.2-1v-11.4c0-0.3-0.1-0.7-0.2-1c-0.1-0.3-0.3-0.6-0.4-0.8
		c-0.2-0.2-0.4-0.4-0.7-0.5c-0.3-0.1-0.5-0.2-0.8-0.2L176.5,116.1 M185.1,129.5h-5.4V119h5.4V129.5z"/>
	<path id="XMLID_86_" class="st2" d="M196.6,129.5v2.9c0,0.1,0,0,0,0h8.5c0.3,0,0.5-0.1,0.8-0.2c0.3-0.1,0.4-0.3,0.6-0.5
		c0.2-0.2,0.3-0.5,0.4-0.8c0.1-0.3,0.2-0.6,0.2-1v-4.7c0-0.3-0.1-0.7-0.2-0.9c-0.1-0.3-0.3-0.6-0.4-0.8c-0.2-0.2-0.4-0.4-0.6-0.5
		c-0.3-0.1-0.5-0.2-0.8-0.2h-4.5c-0.3,0-0.4-0.1-0.6-0.3c-0.1-0.1-0.2-0.4-0.2-0.6v-2c0-0.2,0.1-0.4,0.2-0.6
		c0.1-0.2,0.4-0.3,0.6-0.3h6.2v-2.9c0-0.1,0,0,0,0h-8c-0.3,0-0.5,0-0.8,0.2c-0.3,0.1-0.5,0.3-0.7,0.5c-0.2,0.2-0.3,0.5-0.4,0.8
		c-0.1,0.3-0.1,0.6-0.1,1v4.7c0,0.3,0.1,0.7,0.1,1c0.1,0.3,0.3,0.6,0.4,0.8c0.2,0.2,0.4,0.4,0.7,0.5c0.3,0.1,0.5,0.2,0.8,0.2h4.5
		c0.2,0,0.4,0.1,0.6,0.3c0.1,0.2,0.2,0.4,0.2,0.6v2.1c0,0.2-0.1,0.4-0.2,0.6c-0.1,0.1-0.4,0.3-0.6,0.3H196.6"/>
	<path id="XMLID_87_" class="st2" d="M247.3,132.4v-13.9c0-0.3-0.1-0.7-0.2-1c-0.1-0.3-0.3-0.6-0.4-0.8c-0.2-0.2-0.4-0.4-0.7-0.5
		c-0.3-0.1-0.5-0.2-0.8-0.2h-9.6v16.3h3.1V119h4.6c0.2,0,0.4,0.1,0.6,0.3c0.1,0.1,0.2,0.4,0.2,0.6v12.6H247.3"/>
	<polyline id="XMLID_88_" class="st2" points="271.9,116.1 268.8,127.8 265.6,116.1 262.3,116.1 266.7,132.4 270.9,132.4 
		275.3,116.1 271.9,116.1 	"/>
	<path id="XMLID_89_" class="st2" d="M306.4,129.5v-13.4h-3.1v16.3c0,0.1,0,0,0,0h9.2v-2.9H306.4"/>
	<path id="XMLID_90_" class="st2" d="M322.7,129.5v-13.4h-3.1v16.3c0,0.1,0,0,0,0h9.2v-2.9H322.7"/>
	<path id="XMLID_91_" class="st2" d="M339.5,119h6.9v-2.9H338c-0.3,0-0.5,0.1-0.8,0.2c-0.3,0.1-0.5,0.3-0.7,0.5
		c-0.2,0.2-0.3,0.5-0.4,0.8c-0.1,0.3-0.1,0.6-0.1,1V130c0,0.3,0.1,0.7,0.1,1c0.1,0.3,0.3,0.6,0.4,0.8c0.2,0.2,0.4,0.4,0.7,0.5
		c0.3,0.1,0.5,0.2,0.8,0.2h8.5v-2.9h-6.9c-0.3,0-0.5-0.3-0.5-0.6v-3.3h6.4c0,0,0,0,0,0v-2.9H339v-3.2C339,119.3,339.2,119,339.5,119
		"/>
	<path id="XMLID_92_" class="st2" d="M339.5,119h6.9v-2.9H338c-0.3,0-0.5,0.1-0.8,0.2c-0.3,0.1-0.5,0.3-0.7,0.5
		c-0.2,0.2-0.3,0.5-0.4,0.8c-0.1,0.3-0.1,0.6-0.1,1V130c0,0.3,0.1,0.7,0.1,1c0.1,0.3,0.3,0.6,0.4,0.8c0.2,0.2,0.4,0.4,0.7,0.5
		c0.3,0.1,0.5,0.2,0.8,0.2h8.5v-2.9h-6.9c-0.3,0-0.5-0.3-0.5-0.6v-3.3h6.4c0,0,0,0,0,0v-2.9H339v-3.2C339,119.3,339.2,119,339.5,119
		"/>
	<path id="XMLID_95_" class="st2" d="M294.7,132.4v-13.9c0-0.3,0-0.7-0.1-1c-0.1-0.3-0.3-0.6-0.4-0.8c-0.2-0.2-0.4-0.4-0.7-0.5
		c-0.3-0.1-0.5-0.2-0.8-0.2h-7.5c-0.3,0-0.5,0-0.8,0.2c-0.3,0.1-0.5,0.3-0.7,0.5c-0.2,0.2-0.3,0.5-0.4,0.8c-0.1,0.3-0.1,0.6-0.1,1
		v13.9h3.1v-5.3h5.4v5.3H294.7 M286.2,124.3v-4.4c0-0.2,0.1-0.4,0.2-0.6s0.4-0.3,0.6-0.3h3.8c0.2,0,0.4,0.1,0.6,0.3
		c0.1,0.1,0.2,0.4,0.2,0.6v4.4H286.2z"/>
	<path id="XMLID_98_" class="st2" d="M227,117.6c-0.1-0.3-0.3-0.6-0.4-0.8c-0.2-0.2-0.4-0.4-0.7-0.5c-0.3-0.1-0.5-0.2-0.8-0.2h-7.5
		c-0.3,0-0.5,0-0.8,0.2c-0.3,0.1-0.5,0.3-0.7,0.5c-0.2,0.2-0.3,0.5-0.4,0.8c-0.1,0.3-0.2,0.6-0.2,1V130c0,0.3,0.1,0.7,0.2,1
		c0.1,0.3,0.3,0.6,0.4,0.8c0.2,0.2,0.4,0.4,0.7,0.5c0.3,0.1,0.5,0.2,0.8,0.2h7.5c0.3,0,0.5-0.1,0.8-0.2c0.3-0.1,0.5-0.3,0.6-0.5
		c0.2-0.2,0.3-0.5,0.4-0.8c0.1-0.3,0.2-0.6,0.2-1v-11.4C227.2,118.2,227.1,117.9,227,117.6 M224,128.7c0,0.2-0.1,0.4-0.2,0.6
		c-0.1,0.1-0.4,0.3-0.6,0.3h-3.7c-0.2,0-0.4-0.1-0.6-0.3c-0.1-0.1-0.2-0.4-0.2-0.6v-8.8c0-0.2,0.1-0.4,0.2-0.6
		c0.1-0.1,0.4-0.3,0.6-0.3h3.7c0.2,0,0.4,0.1,0.6,0.3c0.1,0.1,0.2,0.4,0.2,0.6V128.7z"/>
	<polyline id="XMLID_99_" class="st2" points="366.8,116.1 363.5,116.1 360.4,123.5 357.4,116.1 354.1,116.1 358.9,127.4 
		358.9,132.4 362,132.4 362,127.4 366.8,116.1 	"/>
	<path id="XMLID_100_" class="st3" d="M159.3,236.9c-4-10.8-5.6-24.4-2.3-27.5c2.6-2.4,14.2,0,30,14.8c-3.2-0.7-5.8-0.8-7.4-0.8
		c-1.4,0-1.4,0.6-1.1,0.9c4.4,3.8,7.8,9.1,8.6,10.4c4.9-3.8,10.3-7.3,16.2-10.2c-16.2-16.4-33.7-23.9-43.9-20.2
		c-7.4,2.7-7.7,18.7-0.9,33C159.4,238.9,159.6,237.8,159.3,236.9"/>
	<path id="XMLID_101_" class="st3" d="M334.5,204.2c-10.2-3.7-27.7,3.8-43.9,20.2c5.9,3,11.3,6.4,16.2,10.2
		c0.8-1.2,4.2-6.5,8.6-10.4c0.3-0.3,0.3-0.9-1.1-0.9c-1.6,0-4.1,0.1-7.4,0.8c15.8-14.7,27.4-17.1,30-14.8c3.4,3.1,1.8,16.7-2.3,27.5
		c-0.4,0.9-0.1,2.1,0.7,0.3C342.2,222.9,341.9,206.9,334.5,204.2"/>
	<path id="XMLID_102_" class="st0" d="M220.2,237.5c7.9,3.6,13.9,11.5,17.9,21.5c0.4-0.9,0.9-1.8,1.3-3c4-10.7,2.7-24.3,7.4-24.3
		c4.7,0,3.4,13.6,7.4,24.3c0.4,1.2,0.9,2.1,1.3,3c4-9.9,10.1-17.9,17.9-21.5c19.2-8.9,46.8,11.2,61.4,37.2
		c-7.7-27.5-39.5-60.3-88.1-60.3s-80.4,32.8-88.1,60.3C173.5,248.7,201,228.7,220.2,237.5"/>
	<path id="XMLID_103_" class="st3" d="M205.1,253.2c-4.2-1.4-7.3-1.6-7.4-1.6c-0.4,0-0.8-0.3-0.9-0.7c-0.1-0.4,0.1-0.8,0.7-1
		c9.1-3.2,20-0.5,27.4,7.5c2.6,2.8,4.9,5.3,8.3,5.5c1.7,0.1,3.4-1.1,4.9-3.8c-4-9.9-10.1-17.9-17.9-21.5
		c-19.2-8.9-46.8,11.3-61.5,37.3c-0.6,2.3-1.1,4.7-1.4,7c-0.6,4.9,0.3,9.7,3.5,13.4C157.6,278.2,182.1,253.6,205.1,253.2"/>
	<path id="XMLID_104_" class="st3" d="M260.6,262.9c3.4-0.2,5.8-2.7,8.3-5.5c7.4-8.1,18.2-10.8,27.4-7.5c0.6,0.2,0.8,0.6,0.7,1
		c-0.1,0.4-0.4,0.7-0.9,0.7c0,0-3.2,0.2-7.4,1.6c23,0.4,47.5,25,44.3,42c3.2-3.7,4.1-8.6,3.5-13.4c-0.3-2.4-0.8-4.7-1.4-7
		c-14.6-26-42.3-46.1-61.5-37.3c-7.9,3.6-13.9,11.5-17.9,21.5C257.2,261.8,258.9,263,260.6,262.9"/>
	<path id="XMLID_106_" class="st3" d="M275.5,282.3c6.9,0,12.4-5.6,12.4-12.4c0-1.4-0.3-2.8-0.7-4.1c0.9-0.3,1.6-0.4,1.8-0.4
		c1.8-0.4,2.2,1.2,2.4,2.7c1,7.3-3,14.1-10.3,16.3c-7.3,2.2-14.7-1.8-16.8-8.9C266.4,279.4,270.6,282.3,275.5,282.3"/>
	<path id="XMLID_107_" class="st2" d="M275.6,278c1.7-0.5,4.2-1.8,5.5-3.9c0.2,0,0.4-0.1,0.5-0.2c1.5-0.7,2.1-2.4,1.4-3.9
		c-0.2-0.4-0.4-0.7-0.7-1c0.7-1,2.4-2.2,3.6-2.7c0.5-0.2,0.9-0.4,1.3-0.5c0.4,1.3,0.7,2.7,0.7,4.1c0,6.9-5.6,12.4-12.4,12.4
		c-4.9,0-9.2-2.8-11.2-7C267.6,279,274,278.5,275.6,278"/>
	<path id="XMLID_108_" class="st3" d="M279.2,268.6c-1.5,0.7-2.1,2.4-1.4,3.9c0.7,1.5,2.4,2.1,3.9,1.4c1.5-0.7,2.1-2.4,1.4-3.9
		c-0.3-0.7-0.9-1.3-1.6-1.5C280.7,268.2,279.9,268.2,279.2,268.6"/>
	<path id="XMLID_112_" class="st3" d="M218.3,282.3c-6.9,0-12.4-5.6-12.4-12.4c0-1.4,0.3-2.8,0.7-4.1c-0.9-0.3-1.6-0.4-1.8-0.4
		c-1.8-0.4-2.2,1.2-2.4,2.7c-1,7.3,3,14.1,10.3,16.3c7.3,2.2,14.7-1.8,16.8-8.9C227.5,279.4,223.2,282.3,218.3,282.3"/>
	<path id="XMLID_113_" class="st2" d="M218.3,278c-1.7-0.5-4.2-1.8-5.5-3.9c-0.2,0-0.4-0.1-0.5-0.2c-1.5-0.7-2.1-2.4-1.4-3.9
		c0.2-0.4,0.4-0.7,0.7-1c-0.7-1-2.4-2.2-3.6-2.7c-0.5-0.2-0.9-0.4-1.3-0.5c-0.4,1.3-0.7,2.7-0.7,4.1c0,6.9,5.6,12.4,12.4,12.4
		c4.9,0,9.2-2.8,11.2-7C226.3,279,219.9,278.5,218.3,278"/>
	<path id="XMLID_114_" class="st3" d="M212.4,268.4c-0.7,0.3-1.3,0.8-1.6,1.5c-0.7,1.5,0,3.2,1.4,3.9c1.5,0.7,3.2,0,3.9-1.4
		c0.7-1.5,0-3.2-1.4-3.9C214,268.2,213.1,268.2,212.4,268.4"/>
	<path id="XMLID_115_" class="st3" d="M246.9,293.7c-36.1,0-68.4,27.7-32.1,39.7c-3.4-3.8-5.9-8.5-6.7-12.6
		c-0.2-1.1-0.6-2.1-1.3-2.1c-0.3,0-0.5-0.1-0.7-0.2c-0.8-0.5-1.1-1.6-0.6-2.4c3.7-5.6,10.7-5.9,11.3-5.9c1.3,0,2.4,1.3,2.2,2.6
		c-0.1,1.3-1.4,2.1-2.6,2.1c-0.9,0-4,0.4-2.9,3.1c1.8,4.6,9.3,15.8,18.1,12.5c0.4-0.2,0.8-0.3,1.3-0.5c-2.5-1.2-4.9-3.2-6.5-5.1
		c-1.2-1.5-2.2-3.1-3.2-4.7c-2-3.3-0.3-8.1,5.5-10.4c5.8-2.2,12-3.3,18.3-3.3c6.3,0,12.5,1,18.3,3.3c5.8,2.3,7.5,7,5.5,10.4
		c-1,1.6-2,3.3-3.2,4.7c-1.6,1.9-4,3.9-6.5,5.1c1.3,0.5,2.6,1.1,3.7,1.8c4.9,2.5,12.4-3.2,13.7-6.2c0.6-1.2,1.3-1.7,2.1-1.7
		c0.9,0,1.6,0.7,1.9,1.5c0.7,2.8-0.7,5.6-3.3,7.9C315.4,321.4,283,293.7,246.9,293.7"/>
	<path id="XMLID_116_" class="st3" d="M230.5,338c-2.1,0-2.7,2.3-0.8,3c5.3,1.8,11.3,2.8,17.3,2.8c6,0,11.9-0.9,17.3-2.8
		c1.9-0.7,1.3-3-0.8-3H230.5"/>
	<polygon id="XMLID_117_" class="st0" points="384.4,246 384.3,246 383,242.1 380.8,242.1 380.8,248.1 382,248.1 382,243.3 
		382.1,243.3 383.8,248.1 384.9,248.1 386.7,243.3 386.7,248.1 387.9,248.1 387.9,242.1 385.8,242.1 	"/>
	<polygon id="XMLID_118_" class="st0" points="374.9,243.2 376.7,243.2 376.7,248.1 378,248.1 378,243.2 379.8,243.2 379.8,242.1 
		374.9,242.1 	"/>
</g>
</svg>
