<?xml version="1.0" encoding="utf-8"?>
<!-- Generator: Adobe Illustrator 19.0.0, SVG Export Plug-In . SVG Version: 6.00 Build 0)  -->
<svg version="1.1" id="Layer_1" xmlns="http://www.w3.org/2000/svg" xmlns:xlink="http://www.w3.org/1999/xlink" x="0px" y="0px"
	 viewBox="0 0 500 500" style="enable-background:new 0 0 500 500;" xml:space="preserve">
<style type="text/css">
	.st0{fill:#FFC527;}
	.st1{fill:#222720;}
</style>
<g id="XMLID_1_">
	<rect id="XMLID_3_" x="67.5" y="67.5" class="st0" width="365" height="365"/>
	<path id="XMLID_6_" class="st1" d="M353.2,194.2c-9.1-10.1-21.9-15.6-35.9-15.6c-18.4,0-27.7,8.3-33.3,15v-52.8h-35.5v19.7h8.8
		v123.5h25.5v-14.1c7.2,10.9,18.7,16.7,33.6,16.7c15.2,0,28.1-5.4,37.4-15.6c8.8-9.6,13.5-23.2,13.5-38.3
		C367,217.6,362.2,204,353.2,194.2z M340.3,232.5c0,7.9-2.8,15.2-7.8,20.7c-5.4,6-12.8,9-21.4,9c-13.5,0-28.1-9.2-28.1-29.7
		s14.5-29.7,28.1-29.7c8.6,0,15.9,3.2,21.4,9C337.5,217.3,340.3,224.7,340.3,232.5z"/>
	<path id="XMLID_7_" class="st1" d="M232.2,262.4c-5.2,0-9.1-2.8-11.6-5.6c-1.3-1.6-24.6-29-24.6-29l44.3-46.8h-34.6l-38.2,41.1
		v-81.3h-35.4v19.7h8.8v123.4h26.6v-50.5l29,35.4c9.1,12.4,16.1,16.4,28.6,16.4c2.6,0,10.5-0.2,13.7-1.1l0.5-0.1v-21.5
		C239.5,262.4,233.3,262.4,232.2,262.4z"/>
	<polygon id="XMLID_8_" class="st1" points="175.1,304.8 175.1,325.7 152.2,325.7 152.2,304.8 141.1,304.8 141.1,357.2 152.2,357.2 
		152.2,336.3 175.1,336.3 175.1,357.2 186.2,357.2 186.2,304.8 	"/>
	<path id="XMLID_11_" class="st1" d="M221.4,304.1c-14.7,0-26.8,12-26.8,26.9c0,14.8,12,26.9,26.8,26.9c14.8,0,26.8-12,26.8-26.9
		C248.3,316.2,236.3,304.1,221.4,304.1z M237.2,330.9c0,8.8-7.1,15.8-15.7,15.8c-8.6,0-15.7-7.1-15.7-15.8s7.1-15.8,15.7-15.8
		C230.2,315.1,237.2,322.3,237.2,330.9z"/>
	<polygon id="XMLID_12_" class="st1" points="300.1,304.8 283.8,327.5 268.3,304.8 257.1,304.8 257.1,357.2 268.3,357.2 
		268.3,324.3 283.8,347 299.5,324.2 299.5,357.2 310.7,357.2 310.7,304.8 	"/>
	<polygon id="XMLID_13_" class="st1" points="361.3,315.3 361.3,304.8 322.8,304.8 322.8,357.2 361.3,357.2 361.3,346.7 
		333.8,346.7 333.8,336.3 354.5,336.3 354.5,325.7 333.8,325.7 333.8,315.3 	"/>
</g>
</svg>
