<?xml version="1.0" encoding="utf-8"?>
<!-- Generator: Adobe Illustrator 19.0.0, SVG Export Plug-In . SVG Version: 6.00 Build 0)  -->
<svg version="1.1" id="Layer_1" xmlns="http://www.w3.org/2000/svg" xmlns:xlink="http://www.w3.org/1999/xlink" x="0px" y="0px"
	 viewBox="0 0 500 500" style="enable-background:new 0 0 500 500;" xml:space="preserve">
<style type="text/css">
	.st0{fill:#F00000;}
</style>
<g id="XMLID_1_">
	<path id="XMLID_12_" class="st0" d="M387.7,194.4c-0.2,0-0.4,0-0.6,0c-0.6,0.1-1.3,1-1.8,1c-1.3,0.2-1.7-0.9-2.8-0.8
		c-0.2,0-0.2,0.5-0.3,0.8c-3.7,0-5.2,0.6-7.5-0.8c-1.7,1.1-2.2,0.5-4.6,1.3c-4.6,1.5-10.2,2.7-14.9,4.6c-1.2,0.5-1.6,2.2-1.8,2.3
		c-1.3,1-1.9,0.4-1,1.8c0.1,0.2,0.7,0.9,0.8,1c0-0.2,0.2-0.3,0.2-0.3c0.1-0.3-0.2-1.1-0.2-1.5c0.8-0.6,6.3-2.6,8-2.6
		c-1.8,1.6-2.6,3.3-5.4,2.6c-1.5,2.1-1.5,3.6-3.1,5.9h-0.8c-0.8-0.4-0.6-0.9-0.4-1.1c-0.1,0.1-0.4,0.3-0.9,0.6
		c-0.5,0.3-0.9,0.2-1.5,0.5c-3.1,1.6-8.2,3.6-9,6.7c-0.5-0.5-1-0.8-1.5-1.3c-0.8,2-1.8,1.7-3.9,2.3c-0.7,4.1-2.8,7.4-6.7,9.3
		c0.3,2.3,0.1,3.5-2.1,3.6c1.1,2-0.3,3.2-1,5.2c0,0-0.5,2.2,0.3,3.6c-1-0.3-1.5-0.1-2.3-0.3c0.1,0.1,0.1,0.6,0.3,0.8
		c0.4,0.3,0.8,0.6,1,0.8c0.4,0.2,0.6,0.1,1,0.2v0.8c-0.4,0-0.6,0-1,0c1.3,2.5,0,5.5-0.5,7.5c0.3,0.3,1.4,1,1.5,1.3
		c0.3,0.7,0.1,3.2,0.5,5.2c0.7,3.1,2.7,5.4,3.1,8.8c0.1,1.1-0.8,1.6-0.8,1.8c-0.2,1.3,0.5,2.2,0.8,3.3c-1.1,1-1.2,1.2-1.8,2.8
		c0.5,0,2.1,0.2,2.1,0.2c1.3,2.1,0.9,4.7,2.1,7.5c0.3,0.7,2,1.8,2.3,2.6c0.5,1.1,0.2,2.3,0.8,3.3c0.4,0.9,2.3,2,2.6,2.9
		c0.1,0.2-0.1,0.9,0,1c1.8,1.4,1.3-0.2,1.5-1c0.7-2.1,2.1,0.2,2.1,0.2s-1.1,0.9,1,1.8c2.6,1.1,4.7,2.7,7,3.9c-0.6,0-1.2-0.1-1.8,0
		v0.8c2.3,0.7,2.5,2.1,4.1,0.8v1.5c1.3,0.6,2.4-0.5,3.6,0c1.4,0.7,1.3,2,1,3.1c2.4,0.4,4.3,0.9,6.2,1.5c3.4,1.1,7.8,2,13.2,1.8
		c0.1,0.2,0.4,1.2,0.5,1.3h0.5c1.9-0.7,6.8-0.3,8.3-1c0.4-0.2,1-1.4,1.3-1.8c1.5,0.8,2.6,0.7,4.4,0.2c0,0-0.8,1.6,0.5,1.3
		c0.4-0.1,1.8-1.7,2.1-1.8c1.2-0.3,3.3,0.1,5.4-0.3c2.2-0.4,5.6-2.1,7.2-2.3c1.1-0.2,1.5,0.7,2.8,0c0.7-0.4-2-0.7-2.8-1
		c0.7-0.7,2.2-1.2,2.8-2.1c0.7-0.9,0.7-2.2,1.5-2.8c1.5-1.2,3.5-2.4,5.7-2.9c1.1-3.3,3.9-3.5,5.7-5.9c2.7-3.9,5.7-8.6,7.7-12.9
		c0.7-1.5,0.6-3,1.3-4.4c0.2,0,0.7,0.1,1,0c0.3-0.1,0.2-0.6,0.5-0.8c-0.3-2.6-0.6-4.2-1.3-5.9c1.3-1.3,1.3-3.8,0.5-4.4
		c1.8-1,1.3-2.6-0.5-3.4c2.7-0.8,1.8-1.9,0.8-3.9c1.4-0.4,1.3-0.9,2.1-1.3c-0.3-1.5-0.6-1.7-1.8-2.3c0.3-0.8,1.1-1.5,0.3-2.8
		c-0.1-0.1-0.8-0.2-1-0.2c0,0,1.2-0.9,1.8-1c-1.8-0.7-2-1.2-1-2.8c-1-0.5-1.6-0.6-2.6-1c0,0,1.1-0.7,1.3-0.8
		c-0.6-1.1-0.9-1.1-2.1-1.8c1.6-2.9-2.9-3.9-0.3-5.7c-2.8-1.3-2.9-5-5.9-5.2c0.5-0.2,2.6-1.2,3.1-1.3c-2.4-0.1-4.1-2.7-6.7-4.1
		c0.2,0,1.6-0.7,2.1-0.8c-2-1.1-1.6-2.3-2.3-3.9c-0.5-1.1-4.2-3.6-5.4-4.4c1-0.3-0.5-2.5-0.8-3.3c-1.7-0.1-2.7-0.3-3.9-0.3
		c0.3-1.1,0.2-1.4,0.5-2.3c-2.1-1.3-4-3.6-7.2-3.6c0.1-0.5-0.9-2.7-1.8-3.1c-1.3-0.5-3.5,0.1-4.6,0.2
		C393.2,196.1,390.5,194.3,387.7,194.4z M375.3,199.9c2.5-0.1-0.7,1-1.5,1l-0.5,1.3c1.6-0.2,2.3-0.1,3.3,0.8
		c0.4-0.3,0.1-0.7,0.3-1.3c2.5-0.4,4.4,0.8,5.9,1c1.8,0.2,0.1-1.3,1-1.5c2-0.5,15.3,5.7,16,6.7c0.3,0.3,0,1.5,0.3,1.8
		c0.1,0.1,0.8-0.1,1,0c1,0.3,2.6,3,3.1,3.9c0,0,0.2,1.1,0.2,1.3c-2.1,0.5-2.9,0.8-4.9,0.3c0,0,1.2-0.3,1-0.3c1.5-0.4,3.5-1,1-1.8
		c-0.8-0.3-2.5-0.3-3.3-0.8c-1.1-0.6-0.6-3-2.1-3.4c-2.1-0.5-2.7,0.7-2.8,1.8c-2.5,0.1-3.7-1.7-5.7-2.3c-1.3-0.4-2.9-0.3-3.9-0.5
		c-3.3-0.8-7.7-1.4-11.9-0.5c-4.1,0.9-12.5,6.9-16.7,4.6c-0.5,0.4,0.5,1.3-1.8,2.3c0.1-0.1,0.3-1.5,0.8-2.1c0.7-1,1.5-0.3,2.6-1
		c0.5-0.3,0-0.9,0-1.5c2.4-0.8,4.1-1.6,6.7-2.6c3.4-1.4,4.7-1.3,9.5-1.3c0.1-0.4,0.2-1.4,0.5-1.6c0.3-0.2,1.9-0.2,2.1-0.2
		c-1.8-0.3-5,1.2-6.7,0.8c-0.5-0.1,0.1-1-0.3-1.3l0.5-1c0.8,0.2,1.8,0.3,1.8,0.3C372.7,201.9,372.9,200,375.3,199.9z M390.5,200.4
		c0.8,0.2,2.1,1.2,2.6,1.3c3.5,0.8,5.8-0.2,9.8,1.3c1.2,0.5,4,5.3,4.9,5.7c0.4,0.1,1.2-0.2,1.5,0c0.2,0.1-0.1,1.1,0,1.3
		c0.4,1.1,2.1,2.1,2.6,3.1c0.3,0.8-0.2,2.2,0,2.6c0.1,0.3,1.3,0.6,1.6,0.8l-1,0.8c-1.4-1-4.3-2.8-5.2-4.4c-0.2-0.4,0-1.2-0.2-1.6
		c-0.8-1.1-5.3-4.1-6.7-5.2c-0.3-0.2-0.3-1.4-0.5-1.5c-0.4-0.3-1.3,0.1-1.8,0C395.6,203.9,391.9,201.3,390.5,200.4z M382.7,200.9
		c0.4,0,0.5,0.4,0.1,0.3c0.6,0.3-1-0.1-0.3-0.3L382.7,200.9z M356,202c0.8,0.1,1.8,0.3,0.8,0.5C355.8,202.6,356,202,356,202z
		 M374.8,210.7c1.4-0.1-0.7,1.8-1.8,1.8C371.4,212.5,374.6,210.7,374.8,210.7z M363.8,213.5c1,0,2,0.5,2.4,0.6
		c4.1,0.6,6.1-1.3,10.3-0.2c0.9,0.2,1.7,1.7,2.6,1.8c1.8,0.2,3.5-0.9,6.2,0c2.5,0.8,5.9,4.2,8.3,4.6c3.5,0.7,2-1.5,0.2-2.3
		c0.3-1.6,0.3-1.7-1.8-2.1c0.3-0.6,0.8-1.1,1-1.5c0,0,0.6,0,0.2,0.2c0.9,0.6,2,0.6,3.1,1.3c1.4,0.9,1.9,3.2,2.3,4.4
		c-0.3-0.1-0.7-0.3-1.3-0.3c0,0.2,0.1,1.2,0,1.3c2.8,2.6,4.8,5.9,7.5,8.5c-0.3,0-1.8,0.5-2.1,0.5l-0.3,0.5c3.7,0.2,3.8,2.1,4.4,6.2
		c-0.2-0.1-1-0.3-1-0.3v1.3c4.2,5.6,1.8,8.8,3.9,15.7c-0.7,0.7-1.9,1.4-2.1,2.6c-0.1,0.8,0.8,2.5,0.8,2.9c-0.1,1-1.6,2.6-2.1,3.3
		c1.9,1,3.6,2.1,2.8,4.6c-1.3-0.1-2.9,0.1-4.4,0c-0.1,2.3,1.7,2.1,1.3,4.4c-0.4,2-10.2,5.6-5.9,6.4c-0.9,0.5-2.7,2.6-1.3,1.8
		l-0.5,0.8c-3.1-0.7-4,1.4-6.7,2.6c-5.4,2.4-16.9,2-22.4,0.3c-1-0.3-1.7-2.1-2.6-2.3c-0.9-0.2-1.8,0.4-2.3,0.2
		c-0.8-0.3-4.4-5.2-5.9-6.2c-2.2-1.3-8.4-5.6-9-8c-0.1-0.4,0.6-0.7,0.5-1.3c-0.2-2.4-2.2-3.7-1.5-6.4c-0.5-0.2-0.9,0-1-0.5
		c-0.2-1,0.5-1.3,0.5-1.8c0-0.4-1-1-1-1.5c-0.4-2.7,0-4.4-0.8-7c0.9-0.5,1.7-0.8,2.1-1.8c0.8-2.3-0.3-3.3,1.5-4.9
		c-2.2-6.2-4.4-1.3-8-1.5c1.2-2.5,1-6,2.3-8.5c0.7-1.4,3.9-3.7,5.2-4.6c0.7-0.5,1.9-0.2,2.6-0.8c0.6-0.5-0.2-1.3,0.2-2.1
		c0.5-0.8,2.4-1.9,3.4-2.3c0-0.2-0.2-1.1,0-1.3c0.9-1.2,4-1.4,5.7-1.8c0,0,0.2-0.6,0.2-0.8c-0.7-0.3-0.7-0.6-1-0.8
		c3.6-0.4,6-1.9,9.5-2.3c-2.7-0.8-7.1-0.1-9.5,0.2v-1c1.4,0,2.4-0.4,3.1-0.5v-0.3L363.8,213.5z M407.8,217.7h0.5
		c1,1.7,2.7,2.7,3.3,4.6c0,0,0.7,0.9,0,0.8C410,222.8,409,219.2,407.8,217.7z M412.5,245.3c0.8,0.4,0.2,1.5,0.2,1.5
		C411.6,247.3,412.7,245.7,412.5,245.3z"/>
	<path id="XMLID_13_" class="st0" d="M407.2,202.2c0.4,0,0.4,0.5,0,0.5C406.8,202.7,406.8,202.2,407.2,202.2z"/>
	<path id="XMLID_14_" class="st0" d="M349.3,203.5c0.2-0.2-0.3,1.6-0.5,1.8C348.5,205.5,348.9,203.8,349.3,203.5z"/>
	<path id="XMLID_15_" class="st0" d="M344.9,206.3c0.8-0.2,0.3,0.5,0.3,0.5C344.9,206.8,344.2,206.5,344.9,206.3z"/>
	<path id="XMLID_16_" class="st0" d="M347.2,206.6c1-0.2,1.8,0.6,0.8,0.8C347.3,207.5,346.3,206.7,347.2,206.6z"/>
	<path id="XMLID_19_" class="st0" d="M366,206.9c0.3,0.1-0.3,0.5-0.3,0.5C365.8,207.2,365.6,206.7,366,206.9 M366,206.9L366,206.9"
		/>
	<path id="XMLID_20_" class="st0" d="M392.3,206.9c0.5,0,0.3,0.5-0.3,0.5C391.5,207.4,392.1,206.9,392.3,206.9z"/>
	<path id="XMLID_21_" class="st0" d="M341.3,207.6c-0.3,0.9-0.8,1.3-0.8,1.3C339.8,209.4,340.9,207.9,341.3,207.6z"/>
	<path id="XMLID_22_" class="st0" d="M343.8,207.6c1.5,0.3,0.4,0.9,0.8,1.3C344.6,208.9,342.8,207.4,343.8,207.6z"/>
	<path id="XMLID_23_" class="st0" d="M365,207.6c0.2,0,0.8,0.6,0.3,0.5C364.7,208.1,364.5,207.6,365,207.6z"/>
	<path id="XMLID_24_" class="st0" d="M339.7,209.4c0.5-0.2,0.1,2.2-0.3,2.6c-0.4,0.5-1.2,0.5-1.8,0.8c1.6,3.1-2.9,4.2-5.9,4.1
		c0,0-0.8,0.2-0.3-0.3c1-0.9,2.3-0.5,3.6-1.3c0.1-0.1,1.8-3.6,0.8-3.6C340.2,212.6,337.5,210.3,339.7,209.4z"/>
	<path id="XMLID_25_" class="st0" d="M371.7,214.3c0.4,0,0.4,1-0.3,1C370.8,215.4,371.3,214.3,371.7,214.3z"/>
	<path id="XMLID_26_" class="st0" d="M375.5,214.8c0.6,0,0.7,0.5,0.3,0.5C375.3,215.4,375,214.9,375.5,214.8z"/>
	<path id="XMLID_27_" class="st0" d="M368.1,215.9c0.4,0,4.9,0,2.8,0.8C369.7,217.1,366.8,215.9,368.1,215.9z"/>
	<path id="XMLID_28_" class="st0" d="M419.6,219c0.3,0.1,1.1,1.2,0.8,1C419.9,219.8,419.2,218.8,419.6,219z"/>
	<path id="XMLID_29_" class="st0" d="M329.4,219.2c1.1,0.6,1.8,0.9,0.3,1C327.8,220.4,328.8,220.2,329.4,219.2z"/>
	<path id="XMLID_30_" class="st0" d="M327.9,220.8l-1,1.3C327.2,221.7,327.5,221.1,327.9,220.8z"/>
	<path id="XMLID_31_" class="st0" d="M357,221l-0.5,1C356.7,221.3,356.4,221.4,357,221z"/>
	<path id="XMLID_32_" class="st0" d="M323.7,233.1c0.5,0.1,0.8,1.4,0.3,1.3C323.5,234.3,323.2,233,323.7,233.1z"/>
	<path id="XMLID_33_" class="st0" d="M320.9,237c0.5,0,0.8,0.5,0.3,0.5C320.7,237.5,320.4,237,320.9,237z"/>
	<path id="XMLID_34_" class="st0" d="M326.1,266.9c0.6,0,0.7,0.5,0.3,0.5C326.1,267.4,325.5,266.8,326.1,266.9z"/>
	<path id="XMLID_35_" class="st0" d="M326.3,267.7c0.3,0.1,0,1.1,0,1C325.9,268.7,326,267.5,326.3,267.7z"/>
	<path id="XMLID_36_" class="st0" d="M403.6,271.8c0.5-0.2-0.3,1.1-0.8,1.3C402.4,273.2,403.3,271.9,403.6,271.8z"/>
	<path id="XMLID_37_" class="st0" d="M338.4,290.6c0.3,0.1,0.7,1.2,0.3,1C338.6,291.6,338,290.4,338.4,290.6z"/>
	<path id="XMLID_38_" class="st0" d="M340,292.7c0.3,0.1,0.4,0.6,0,0.5C340,293.2,339.3,292.5,340,292.7z"/>
	<path id="XMLID_39_" class="st0" d="M342,295c0.3,0.1,1,1.2,0.5,1C342.3,295.9,341.5,294.8,342,295z"/>
	<path id="XMLID_40_" class="st0" d="M345.4,298.3c0.3,0.1,0.9,1,0.5,0.8C345.8,299.1,344.9,298.1,345.4,298.3z"/>
	<path id="XMLID_41_" class="st0" d="M353.6,299.1c1.4,0.1,0.3,1.1,0.5,1.3C354.1,300.4,352.5,299,353.6,299.1z"/>
	<path id="XMLID_42_" class="st0" d="M347.2,299.9c0.3,0.1,0.8,0.6,0.3,0.5C347.2,300.3,346.7,299.8,347.2,299.9z"/>
	<path id="XMLID_43_" class="st0" d="M348.5,300.9c0.4,0,0.4,0.3,0,0.3C348.1,301.2,348.1,300.9,348.5,300.9z"/>
	<path id="XMLID_44_" class="st0" d="M349.8,301.7c0.4,0.2,1.4,0.9,1,0.8C350.4,302.3,349.5,301.6,349.8,301.7z"/>
	<path id="XMLID_48_" d="M153.3,275.9v12.9h3.3c0.6,0,4.2,0,4.2-3.6c0-1.5-1-2.8-2.6-3v-0.1c1.7-0.6,2.2-1.7,2.2-2.9
		c0-1.7-1.1-3.2-3.8-3.2H153.3z M154.5,277h2.1c1.4,0,2.6,0.6,2.6,2.2c0,1.4-0.9,2.4-2.6,2.4h-2.1V277z M154.5,282.7h2.1
		c1.7,0,3,0.9,3,2.5c0,2.4-2,2.6-3.1,2.6h-1.9V282.7z"/>
	<path id="XMLID_52_" d="M153.3,275.9h-0.2V289h3.5c0.3,0,1.4,0,2.4-0.5c1-0.5,2-1.5,2-3.3c0-1.6-1.1-2.9-2.8-3.3l0,0.2h0.2v-0.1
		h-0.2l0.1,0.2c1.7-0.6,2.4-1.8,2.4-3.1c0-0.9-0.3-1.8-0.9-2.4c-0.7-0.6-1.7-1-3-1h-3.6v0.2H153.3v0.2h3.4c1.3,0,2.2,0.4,2.7,0.9
		c0.6,0.5,0.8,1.3,0.8,2.1c0,1.1-0.5,2.2-2.1,2.7l-0.1,0v0.2v0.2l0.2,0c1.5,0.3,2.4,1.4,2.4,2.8c0,1.7-0.8,2.5-1.8,3
		c-0.9,0.4-2,0.4-2.3,0.4h-3.1l0-12.6H153.3v0.2V275.9z M154.5,277v0.2h2.1c0.7,0,1.3,0.2,1.7,0.5c0.4,0.3,0.7,0.8,0.7,1.5
		c0,1.3-0.8,2.2-2.4,2.2h-1.8l0-4.4H154.5v0.2V277h-0.2v4.9h2.3c0.9,0,1.6-0.3,2.1-0.8c0.5-0.5,0.7-1.2,0.7-1.9
		c0-0.8-0.3-1.5-0.8-1.9c-0.5-0.4-1.2-0.6-2-0.6h-2.1h-0.2v0.2H154.5z M154.5,282.7v0.2h2.1c1.7,0,2.8,0.8,2.8,2.3
		c0,1.1-0.5,1.7-1,2c-0.6,0.3-1.3,0.4-1.9,0.4h-1.7v-4.9H154.5v0.2V282.7h-0.2v5.3h2.2c0.6,0,1.4,0,2.1-0.4c0.7-0.4,1.3-1.1,1.3-2.3
		c0-0.9-0.3-1.6-0.9-2c-0.6-0.5-1.4-0.7-2.3-0.7h-2.1h-0.2v0.2H154.5z"/>
	<path id="XMLID_55_" d="M169.6,284.4V284c0-1.6-0.3-4.8-3.8-4.8c-2.4,0-4.1,1.7-4.1,4.7c0,3.2,1.6,5,4.3,5c1,0,1.9-0.1,2.8-0.5
		v-1.1c-0.9,0.5-1.9,0.6-2.8,0.6c-2.7,0-3.1-2.4-3.1-3.5H169.6z M163,283.4c0-1.6,1-3.3,2.9-3.3c2.4,0,2.6,2.5,2.6,3.3H163
		L163,283.4z"/>
	<path id="XMLID_58_" d="M169.6,284.4h0.2V284c0-0.8-0.1-2.1-0.6-3.1c-0.5-1.1-1.6-1.9-3.4-1.9c-1.2,0-2.3,0.5-3.1,1.3
		c-0.8,0.9-1.2,2.1-1.2,3.6c0,1.7,0.4,3,1.2,3.9c0.8,0.9,1.9,1.4,3.3,1.4c1,0,1.9-0.1,2.9-0.5l0.1-0.1v-1.2V287l-0.3,0.2
		c-0.9,0.5-1.8,0.6-2.7,0.6c-1.3,0-1.9-0.5-2.4-1.2c-0.4-0.7-0.5-1.5-0.5-2.1l0-0.1l-0.2,0v0.2h6.9v-0.2H169.6v-0.2h-6.9l0,0.2
		l0,0.1c0,0.6,0.1,1.5,0.6,2.3c0.5,0.8,1.3,1.4,2.7,1.4c1,0,1.9-0.1,2.9-0.6l-0.1-0.2h-0.2v1.1h0.2l-0.1-0.2
		c-0.9,0.4-1.8,0.5-2.7,0.5c-1.3,0-2.3-0.4-3-1.2c-0.7-0.8-1.1-2-1.1-3.6c0-2.9,1.6-4.5,3.9-4.5c1.7,0,2.5,0.7,3,1.7
		c0.5,0.9,0.5,2.1,0.5,2.9v0.4H169.6v-0.2V284.4z M163,283.4l0.2,0c0-0.8,0.3-1.5,0.7-2.1c0.4-0.6,1.1-0.9,2-1c1.1,0,1.6,0.5,2,1.1
		c0.3,0.6,0.4,1.4,0.4,1.8l0,0.1l0.2,0v-0.2H163h0V283.4l0.2,0L163,283.4v0.2h0l5.6,0l0-0.2l0-0.1c0-0.4-0.1-1.3-0.4-2
		c-0.4-0.7-1.1-1.4-2.3-1.4c-1,0-1.8,0.5-2.3,1.1c-0.5,0.7-0.8,1.5-0.8,2.3l0,0.2h0.2V283.4z"/>
	<rect id="XMLID_59_" x="170.7" y="274.8" width="1.2" height="14"/>
	<polygon id="XMLID_60_" points="170.7,274.8 170.5,274.8 170.5,289 171.9,289 172.1,289 172.1,274.6 170.7,274.6 170.5,274.6 
		170.5,274.8 170.7,274.8 170.7,275 171.7,275 171.7,288.6 170.9,288.6 170.9,274.8 170.7,274.8 170.7,275 	"/>
	<rect id="XMLID_61_" x="173.7" y="274.8" width="1.2" height="14"/>
	<polygon id="XMLID_62_" points="173.7,274.8 173.5,274.8 173.5,289 174.9,289 175.1,289 175.1,274.6 173.7,274.6 173.5,274.6 
		173.5,274.8 173.7,274.8 173.7,275 174.7,275 174.7,288.6 173.9,288.6 173.9,274.8 173.7,274.8 173.7,275 	"/>
	<polygon id="XMLID_63_" points="182.4,288.8 188.9,288.8 188.9,287.7 183.7,287.7 183.7,275.9 182.4,275.9 	"/>
	<polygon id="XMLID_64_" points="182.4,288.8 182.4,289 189.1,289 189.1,287.7 189.1,287.5 183.9,287.5 183.9,275.7 182.4,275.7 
		182.2,275.7 182.2,289 182.4,289 182.4,288.8 182.7,288.8 182.7,276.1 183.5,276.1 183.5,287.9 188.7,287.9 188.7,288.6 
		182.4,288.6 182.4,288.8 182.7,288.8 	"/>
	<path id="XMLID_67_" d="M190,280.9c0.9-0.5,1.9-0.7,2.8-0.7c2.1,0,2.2,1.9,2.2,2.5v0.3h-0.6c-1.9,0-5.4,0.1-5.4,3.2
		c0,1.5,1,2.7,3.1,2.7c1,0,2.3-0.3,3.1-1.7h0v1.6h1l-0.1-2.1v-4c0-1.3-0.3-3.5-3.3-3.5c-1.1,0-2,0.2-2.8,0.6V280.9z M195,284v0.7
		c0,2.1-1.1,3.3-2.9,3.3c-1.1,0-1.9-0.8-1.9-1.8c0-1.9,2-2.2,3.7-2.2H195z"/>
	<path id="XMLID_70_" d="M190,280.9l0.1,0.2c0.9-0.5,1.8-0.7,2.7-0.7c1,0,1.4,0.4,1.7,0.9c0.2,0.5,0.3,1.1,0.3,1.4v0.1l-0.4,0
		c-1,0-2.3,0-3.5,0.5c-1.2,0.4-2.1,1.3-2.1,3c0,0.8,0.3,1.5,0.8,2c0.6,0.5,1.4,0.8,2.5,0.8c1,0,2.4-0.3,3.3-1.9l-0.2-0.1v0.2h0v-0.2
		H195v1.6v0.2h1.2h0.2l-0.1-2.3v-4c0-0.7-0.1-1.6-0.6-2.3c-0.5-0.8-1.4-1.4-3-1.4c-1.1,0-2.1,0.2-2.9,0.6l-0.1,0.1v1.2v0.4l0.3-0.2
		L190,280.9h0.2v-1.1H190l0.1,0.2c0.8-0.3,1.7-0.6,2.7-0.6c1.5,0,2.2,0.5,2.6,1.2c0.4,0.7,0.5,1.5,0.5,2.1v4l0,1.8h-0.6v-1.4V287
		h-0.2H195l-0.1,0.1c-0.7,1.4-1.9,1.6-2.9,1.6c-2,0-2.9-1.1-2.9-2.5c0-1.5,0.8-2.2,1.8-2.6c1.1-0.4,2.4-0.4,3.3-0.4h0.6h0.2v-0.5
		c0-0.3,0-1-0.3-1.6c-0.3-0.6-0.9-1.1-2.1-1.1c-1,0-2,0.2-2.9,0.7L190,280.9h0.2H190z M195,284h-0.2v0.7c0,1-0.3,1.8-0.7,2.3
		c-0.5,0.5-1.1,0.8-2,0.8c-1,0-1.6-0.7-1.6-1.6c0-0.9,0.4-1.3,1.1-1.6c0.7-0.3,1.6-0.4,2.4-0.4h1V284h-0.2H195v-0.2h-1
		c-0.9,0-1.8,0.1-2.6,0.4c-0.8,0.3-1.4,1-1.4,2c0,0.6,0.2,1.1,0.6,1.4c0.4,0.4,0.9,0.6,1.5,0.6c0.9,0,1.7-0.3,2.3-0.9
		c0.6-0.6,0.8-1.5,0.8-2.5V284v-0.2H195V284z"/>
	<path id="XMLID_73_" d="M198.1,274.8V287l-0.1,1.8h1.1l0-1.9h0.1c0.5,1.2,1.5,2.1,2.9,2.1c2.1,0,4.1-1.3,4.1-4.8
		c0-3.5-2-4.9-4.1-4.9c-1,0-2.1,0.4-2.8,1.8v-6.3H198.1z M199.3,284.1c0-3,1.7-3.9,2.8-3.9c1.1,0,2.8,0.9,2.8,3.9
		c0,3-1.7,3.9-2.8,3.9C201,288,199.3,287,199.3,284.1z"/>
	<path id="XMLID_76_" d="M198.1,274.8h-0.2V287l-0.1,1.8l0,0.2h1.3h0.2l0-2.2l-0.2,0v0.2h0.1v-0.2l-0.2,0.1c0.5,1.2,1.6,2.2,3.1,2.2
		c1.1,0,2.2-0.4,3-1.2c0.8-0.8,1.3-2.1,1.3-3.9c0-1.8-0.5-3.1-1.3-3.9c-0.8-0.8-1.9-1.2-3-1.2c-1,0-2.2,0.4-3,1.9l0.2,0.1h0.2v-6.5
		h-1.4h-0.2v0.2H198.1v0.2h0.9l0,6.1l0.4,0.1c0.8-1.4,1.8-1.7,2.7-1.7c1,0,2,0.3,2.7,1.1c0.7,0.7,1.2,1.9,1.2,3.6
		c0,1.7-0.5,2.9-1.2,3.6c-0.7,0.7-1.7,1-2.7,1c-1.3,0-2.2-0.8-2.7-2l-0.1-0.1h-0.2h-0.2l0,1.9h-0.7l0.1-1.6l0,0v-12.2H198.1v0.2
		V274.8z M199.3,284.1h0.2c0-2.9,1.6-3.7,2.6-3.7c1,0,2.6,0.8,2.6,3.7c0,2.9-1.6,3.7-2.6,3.7c-1,0-2.6-0.8-2.6-3.7H199.3H199
		c0,1.5,0.5,2.5,1.1,3.2c0.6,0.6,1.4,0.9,2,0.9c0.6,0,1.4-0.3,2-0.9c0.6-0.6,1.1-1.7,1.1-3.2c0-1.5-0.5-2.6-1.1-3.2
		c-0.6-0.6-1.4-0.9-2-0.9c-0.6,0-1.4,0.2-2,0.9c-0.6,0.6-1.1,1.7-1.1,3.2H199.3z"/>
	<path id="XMLID_77_" d="M212.3,279.7c-0.8-0.3-1.4-0.5-2.2-0.5c-1.8,0-3.2,0.8-3.2,2.3c0,1.6,1.2,2.2,2.4,2.7
		c1.3,0.6,2.1,0.8,2.1,2c0,1.1-0.8,1.7-2.1,1.7c-0.8,0-1.6-0.2-2.4-0.6l-0.1,1.1c0.9,0.3,1.7,0.4,2.5,0.4c2.5,0,3.4-1.4,3.4-2.7
		c0-1.6-1.3-2.3-2.2-2.7c-1.6-0.7-2.4-0.9-2.4-2c0-1.1,1.1-1.3,2-1.3c0.9,0,1.5,0.1,2.2,0.4L212.3,279.7z"/>
	<path id="XMLID_78_" d="M212.3,279.7l0.1-0.2c-0.8-0.4-1.5-0.5-2.3-0.5c-0.9,0-1.8,0.2-2.4,0.6c-0.6,0.4-1,1.1-1,1.9
		c0,0.8,0.3,1.5,0.8,1.9c0.5,0.4,1.1,0.7,1.7,1c0.6,0.3,1.2,0.5,1.5,0.7c0.3,0.3,0.5,0.5,0.5,1.1c0,0.5-0.2,0.8-0.5,1.1
		c-0.3,0.3-0.8,0.4-1.4,0.4c-0.7,0-1.6-0.2-2.4-0.5l-0.3-0.1l-0.1,1.4l0,0.2l0.1,0.1c0.9,0.3,1.7,0.4,2.5,0.4c1.3,0,2.2-0.4,2.8-0.9
		c0.6-0.6,0.8-1.3,0.8-2c0-1.8-1.4-2.5-2.3-2.9c-0.8-0.4-1.4-0.6-1.8-0.8c-0.4-0.3-0.5-0.5-0.5-1c0-0.5,0.2-0.7,0.5-0.9
		c0.3-0.2,0.8-0.2,1.2-0.2c0.8,0,1.5,0.1,2.1,0.4l0.3,0.1l0.1-1.2l0-0.1l-0.1-0.1L212.3,279.7l-0.2,0l-0.1,0.9l0.2,0l0.1-0.2
		c-0.7-0.3-1.4-0.5-2.3-0.5c-0.5,0-1,0.1-1.4,0.3c-0.4,0.2-0.8,0.6-0.8,1.2c0,0.6,0.3,1,0.7,1.3c0.4,0.3,1,0.5,1.9,0.9
		c0.9,0.4,2,1,2,2.5c0,1.2-0.8,2.5-3.2,2.5c-0.8,0-1.5-0.1-2.4-0.4l-0.1,0.2l0.2,0l0.1-1.1l-0.2,0l-0.1,0.2c0.9,0.4,1.7,0.6,2.5,0.6
		c0.7,0,1.3-0.2,1.7-0.5c0.4-0.3,0.7-0.8,0.7-1.4c0-0.7-0.2-1.1-0.7-1.4c-0.4-0.3-0.9-0.5-1.6-0.8c-0.6-0.3-1.2-0.5-1.6-0.9
		c-0.4-0.4-0.7-0.9-0.7-1.6c0-0.7,0.3-1.2,0.8-1.5c0.5-0.4,1.3-0.6,2.1-0.6c0.8,0,1.4,0.1,2.2,0.5L212.3,279.7l-0.2,0L212.3,279.7z"
		/>
	<rect id="XMLID_79_" x="219.7" y="275.9" width="1.2" height="12.9"/>
	<polygon id="XMLID_80_" points="219.7,275.9 219.5,275.9 219.5,289 220.9,289 221.1,289 221.1,275.7 219.7,275.7 219.5,275.7 
		219.5,275.9 219.7,275.9 219.7,276.1 220.7,276.1 220.7,288.6 219.9,288.6 219.9,275.9 219.7,275.9 219.7,276.1 	"/>
	<path id="XMLID_81_" d="M224.3,288.8v-5.5c0-1.7,1.2-3.1,2.8-3.1c2.3,0,2.3,1.6,2.3,2.8v5.8h1.2v-5.9c0-1.4-0.3-3.7-3.3-3.7
		c-0.4,0-2.2,0.1-3.1,2.1h0v-1.9h-1l0.1,2.2v7.3H224.3L224.3,288.8z"/>
	<path id="XMLID_82_" d="M224.3,288.8h0.2v-5.5c0-1.6,1.1-2.9,2.6-2.9c1.1,0,1.6,0.4,1.8,0.8c0.3,0.5,0.3,1.1,0.3,1.7l0,0.1v6h1.4
		h0.2v-6.1c0-0.7-0.1-1.7-0.5-2.5c-0.5-0.8-1.4-1.4-3-1.4c-0.5,0-2.4,0.1-3.3,2.2l0.2,0.1v-0.2h0v0.2h0.2v-1.9v-0.2h-1.2h-0.2
		l0.1,2.4l0,7.5h1.4l0,0h0.2v-0.2H224.3v-0.2h0h-0.9v-7l0-2h0.6l0,1.7v0.2h0.2h0.1l0.1-0.1c0.8-1.9,2.5-2,2.9-2
		c1.5,0,2.2,0.5,2.6,1.2c0.4,0.7,0.5,1.6,0.5,2.3v5.6h-0.7l0-5.6l0-0.1c0-0.6,0-1.3-0.3-1.9c-0.3-0.6-1-1-2.2-1c-1.7,0-3,1.5-3,3.3
		v5.5H224.3v-0.2V288.8z"/>
	<path id="XMLID_83_" d="M233.6,288.8v-5.5c0-1.7,1.2-3.1,2.8-3.1c2.3,0,2.3,1.6,2.3,2.8v5.8h1.2v-5.9c0-1.4-0.3-3.7-3.3-3.7
		c-0.4,0-2.2,0.1-3.1,2.1h0v-1.9h-1l0.1,2.2v7.3H233.6z"/>
	<path id="XMLID_84_" d="M233.6,288.8h0.2v-5.5c0-1.6,1.1-2.9,2.6-2.9c1.1,0,1.6,0.4,1.8,0.8c0.3,0.5,0.3,1.1,0.3,1.7l0,0.1v6h1.4
		h0.2v-6.1c0-0.7-0.1-1.7-0.5-2.5c-0.5-0.8-1.4-1.4-3-1.4c-0.5,0-2.4,0.1-3.3,2.2l0.2,0.1v-0.2h0v0.2h0.2v-1.9v-0.2h-1.2h-0.2
		l0.1,2.4l0.2,0h-0.2v7.5h1.4h0.2v-0.2H233.6v-0.2h-0.9v-7l0-2h0.6l0,1.7v0.2h0.2h0.1l0.1-0.1c0.8-1.9,2.5-2,2.9-2
		c1.5,0,2.2,0.5,2.6,1.2c0.4,0.7,0.5,1.6,0.5,2.3v5.6h-0.7l0-5.6l0-0.1c0-0.6,0-1.3-0.3-1.9c-0.3-0.6-1-1-2.2-1c-1.7,0-3,1.5-3,3.3
		v5.5H233.6v-0.2V288.8z"/>
	<path id="XMLID_87_" d="M241.1,284.1c0,2.9,1.7,4.8,4.4,4.8c2.6,0,4.4-1.9,4.4-4.8c0-2.9-1.7-4.9-4.4-4.9
		C242.8,279.2,241.1,281.1,241.1,284.1z M242.3,284.1c0-1.8,0.9-3.9,3.1-3.9c2.2,0,3.1,2.1,3.1,3.9c0,1.8-0.9,3.9-3.1,3.9
		C243.2,288,242.3,285.9,242.3,284.1z"/>
	<path id="XMLID_90_" d="M241.1,284.1h-0.2c0,1.5,0.4,2.8,1.3,3.7c0.8,0.9,2,1.4,3.3,1.4c1.4,0,2.5-0.5,3.3-1.4
		c0.8-0.9,1.3-2.2,1.3-3.7c0-1.5-0.4-2.8-1.2-3.7c-0.8-0.9-2-1.4-3.3-1.4c-1.4,0-2.5,0.5-3.3,1.4c-0.8,0.9-1.2,2.2-1.2,3.7H241.1
		h0.2c0-2.9,1.6-4.6,4.1-4.7c2.5,0,4.1,1.8,4.1,4.7c0,2.8-1.7,4.6-4.1,4.6c-2.5,0-4.1-1.8-4.1-4.6H241.1z M242.3,284.1h0.2
		c0-0.9,0.2-1.8,0.7-2.5c0.5-0.7,1.2-1.2,2.2-1.2c1,0,1.7,0.5,2.2,1.2c0.5,0.7,0.7,1.6,0.7,2.5c0,0.9-0.2,1.8-0.7,2.5
		c-0.5,0.7-1.2,1.2-2.2,1.2c-1,0-1.7-0.5-2.2-1.2c-0.5-0.7-0.7-1.6-0.7-2.5H242.3h-0.2c0,0.9,0.2,1.9,0.8,2.7
		c0.5,0.8,1.4,1.3,2.6,1.3c1.2,0,2-0.6,2.6-1.3c0.5-0.8,0.8-1.8,0.8-2.7c0-1-0.2-2-0.8-2.8c-0.5-0.8-1.4-1.4-2.6-1.3
		c-1.2,0-2,0.6-2.6,1.3c-0.5,0.8-0.8,1.8-0.8,2.8H242.3z"/>
	<polygon id="XMLID_91_" points="254.5,288.8 257.7,279.4 256.5,279.4 254,287.1 253.8,287.8 253.8,287.8 253.6,287.1 251.1,279.4 
		249.9,279.4 253.1,288.8 	"/>
	<polygon id="XMLID_92_" points="254.5,288.8 254.7,288.8 258,279.2 256.5,279.2 256.4,279.2 253.8,287 253.6,287.7 253.8,287.8 
		253.8,287.6 253.8,287.6 253.8,287.8 254,287.7 253.8,287 253.8,287 251.2,279.2 249.9,279.2 249.6,279.2 253,289 254.5,289 
		254.6,289 254.7,288.8 254.5,288.8 254.5,288.6 253.3,288.6 250.2,279.6 250.9,279.6 253.4,287.1 253.6,287.8 253.6,288 253.8,288 
		254,288 254.2,287.1 256.7,279.6 257.4,279.6 254.3,288.7 254.5,288.8 254.5,288.6 	"/>
	<path id="XMLID_95_" d="M258.8,280.9c0.9-0.5,1.9-0.7,2.8-0.7c2.1,0,2.2,1.9,2.2,2.5v0.3h-0.6c-1.9,0-5.4,0.1-5.4,3.2
		c0,1.5,1,2.7,3.1,2.7c1,0,2.3-0.3,3.1-1.7h0v1.6h1l-0.1-2.1v-4c0-1.3-0.3-3.5-3.3-3.5c-1.1,0-2,0.2-2.8,0.6V280.9z M263.8,284v0.7
		c0,2.1-1.1,3.3-2.9,3.3c-1.1,0-1.9-0.8-1.9-1.8c0-1.9,2-2.2,3.7-2.2H263.8z"/>
	<path id="XMLID_98_" d="M258.8,280.9l0.1,0.2c0.9-0.5,1.8-0.7,2.7-0.7c1,0,1.5,0.4,1.7,0.9c0.2,0.5,0.3,1.1,0.3,1.4v0.1h-0.4
		c-1,0-2.3,0-3.5,0.5c-1.2,0.4-2.1,1.3-2.1,3c0,0.8,0.3,1.5,0.8,2c0.6,0.5,1.4,0.8,2.4,0.8c1,0,2.4-0.3,3.3-1.9l-0.2-0.1v0.2h0v-0.2
		h-0.2v1.6v0.2h1.2h0.2l-0.1-2.3v-4c0-0.7-0.1-1.6-0.6-2.3c-0.5-0.8-1.4-1.4-3-1.4c-1.1,0-2.1,0.2-2.9,0.6l-0.1,0.1v1.2v0.4l0.3-0.2
		L258.8,280.9h0.2v-1.1h-0.2l0.1,0.2c0.8-0.3,1.7-0.6,2.7-0.6c1.5,0,2.2,0.5,2.6,1.2c0.4,0.7,0.5,1.5,0.5,2.1v4l0,1.8h-0.6v-1.4V287
		H264h-0.1l-0.1,0.1c-0.7,1.4-1.9,1.6-2.9,1.6c-2,0-2.9-1.1-2.9-2.5c0-1.5,0.8-2.2,1.8-2.6c1.1-0.4,2.4-0.4,3.3-0.4h0.6h0.2v-0.5
		c0-0.3,0-1-0.3-1.6c-0.3-0.6-0.9-1.1-2.1-1.1c-1,0-2,0.2-2.9,0.7L258.8,280.9h0.2H258.8z M263.8,284h-0.2v0.7c0,1-0.3,1.8-0.7,2.3
		c-0.5,0.5-1.1,0.8-2,0.8c-1,0-1.6-0.7-1.6-1.6c0-0.9,0.4-1.3,1.1-1.6c0.7-0.3,1.6-0.4,2.4-0.4h1V284h-0.2H263.8v-0.2h-1
		c-0.9,0-1.8,0.1-2.6,0.4c-0.8,0.3-1.4,1-1.4,2c0,0.6,0.2,1.1,0.6,1.4c0.4,0.4,0.9,0.6,1.5,0.6c0.9,0,1.7-0.3,2.3-0.9
		c0.6-0.6,0.8-1.5,0.8-2.5V284v-0.2h-0.2V284z"/>
	<path id="XMLID_99_" d="M267.7,277v2.3h-1.9v1h1.9v5.9c0,1,0.1,2.7,2.1,2.7c0.3,0,0.8,0,1.3-0.2v-1c-0.4,0.2-0.7,0.2-1.2,0.2
		c-0.8,0-1.1-0.2-1.1-1.8v-5.8h2.2v-1h-2.2v-2.8L267.7,277z"/>
	<path id="XMLID_100_" d="M267.7,277h-0.2v2.1h-1.7h-0.2v1.2v0.2h1.9l0,5.6c0,0.5,0,1.2,0.3,1.9c0.3,0.6,0.9,1.1,2,1.1
		c0.3,0,0.8,0,1.4-0.2l0.1,0v-1.1v-0.3l-0.3,0.1c-0.3,0.1-0.6,0.2-1.1,0.2c-0.4,0-0.5-0.1-0.7-0.2c-0.1-0.2-0.2-0.6-0.2-1.4v-5.6
		l2,0h0.2v-1.2v-0.2h-2.2v-2.9l-1.4,0.5l-0.1,0.1v0.1H267.7l0.1,0.2l0.9-0.3v2.7h2.2v0.6h-2h-0.2v6c0,0.8,0.1,1.3,0.3,1.6
		c0.2,0.3,0.6,0.4,1,0.4c0.5,0,0.9,0,1.3-0.2l-0.1-0.2h-0.2v1h0.2l-0.1-0.2c-0.5,0.2-0.9,0.2-1.2,0.2c-1,0-1.4-0.4-1.7-0.9
		c-0.3-0.5-0.3-1.1-0.3-1.7v-6.1H266v-0.6h1.7h0.2V277H267.7l0.1,0.2L267.7,277z"/>
	<path id="XMLID_103_" d="M272.4,279.4v9.4h1.2v-9.4H272.4z M272.4,275.2v1.5h1.3v-1.5H272.4z"/>
	<path id="XMLID_107_" d="M272.4,279.4h-0.2v9.6h1.4h0.2v-9.8h-1.4h-0.2v0.2H272.4v0.2h0.9v9h-0.7l0-9.2H272.4v0.2V279.4z
		 M272.4,275.2h-0.2v1.5v0.2h1.5h0.2v-1.7V275h-1.5h-0.2v0.2H272.4v0.2h1.1v1.1h-0.8l0-1.3H272.4v0.2V275.2z"/>
	<path id="XMLID_113_" d="M274.8,284.1c0,2.9,1.7,4.8,4.4,4.8c2.6,0,4.4-1.9,4.4-4.8c0-2.9-1.7-4.9-4.4-4.9
		C276.5,279.2,274.8,281.1,274.8,284.1z M276,284.1c0-1.8,0.9-3.9,3.1-3.9c2.2,0,3.1,2.1,3.1,3.9c0,1.8-0.9,3.9-3.1,3.9
		C277,288,276,285.9,276,284.1z"/>
	<path id="XMLID_116_" d="M274.8,284.1h-0.2c0,1.5,0.4,2.8,1.3,3.7c0.8,0.9,2,1.4,3.3,1.4c1.4,0,2.5-0.5,3.3-1.4
		c0.8-0.9,1.3-2.2,1.3-3.7c0-1.5-0.4-2.8-1.2-3.7c-0.8-0.9-2-1.4-3.3-1.4c-1.4,0-2.5,0.5-3.3,1.4c-0.8,0.9-1.2,2.2-1.2,3.7H274.8
		h0.2c0-2.9,1.6-4.6,4.1-4.7c2.5,0,4.1,1.8,4.1,4.7c0,2.8-1.6,4.6-4.1,4.6c-2.5,0-4.1-1.8-4.1-4.6H274.8z M276,284.1h0.2
		c0-0.9,0.2-1.8,0.7-2.5c0.5-0.7,1.2-1.2,2.2-1.2c1,0,1.7,0.5,2.2,1.2c0.5,0.7,0.7,1.6,0.7,2.5c0,0.9-0.2,1.8-0.7,2.5
		c-0.5,0.7-1.2,1.2-2.2,1.2c-1,0-1.7-0.5-2.2-1.2c-0.5-0.7-0.7-1.6-0.7-2.5H276h-0.2c0,0.9,0.2,1.9,0.8,2.7c0.5,0.8,1.4,1.3,2.6,1.3
		c1.2,0,2-0.6,2.6-1.3c0.5-0.8,0.8-1.8,0.8-2.7c0-1-0.2-2-0.8-2.8c-0.5-0.8-1.4-1.4-2.6-1.3c-1.2,0-2,0.6-2.6,1.3
		c-0.5,0.8-0.8,1.8-0.8,2.8H276z"/>
	<path id="XMLID_117_" d="M285.9,288.8v-5.5c0-1.7,1.2-3.1,2.8-3.1c2.3,0,2.3,1.6,2.3,2.8v5.8h1.2v-5.9c0-1.4-0.3-3.7-3.3-3.7
		c-0.4,0-2.2,0.1-3.1,2.1h0v-1.9h-1l0.1,2.2v7.3H285.9L285.9,288.8z"/>
	<path id="XMLID_118_" d="M285.9,288.8h0.2v-5.5c0-1.6,1.1-2.9,2.6-2.9c1.1,0,1.6,0.4,1.8,0.8c0.3,0.5,0.3,1.1,0.3,1.7l0,0.1v6h1.4
		h0.2v-6.1c0-0.7-0.1-1.7-0.5-2.5c-0.5-0.8-1.4-1.4-3-1.4c-0.5,0-2.4,0.1-3.3,2.2l0.2,0.1v-0.2h0v0.2h0.2v-1.9v-0.2h-1.2h-0.2
		l0.1,2.4v7.5h1.4l0,0h0.2v-0.2H285.9v-0.2h0H285v-7l-0.1-2h0.6l0,1.7v0.2h0.2h0.1l0.1-0.1c0.8-1.9,2.5-2,2.9-2
		c1.5,0,2.2,0.5,2.6,1.2c0.4,0.7,0.5,1.6,0.5,2.3v5.6h-0.7V283l0-0.1c0-0.6,0-1.3-0.3-1.9c-0.3-0.6-1-1-2.2-1c-1.7,0-3,1.5-3,3.3
		v5.5H285.9v-0.2V288.8z"/>
	<path id="XMLID_119_" d="M299,279.7c-0.8-0.3-1.4-0.5-2.2-0.5c-1.8,0-3.2,0.8-3.2,2.3c0,1.6,1.2,2.2,2.4,2.7c1.3,0.6,2.1,0.8,2.1,2
		c0,1.1-0.8,1.7-2.1,1.7c-0.8,0-1.6-0.2-2.4-0.6l-0.1,1.1c0.9,0.3,1.7,0.4,2.5,0.4c2.5,0,3.4-1.4,3.4-2.7c0-1.6-1.3-2.3-2.2-2.7
		c-1.6-0.7-2.4-0.9-2.4-2c0-1.1,1.1-1.3,2-1.3c0.9,0,1.5,0.1,2.2,0.4L299,279.7z"/>
	<path id="XMLID_120_" d="M299,279.7l0.1-0.2c-0.8-0.4-1.5-0.5-2.3-0.5c-0.9,0-1.8,0.2-2.4,0.6c-0.6,0.4-1,1.1-1,1.9
		c0,0.8,0.3,1.5,0.8,1.9c0.5,0.4,1.1,0.7,1.7,1c0.6,0.3,1.2,0.5,1.5,0.7c0.3,0.3,0.5,0.5,0.5,1.1c0,0.5-0.2,0.8-0.5,1.1
		c-0.3,0.3-0.8,0.4-1.4,0.4c-0.7,0-1.6-0.2-2.4-0.5l-0.3-0.1l-0.1,1.4l0,0.2l0.1,0.1c0.9,0.3,1.7,0.4,2.5,0.4c1.3,0,2.2-0.4,2.8-0.9
		c0.6-0.6,0.8-1.3,0.8-2c0-1.8-1.4-2.5-2.3-2.9c-0.8-0.4-1.4-0.6-1.8-0.8c-0.4-0.3-0.5-0.5-0.5-1c0-0.5,0.2-0.7,0.5-0.9
		c0.3-0.2,0.8-0.2,1.2-0.2c0.8,0,1.5,0.1,2.1,0.4l0.3,0.1l0.1-1.2l0-0.1l-0.1-0.1L299,279.7l-0.2,0l-0.1,0.9l0.2,0l0.1-0.2
		c-0.7-0.3-1.4-0.5-2.3-0.5c-0.5,0-1,0.1-1.4,0.3c-0.4,0.2-0.8,0.6-0.8,1.2c0,0.6,0.3,1,0.7,1.3c0.4,0.3,1,0.5,1.9,0.9
		c0.9,0.4,2,1,2,2.5c0,1.2-0.8,2.5-3.2,2.5c-0.8,0-1.6-0.1-2.4-0.4l-0.1,0.2l0.2,0l0.1-1.1l-0.2,0l-0.1,0.2c0.9,0.4,1.7,0.6,2.5,0.6
		c0.7,0,1.3-0.2,1.7-0.5c0.4-0.3,0.7-0.8,0.7-1.4c0-0.7-0.2-1.1-0.7-1.4c-0.4-0.3-0.9-0.5-1.6-0.8c-0.6-0.3-1.2-0.5-1.6-0.9
		c-0.4-0.4-0.7-0.9-0.7-1.6c0-0.7,0.3-1.2,0.8-1.5c0.5-0.4,1.3-0.6,2.1-0.6c0.8,0,1.4,0.1,2.2,0.5L299,279.7l-0.2,0L299,279.7z"/>
	<polygon id="XMLID_121_" points="67.7,267.2 77.8,267.2 77.8,264.4 71.1,264.4 71.1,250.4 67.7,250.4 	"/>
	<polygon id="XMLID_122_" points="67.7,267.2 67.7,267.5 78,267.5 78,264.2 71.3,264.2 71.3,250.2 67.5,250.2 67.5,267.5 
		67.7,267.5 67.7,267.2 67.9,267.2 67.9,250.6 70.9,250.6 70.9,264.6 77.6,264.6 77.6,267 67.7,267 67.7,267.2 67.9,267.2 	"/>
	<path id="XMLID_123_" d="M88.1,254.8v6.6c0,1.7-1,3.4-2.9,3.4c-2,0-2.1-1.6-2.1-2.4v-7.5h-3.3v8c0,4.3,2.9,4.6,4.4,4.6
		c1,0,2.7-0.3,3.9-2.1h0.1v1.9h3.1v-12.4H88.1z"/>
	<path id="XMLID_124_" d="M88.1,254.8h-0.2v6.6c0,0.8-0.2,1.6-0.7,2.2c-0.5,0.6-1.1,1-2,1c-1,0-1.4-0.4-1.6-0.8
		c-0.2-0.5-0.3-1-0.3-1.4v-7.7h-3.7v8.3c0,2.2,0.8,3.4,1.7,4.1c1,0.7,2.1,0.7,2.9,0.7c1,0,2.9-0.3,4.1-2.2l-0.2-0.1v0.2h0.1v-0.2
		h-0.2v1.9v0.2h3.6v-12.9h-3.7v0.2H88.1v0.2h3.1v12h-2.7l0-1.7v-0.2h-0.3h-0.1l-0.1,0.1c-1.2,1.7-2.8,2-3.8,2
		c-0.7,0-1.8-0.1-2.7-0.7c-0.9-0.6-1.6-1.6-1.6-3.7V255h2.8l0,7.3c0,0.4,0,1.1,0.3,1.6c0.3,0.6,0.9,1,2,1c1,0,1.8-0.5,2.3-1.1
		c0.5-0.7,0.8-1.6,0.8-2.5v-6.6H88.1v0.2V254.8z"/>
	<path id="XMLID_125_" d="M103.3,255c-0.9-0.2-1.9-0.3-2.8-0.3c-4.4,0-6.7,3-6.7,6.3c0,3.3,2,6.5,6.5,6.5c1.4,0,2.6-0.3,3.2-0.5
		l-0.1-2.4c-0.8,0.4-1.8,0.5-2.5,0.5c-2.3,0-3.7-1.8-3.7-4c0-2.5,1.7-4.1,3.9-4.1c0.8,0,1.4,0.1,2,0.3L103.3,255z"/>
	<path id="XMLID_126_" d="M103.3,255l0.1-0.2c-1-0.2-2-0.3-2.8-0.3c-2.3,0-4,0.8-5.2,2c-1.2,1.2-1.8,2.8-1.8,4.5
		c0,1.7,0.5,3.4,1.6,4.6c1.1,1.3,2.8,2.1,5.1,2.1c1.4,0,2.6-0.3,3.3-0.5l0.2,0l-0.1-2.8l-0.3,0.1c-0.8,0.3-1.7,0.5-2.4,0.5
		c-2.2,0-3.4-1.6-3.4-3.8c0-2.4,1.6-3.9,3.7-3.9c0.8,0,1.4,0.1,1.9,0.3l0.3,0.1l0.2-2.8l-0.2,0L103.3,255l-0.2,0l-0.2,2.4l0.2,0
		l0.1-0.2c-0.6-0.3-1.3-0.4-2.1-0.4c-1.1,0-2.2,0.4-2.9,1.2c-0.7,0.8-1.2,1.8-1.2,3.1c0,1.2,0.4,2.2,1,3c0.7,0.8,1.6,1.2,2.8,1.2
		c0.8,0,1.7-0.1,2.6-0.5l-0.1-0.2l-0.2,0l0.1,2.4l0.2,0l-0.1-0.2c-0.6,0.2-1.7,0.5-3.1,0.5c-4.3,0-6.3-3.1-6.3-6.3
		c0-3.2,2.2-6.1,6.5-6.1c0.8,0,1.8,0.1,2.7,0.3L103.3,255l-0.2,0L103.3,255z"/>
	<path id="XMLID_146_" d="M116.8,262v-0.7c0-1.1-0.1-6.7-5.7-6.7c-3.3,0-6.1,2.4-6.1,6.4c0,4.4,3,6.4,6.7,6.4c1.5,0,3-0.3,4.3-0.8
		v-2.4c-1.2,0.5-2.5,0.9-3.9,0.9c-2.5,0-3.6-1.5-3.7-3.1H116.8z M108.3,259.8c0-1.6,1.1-2.9,2.5-2.9c1.2,0,2.6,0.8,2.6,2.9H108.3z"
		/>
	<path id="XMLID_149_" d="M116.8,262h0.2v-0.7c0-0.6,0-2.3-0.8-3.8c-0.7-1.6-2.3-3-5.2-3c-1.7,0-3.3,0.6-4.5,1.8
		c-1.2,1.1-1.9,2.8-1.9,4.9c0,2.2,0.8,3.9,2,5c1.3,1.1,3,1.6,4.9,1.6c1.5,0,3.1-0.3,4.4-0.8l0.1-0.1v-2.9l-0.3,0.1
		c-1.2,0.5-2.4,0.8-3.8,0.8c-2.4,0-3.4-1.4-3.5-2.9l-0.2,0v0.2h8.7V262H116.8v-0.2h-8.7l0,0.2c0.1,1.7,1.4,3.3,3.9,3.3
		c1.5,0,2.8-0.3,4-0.9l-0.1-0.2h-0.2v2.4h0.2l-0.1-0.2c-1.2,0.5-2.8,0.8-4.2,0.8c-1.8,0-3.4-0.5-4.6-1.5c-1.2-1-1.9-2.5-1.9-4.7
		c0-3.9,2.7-6.2,5.9-6.2c2.8,0,4.1,1.3,4.8,2.8c0.7,1.5,0.7,3.1,0.7,3.7v0.7H116.8v-0.2V262z M108.3,259.8l0.2,0
		c0-1.5,1-2.7,2.3-2.7c1.1,0,2.4,0.7,2.4,2.6l0,0.1l0.2,0v-0.2h-5.1V259.8l0.2,0L108.3,259.8v0.2h5.3l0-0.2l0-0.1
		c0-1.1-0.4-1.8-0.9-2.3c-0.5-0.5-1.2-0.7-1.9-0.7c-1.6,0-2.7,1.4-2.8,3.1l0,0.2h0.2V259.8z"/>
	<path id="XMLID_150_" d="M122.5,267.2v-6.7c0-1.3,0.9-3.3,2.9-3.3c1.5,0,2.1,1.2,2.1,2.5v7.5h3.3v-8.7c0-2.5-1.8-3.9-4.4-3.9
		c-1,0-2.7,0.3-3.9,2.1h-0.1v-1.9h-3.1v12.4H122.5z"/>
	<path id="XMLID_151_" d="M122.5,267.2h0.2v-6.7c0-0.6,0.2-1.4,0.7-2c0.5-0.6,1.1-1,2.1-1c0.7,0,1.2,0.3,1.5,0.7
		c0.3,0.4,0.4,1,0.4,1.6v7.7h3.7v-8.9c0-1.3-0.5-2.3-1.3-3.1c-0.8-0.7-2-1.1-3.3-1.1c-1,0-2.9,0.3-4.1,2.2l0.2,0.1v-0.2h-0.1v0.2
		h0.2v-1.9v-0.2H119v12.9h3.7v-0.2H122.5V267h-3.1v-12h2.7l0,1.7v0.2h0.3h0.1l0.1-0.1c1.2-1.7,2.8-2,3.8-2c2.5,0,4.2,1.3,4.2,3.7
		v8.5h-2.8v-7.3c0-0.6-0.1-1.3-0.5-1.8c-0.4-0.5-1-0.9-1.8-0.9c-1.1,0-1.9,0.5-2.4,1.2c-0.5,0.7-0.7,1.5-0.7,2.3v6.7H122.5V267
		V267.2z"/>
	<path id="XMLID_152_" d="M135.1,257.2v6.4c0,0.8,0,3.8,3.6,3.8c1.2,0,2.3-0.3,2.5-0.3v-2.3c-0.4,0.1-0.8,0.2-1.3,0.2
		c-1.6,0-1.6-1.1-1.6-2.2v-5.6h2.9v-2.4h-2.9v-3.5l-3.3,1v2.5h-2.5v2.4H135.1z"/>
	<path id="XMLID_153_" d="M135.1,257.2h-0.2v6.4c0,0.4,0,1.4,0.5,2.3c0.5,0.9,1.5,1.7,3.3,1.7c1.2,0,2.4-0.3,2.6-0.3l0.2,0v-2.8
		l-0.3,0.1c-0.4,0.1-0.8,0.2-1.2,0.2c-0.8,0-1-0.2-1.2-0.6c-0.2-0.3-0.2-0.9-0.2-1.4v-5.4h2.9v-2.8h-2.9l0-3.6l-3.7,1.2v2.4l-2.5,0
		v2.8h2.7V257.2h-0.2H135.1V257h-2.2v-2h2.5v-2.5l2.8-0.9v3.4h2.9v2h-2.9v5.9c0,0.5,0,1.1,0.2,1.6c0.2,0.5,0.7,0.8,1.6,0.8
		c0.5,0,0.9-0.1,1.3-0.2l-0.1-0.2H141v2.3h0.2l-0.1-0.2c-0.2,0-1.3,0.3-2.5,0.3c-1.7,0-2.5-0.7-3-1.5c-0.4-0.8-0.4-1.7-0.4-2.1V257
		h-0.2V257.2z"/>
	<polygon id="XMLID_154_" points="163.8,253.4 163.8,250.4 150.7,250.4 150.7,253.4 155.5,253.4 155.5,267.2 158.9,267.2 
		158.9,253.4 	"/>
	<polygon id="XMLID_155_" points="163.8,253.4 164,253.4 164,250.2 150.5,250.2 150.5,253.6 155.3,253.6 155.3,267.5 159.2,267.5 
		159.2,253.6 164,253.6 164,253.4 163.8,253.4 163.8,253.2 158.7,253.2 158.7,267 155.7,267 155.7,253.2 150.9,253.2 150.9,250.6 
		163.6,250.6 163.6,253.4 163.8,253.4 163.8,253.2 	"/>
	<path id="XMLID_158_" d="M176.9,262v-0.7c0-1.1-0.1-6.7-5.7-6.7c-3.3,0-6.1,2.4-6.1,6.4c0,4.4,3,6.4,6.7,6.4c1.5,0,3-0.3,4.3-0.8
		v-2.4c-1.2,0.5-2.4,0.9-3.9,0.9c-2.4,0-3.6-1.5-3.7-3.1H176.9z M168.4,259.8c0-1.6,1.1-2.9,2.5-2.9c1.2,0,2.6,0.8,2.6,2.9H168.4z"
		/>
	<path id="XMLID_161_" d="M176.9,262h0.2v-0.7c0-0.6,0-2.3-0.8-3.8c-0.7-1.6-2.3-3-5.2-3c-1.7,0-3.3,0.6-4.5,1.8
		c-1.2,1.1-1.9,2.8-1.9,4.9c0,2.2,0.8,3.9,2,5c1.3,1.1,3,1.6,4.9,1.6c1.5,0,3.1-0.3,4.4-0.8l0.1-0.1v-2.9l-0.3,0.1
		c-1.2,0.5-2.4,0.8-3.8,0.8c-2.4,0-3.4-1.4-3.5-2.9l-0.2,0v0.2h8.7V262H176.9v-0.2h-8.7l0,0.2c0.1,1.7,1.4,3.3,3.9,3.3
		c1.5,0,2.8-0.3,4-0.9l-0.1-0.2h-0.2v2.4h0.2l-0.1-0.2c-1.2,0.5-2.8,0.8-4.2,0.8c-1.8,0-3.4-0.5-4.6-1.5c-1.2-1-1.9-2.5-1.9-4.7
		c0-3.9,2.7-6.2,5.9-6.2c2.7,0,4.1,1.3,4.8,2.8c0.7,1.5,0.7,3.1,0.7,3.7v0.7H176.9v-0.2V262z M168.4,259.8l0.2,0
		c0-1.5,1-2.7,2.3-2.7c1.1,0,2.4,0.7,2.4,2.6l0,0.1l0.2,0v-0.2h-5.1V259.8l0.2,0L168.4,259.8v0.2h5.3l0-0.2l0-0.1
		c0-1.1-0.4-1.8-0.9-2.3c-0.5-0.5-1.2-0.7-1.9-0.7c-1.6,0-2.7,1.4-2.8,3.1l0,0.2h0.2V259.8z"/>
	<path id="XMLID_162_" d="M188.1,255c-0.9-0.2-1.9-0.3-2.8-0.3c-4.4,0-6.7,3-6.7,6.3c0,3.3,2,6.5,6.5,6.5c1.4,0,2.6-0.3,3.2-0.5
		l-0.1-2.4c-0.8,0.4-1.8,0.5-2.5,0.5c-2.3,0-3.7-1.8-3.7-4c0-2.5,1.7-4.1,3.9-4.1c0.8,0,1.4,0.1,2,0.3L188.1,255L188.1,255z"/>
	<path id="XMLID_163_" d="M188.1,255l0.1-0.2c-1-0.2-2-0.3-2.8-0.3c-2.3,0-4,0.8-5.2,2c-1.2,1.2-1.8,2.8-1.8,4.5
		c0,1.7,0.5,3.4,1.6,4.6c1.1,1.3,2.8,2.1,5.1,2.1c1.4,0,2.6-0.3,3.3-0.5l0.2,0l-0.1-2.8l-0.3,0.1c-0.8,0.3-1.7,0.5-2.4,0.5
		c-2.2,0-3.4-1.6-3.4-3.8c0-2.4,1.6-3.9,3.7-3.9c0.8,0,1.4,0.1,1.9,0.3l0.3,0.1l0.2-2.9h-0.2V255l0.1-0.2L188.1,255v0.2h0L188.1,255
		l-0.2,0l-0.2,2.4l0.2,0l0.1-0.2c-0.6-0.3-1.3-0.4-2.1-0.4c-1.1,0-2.2,0.4-2.9,1.2c-0.7,0.8-1.2,1.8-1.2,3.1c0,1.2,0.4,2.2,1,3
		c0.7,0.8,1.6,1.2,2.8,1.2c0.8,0,1.7-0.1,2.6-0.5l-0.1-0.2l-0.2,0l0.1,2.4l0.2,0l-0.1-0.2c-0.6,0.2-1.7,0.5-3.1,0.5
		c-4.3,0-6.3-3.1-6.3-6.3c0-3.2,2.2-6.1,6.5-6.1c0.8,0,1.8,0.1,2.7,0.3l0,0h0V255z"/>
	<path id="XMLID_164_" d="M190.4,267.2h3.3v-6.2c0-2.7,1.6-3.8,2.9-3.8c2.1,0,2.1,1.8,2.1,2.8v7.2h3.3V259c0-0.5,0-4.4-4.4-4.4
		c-2.5,0-3.6,1.6-4,2.1h-0.1l0.1-1.9v-5.6h-3.3L190.4,267.2L190.4,267.2z"/>
	<path id="XMLID_165_" d="M190.4,267.2v0.2h3.5v-6.4c0-2.6,1.5-3.6,2.7-3.6c1,0,1.4,0.4,1.7,0.9c0.2,0.5,0.3,1.2,0.3,1.7v7.4h3.7
		V259c0-0.3,0-1.4-0.6-2.5c-0.6-1.1-1.8-2.1-4-2.1c-2.6,0-3.8,1.7-4.1,2.2l0.2,0.1v-0.2h-0.1v0.2l0.2,0l0.1-1.9l0,0V249h-3.7v18.4
		h0.2V267.2V267h0L190.4,267.2h0.2v-17.8h2.8v5.4l-0.1,1.9l0,0.2h0.3h0.1l0.1-0.1c0.4-0.5,1.4-2,3.8-2c2.1,0,3.1,0.9,3.6,1.9
		c0.5,1,0.5,2,0.5,2.3v8h-2.8l0-6.9c0-0.5,0-1.2-0.3-1.9c-0.3-0.6-0.9-1.2-2-1.2c-0.7,0-1.5,0.3-2.1,0.9c-0.6,0.7-1,1.7-1,3v6
		l-3.1,0V267.2z"/>
	<path id="XMLID_166_" d="M208.4,267.2v-6.7c0-1.3,0.9-3.3,2.9-3.3c1.5,0,2.1,1.2,2.1,2.5v7.5h3.3v-8.7c0-2.5-1.9-3.9-4.4-3.9
		c-1,0-2.7,0.3-3.9,2.1h-0.1v-1.9h-3.1v12.4H208.4z"/>
	<path id="XMLID_167_" d="M208.4,267.2h0.2v-6.7c0-0.6,0.2-1.4,0.7-2c0.5-0.6,1.1-1,2.1-1c0.7,0,1.2,0.3,1.5,0.7
		c0.3,0.4,0.4,1,0.4,1.6v7.7h3.7v-8.9c0-1.3-0.5-2.3-1.3-3.1c-0.8-0.7-2-1.1-3.3-1.1c-1,0-2.9,0.3-4.1,2.2l0.2,0.1v-0.2h-0.1v0.2
		h0.2v-1.9v-0.2h-3.6v12.9h3.7v-0.2H208.4V267h-3.1v-12h2.7v1.7v0.2h0.3h0.1l0.1-0.1c1.2-1.7,2.8-2,3.8-2c2.5,0,4.2,1.3,4.2,3.7v8.5
		h-2.8v-7.3c0-0.6-0.1-1.3-0.5-1.8c-0.4-0.5-1-0.9-1.8-0.9c-1.1,0-1.9,0.5-2.4,1.2c-0.5,0.7-0.7,1.5-0.7,2.3v6.7H208.4V267V267.2z"
		/>
	<path id="XMLID_170_" d="M219.1,261c0,4.2,2.7,6.4,6.4,6.4c3.7,0,6.4-2.3,6.4-6.4c0-4.2-2.7-6.4-6.4-6.4
		C221.8,254.6,219.1,256.9,219.1,261z M222.5,261c0-2.9,1.6-4.1,3-4.1c1.8,0,3,1.6,3,4.1c0,2.4-1.2,4.1-3,4.1
		C224.1,265.1,222.5,263.9,222.5,261z"/>
	<path id="XMLID_173_" d="M219.1,261h-0.2c0,2.1,0.7,3.8,1.9,4.9c1.2,1.1,2.9,1.7,4.8,1.7c1.9,0,3.6-0.6,4.7-1.7
		c1.2-1.1,1.9-2.8,1.9-4.9c0-2.1-0.7-3.8-1.9-4.9c-1.2-1.1-2.8-1.7-4.7-1.7c-1.9,0-3.6,0.6-4.8,1.7c-1.2,1.1-1.9,2.8-1.9,4.9H219.1
		h0.2c0-4.1,2.6-6.2,6.2-6.2c3.6,0,6.2,2.1,6.2,6.2c0,4.1-2.6,6.2-6.2,6.2c-3.6,0-6.2-2.2-6.2-6.2H219.1z M222.5,261h0.2
		c0-2.8,1.5-3.8,2.8-3.8c0.8,0,1.5,0.4,2,1c0.5,0.7,0.8,1.6,0.8,2.8c0,1.2-0.3,2.2-0.8,2.8c-0.5,0.7-1.2,1-2,1c-1.3,0-2.8-1-2.8-3.8
		H222.5h-0.2c0,1.5,0.4,2.5,1,3.2c0.6,0.7,1.4,1,2.2,1c1,0,1.8-0.4,2.3-1.2c0.6-0.8,0.9-1.8,0.9-3.1c0-1.3-0.3-2.3-0.9-3.1
		c-0.6-0.8-1.4-1.2-2.3-1.2c-0.8,0-1.6,0.3-2.2,1c-0.6,0.7-1,1.8-1,3.2H222.5z"/>
	<rect id="XMLID_174_" x="234.3" y="249.2" width="3.3" height="18"/>
	<polygon id="XMLID_175_" points="234.3,249.2 234.1,249.2 234.1,267.5 237.8,267.5 237.8,249 234.1,249 234.1,249.2 234.3,249.2 
		234.3,249.4 237.4,249.4 237.4,267 234.5,267 234.5,249.2 234.3,249.2 234.3,249.4 	"/>
	<path id="XMLID_178_" d="M240,261c0,4.2,2.7,6.4,6.4,6.4c3.7,0,6.4-2.3,6.4-6.4c0-4.2-2.7-6.4-6.4-6.4
		C242.7,254.6,240,256.9,240,261z M243.4,261c0-2.9,1.6-4.1,3-4.1c1.8,0,3,1.6,3,4.1c0,2.4-1.2,4.1-3,4.1
		C245,265.1,243.4,263.9,243.4,261z"/>
	<path id="XMLID_181_" d="M240,261h-0.2c0,2.1,0.7,3.8,1.9,4.9c1.2,1.1,2.9,1.7,4.8,1.7c1.9,0,3.6-0.6,4.7-1.7
		c1.2-1.1,1.9-2.8,1.9-4.9c0-2.1-0.7-3.8-1.9-4.9c-1.2-1.1-2.8-1.7-4.7-1.7c-1.9,0-3.6,0.6-4.8,1.7c-1.2,1.1-1.9,2.8-1.9,4.9H240
		h0.2c0-4.1,2.6-6.2,6.2-6.2c3.6,0,6.2,2.1,6.2,6.2c0,4.1-2.6,6.2-6.2,6.2c-3.6,0-6.2-2.2-6.2-6.2H240z M243.4,261h0.2
		c0-2.8,1.5-3.8,2.8-3.8c0.8,0,1.5,0.4,2,1c0.5,0.7,0.8,1.6,0.8,2.8c0,1.2-0.3,2.2-0.8,2.8c-0.5,0.7-1.2,1-2,1c-1.3,0-2.8-1-2.8-3.8
		H243.4h-0.2c0,1.5,0.4,2.5,1,3.2c0.6,0.7,1.4,1,2.2,1c1,0,1.8-0.4,2.3-1.2c0.6-0.8,0.9-1.8,0.9-3.1c0-1.3-0.3-2.3-0.9-3.1
		c-0.6-0.8-1.4-1.2-2.3-1.2c-0.8,0-1.6,0.3-2.2,1c-0.6,0.7-1,1.8-1,3.2H243.4z"/>
	<path id="XMLID_184_" d="M255.8,271.7c1.8,0.7,3.5,0.9,4.6,0.9c6.3,0,6.3-4.9,6.3-6.3v-11.5h-3.1v2.1h-0.1c-0.8-1.7-2.6-2.2-4-2.2
		c-3,0-5.1,2.5-5.1,6.3c0,2.9,1.4,6.2,5.2,6.2c2.6,0,3.5-1.7,3.8-2.3h0.1v1.6c0,2.1-1.3,3.3-3.6,3.3c-1.3,0-2.8-0.5-3.8-1
		L255.8,271.7L255.8,271.7z M260.6,257.4c1.8,0,3,1.3,3,3.4c0,2.7-1.3,3.9-2.7,3.9c-1.1,0-2.9-0.6-2.9-3.7
		C257.9,259.1,258.8,257.4,260.6,257.4z"/>
	<path id="XMLID_187_" d="M255.8,271.7l-0.1,0.2c1.9,0.7,3.5,0.9,4.7,0.9c3.2,0,4.9-1.3,5.7-2.7c0.8-1.5,0.8-3.1,0.8-3.8v-11.7h-3.5
		v2.3h0.2v-0.2h-0.1v0.2l0.2-0.1c-0.9-1.8-2.8-2.3-4.2-2.3c-1.5,0-2.9,0.7-3.8,1.8c-0.9,1.2-1.5,2.8-1.5,4.7c0,1.5,0.3,3.1,1.2,4.3
		c0.8,1.2,2.2,2.1,4.2,2.1c2.7,0,3.7-1.8,4-2.4l-0.2-0.1v0.2h0.1V265h-0.2v1.6c0,1-0.3,1.8-0.9,2.3c-0.6,0.5-1.4,0.8-2.5,0.8
		c-1.3,0-2.7-0.5-3.7-1l-0.3-0.1l-0.3,3L255.8,271.7l0-0.2h0l-0.1,0.4L255.8,271.7v0.2h0h0.2l0.3-2.9l-0.2,0l-0.1,0.2
		c1.1,0.6,2.5,1.1,3.9,1.1c1.2,0,2.2-0.3,2.8-1c0.7-0.6,1-1.5,1-2.6V265v-0.2h-0.3h-0.1l-0.1,0.1c-0.3,0.6-1.1,2.1-3.6,2.1
		c-1.8,0-3-0.8-3.8-1.9c-0.8-1.1-1.1-2.7-1.1-4.1c0-3.8,2.1-6.1,4.9-6.1c1.4,0,3.1,0.4,3.8,2l0.1,0.1h0.2h0.2V255h2.7l0,11.2
		c0,0.7,0,2.3-0.8,3.6c-0.8,1.3-2.3,2.5-5.3,2.5c-1.2,0-2.8-0.1-4.6-0.9L255.8,271.7v0.2V271.7z M260.6,257.4v0.2
		c1.7,0,2.8,1.2,2.8,3.2c0,2.6-1.3,3.7-2.5,3.7c-0.5,0-1.2-0.1-1.7-0.6c-0.5-0.5-1-1.3-1-2.9c0-0.9,0.2-1.8,0.6-2.4
		c0.4-0.6,1-1,1.8-1V257.4v-0.2c-1,0-1.7,0.5-2.2,1.2c-0.5,0.7-0.7,1.7-0.7,2.6c0,1.6,0.5,2.6,1.1,3.2c0.6,0.6,1.4,0.7,2,0.7
		c0.8,0,1.5-0.4,2.1-1.1c0.5-0.7,0.9-1.7,0.9-3.1c0-1.1-0.3-2-0.9-2.6c-0.6-0.6-1.4-1-2.3-1V257.4z"/>
	<path id="XMLID_190_" d="M270,254.8v12.4h3.3v-12.4H270z M273.3,249.6h-3.4v3.4h3.4V249.6z"/>
	<path id="XMLID_193_" d="M270,254.8h-0.2v12.7h3.7v-12.9h-3.7v0.2H270v0.2h3.1v12h-2.8l0-12.2H270v0.2V254.8z M273.3,249.6v-0.2
		h-3.6v3.8h3.8v-3.8h-0.2V249.6h-0.2v3.2h-2.9v-2.9l3.2,0V249.6h-0.2H273.3z"/>
	<path id="XMLID_196_" d="M287.6,262v-0.7c0-1.1-0.1-6.7-5.7-6.7c-3.3,0-6.1,2.4-6.1,6.4c0,4.4,3,6.4,6.7,6.4c1.5,0,3-0.3,4.3-0.8
		v-2.4c-1.2,0.5-2.4,0.9-3.9,0.9c-2.4,0-3.6-1.5-3.7-3.1H287.6z M279.1,259.8c0-1.6,1.1-2.9,2.5-2.9c1.2,0,2.6,0.8,2.6,2.9H279.1z"
		/>
	<path id="XMLID_199_" d="M287.6,262h0.2v-0.7c0-0.6,0-2.3-0.8-3.8c-0.7-1.6-2.3-3-5.2-3c-1.7,0-3.3,0.6-4.5,1.8
		c-1.2,1.1-1.9,2.8-1.9,4.9c0,2.2,0.8,3.9,2,5c1.3,1.1,3,1.6,4.9,1.6c1.5,0,3.1-0.3,4.4-0.8l0.1-0.1v-2.9l-0.3,0.1
		c-1.2,0.5-2.4,0.8-3.8,0.8c-2.4,0-3.4-1.4-3.5-2.9l-0.2,0v0.2h8.7V262H287.6v-0.2h-8.7l0,0.2c0.1,1.7,1.4,3.3,3.9,3.3
		c1.5,0,2.8-0.3,4-0.9l-0.1-0.2h-0.2v2.4h0.2l-0.1-0.2c-1.2,0.5-2.8,0.8-4.2,0.8c-1.8,0-3.4-0.5-4.6-1.5c-1.2-1-1.9-2.5-1.9-4.7
		c0-3.9,2.7-6.2,5.9-6.2c2.8,0,4.1,1.3,4.8,2.8c0.7,1.5,0.7,3.1,0.7,3.7v0.7H287.6v-0.2V262z M279.1,259.8l0.2,0
		c0-1.5,1-2.7,2.3-2.7c1.1,0,2.4,0.7,2.4,2.6l0,0.1l0.2,0v-0.2h-5.1V259.8l0.2,0L279.1,259.8v0.2h5.3l0-0.2l0-0.1
		c0-1.1-0.4-1.8-0.9-2.3c-0.5-0.5-1.2-0.7-1.9-0.7c-1.6,0-2.7,1.4-2.8,3.1l0,0.2h0.2V259.8z"/>
	<path id="XMLID_200_" d="M298.1,255.1c-1.8-0.6-3.3-0.5-4-0.5c-3.7,0-4.5,2.3-4.5,3.7c0,1.9,1.1,2.7,2.6,3.3c1.3,0.6,2.9,0.8,2.9,2
		c0,0.5-0.4,1.3-2.1,1.3c-1.7,0-3.3-0.8-3.5-0.8l-0.1,2.5c1.2,0.4,2.9,0.7,4.1,0.7c3.3,0,4.9-1.9,4.9-3.8c0-2.4-1.9-3.3-3.3-3.8
		c-1-0.3-2.2-0.6-2.2-1.6c0-0.3,0.1-1.3,2.2-1.3c1.3,0,2.4,0.4,2.8,0.6L298.1,255.1z"/>
	<path id="XMLID_201_" d="M298.1,255.1l0.1-0.2c-1.7-0.5-3.1-0.5-3.9-0.5l-0.2,0c-1.9,0-3.1,0.6-3.8,1.4c-0.7,0.8-0.9,1.8-0.9,2.5
		c0,1.9,1.2,2.9,2.7,3.5c0.7,0.3,1.4,0.5,1.9,0.7c0.5,0.3,0.8,0.6,0.9,1.1c0,0.4-0.2,1.1-1.9,1.1c-1.6,0-3.3-0.8-3.4-0.8l-0.3-0.1
		l-0.2,3l0.1,0.1c1.3,0.4,2.9,0.7,4.2,0.7c1.7,0,3-0.5,3.8-1.2c0.8-0.8,1.2-1.8,1.2-2.8c0-1.3-0.5-2.2-1.2-2.8
		c-0.7-0.6-1.6-0.9-2.3-1.2c-0.5-0.2-1.1-0.3-1.4-0.5c-0.4-0.2-0.6-0.5-0.6-0.9c0-0.1,0-0.4,0.3-0.6c0.2-0.2,0.7-0.5,1.7-0.5
		c1.3,0,2.3,0.4,2.8,0.6l0.2,0.1l0.3-2.8l-0.2-0.1L298.1,255.1l-0.2,0l-0.3,2.4l0.2,0l0.1-0.2c-0.5-0.2-1.5-0.6-2.9-0.6
		c-1.1,0-1.7,0.3-2,0.6c-0.3,0.3-0.4,0.7-0.4,0.9c0,0.6,0.4,1,0.8,1.3c0.5,0.2,1,0.4,1.5,0.6c0.7,0.2,1.5,0.5,2.1,1.1
		c0.6,0.6,1.1,1.3,1.1,2.5c0,1.9-1.4,3.6-4.6,3.6c-1.2,0-2.8-0.3-4.1-0.7l-0.1,0.2l0.2,0l0.1-2.5l-0.2,0l-0.1,0.2
		c0.2,0.1,1.8,0.9,3.6,0.9c0.9,0,1.4-0.2,1.8-0.5c0.4-0.3,0.5-0.7,0.5-1c0-0.7-0.5-1.2-1.1-1.5c-0.6-0.3-1.3-0.5-2-0.8
		c-1.5-0.7-2.5-1.4-2.5-3.1c0-0.7,0.2-1.5,0.8-2.2c0.6-0.7,1.7-1.2,3.5-1.2l0.2,0c0.8,0,2.1,0,3.7,0.5L298.1,255.1l-0.2,0
		L298.1,255.1z"/>
</g>
</svg>
