<?xml version="1.0" encoding="utf-8"?>
<!-- Generator: Adobe Illustrator 19.0.0, SVG Export Plug-In . SVG Version: 6.00 Build 0)  -->
<svg version="1.1" id="Layer_1" xmlns="http://www.w3.org/2000/svg" xmlns:xlink="http://www.w3.org/1999/xlink" x="0px" y="0px"
	 viewBox="0 0 500 500" style="enable-background:new 0 0 500 500;" xml:space="preserve">
<style type="text/css">
	.st0{fill:#1D252C;}
	.st1{fill:#FE3B1F;}
</style>
<g id="XMLID_1_">
	<path id="XMLID_18_" class="st0" d="M380.6,258.7v-7.8h11.9V248h-11.9v-7.5h13.3v-2.9h-16.3v23.9h16.7v-2.9H380.6z M368.1,251.7
		c0,4.5-2.6,7.2-7,7.2s-7.1-2.7-7.1-7.2v-14h-3v14c0,6.3,3.8,10,10.1,10c6.3,0,10-3.8,10-10v-14h-3V251.7z M336,240.4
		c2.6,0,5.1,1,7.1,2.7v0.1l1.7-2.3h-0.1c-2.5-2.1-5.6-3.3-8.8-3.3c-7,0-12.6,5.2-12.6,12c0,6.8,5.5,12.1,12.4,12.1
		c3.2-0.1,6.3-1.2,8.9-3.1v-8.9h-9.3v2.7h6.7v4.5c-1.8,1.2-3.9,1.9-6.1,1.9c-5.3,0-9.6-4.1-9.6-9.2c0-5.1,4.2-9.3,9.4-9.3L336,240.4
		z M310.4,237.7h-2.9l-10.6,23.6l-0.1,0.3h3.2l2.7-6h10.1l-1.3-2.9h-7.6l5.1-11.4l8.9,20.2v0.1h3.2L310.4,237.7L310.4,237.7z
		 M278.8,250.9h11.9V248h-11.9v-7.5H292v-2.9h-16.3v23.9h16.7v-2.9h-13.7V250.9z M259.1,237.7h-2.9v23.9h13.3v-2.9h-10.3
		L259.1,237.7z M230.6,257.8v-6.3h11.4v-3.6h-11.4v-6.3h12.7v-3.8h-16.7v23.9h17.2v-3.8H230.6z M215.9,237.7v17.8l-13.9-17.8h-4
		v23.9h4v-17.4l13.5,17.4h4.3v-23.9H215.9z M168.8,261.6h4.3l2.4-5.4h9.3l-1.7-3.7h-6.1l4.3-9.8l6,13.5l2.4,5.4h4.3l-10.5-23.9h-4.3
		L168.8,261.6z M158.2,237.7l-7.2,15l-7.2-15h-6.3v23.9h4V243l8.3,16.5h2.3l8.3-16.5v18.6h4v-23.9H158.2z M126.4,237.7V251
		c0,2.2-0.5,3.9-1.6,5.2c-1.1,1.3-2.8,2-4.5,1.9c-1.7,0.1-3.3-0.6-4.4-1.9c-1.1-1.3-1.7-3-1.7-5.2v-13.2h-4v13.4
		c0,3.4,1,6.1,2.8,7.9c2,1.9,4.6,2.9,7.3,2.8c2.7,0.1,5.3-0.9,7.3-2.8c1.9-1.9,2.8-4.5,2.8-7.9v-13.4H126.4z M99.3,237.7v10.3H87.5
		v-10.3h-4v23.9h4v-9.8h11.8v9.8h4v-23.9H99.3z M74.2,238.3v4.4h-2.1v-3.8h-1.2v3.8h-2.1v-4.3h-1.3v5.6h8v-5.7H74.2z M75.5,248v-1.3
		h-8v1.3h3.4v4h-3.4v1.3h8v-1.3h-3.3v-4H75.5z M68.7,257.5v-2.4h-1.2v6.1h1.2v-2.4h6.8v-1.4H68.7z"/>
	<path id="XMLID_28_" class="st1" d="M421.8,235.3l-4.6,4.4l-4.5-4.4H407l-4.8,4.7v10.2l15,14.7l15.3-14.7v-10l-4.9-4.7H421.8z
		 M422.5,237.6h4.4l-3.6,8l-4.5-4.5L422.5,237.6z M416.4,261l-3.4-3.4l3.1-7.2l3.5,3.4L416.4,261z M414.6,248.9l-3.2,7.2l-3.8-3.8
		l5.2-5.2L414.6,248.9z M420.6,251.7l-6.5-6.4l1.7-4.1l2.1,2l4.5,4.5L420.6,251.7z M407.9,237.6h4.3l2.1,2.1l-1.8,4l-5.5-5.2
		L407.9,237.6z M404.6,240.9l0.8-0.8l5.8,5.5l-5.2,5.2l-1.4-1.4V240.9z M430.1,249.4l-10.9,10.3l4.7-10.5l0.5-1.1h5.7V249.4z
		 M430.1,245.9h-4.7l3-6.7l1.7,1.7V245.9z"/>
</g>
</svg>
