<?xml version="1.0" encoding="utf-8"?>
<!-- Generator: Adobe Illustrator 19.0.0, SVG Export Plug-In . SVG Version: 6.00 Build 0)  -->
<svg version="1.1" id="Layer_1" xmlns="http://www.w3.org/2000/svg" xmlns:xlink="http://www.w3.org/1999/xlink" x="0px" y="0px"
	 viewBox="0 0 500 500" style="enable-background:new 0 0 500 500;" xml:space="preserve">
<style type="text/css">
	.st0{fill:url(#XMLID_97_);}
	.st1{fill:url(#XMLID_98_);}
	.st2{fill:url(#XMLID_99_);}
	.st3{fill:url(#XMLID_100_);}
	.st4{fill:url(#XMLID_101_);}
	.st5{fill:url(#XMLID_102_);}
	.st6{fill:url(#XMLID_103_);}
	.st7{fill:url(#XMLID_104_);}
	.st8{fill:url(#XMLID_105_);}
	.st9{fill:url(#XMLID_106_);}
	.st10{fill:url(#XMLID_107_);}
	.st11{fill:url(#XMLID_108_);}
	.st12{fill:url(#XMLID_110_);}
	.st13{fill:url(#XMLID_111_);}
	.st14{fill:url(#XMLID_112_);}
	.st15{fill:url(#XMLID_116_);}
	.st16{fill:url(#XMLID_117_);}
	.st17{fill:url(#XMLID_118_);}
	.st18{fill:url(#XMLID_119_);}
	.st19{fill:url(#XMLID_120_);}
	.st20{fill:url(#XMLID_121_);}
	.st21{fill:url(#XMLID_122_);}
	.st22{fill:url(#XMLID_123_);}
	.st23{fill:url(#XMLID_124_);}
	.st24{fill:url(#XMLID_125_);}
	.st25{fill:url(#XMLID_126_);}
	.st26{fill:url(#XMLID_127_);}
	.st27{fill:url(#XMLID_128_);}
	.st28{fill:url(#XMLID_129_);}
	.st29{fill:url(#XMLID_131_);}
	.st30{fill:url(#XMLID_132_);}
	.st31{fill:url(#XMLID_133_);}
	.st32{fill:url(#XMLID_137_);}
	.st33{fill:url(#XMLID_138_);}
	.st34{fill:url(#XMLID_139_);}
	.st35{fill:url(#XMLID_140_);}
	.st36{fill:url(#XMLID_145_);}
	.st37{fill:url(#XMLID_146_);}
	.st38{fill:#A6700E;}
	.st39{fill:#C59936;}
</style>
<g id="XMLID_1_">
	
		<radialGradient id="XMLID_97_" cx="-5.5996" cy="0.1333" r="1.5766" gradientTransform="matrix(45.8101 0 0 -45.8101 326.6995 286.1153)" gradientUnits="userSpaceOnUse">
		<stop  offset="0" style="stop-color:#E5B86D"/>
		<stop  offset="1" style="stop-color:#A6700E"/>
	</radialGradient>
	<path id="XMLID_3_" class="st0" d="M70.9,243.7c0,6.1,0.9,11.9,4.1,16.6v-4.1c0-5.1,4.1-8.8,8.2-11C79,246.6,74.4,245.7,70.9,243.7
		z"/>
	
		<radialGradient id="XMLID_98_" cx="-5.6257" cy="0.1359" r="1.5766" gradientTransform="matrix(45.5864 0 0 -45.5864 326.8104 285.9677)" gradientUnits="userSpaceOnUse">
		<stop  offset="0" style="stop-color:#E5B86D"/>
		<stop  offset="1" style="stop-color:#A6700E"/>
	</radialGradient>
	<path id="XMLID_6_" class="st1" d="M78.7,234.9c-1.4,0-2.6,1-3.8,2c-1.5,1.2-2.9,2.4-4.8,1.8c1.2,0.9,2.7,1.1,4.5,1l0.4,0.2h0.8
		c1.3-0.3,2.8-1.9,4.3-1.9c2.9-0.4,6.6-0.9,8.7,1.7l-1-2c-2.7-0.1-5-1.2-7.4-2.4c-0.5-0.2-1-0.3-1.4-0.3L78.7,234.9z M75.9,238.2
		l-1.3,1.2h-1.3C73,238.7,75.3,237.2,75.9,238.2"/>
	
		<radialGradient id="XMLID_99_" cx="-5.6274" cy="0.1359" r="1.5766" gradientTransform="matrix(45.584 0 0 -45.584 326.6995 285.9677)" gradientUnits="userSpaceOnUse">
		<stop  offset="0" style="stop-color:#E5B86D"/>
		<stop  offset="1" style="stop-color:#A6700E"/>
	</radialGradient>
	<path id="XMLID_7_" class="st2" d="M67.5,228.7c1.4,0.4,2.8,0.7,4.3,0.9c2.9-1.3,3.7-3.7,2.5-6.8c-1.6-2.5-4.1-3.9-6.8-4.6V228.7z"
		/>
	
		<radialGradient id="XMLID_100_" cx="-5.627" cy="0.1359" r="1.5766" gradientTransform="matrix(45.5799 0 0 -45.5799 326.7734 285.9677)" gradientUnits="userSpaceOnUse">
		<stop  offset="0" style="stop-color:#E5B86D"/>
		<stop  offset="1" style="stop-color:#A6700E"/>
	</radialGradient>
	<path id="XMLID_8_" class="st3" d="M81.7,253.2c-4.7,9.7,1.9,23.1-4.8,31.4h10.6c0.5-0.4,0.9-0.9,1.4-1.5c7.8-10.2-7.5-16.2-7.2-26
		c0.4-3.9,2.5-6.9,5.2-10.1l-0.3-0.3C84.1,249.1,83.1,250.8,81.7,253.2"/>
	
		<radialGradient id="XMLID_101_" cx="-5.628" cy="0.1364" r="1.5766" gradientTransform="matrix(45.5756 0 0 -45.5756 326.7365 285.9306)" gradientUnits="userSpaceOnUse">
		<stop  offset="0" style="stop-color:#E5B86D"/>
		<stop  offset="1" style="stop-color:#A6700E"/>
	</radialGradient>
	<path id="XMLID_9_" class="st4" d="M102.2,215.2c10.4,8,17.1,20.6,17.2,34.7c0,14.2-6.7,26.7-17.2,34.7H137v-69.5H102.2z"/>
	
		<radialGradient id="XMLID_102_" cx="-5.6183" cy="0.1361" r="1.5766" gradientTransform="matrix(45.654 0 0 -45.654 326.7365 285.9306)" gradientUnits="userSpaceOnUse">
		<stop  offset="0" style="stop-color:#E5B86D"/>
		<stop  offset="1" style="stop-color:#A6700E"/>
	</radialGradient>
	<path id="XMLID_10_" class="st5" d="M67.5,256.1v28.6h6l1.5-1.2C83.1,272.4,73.4,264.7,67.5,256.1z"/>
	
		<radialGradient id="XMLID_103_" cx="-5.6274" cy="0.1364" r="1.5766" gradientTransform="matrix(45.5762 0 0 -45.5762 326.7734 285.9306)" gradientUnits="userSpaceOnUse">
		<stop  offset="0" style="stop-color:#E5B86D"/>
		<stop  offset="1" style="stop-color:#A6700E"/>
	</radialGradient>
	<path id="XMLID_11_" class="st6" d="M67.5,215.2v1.1c1.7,0.3,3.3,0.7,4.7,1.4c3.3,2,5.9,5.2,5.6,9.1l7.5-0.7c1-2.4,1.4-6.2,0.5-8.1
		c-0.6-1.2-1.1-2.1-1.8-2.9H67.5z"/>
	
		<radialGradient id="XMLID_104_" cx="-5.6691" cy="0.1411" r="1.5766" gradientTransform="matrix(45.2413 0 0 -45.2413 326.7734 285.635)" gradientUnits="userSpaceOnUse">
		<stop  offset="0" style="stop-color:#E5B86D"/>
		<stop  offset="1" style="stop-color:#A6700E"/>
	</radialGradient>
	<path id="XMLID_12_" class="st7" d="M87.3,215.2c1.5,2.1,1.6,4.8,1.8,7.2c2.9-2.2,6.5-3.5,10.3-2.5c-2.6-2-4.3-3.5-7.4-4.7
		L87.3,215.2z"/>
	
		<radialGradient id="XMLID_105_" cx="-5.6333" cy="0.1365" r="1.5766" gradientTransform="matrix(45.5287 0 0 -45.5287 326.7734 285.9306)" gradientUnits="userSpaceOnUse">
		<stop  offset="0" style="stop-color:#E5B86D"/>
		<stop  offset="1" style="stop-color:#A6700E"/>
	</radialGradient>
	<path id="XMLID_16_" class="st8" d="M93.7,251.8c-2.2,0.6-4.3-0.8-6.5-1.2c0-0.3-0.1-0.6,0.1-0.8c-3.2,2-2.3,5.8-2.9,8.9
		c0.8,3.4,4.4,4.7,6.9,6.7c3.7,0.7,7.1-1,10.3-2.2c0.5,0.5,1.3,1,0.9,1.8c-2.5,3.5-6.3,5.1-10.6,4.7c2.6,4.9,0.8,10.6-1.9,15h2.6
		c7.7-3.6,15.1-8.9,15.7-19.3c0.8-6.5,0.3-13.3-4.4-17.9c-0.3,0-0.6,0-1,0c-0.8,0-1.6,0.1-2.2-0.7C98.6,248.8,95.8,249.6,93.7,251.8
		 M95.1,251.8c1.4-1.5,5.2-4.3,6.5-3.3c0.3,0.3,0.5,1.2,0.4,2.1l-0.7,1.6l-0.7-2c-1.8,0.4-3.6,1.1-4.5,2.9c-0.1,0.5,0.1,1.6-0.4,2
		C94.5,254.8,95.2,252.8,95.1,251.8 M101.3,259.1c1.4,5.1-4.6,4.2-7.2,5.6c-1-0.8-0.5-2.1-0.7-3.1l0.7-0.7c0.7,2,1.9,1.2,3.2,0.5
		c0.8-0.4,1.6-0.9,2.4-0.7C100.7,260.3,100.3,258.9,101.3,259.1"/>
	
		<radialGradient id="XMLID_106_" cx="-5.6319" cy="0.136" r="1.5766" gradientTransform="matrix(45.5436 0 0 -45.5436 326.7365 285.9677)" gradientUnits="userSpaceOnUse">
		<stop  offset="0" style="stop-color:#E5B86D"/>
		<stop  offset="1" style="stop-color:#A6700E"/>
	</radialGradient>
	<path id="XMLID_17_" class="st9" d="M96.1,221.7c-3.4,0.2-6.7,2.7-8,4.7c2.4,1.3,5,3.3,7.2,5.4c-0.1,0.8,0.4,1.8-0.7,2.2
		c-1.2-0.9-2.2-3.3-3.7-2.5c1.2,2.5,4.3,2.7,6.8,3.4c0.9,0.9,0.7,2.5,2.6,1.8c0.9,0.3,1.3,1.3,1.6,2.2c-1,1.9-3.3,1.7-5.4,1.6
		c-1-0.1-2.1-0.2-2.8,0c2,0.8,4.2,1,6,2.2c1.8,1.2,2.4-1.6,3.1-2.5c3.1,0.8,1.4,4,2.7,5.9c6.7,6.9,5.4,19.1,2,27.1
		c9.1-8.4,8.4-27,6.3-34.5c-2.1-7.3-8.5-17-17.1-17C96.5,221.7,96.3,221.7,96.1,221.7"/>
	
		<radialGradient id="XMLID_107_" cx="-4.6927" cy="0.7497" r="1.5766" gradientTransform="matrix(45.9745 0 0 -45.9745 397.4158 236.9391)" gradientUnits="userSpaceOnUse">
		<stop  offset="0" style="stop-color:#E5B86D"/>
		<stop  offset="0.2582" style="stop-color:#E5B86D"/>
		<stop  offset="1" style="stop-color:#A6700E"/>
	</radialGradient>
	<path id="XMLID_23_" class="st10" d="M102.2,215.2c5.4,4.1,9.8,9.5,12.8,15.7c6.9,3.2,14.2,7.5,22,12.9v-28.5H102.2z M87.3,215.2
		c1.5,2.1,1.6,4.8,1.8,7.2c2.9-2.2,6.5-3.5,10.3-2.5c-2.6-2-4.3-3.5-7.4-4.7L87.3,215.2z M67.5,215.2v1.1c1.7,0.3,3.3,0.7,4.7,1.4
		c2.2,1.3,4.1,3.2,5,5.5c2.9-0.3,5.8-0.4,8.9-0.2c0.3-1.8,0.2-3.7-0.3-4.9c-0.6-1.2-1.1-2.1-1.8-2.9L67.5,215.2z M67.5,225.1
		c2.3-0.7,4.6-1.2,7-1.6c-0.1-0.2-0.1-0.5-0.2-0.7c-1.6-2.5-4.1-4-6.8-4.6V225.1z M96.1,221.7c-1.8,0.1-3.5,0.8-4.9,1.7
		c5.3,0.8,11,2.2,17,4.5c-3-3.6-6.9-6.3-11.4-6.3C96.5,221.7,96.3,221.7,96.1,221.7"/>
	
		<radialGradient id="XMLID_108_" cx="-2.6878" cy="-6.905857e-002" r="1.5766" gradientTransform="matrix(81.5363 0 0 -81.5363 391.5043 306.473)" gradientUnits="userSpaceOnUse">
		<stop  offset="0" style="stop-color:#E5B86D"/>
		<stop  offset="1" style="stop-color:#A6700E"/>
	</radialGradient>
	<path id="XMLID_28_" class="st11" d="M114.6,269.8c-3,5.8-7.2,10.9-12.4,14.8H137v-48.2C131.8,248.8,124.8,261.9,114.6,269.8
		 M67.5,284.7h6l1.5-1.2c2.3-3.2,3.2-6,3.1-8.8c-3.3-1.2-6.8-2.7-10.5-4.7V284.7z M92.9,277.4c-0.5,2.6-1.6,5.1-3,7.2h2.6
		c4.8-2.2,9.4-5.1,12.4-9.3C101.3,276.7,97.3,277.4,92.9,277.4 M76.8,284.7h10.6c0.5-0.4,0.9-0.9,1.4-1.5c1.6-2.1,2.2-4,2.2-5.8
		c-3.4-0.2-7.1-0.8-11-2.1C79.8,278.8,79,282,76.8,284.7"/>
	
		<linearGradient id="XMLID_110_" gradientUnits="userSpaceOnUse" x1="-938.5237" y1="63.9034" x2="-936.9471" y2="63.9034" gradientTransform="matrix(0.2668 0 0 -0.2668 337.2796 267.1385)">
		<stop  offset="0" style="stop-color:#E5B86D"/>
		<stop  offset="1" style="stop-color:#A6700E"/>
	</linearGradient>
	<path id="XMLID_29_" class="st12" d="M86.9,250.1l0,0.1l0.3,0.1c0-0.2,0-0.4,0.1-0.5L86.9,250.1z"/>
	
		<linearGradient id="XMLID_111_" gradientUnits="userSpaceOnUse" x1="-59.4495" y1="3.1817" x2="-57.8729" y2="3.1817" gradientTransform="matrix(4.1653 0 0 -4.1653 342.1213 273.7252)">
		<stop  offset="0" style="stop-color:#E5B86D"/>
		<stop  offset="1" style="stop-color:#A6700E"/>
	</linearGradient>
	<path id="XMLID_30_" class="st13" d="M99.4,260.3c-0.8-0.1-1.6,0.3-2.4,0.7c-0.9,0.5-1.8,1-2.5,0.6c0.7,1,1.7,0.4,2.8-0.3
		c0.8-0.4,1.6-0.9,2.4-0.7c0.8-0.4,0.6-1.6,1.3-1.6l-0.1-0.3l-0.2,0C100,258.7,100.3,260,99.4,260.3"/>
	
		<linearGradient id="XMLID_112_" gradientUnits="userSpaceOnUse" x1="-2053.1245" y1="140.8521" x2="-2051.5479" y2="140.8521" gradientTransform="matrix(0.1219 0 0 -0.1219 337.5457 266.9333)">
		<stop  offset="0" style="stop-color:#E5B86D"/>
		<stop  offset="1" style="stop-color:#A6700E"/>
	</linearGradient>
	<path id="XMLID_31_" class="st14" d="M87.3,249.8l0.2-0.1L87.3,249.8z"/>
	
		<linearGradient id="XMLID_116_" gradientUnits="userSpaceOnUse" x1="-446.5174" y1="22.515" x2="-444.9408" y2="22.515" gradientTransform="matrix(0.5557 0 0 -0.5557 341.2509 275.0106)">
		<stop  offset="0" style="stop-color:#E5B86D"/>
		<stop  offset="1" style="stop-color:#A6700E"/>
	</linearGradient>
	<path id="XMLID_32_" class="st15" d="M93.8,260.6l-0.7,0.7c0.1,1-0.4,2.4,0.7,3.1h0c-0.6-0.8-0.2-1.9-0.3-2.8l0.5-0.5
		C93.9,261,93.9,260.8,93.8,260.6L93.8,260.6z"/>
	
		<linearGradient id="XMLID_117_" gradientUnits="userSpaceOnUse" x1="-57.5378" y1="3.8587" x2="-55.9612" y2="3.8587" gradientTransform="matrix(4.3028 0 0 -4.3028 342.2186 267.9152)">
		<stop  offset="0" style="stop-color:#E5B86D"/>
		<stop  offset="1" style="stop-color:#A6700E"/>
	</linearGradient>
	<path id="XMLID_33_" class="st16" d="M94.7,251.5c0.1,1-0.4,2.8,0.4,3.2c-0.3-0.6,0-2.1-0.1-2.9c1.3-1.4,5-4.2,6.4-3.3v0
		c-0.2-0.3-0.5-0.5-1-0.5C98.8,248,95.9,250.2,94.7,251.5"/>
	
		<linearGradient id="XMLID_118_" gradientUnits="userSpaceOnUse" x1="-578.9191" y1="39.3583" x2="-577.3423" y2="39.3583" gradientTransform="matrix(0.424 0 0 -0.424 345.8506 267.7661)">
		<stop  offset="0" style="stop-color:#E5B86D"/>
		<stop  offset="1" style="stop-color:#A6700E"/>
	</linearGradient>
	<polygon id="XMLID_34_" class="st17" points="100.4,250.3 100.9,252 101,251.6 100.6,250.2 	"/>
	
		<linearGradient id="XMLID_119_" gradientUnits="userSpaceOnUse" x1="-271.8446" y1="25.6257" x2="-270.2679" y2="25.6257" gradientTransform="matrix(0.9133 0 0 -0.9133 340.98 256.1193)">
		<stop  offset="0" style="stop-color:#E5B86D"/>
		<stop  offset="1" style="stop-color:#A6700E"/>
	</linearGradient>
	<path id="XMLID_35_" class="st18" d="M92.7,231.9c0.5,0.5,1,1.2,1.4,1.6C93.7,233,93.2,232.4,92.7,231.9z"/>
	
		<linearGradient id="XMLID_120_" gradientUnits="userSpaceOnUse" x1="-174.4472" y1="15.5513" x2="-172.8706" y2="15.5513" gradientTransform="matrix(1.4107 0 0 -1.4107 344.7908 258.6634)">
		<stop  offset="0" style="stop-color:#E5B86D"/>
		<stop  offset="1" style="stop-color:#A6700E"/>
	</linearGradient>
	<path id="XMLID_36_" class="st19" d="M98.7,236.4c0.3,0.4,0.7,0.7,1.7,0.3c0.2,0.1,0.4,0.2,0.5,0.3c-0.2-0.3-0.5-0.5-0.9-0.6
		C99.4,236.6,99,236.6,98.7,236.4"/>
	
		<linearGradient id="XMLID_121_" gradientUnits="userSpaceOnUse" x1="-57.5584" y1="5.7105" x2="-55.9817" y2="5.7105" gradientTransform="matrix(4.3427 0 0 -4.3427 338.0813 253.7018)">
		<stop  offset="0" style="stop-color:#E5B86D"/>
		<stop  offset="1" style="stop-color:#A6700E"/>
	</linearGradient>
	<path id="XMLID_37_" class="st20" d="M88.1,226.4c2.2,1.2,4.7,3.1,6.8,5l0,0c-2.1-2-4.5-3.8-6.8-5.1L88.1,226.4z"/>
	
		<linearGradient id="XMLID_122_" gradientUnits="userSpaceOnUse" x1="-44.6853" y1="3.155" x2="-43.1087" y2="3.155" gradientTransform="matrix(5.4419 0 0 -5.4419 349.8453 266.9333)">
		<stop  offset="0" style="stop-color:#E5B86D"/>
		<stop  offset="1" style="stop-color:#A6700E"/>
	</linearGradient>
	<path id="XMLID_38_" class="st21" d="M106.7,226.3c3.3,3.4,5.7,8.1,6.9,12.1c2.1,7.3,2.8,25-5.5,33.7c-0.1,0.4-0.3,0.8-0.4,1.1
		c9.1-8.4,8.4-27,6.3-34.5C112.7,234.6,110.2,229.8,106.7,226.3L106.7,226.3z"/>
	
		<linearGradient id="XMLID_123_" gradientUnits="userSpaceOnUse" x1="-24.6861" y1="1.1955" x2="-23.1095" y2="1.1955" gradientTransform="matrix(10.1587 0 0 -10.1587 336.6573 275.6474)">
		<stop  offset="0" style="stop-color:#E5B86D"/>
		<stop  offset="1" style="stop-color:#A6700E"/>
	</linearGradient>
	<path id="XMLID_39_" class="st22" d="M85.9,261.5c1.5,1.6,3.7,2.6,5.4,3.9c3.7,0.7,7.1-1,10.3-2.2l0.3,0.3
		c-0.2-0.2-0.4-0.4-0.6-0.6c-3.3,1.2-6.7,2.9-10.3,2.2C89.4,263.8,87.4,262.9,85.9,261.5L85.9,261.5z"/>
	
		<linearGradient id="XMLID_124_" gradientUnits="userSpaceOnUse" x1="-64.4014" y1="5.9688" x2="-62.8248" y2="5.9688" gradientTransform="matrix(3.8613 0 0 -3.8613 340.304 256.7393)">
		<stop  offset="0" style="stop-color:#E5B86D"/>
		<stop  offset="1" style="stop-color:#A6700E"/>
	</linearGradient>
	<path id="XMLID_40_" class="st23" d="M91.6,232.5c1.4,1.6,4,1.9,6.1,2.4l-0.3-0.3c-0.8-0.2-1.8-0.4-2.7-0.6l-0.1,0.1l-0.2-0.1
		C93.4,233.6,92.4,233.2,91.6,232.5L91.6,232.5z"/>
	
		<linearGradient id="XMLID_125_" gradientUnits="userSpaceOnUse" x1="-46.8474" y1="2.9531" x2="-45.2707" y2="2.9531" gradientTransform="matrix(5.4413 0 0 -5.4413 329.488 268.8412)">
		<stop  offset="0" style="stop-color:#E5B86D"/>
		<stop  offset="1" style="stop-color:#A6700E"/>
	</linearGradient>
	<path id="XMLID_41_" class="st24" d="M81.5,245.7c-3.7,2.3-7,5.7-7,10.2v3.9l0.3,0.5v-4.1c0-5.1,4.1-8.8,8.2-11
		C82.6,245.4,82.1,245.6,81.5,245.7"/>
	
		<linearGradient id="XMLID_126_" gradientUnits="userSpaceOnUse" x1="-326.9204" y1="27.7388" x2="-325.3438" y2="27.7388" gradientTransform="matrix(0.7653 0 0 -0.7653 337.672 259.8936)">
		<stop  offset="0" style="stop-color:#E5B86D"/>
		<stop  offset="1" style="stop-color:#A6700E"/>
	</linearGradient>
	<polygon id="XMLID_42_" class="st25" points="87.5,237.7 88.3,239.2 88.7,239.7 88.7,239.7 87.7,237.7 87.5,237.6 	"/>
	
		<linearGradient id="XMLID_127_" gradientUnits="userSpaceOnUse" x1="-28.2515" y1="1.2592" x2="-26.6749" y2="1.2592" gradientTransform="matrix(8.9936 0 0 -8.9936 330.924 277.0682)">
		<stop  offset="0" style="stop-color:#E5B86D"/>
		<stop  offset="1" style="stop-color:#A6700E"/>
	</linearGradient>
	<path id="XMLID_43_" class="st26" d="M85.7,247.6c-2.4,2.9-4.1,5.6-4.5,9.2c-0.3,9.8,15,15.8,7.2,26c-0.4,0.6-0.9,1-1.3,1.5h-10
		l-0.3,0.3h10.6c0.5-0.4,0.9-0.9,1.4-1.5c7.8-10.2-7.5-16.2-7.2-26c0.4-3.9,2.5-6.9,5.2-10.1l-0.3-0.3
		C86.3,247.1,86,247.4,85.7,247.6"/>
	
		<linearGradient id="XMLID_128_" gradientUnits="userSpaceOnUse" x1="-47.4733" y1="5.1803" x2="-45.8966" y2="5.1803" gradientTransform="matrix(5.3448 0 0 -5.3448 331.5305 248.692)">
		<stop  offset="0" style="stop-color:#E5B86D"/>
		<stop  offset="1" style="stop-color:#A6700E"/>
	</linearGradient>
	<path id="XMLID_44_" class="st27" d="M83.9,215.2c0.5,0.7,1,1.5,1.5,2.5c0.9,1.9,0.5,5.7-0.5,8.1l-7.1,0.6l0,0.4l7.5-0.7
		c1-2.4,1.4-6.2,0.5-8.1C85.2,216.8,84.6,215.9,83.9,215.2L83.9,215.2z"/>
	
		<linearGradient id="XMLID_129_" gradientUnits="userSpaceOnUse" x1="-38.5371" y1="1.4419" x2="-36.9605" y2="1.4419" gradientTransform="matrix(6.6818 0 0 -6.6818 325.004 280.0002)">
		<stop  offset="0" style="stop-color:#E5B86D"/>
		<stop  offset="1" style="stop-color:#A6700E"/>
	</linearGradient>
	<path id="XMLID_45_" class="st28" d="M67.5,256.1v0.1c5.9,8.5,15.1,16.1,7.1,26.9l-1.5,1.2h-5.6v0.3h6l1.5-1.2
		C83.1,272.4,73.4,264.7,67.5,256.1L67.5,256.1z"/>
	
		<linearGradient id="XMLID_131_" gradientUnits="userSpaceOnUse" x1="-21.1703" y1="0.9517" x2="-19.5936" y2="0.9517" gradientTransform="matrix(11.7748 0 0 -11.7748 339.264 277.2748)">
		<stop  offset="0" style="stop-color:#E5B86D"/>
		<stop  offset="1" style="stop-color:#A6700E"/>
	</linearGradient>
	<path id="XMLID_46_" class="st29" d="M103.8,247.5c4.4,4.6,4.9,11.2,4.1,17.6c-0.5,10.3-7.9,15.7-15.7,19.3h-2l-0.2,0.3h2.6
		c7.7-3.6,15.1-8.9,15.7-19.3C109,258.9,108.5,252.1,103.8,247.5L103.8,247.5z"/>
	
		<linearGradient id="XMLID_132_" gradientUnits="userSpaceOnUse" x1="-11.107" y1="0.7764" x2="-9.5304" y2="0.7764" gradientTransform="matrix(22.04 0 0 -22.04 347.0267 267.0321)">
		<stop  offset="0" style="stop-color:#E5B86D"/>
		<stop  offset="1" style="stop-color:#A6700E"/>
	</linearGradient>
	<polygon id="XMLID_47_" class="st30" points="136.6,215.2 136.6,284.3 102.7,284.3 102.2,284.7 137,284.7 137,215.2 	"/>
	
		<linearGradient id="XMLID_133_" gradientUnits="userSpaceOnUse" x1="-55.7866" y1="5.6623" x2="-54.2099" y2="5.6623" gradientTransform="matrix(4.6158 0 0 -4.6158 325.004 251.3832)">
		<stop  offset="0" style="stop-color:#E5B86D"/>
		<stop  offset="1" style="stop-color:#A6700E"/>
	</linearGradient>
	<path id="XMLID_48_" class="st31" d="M73.9,222.4c1.2,3.1,0.4,5.5-2.5,6.8c-1.3-0.2-2.6-0.4-3.9-0.8v0.3c1.4,0.4,2.8,0.7,4.3,0.9
		c2.9-1.3,3.7-3.7,2.5-6.8c-0.4-0.7-1-1.3-1.5-1.8C73.2,221.4,73.6,221.9,73.9,222.4"/>
	
		<linearGradient id="XMLID_137_" gradientUnits="userSpaceOnUse" x1="-22.4835" y1="1.864" x2="-20.9069" y2="1.864" gradientTransform="matrix(11.4107 0 0 -11.4107 326.644 259.8234)">
		<stop  offset="0" style="stop-color:#E5B86D"/>
		<stop  offset="1" style="stop-color:#A6700E"/>
	</linearGradient>
	<path id="XMLID_49_" class="st32" d="M79.7,237.6c-1.9,0-3.8,2.5-5.3,1.8h-1.1l0-0.1c-1,0-2-0.2-2.8-0.6l-0.4-0.1
		c1.2,0.9,2.7,1.1,4.5,1l0.4,0.2h0.8c1.3-0.3,2.8-1.9,4.3-1.9c2.6-0.4,5.9-0.8,8,1.1c-1.3-1.4-3.1-1.8-4.9-1.8
		C82,237.3,80.7,237.4,79.7,237.6"/>
	
		<linearGradient id="XMLID_138_" gradientUnits="userSpaceOnUse" x1="-89.56" y1="10.6551" x2="-87.9833" y2="10.6551" gradientTransform="matrix(2.7333 0 0 -2.7333 347.0293 246.2013)">
		<stop  offset="0" style="stop-color:#E5B86D"/>
		<stop  offset="1" style="stop-color:#A6700E"/>
	</linearGradient>
	<path id="XMLID_50_" class="st33" d="M102.2,215.2c1.5,1.2,3,2.4,4.3,3.8C105.2,217.6,103.8,216.4,102.2,215.2L102.2,215.2z"/>
	
		<linearGradient id="XMLID_139_" gradientUnits="userSpaceOnUse" x1="-38.0215" y1="3.0964" x2="-36.4449" y2="3.0964" gradientTransform="matrix(6.52 0 0 -6.52 341.648 261.6974)">
		<stop  offset="0" style="stop-color:#E5B86D"/>
		<stop  offset="1" style="stop-color:#A6700E"/>
	</linearGradient>
	<path id="XMLID_51_" class="st34" d="M99.4,242.4c-1.6-1-3.5-1.4-5.3-1.9l-0.4,0.1c2,0.8,4.2,1,6,2.2c1.8,1.2,2.4-1.6,3.1-2.5
		c0.5,0.1,0.8,0.3,1.1,0.5c-0.3-0.4-0.8-0.7-1.5-0.9C101.8,240.9,101.2,243.6,99.4,242.4"/>
	
		<linearGradient id="XMLID_140_" gradientUnits="userSpaceOnUse" x1="-37.939" y1="4.22" x2="-36.3624" y2="4.22" gradientTransform="matrix(6.58 0 0 -6.58 338.6319 248.5534)">
		<stop  offset="0" style="stop-color:#E5B86D"/>
		<stop  offset="1" style="stop-color:#A6700E"/>
	</linearGradient>
	<path id="XMLID_52_" class="st35" d="M89,221.8c0,0.2,0,0.4,0,0.6c2.9-2.2,6.5-3.5,10.3-2.5l-0.5-0.4c-0.9-0.2-1.7-0.3-2.5-0.3
		C93.6,219.2,91.1,220.3,89,221.8"/>
	
		<linearGradient id="XMLID_145_" gradientUnits="userSpaceOnUse" x1="-155.1349" y1="12.9758" x2="-153.5582" y2="12.9758" gradientTransform="matrix(1.6472 0 0 -1.6472 328.4128 259.6427)">
		<stop  offset="0" style="stop-color:#E5B86D"/>
		<stop  offset="1" style="stop-color:#A6700E"/>
	</linearGradient>
	<path id="XMLID_53_" class="st36" d="M72.9,239h0.4c0.3-0.6,1.4-1.3,2.1-1.1l0.1-0.1v0c-0.1-0.2-0.4-0.3-0.7-0.3
		C73.9,237.5,72.7,238.5,72.9,239"/>
	
		<linearGradient id="XMLID_146_" gradientUnits="userSpaceOnUse" x1="-56.2713" y1="6.3044" x2="-54.6947" y2="6.3044" gradientTransform="matrix(4.576 0 0 -4.576 325.004 246.678)">
		<stop  offset="0" style="stop-color:#E5B86D"/>
		<stop  offset="1" style="stop-color:#A6700E"/>
	</linearGradient>
	<path id="XMLID_54_" class="st37" d="M67.5,216.3c1.7,0.3,3.3,0.7,4.7,1.4c0.9,0.5,1.8,1.2,2.5,1.9c-0.8-0.9-1.8-1.7-2.9-2.3
		c-1.3-0.6-2.8-1-4.3-1.3V216.3z"/>
	<polygon id="XMLID_55_" class="st38" points="173.9,261.2 169.2,261.2 169.2,243.9 162.1,256.7 159.3,256.7 152.2,243.9 
		152.2,261.2 147.4,261.2 147.4,235.1 152.2,235.1 160.7,250.2 169.2,235.1 173.9,235.1 	"/>
	<path id="XMLID_56_" class="st38" d="M202.5,260.5c-3,0.8-5.9,1.1-8.5,1.1c-4.4,0-8-1.3-10.7-3.9c-2.6-2.5-4-5.7-4-9.5
		c0-4,1.4-7.2,4.1-9.7c2.7-2.5,6.2-3.8,10.5-3.8c2.5,0,5,0.3,7.4,0.9l-0.7,4.2c-2.5-0.4-4.6-0.6-6.2-0.6c-3.3,0-5.8,0.8-7.5,2.4
		c-1.7,1.6-2.6,3.8-2.6,6.7c0,2.7,0.8,4.8,2.5,6.5c1.7,1.7,3.9,2.5,6.8,2.5c1.4,0,2.8-0.1,4.3-0.3v-8.7h4.7V260.5z"/>
	<polygon id="XMLID_57_" class="st38" points="235.4,261.2 230.6,261.2 230.6,243.9 223.5,256.7 220.7,256.7 213.6,243.9 
		213.6,261.2 208.8,261.2 208.8,235.1 213.6,235.1 222.1,250.2 230.6,235.1 235.4,235.1 	"/>
	<path id="XMLID_60_" class="st38" d="M268.9,243.2c0-1.2-0.4-2.2-1.2-2.9c-0.8-0.8-1.8-1.1-3-1.1H257v8.2h7.7c1.2,0,2.2-0.4,3-1.2
		C268.5,245.5,268.9,244.5,268.9,243.2 M276.8,261.2h-6.2l-7.2-9.9H257v9.9h-5v-26.1h13.6c2.5,0,4.5,0.8,6.1,2.4
		c1.5,1.6,2.3,3.5,2.3,5.7c0,1.6-0.5,3.1-1.4,4.5c-0.9,1.3-2.2,2.3-3.7,2.9L276.8,261.2z"/>
	<polygon id="XMLID_61_" class="st38" points="299.7,261.2 280.9,261.2 280.9,235.1 299.7,235.1 299.7,239.4 285.9,239.4 
		285.9,245.5 298.8,245.5 298.8,249.8 285.9,249.8 285.9,256.9 299.7,256.9 	"/>
	<path id="XMLID_62_" class="st38" d="M325.5,254c0,2.3-1,4.1-3,5.5c-2,1.4-4.6,2.1-7.8,2.1c-4,0-7.6-0.7-10.8-2.2l1.1-3.9
		c3.5,1.2,6.7,1.8,9.6,1.8c3.9,0,5.8-1.1,5.8-3.2c0-0.9-0.5-1.6-1.4-2.1c-0.7-0.4-2.5-1.2-5.3-2.2c-3.4-1.3-5.7-2.4-6.8-3.4
		c-1.4-1.2-2.1-2.8-2.1-4.9c0-4.6,3.5-6.9,10.4-6.9c3.4,0,6.5,0.4,9.4,1.3l-0.7,4c-2.9-0.7-5.8-1-8.6-1c-2,0-3.5,0.2-4.3,0.5
		c-0.8,0.4-1.2,1-1.2,1.9c0,0.9,0.5,1.7,1.5,2.3c0.7,0.4,2.7,1.2,5.8,2.5c3.3,1.3,5.4,2.3,6.4,3.1C324.9,250.4,325.5,252,325.5,254"
		/>
	<path id="XMLID_65_" class="st38" d="M350,248.2c0-2.6-0.7-4.8-2.2-6.5c-1.5-1.7-3.4-2.5-5.9-2.5c-2.5,0-4.4,0.8-5.9,2.5
		c-1.5,1.7-2.2,3.9-2.2,6.5c0,2.6,0.7,4.8,2.2,6.4c1.5,1.7,3.4,2.6,5.9,2.6c2.5,0,4.4-0.9,5.9-2.6C349.3,252.9,350,250.8,350,248.2
		 M355,248.2c0,3.7-1.3,6.9-3.8,9.5c-2.5,2.6-5.6,3.9-9.3,3.9c-3.7,0-6.8-1.3-9.3-3.9c-2.5-2.6-3.8-5.8-3.8-9.5
		c0-3.7,1.3-6.9,3.8-9.5c2.5-2.6,5.6-3.9,9.3-3.9c3.7,0,6.8,1.3,9.3,3.9C353.8,241.2,355,244.4,355,248.2"/>
	<path id="XMLID_68_" class="st38" d="M377.2,243.2c0-1.2-0.4-2.2-1.2-2.9c-0.8-0.8-1.8-1.1-3-1.1h-7.7v8.2h7.7c1.2,0,2.2-0.4,3-1.2
		C376.8,245.5,377.2,244.5,377.2,243.2 M385,261.2h-6.2l-7.2-9.9h-6.4v9.9h-5v-26.1h13.6c2.5,0,4.5,0.8,6.1,2.4
		c1.5,1.6,2.3,3.5,2.3,5.7c0,1.6-0.5,3.1-1.4,4.5c-0.9,1.3-2.2,2.3-3.7,2.9L385,261.2z"/>
	<polygon id="XMLID_69_" class="st38" points="408.3,239.4 399.6,239.4 399.6,261.2 394.6,261.2 394.6,239.4 385.9,239.4 
		385.9,235.1 408.3,235.1 	"/>
	<path id="XMLID_70_" class="st38" d="M432.5,254c0,2.3-1,4.1-3,5.5c-2,1.4-4.6,2.1-7.8,2.1c-4,0-7.6-0.7-10.8-2.2l1.1-3.9
		c3.5,1.2,6.7,1.8,9.6,1.8c3.9,0,5.8-1.1,5.8-3.2c0-0.9-0.5-1.6-1.4-2.1c-0.7-0.4-2.5-1.2-5.3-2.2c-3.4-1.3-5.6-2.4-6.8-3.4
		c-1.4-1.2-2.1-2.8-2.1-4.9c0-4.6,3.5-6.9,10.4-6.9c3.4,0,6.5,0.4,9.4,1.3l-0.7,4c-2.9-0.7-5.8-1-8.6-1c-2,0-3.5,0.2-4.3,0.5
		c-0.8,0.4-1.2,1-1.2,1.9c0,0.9,0.5,1.7,1.5,2.3c0.7,0.4,2.7,1.2,5.8,2.5c3.3,1.3,5.4,2.3,6.4,3.1C431.9,250.4,432.5,252,432.5,254"
		/>
	<rect id="XMLID_71_" x="147.4" y="270.3" class="st39" width="2.7" height="14.3"/>
	<polygon id="XMLID_72_" class="st39" points="166.7,284.6 164,284.6 156.8,274.6 156.8,284.6 154.2,284.6 154.2,270.3 156.8,270.3 
		164,280.2 164,270.3 166.7,270.3 	"/>
	<polygon id="XMLID_73_" class="st39" points="181.2,272.6 176.4,272.6 176.4,284.6 173.7,284.6 173.7,272.6 168.9,272.6 
		168.9,270.3 181.2,270.3 	"/>
	<polygon id="XMLID_74_" class="st39" points="193.7,284.6 183.4,284.6 183.4,270.3 193.7,270.3 193.7,272.6 186.2,272.6 186.2,276 
		193.2,276 193.2,278.4 186.2,278.4 186.2,282.2 193.7,282.2 	"/>
	<path id="XMLID_77_" class="st39" d="M206.4,274.7c0-0.7-0.2-1.2-0.7-1.6c-0.4-0.4-1-0.6-1.6-0.6h-4.2v4.5h4.2
		c0.7,0,1.2-0.2,1.6-0.6C206.2,276,206.4,275.4,206.4,274.7 M210.7,284.6h-3.4l-3.9-5.4h-3.5v5.4h-2.8v-14.3h7.5
		c1.3,0,2.5,0.4,3.4,1.3c0.8,0.9,1.3,1.9,1.3,3.1c0,0.9-0.2,1.7-0.8,2.5c-0.5,0.7-1.2,1.3-2,1.6L210.7,284.6z"/>
	<polygon id="XMLID_78_" class="st39" points="225.6,284.6 222.9,284.6 215.8,274.6 215.8,284.6 213.1,284.6 213.1,270.3 
		215.8,270.3 222.9,280.2 222.9,270.3 225.6,270.3 	"/>
	<path id="XMLID_81_" class="st39" d="M236.8,279.3l-2.2-6.2l-2.2,6.2H236.8z M241.4,284.6h-2.7l-1.2-3.2h-5.7l-1.2,3.2h-2.7
		l5.6-14.3h2.5L241.4,284.6z"/>
	<polygon id="XMLID_82_" class="st39" points="252.8,272.6 248.1,272.6 248.1,284.6 245.3,284.6 245.3,272.6 240.6,272.6 
		240.6,270.3 252.8,270.3 	"/>
	<rect id="XMLID_83_" x="255.1" y="270.3" class="st39" width="2.8" height="14.3"/>
	<path id="XMLID_86_" class="st39" d="M272.5,277.4c0-1.5-0.4-2.6-1.2-3.6c-0.8-0.9-1.9-1.4-3.2-1.4c-1.3,0-2.4,0.5-3.2,1.4
		c-0.8,0.9-1.2,2.1-1.2,3.6c0,1.4,0.4,2.6,1.2,3.5c0.8,0.9,1.9,1.4,3.2,1.4c1.3,0,2.4-0.5,3.2-1.4
		C272.1,280.1,272.5,278.9,272.5,277.4 M275.2,277.4c0,2-0.7,3.8-2.1,5.2c-1.4,1.4-3.1,2.2-5.1,2.2c-2,0-3.7-0.7-5.1-2.2
		c-1.4-1.4-2.1-3.2-2.1-5.2c0-2,0.7-3.8,2.1-5.2c1.4-1.4,3.1-2.2,5.1-2.2c2,0,3.7,0.7,5.1,2.2C274.6,273.6,275.2,275.4,275.2,277.4"
		/>
	<polygon id="XMLID_87_" class="st39" points="290.8,284.6 288.1,284.6 280.9,274.6 280.9,284.6 278.2,284.6 278.2,270.3 
		280.9,270.3 288,280.2 288,270.3 290.8,270.3 	"/>
	<path id="XMLID_90_" class="st39" d="M301.9,279.3l-2.2-6.2l-2.2,6.2H301.9z M306.6,284.6h-2.7l-1.2-3.2h-5.7l-1.2,3.2H293
		l5.6-14.3h2.5L306.6,284.6z"/>
	<polygon id="XMLID_91_" class="st39" points="318.6,284.6 308.8,284.6 308.8,270.3 311.6,270.3 311.6,282.2 318.6,282.2 	"/>
	<path id="XMLID_96_" class="st39" d="M322.1,272.5h-1v1.1h1c0.3,0,0.6-0.2,0.6-0.5C322.6,272.7,322.4,272.5,322.1,272.5
		 M322.9,275.4l-1-1.3h-0.8v1.3h-0.7v-3.4h1.8c0.7,0,1.1,0.5,1.1,1.1c0,0.4-0.3,0.8-0.7,1l1,1.4H322.9z M321.8,270.6
		c-1.7,0-2.9,1.4-2.9,3c0,1.6,1.2,3,2.9,3c1.7,0,2.9-1.5,2.9-3C324.7,272.1,323.5,270.6,321.8,270.6 M321.8,277.2
		c-2,0-3.4-1.6-3.4-3.5c0-1.9,1.5-3.5,3.4-3.5c2,0,3.4,1.6,3.4,3.5C325.2,275.6,323.8,277.2,321.8,277.2"/>
</g>
</svg>
