<?xml version="1.0" encoding="utf-8"?>
<!-- Generator: Adobe Illustrator 19.0.0, SVG Export Plug-In . SVG Version: 6.00 Build 0)  -->
<svg version="1.1" id="Layer_1" xmlns="http://www.w3.org/2000/svg" xmlns:xlink="http://www.w3.org/1999/xlink" x="0px" y="0px"
	 viewBox="0 0 500 500" style="enable-background:new 0 0 500 500;" xml:space="preserve">
<style type="text/css">
	.st0{fill:#0969B2;}
	.st1{fill:#0868B2;}
	.st2{fill:#7BB1E0;}
	.st3{fill:#5588C7;}
	.st4{fill:#272A67;}
</style>
<g id="XMLID_1_">
	<path id="XMLID_5_" class="st0" d="M223.8,256.6c-4.1,0-7.5-3.3-7.5-7.5c0-4.1,3.3-7.5,7.5-7.5c4.1,0,7.5,3.3,7.5,7.5
		C231.3,253.3,227.9,256.6,223.8,256.6 M223.2,229.2c-0.3,0-0.7,0-1,0c-2.2,0.1-4.7,0.4-7.3,0.9h-12.6v58.9l15.4,0.2v-19.8
		c2.3,0.7,4.4,1,6.5,1c11.7,0,18.9-10.3,19.4-20.6C244.2,239.5,238.1,229.2,223.2,229.2"/>
	<path id="XMLID_13_" class="st0" d="M269.8,257c-4.1,0-7.5-3.4-7.5-7.5c0-4.1,3.3-7.5,7.5-7.5c4.1,0,7.5,3.3,7.5,7.5
		C277.3,253.6,273.9,257,269.8,257 M269.5,228.7c-0.1,0-0.1,0-0.2,0c-26.9,0.2-26.6,41.7,0,41.7c2.6,0,5.5-0.4,8.7-1.3h13.3v-38.7
		h-11.8C275.9,229.2,272.5,228.7,269.5,228.7 M318.1,228.4c-2.5,0-5.2,0.4-7.7,1.1l-12.5,0.8v38.3h15v-19.1c-0.1-4.8,2.9-7,6-7
		c3.3,0,6.7,2.5,6.5,7v19.1h15v-21.7C338.9,235.5,329.2,228.5,318.1,228.4C318.1,228.4,318.1,228.4,318.1,228.4 M411.2,257.4
		c-4.1,0-7.5-3.3-7.5-7.5c0-4.1,3.3-7.5,7.5-7.5c4.1,0,7.5,3.3,7.5,7.5C418.7,254,415.3,257.4,411.2,257.4 M412.5,228.1
		c-13.7,0-21.6,10.6-22.3,21.2c-0.7,10.6,5.8,21.2,21,21.2c2.8,0,5.8-0.4,9.1-1.1l12.2,0.5l-0.4-40.7l-11.3,0.2
		C417.9,228.5,415.1,228.1,412.5,228.1C412.5,228.1,412.5,228.1,412.5,228.1 M365.5,257.4c-4.1,0-7.5-3.3-7.5-7.5
		c0-4.1,3.3-7.5,7.5-7.5c4.1,0,7.5,3.3,7.5,7.5C373,254,369.6,257.4,365.5,257.4 M386.4,209.2h-15v20c-1.9-0.3-3.7-0.5-5.4-0.5
		c-13.5,0-21.1,10.3-21.8,20.5c-0.7,10.3,5.4,20.5,19.2,20.5c2.8,0,6-0.4,9.5-1.4h13.5V209.2"/>
	<circle id="XMLID_14_" class="st1" cx="81.9" cy="213.6" r="14.4"/>
	<path id="XMLID_15_" class="st2" d="M124,199.2c-27.8,0-50.2,22.5-50.2,50.2c0,0.2,0,0.3,0,0.5h28.8c0-0.3,0-0.6,0-0.9
		c0-11.9,9.6-21.6,21.5-21.7L124,199.2L124,199.2z"/>
	<circle id="XMLID_16_" class="st1" cx="167.1" cy="214" r="14.4"/>
	<path id="XMLID_17_" class="st3" d="M124.1,199.2c27.8,0,50.2,22.5,50.2,50.2c0,0.2,0,0.3,0,0.5h-28.8c0-0.3,0-0.6,0-0.9
		c0-11.9-9.6-21.6-21.5-21.7L124.1,199.2L124.1,199.2z"/>
	<path id="XMLID_19_" class="st4" d="M124,300.8c-27.8,0-50.2-22.5-50.2-50.2c0-0.2,0-0.3,0-0.5h28.8c0,0.3,0,0.6,0,0.9
		c0,11.9,9.6,21.6,21.5,21.7L124,300.8L124,300.8z"/>
	<path id="XMLID_20_" class="st1" d="M124.1,300.8c27.8,0,50.2-22.5,50.2-50.2c0-0.2,0-0.3,0-0.5h-28.8c0,0.3,0,0.6,0,0.9
		c0,11.9-9.6,21.6-21.5,21.7L124.1,300.8L124.1,300.8z"/>
</g>
</svg>
