<?xml version="1.0" encoding="utf-8"?>
<!-- Generator: Adobe Illustrator 19.0.0, SVG Export Plug-In . SVG Version: 6.00 Build 0)  -->
<svg version="1.1" id="Layer_1" xmlns="http://www.w3.org/2000/svg" xmlns:xlink="http://www.w3.org/1999/xlink" x="0px" y="0px"
	 viewBox="0 0 500 500" style="enable-background:new 0 0 500 500;" xml:space="preserve">
<style type="text/css">
	.st0{fill:#97BBBC;}
	.st1{fill:#669292;}
	.st2{fill:#B3DEDE;}
	.st3{fill:#487F7E;}
	.st4{fill:#296A69;}
	.st5{fill:#129489;}
	.st6{clip-path:url(#XMLID_65_);fill:#97BBBC;}
	.st7{clip-path:url(#XMLID_65_);fill:#118381;}
</style>
<g id="XMLID_1_">
	<polygon id="XMLID_3_" class="st0" points="313.2,113.4 330.9,137.7 343.7,113.4 	"/>
	<polygon id="XMLID_4_" class="st1" points="266,127 313.2,113.4 330.9,137.7 	"/>
	<polygon id="XMLID_5_" class="st2" points="266,127 310.9,155.9 330.9,137.7 	"/>
	<polygon id="XMLID_6_" class="st1" points="266,127 263.1,159.6 289.5,142 	"/>
	<polygon id="XMLID_7_" class="st0" points="263.1,159.6 310.9,155.9 289.5,142 	"/>
	<polygon id="XMLID_8_" class="st2" points="263.1,159.6 271.1,184.4 310.8,155.8 	"/>
	<polygon id="XMLID_9_" class="st3" points="230.8,140.2 266,127 263.2,159.6 	"/>
	<polygon id="XMLID_10_" class="st0" points="216.5,162 263.1,159.6 271.1,184.5 	"/>
	<polygon id="XMLID_11_" class="st1" points="230.9,140.2 216.5,162 263.1,159.6 	"/>
	<polygon id="XMLID_12_" class="st4" points="231.3,115.8 230.9,140.2 259.7,129.4 	"/>
	<polygon id="XMLID_13_" class="st4" points="187.6,141.2 216.5,162 230.9,140.2 	"/>
	<polygon id="XMLID_14_" class="st1" points="161.4,153.4 187.6,141.2 216.5,162 	"/>
	<polygon id="XMLID_15_" class="st3" points="216.5,162 201.6,185.6 235.9,170.1 	"/>
	<polygon id="XMLID_16_" class="st1" points="201.6,185.6 245.1,197.3 235.9,170.1 	"/>
	<polygon id="XMLID_17_" class="st0" points="235.9,170.1 248.2,175 245.1,197.3 	"/>
	<polygon id="XMLID_18_" class="st2" points="245.1,197.3 271.1,184.5 248.2,175 	"/>
	<polygon id="XMLID_19_" class="st4" points="201.6,185.6 201.2,222.3 217.3,189.5 	"/>
	<polygon id="XMLID_20_" class="st2" points="201.2,222.3 245.1,197.3 217.3,189.5 	"/>
	<polygon id="XMLID_21_" class="st1" points="201.4,205.3 190.9,215.9 201.2,222.3 	"/>
	<polygon id="XMLID_22_" class="st0" points="201.2,222.3 231.7,245.2 227.6,207.2 	"/>
	<polygon id="XMLID_23_" class="st5" points="211.7,230.1 223.3,255.9 225.8,240.7 	"/>
	<polygon id="XMLID_24_" class="st2" points="231.7,245.2 256.7,241.5 229.8,226.5 	"/>
	<polygon id="XMLID_25_" class="st0" points="229.7,226.4 270.7,215.9 256.7,241.5 	"/>
	<polygon id="XMLID_26_" class="st1" points="256.7,241.5 270.7,215.8 295.5,207 256.7,241.6 	"/>
	<polygon id="XMLID_27_" class="st4" points="271,184.4 300.6,201.2 302.7,161.5 	"/>
	<polygon id="XMLID_28_" class="st1" points="302.7,161.5 313.6,184.5 300.6,201.2 	"/>
	<g id="XMLID_31_">
		<defs>
			<rect id="XMLID_30_" x="67.5" y="93" width="365" height="314"/>
		</defs>
		<clipPath id="XMLID_65_">
			<use xlink:href="#XMLID_30_"  style="overflow:visible;"/>
		</clipPath>
		<path id="XMLID_32_" class="st6" d="M300.6,201.2c-0.2-0.4,13-16.7,13-16.7l8,43.5L300.6,201.2z"/>
		<polygon id="XMLID_33_" class="st6" points="267.4,270.9 256.7,241.4 231,245.1 		"/>
		<path id="XMLID_34_" class="st7" d="M119.2,297.5c-0.8-0.9-8.5-5.5-15.3-5.5c-4.5,0-7,1.6-7,4.8c0,3.9,4.3,4.9,11.9,7
			c11,3,17.9,6.7,17.9,17.3c0,13-10.5,17.5-21.5,17.5c-8.4,0-17.6-2.7-24.4-7.1l5.8-11.5c1,1.1,10.1,6.7,18.8,6.7c4.8,0,7-1.5,7-4.3
			c0-4.3-5.9-5.3-13.8-7.7c-10.5-3.2-15.5-7.2-15.5-15.8c0-12.1,9.7-18.6,21.1-18.6c8.1,0,15.6,3.3,20.6,6.3L119.2,297.5z"/>
		<polygon id="XMLID_35_" class="st7" points="201.4,280.7 201.4,337.9 188.2,337.9 188.2,314.5 165.4,314.5 165.4,337.9 
			152.2,337.9 152.2,280.7 165.4,280.7 165.4,302.9 188.2,302.9 188.2,280.7 		"/>
		<path id="XMLID_38_" class="st7" d="M315.1,307.9h12.1c3.1,0,5.7-3.3,5.7-7.9c0-4.7-3.1-7.7-6.1-7.7h-11.7V307.9z M301.9,337.9
			v-57.2h25.8c10.8,0,18.7,9.8,18.7,19.3c0,7-3.6,13.4-9.3,16.6l13.1,21.3h-14.9l-11.5-18.4h-8.6v18.4H301.9z"/>
		<polygon id="XMLID_39_" class="st7" points="374.4,337.9 374.4,280.7 387.6,280.7 387.6,306.5 409.7,280.7 423.3,280.7 
			401.9,306.3 424.8,337.9 410.9,337.9 394.1,313.7 387.6,320.7 387.6,337.9 		"/>
		<polygon id="XMLID_40_" class="st7" points="197.4,361.7 189.5,361.7 189.5,382.3 183.6,382.3 183.6,361.7 175.6,361.7 
			175.6,356.4 197.4,356.4 		"/>
		<path id="XMLID_43_" class="st7" d="M214.3,368.7h5.5c1.4,0,2.6-1.5,2.6-3.6c0-2.1-1.4-3.5-2.8-3.5h-5.3V368.7z M208.4,382.3
			v-25.9H220c4.9,0,8.5,4.4,8.5,8.7c0,3.2-1.6,6.1-4.2,7.5l5.9,9.6h-6.7l-5.2-8.3h-3.9v8.3H208.4z"/>
		<path id="XMLID_44_" class="st7" d="M257.5,369.6v-13.2h6v13.2c0,7.1-3.5,12.9-11.5,12.9c-8.3,0-11.5-6.1-11.5-12.9v-13.2h6v13.2
			c0,3.9,1.5,7.5,5.5,7.5C256.1,377.2,257.5,373.5,257.5,369.6"/>
		<path id="XMLID_45_" class="st7" d="M291.6,364c-0.4-0.4-3.8-2.5-6.9-2.5c-2,0-3.2,0.7-3.2,2.1c0,1.8,1.9,2.2,5.4,3.2
			c5,1.3,8.1,3,8.1,7.8c0,5.9-4.7,7.9-9.7,7.9c-3.8,0-8-1.2-11-3.2l2.6-5.2c0.5,0.5,4.6,3,8.5,3c2.2,0,3.2-0.7,3.2-1.9
			c0-1.9-2.7-2.4-6.2-3.5c-4.8-1.5-7-3.2-7-7.1c0-5.5,4.4-8.4,9.5-8.4c3.7,0,7.1,1.5,9.3,2.8L291.6,364z"/>
		<polygon id="XMLID_46_" class="st7" points="326.1,361.7 318.3,361.7 318.3,382.3 312.3,382.3 312.3,361.7 304.4,361.7 
			304.4,356.4 326.1,356.4 		"/>
		<line id="XMLID_47_" class="st6" x1="79.2" y1="369.2" x2="153.1" y2="369.2"/>
		<rect id="XMLID_48_" x="79.1" y="368.2" class="st6" width="74" height="1.9"/>
		<line id="XMLID_49_" class="st6" x1="349" y1="369.2" x2="423" y2="369.2"/>
		<rect id="XMLID_50_" x="349" y="368.2" class="st6" width="74" height="1.9"/>
		<polygon id="XMLID_51_" class="st7" points="251.6,295.6 266.9,337.9 282.3,337.9 260.4,278.2 243.1,278.2 221.1,337.9 
			235.9,337.9 		"/>
	</g>
</g>
</svg>
