<?xml version="1.0" encoding="utf-8"?>
<!-- Generator: Adobe Illustrator 19.0.0, SVG Export Plug-In . SVG Version: 6.00 Build 0)  -->
<svg version="1.1" id="Layer_1" xmlns="http://www.w3.org/2000/svg" xmlns:xlink="http://www.w3.org/1999/xlink" x="0px" y="0px"
	 viewBox="0 0 500 500" style="enable-background:new 0 0 500 500;" xml:space="preserve">
<style type="text/css">
	.st0{fill:#605350;}
	.st1{fill:#FFD108;}
	.st2{fill:#FFFFFF;}
	.st3{clip-path:url(#XMLID_46_);}
	.st4{clip-path:url(#XMLID_47_);fill:url(#XMLID_51_);}
	.st5{clip-path:url(#XMLID_47_);fill:url(#XMLID_52_);}
	.st6{clip-path:url(#XMLID_53_);fill:url(#XMLID_54_);}
</style>
<g id="XMLID_1_">
	<path id="XMLID_13_" class="st0" d="M219.7,245.6c-1-0.1-2-0.2-3-0.2h-4.2c-1,0-2,0.1-3,0.2c-3.5,0.4-7.1,1.7-10.1,3.9
		c-3-2.2-6.5-3.5-10-3.9c-1-0.1-2-0.2-3-0.2H182c-1,0-2,0.1-3,0.2c-8.8,1.1-17.8,7.3-17.8,21.1v34.5h15.6v-35.1
		c0-3.5,1.9-5.4,5.2-5.4h4.2c3.4,0,5.2,1.9,5.2,5.4v35.1h15.7v-35.1c0-3.5,1.9-5.4,5.2-5.4h4.2c3.4,0,5.2,1.9,5.2,5.4v35.1h15.6
		v-34.5C237.5,252.8,228.5,246.6,219.7,245.6 M410,258.9c0.8,0,15.3,0,15.3,0v-13.5c0,0-14.6,0-15.3,0c-1,0-1.3-0.4-1.3-1.3
		c0-0.9,0-12.2,0-12.2H392v55.5c0,10.6,3.3,13.9,16.7,13.9c5.8,0,16.6,0,16.6,0v-13.9c0,0-6.4,0-12.4,0c-2.8,0-4.3-1.4-4.3-4.7
		v-22.4C408.6,259.5,409.2,258.9,410,258.9 M136.5,301.2h15.6v-54.5h-15.6V301.2z M304.7,301.2h15.3v-69.4h-15.3V301.2z M361,245.6
		h-10.1c-15,0.5-22,3.9-22,27.5c0,23.2,7.4,28.7,22,28.7H361c14.6,0,22-5.4,22-28.7C383,249.6,375.9,246.2,361,245.6 M355.9,288.3
		c-8.9-0.3-10.4-2.3-10.4-15c0-11.9,1.3-13.9,10.4-14.3c9.1,0.4,10.4,2.3,10.4,14.3C366.2,286,364.8,287.9,355.9,288.3 M262.4,245.6
		c-10.2,0-15.8-0.1-15.8-0.1v80.4l15.7-0.1v-23.7c21,0,33.5,0.1,33.5-28.9C295.8,244.2,285.2,245.6,262.4,245.6 M262.4,288.4v-29.4
		c15,0,16.7,0,16.7,14.4C279.1,288.6,277.2,288.4,262.4,288.4 M109.1,258H87.4c-2.7,0-4.6-2-4.6-4.6v-1.9c0-2.5,1.9-4.6,4.6-4.6
		h37.9v-15.2H88.8c-13.9,0-20.1,8.5-21.1,17.4c-0.1,1-0.2,2-0.2,3.1c0,1,0.1,2,0.2,3.2c1.1,8.8,7.2,19.3,21.1,19.3h19.9
		c2.7,0,4.6,2,4.6,4.6v2c0,2.5-1.9,4.6-4.6,4.6H69v15.6h38.3c13.9,0,20.1-9.3,21.1-18.3c0.1-1.1,0.2-2,0.2-3.1c0-1-0.1-2-0.2-3.2
		C127.6,268.3,121.8,258.3,109.1,258"/>
	<path id="XMLID_14_" class="st1" d="M289.5,201.9c-0.1,0-8.2,29.1-43.2,29.1c-35,0-43.2-28.6-43.2-29c23-3.2,31,4.2,31,4.2
		s0-21,12.4-31.8c11.7,10.6,11.7,31.8,11.7,31.8S266.4,198.9,289.5,201.9"/>
	<path id="XMLID_15_" class="st2" d="M289.5,201.6c-0.1,0-0.1,0-0.2,0.1l-0.1,0.1l0,0.1c-0.1,0.2-0.2,0.7-0.6,1.6
		c-1.2,3-4.3,9.9-10.9,16c-6.6,6.1-16.5,11.4-31.5,11.4c-17.4,0-28.1-7.1-34.5-14.3c-3.2-3.6-5.3-7.2-6.6-9.9
		c-0.7-1.4-1.1-2.5-1.4-3.3c-0.1-0.4-0.2-0.7-0.3-1c0-0.1-0.1-0.2-0.1-0.3l0-0.1l0,0l-0.2,0h0.2l0,0l-0.2,0h0.2h-0.3l0,0.3
		c4.1-0.6,7.7-0.8,10.8-0.8c7.3,0,12.3,1.2,15.5,2.5c1.6,0.6,2.7,1.2,3.4,1.7c0.4,0.2,0.6,0.4,0.8,0.5c0.1,0.1,0.1,0.1,0.2,0.1l0,0
		l0,0c0.1,0.1,0.2,0.1,0.3,0c0.1,0,0.2-0.1,0.2-0.2c0,0,0-0.1,0-0.2c0-1.2,0.2-6.5,1.8-12.8c1.6-6.3,4.7-13.5,10.4-18.5l-0.2-0.2
		l-0.2,0.2c5.8,5.2,8.7,13.1,10.2,19.7c0.7,3.3,1.1,6.3,1.3,8.4c0.1,1.1,0.1,1.9,0.2,2.5c0,0.3,0,0.5,0,0.7c0,0.2,0,0.2,0,0.2
		c0,0.1,0.1,0.2,0.2,0.2c0.1,0,0.2,0,0.3,0l0,0c0.3-0.3,6-4.9,20.6-4.9c3.1,0,6.6,0.2,10.5,0.7c0.1,0,0.3-0.1,0.3-0.2
		C289.8,201.8,289.7,201.7,289.5,201.6c-3.9-0.5-7.4-0.7-10.6-0.7c-15.2,0-20.9,5-21,5.1l0.2,0.2h0.3c0,0,0-5.3-1.5-12
		c-1.5-6.6-4.4-14.6-10.3-20c-0.1-0.1-0.3-0.1-0.4,0c-6.2,5.4-9.3,13.4-10.9,20.1c-1.6,6.6-1.6,11.9-1.6,11.9h0.3l0.2-0.2
		c0,0-5.5-5-20.3-5c-3.2,0-6.8,0.2-10.9,0.8c-0.1,0-0.2,0.1-0.2,0.3c0,0.1,0,0.1,0,0.1c0,0.2,0.2,0.8,0.5,1.6
		c1.1,3.1,4.3,10,11,16.1c6.7,6.1,16.8,11.5,32,11.5c17.6,0,28.4-7.3,34.9-14.7c3.2-3.7,5.4-7.3,6.7-10.1c0.7-1.4,1.1-2.5,1.4-3.3
		c0.2-0.4,0.3-0.7,0.3-0.9c0-0.1,0.1-0.2,0.1-0.2l0-0.1l0,0l-0.2-0.1l0.2,0.1l0,0l-0.2-0.1l0.2,0.1l-0.2-0.1l0.2,0.2l0,0l-0.2-0.1
		l0.2,0.2l-0.2-0.2v0.3c0.1,0,0.2-0.1,0.2-0.1l-0.2-0.2v0.3c0.1,0,0.3-0.1,0.3-0.3C289.8,201.8,289.7,201.6,289.5,201.6"/>
	<g id="XMLID_23_">
		<defs>
			<polyline id="XMLID_22_" points="203.5,174.8 289.2,174.8 289.2,231 203.5,231 203.5,174.8 			"/>
		</defs>
		<clipPath id="XMLID_46_">
			<use xlink:href="#XMLID_22_"  style="overflow:visible;"/>
		</clipPath>
		<g id="XMLID_30_" class="st3">
			<defs>
				<path id="XMLID_29_" d="M289.2,202c-0.1,0-8.1,29-42.8,29c-34.7,0-42.8-28.4-42.8-28.8c22.8-3.2,30.7,4.2,30.7,4.2
					s0-20.8,12.2-31.5c11.6,10.5,11.6,31.5,11.6,31.5S266.3,199,289.2,202"/>
			</defs>
			<clipPath id="XMLID_47_">
				<use xlink:href="#XMLID_29_"  style="overflow:visible;"/>
			</clipPath>
			
				<linearGradient id="XMLID_51_" gradientUnits="userSpaceOnUse" x1="-1.08" y1="1.678176e-002" x2="-0.4953" y2="1.678176e-002" gradientTransform="matrix(146.4 0 0 -146.4 361.6485 205.2515)">
				<stop  offset="0" style="stop-color:#FFD108"/>
				<stop  offset="0.5438" style="stop-color:#FDD00A"/>
				<stop  offset="0.7397" style="stop-color:#F9CD10"/>
				<stop  offset="0.8788" style="stop-color:#F3C715"/>
				<stop  offset="0.9911" style="stop-color:#EAC11A"/>
				<stop  offset="1" style="stop-color:#E9C01B"/>
			</linearGradient>
			<path id="XMLID_31_" class="st4" d="M246.4,174.8L246.4,174.8c-1.1,1-2.1,2-3.1,3.2c-3.7,4.6-5.9,10.2-7.2,15.2
				c-1.6,6.3-1.8,11.6-1.8,12.8c0,0.2,0,0.2,0,0.2c0,0.1-0.1,0.2-0.2,0.2c0,0-0.1,0-0.1,0c-0.1,0-0.1,0-0.2-0.1l0,0l0,0
				c0,0-0.1-0.1-0.2-0.1c-0.2-0.1-0.4-0.3-0.8-0.5c-0.7-0.5-1.8-1.1-3.4-1.7c-3.2-1.2-8.1-2.5-15.5-2.5c-3.1,0-6.5,0.2-10.5,0.7
				c0.1,0.4,1.1,3.7,3.6,7.9c1.2,2,2.7,4.2,4.7,6.3c6.4,7.2,17.1,14.3,34.5,14.3c14.9,0,24.9-5.3,31.5-11.4
				c6.6-6.1,9.7-12.9,10.9-16c0.2-0.6,0.4-1,0.5-1.3c-3.8-0.5-7.2-0.7-10.2-0.7c-14.6,0-20.3,4.7-20.6,4.9l0,0
				c-0.1,0-0.1,0.1-0.2,0.1c0,0-0.1,0-0.1,0c-0.1,0-0.2-0.1-0.2-0.2c0,0,0-0.1,0-0.2c0-0.2,0-0.4,0-0.7c0-0.6-0.1-1.5-0.2-2.5
				c-0.2-2.1-0.5-5.1-1.3-8.4c-1.2-5.5-3.5-11.9-7.5-16.9C248.1,176.5,247.3,175.6,246.4,174.8"/>
			
				<linearGradient id="XMLID_52_" gradientUnits="userSpaceOnUse" x1="-1.0801" y1="7.261612e-003" x2="-0.4948" y2="7.261612e-003" gradientTransform="matrix(146.4 0 0 -146.4 361.6485 205.2515)">
				<stop  offset="0" style="stop-color:#FFE36B"/>
				<stop  offset="0.5438" style="stop-color:#FDE26D"/>
				<stop  offset="0.7397" style="stop-color:#F9DF73"/>
				<stop  offset="0.8788" style="stop-color:#F3DA78"/>
				<stop  offset="0.9911" style="stop-color:#EAD37D"/>
				<stop  offset="1" style="stop-color:#E9D37D"/>
			</linearGradient>
			<path id="XMLID_34_" class="st5" d="M243.4,178c-9.2,11.2-9.2,28.4-9.2,28.4s-5.3-4.9-19.9-4.9c-3.1,0-6.7,0.2-10.8,0.8l0,0
				c0,0,0,0,0,0c3.9-0.5,7.4-0.7,10.5-0.7c7.3,0,12.3,1.2,15.5,2.5c1.6,0.6,2.7,1.2,3.4,1.7c0.4,0.2,0.6,0.4,0.8,0.5
				c0.1,0.1,0.1,0.1,0.2,0.1l0,0l0,0c0.1,0,0.1,0.1,0.2,0.1c0,0,0.1,0,0.1,0c0.1,0,0.2-0.1,0.2-0.2c0,0,0-0.1,0-0.2
				c0-1.2,0.2-6.5,1.8-12.8C237.5,188.1,239.7,182.6,243.4,178 M248.9,177.4c4.1,5,6.3,11.4,7.5,16.9c0.7,3.3,1.1,6.3,1.3,8.4
				c0.1,1.1,0.1,1.9,0.2,2.5c0,0.3,0,0.5,0,0.7c0,0.2,0,0.2,0,0.2c0,0.1,0.1,0.2,0.2,0.2c0,0,0.1,0,0.1,0c0.1,0,0.1,0,0.2-0.1l0,0
				c0.3-0.3,6-4.9,20.6-4.9c3,0,6.4,0.2,10.2,0.7c-0.1,0.3-0.3,0.7-0.5,1.3c-1.2,3-4.3,9.9-10.9,16c-6.6,6.1-16.5,11.4-31.5,11.4
				c-17.4,0-28.1-7.1-34.5-14.3c-1.9-2.2-3.5-4.4-4.7-6.3c5.1,8.5,16.4,20.8,39.3,20.8l0,0c34.7,0,42.7-29,42.8-29l0,0
				c-3.9-0.5-7.4-0.7-10.4-0.7c-15.1,0-20.8,5-20.8,5S258,188.4,248.9,177.4"/>
		</g>
	</g>
	<g id="XMLID_35_">
		<defs>
			<path id="XMLID_25_" d="M235.4,208.9c0,0-10.3-8.2-29.7-5.3c0,0.4,7.4,17.6,26.2,23.9c2.9-12.9,11.9-23.5,23.9-28.5
				c-1.2-6.8-3.7-16-9.4-21.5C236,187.4,235.4,208.9,235.4,208.9"/>
		</defs>
		<clipPath id="XMLID_53_">
			<use xlink:href="#XMLID_25_"  style="overflow:visible;"/>
		</clipPath>
		
			<linearGradient id="XMLID_54_" gradientUnits="userSpaceOnUse" x1="-1.8926" y1="-2.0406" x2="-1.3073" y2="-2.0406" gradientTransform="matrix(42.775 42.775 42.775 -42.775 387.0172 184.2473)">
			<stop  offset="0" style="stop-color:#FFEAB5"/>
			<stop  offset="0.1154" style="stop-color:#FFE9AE"/>
			<stop  offset="0.2976" style="stop-color:#FFE59C"/>
			<stop  offset="0.524" style="stop-color:#FFDF7F"/>
			<stop  offset="0.7831" style="stop-color:#FFD74F"/>
			<stop  offset="1" style="stop-color:#FFD108"/>
		</linearGradient>
		<polygon id="XMLID_36_" class="st6" points="230.7,152.4 280.8,202.5 230.7,252.6 180.6,202.5 		"/>
	</g>
	<path id="XMLID_16_" class="st2" d="M289.5,201.7c-0.1,0-0.1,0-0.1,0l-0.1,0.1l0,0.1c-0.1,0.2-0.2,0.7-0.6,1.6
		c-1.2,3.1-4.3,9.9-10.9,16c-6.6,6.1-16.6,11.4-31.5,11.4c-17.4,0-28.2-7.1-34.6-14.3c-3.2-3.6-5.3-7.2-6.6-9.9
		c-0.7-1.4-1.1-2.5-1.4-3.3c-0.1-0.4-0.2-0.7-0.3-1c0-0.1-0.1-0.2-0.1-0.3l0-0.1l0,0l-0.1,0h0.1l0,0l-0.1,0h0.1h-0.2l0,0.2
		c4.1-0.6,7.7-0.8,10.8-0.8c7.3,0,12.3,1.2,15.5,2.5c1.6,0.6,2.7,1.2,3.4,1.7c0.4,0.2,0.6,0.4,0.8,0.5c0.1,0.1,0.1,0.1,0.2,0.2l0,0
		l0,0c0.1,0.1,0.2,0.1,0.2,0c0.1,0,0.1-0.1,0.1-0.2c0,0,0-0.3,0-0.9c0.1-2.1,0.5-7.4,2.2-13.4c1.7-6,4.7-12.6,10.1-17.3l-0.2-0.2
		l-0.2,0.2c5.8,5.2,8.7,13.1,10.2,19.7c0.7,3.3,1.1,6.3,1.3,8.4c0.1,1.1,0.1,1.9,0.2,2.5c0,0.6,0,0.9,0,0.9c0,0.1,0.1,0.2,0.1,0.2
		c0.1,0,0.2,0,0.2,0l0,0c0.3-0.3,6-4.9,20.6-4.9c3.1,0,6.6,0.2,10.5,0.7c0.1,0,0.2-0.1,0.3-0.2C289.8,201.8,289.7,201.7,289.5,201.7
		c-3.9-0.5-7.4-0.7-10.6-0.7c-15.2,0-20.9,5-21,5.1l0.2,0.2h0.2c0,0,0-5.3-1.5-12c-1.5-6.6-4.4-14.6-10.3-20c-0.1-0.1-0.2-0.1-0.3,0
		c-6.2,5.4-9.3,13.4-10.9,20.1c-1.5,6.6-1.5,11.9-1.5,11.9h0.2l0.2-0.2c0,0-5.5-5-20.2-5c-3.2,0-6.8,0.2-10.9,0.8
		c-0.1,0-0.2,0.1-0.2,0.2l0,0.1c0,0.2,0.2,0.8,0.5,1.6c1.1,3.1,4.3,10,10.9,16.1c6.7,6.1,16.8,11.4,31.9,11.4
		c17.6,0,28.4-7.3,34.9-14.7c3.2-3.7,5.3-7.3,6.7-10.1c0.7-1.4,1.1-2.5,1.4-3.3c0.2-0.4,0.3-0.7,0.3-0.9c0-0.1,0.1-0.2,0.1-0.2
		l0-0.1l0,0l-0.1-0.1l0.1,0.1l0,0l-0.1-0.1l0.1,0.1l-0.2-0.1l0.2,0.2l0,0l-0.2-0.1l0.2,0.2l-0.2-0.2v0.2c0.1,0,0.1-0.1,0.2-0.1
		l-0.2-0.2v0.2c0.1,0,0.2-0.1,0.2-0.2C289.7,201.8,289.6,201.7,289.5,201.7L289.5,201.7z"/>
	<path id="XMLID_41_" class="st0" d="M429.3,301.4c-0.8,0-1.1-0.2-1.3-0.4c-0.3-0.3-0.5-0.8-0.5-2.3c0-1.5,0.2-2,0.5-2.3
		c0.2-0.3,0.5-0.4,1.3-0.4h1.4c0.8,0,1.1,0.2,1.3,0.4c0.3,0.3,0.5,0.8,0.5,2.3c0,1.5-0.2,2-0.5,2.3c-0.2,0.2-0.5,0.4-1.3,0.4H429.3z
		 M430.6,300.9c0.6,0,0.8-0.1,1-0.3c0.2-0.2,0.4-0.6,0.4-2c0-1.3-0.1-1.8-0.4-2c-0.2-0.2-0.4-0.3-1-0.3h-1.2c-0.6,0-0.8,0.1-1,0.3
		c-0.2,0.2-0.4,0.6-0.4,2s0.2,1.8,0.4,2c0.2,0.2,0.4,0.3,1,0.3H430.6z M430.4,299.1c-0.1-0.1-0.1-0.1-0.3-0.1h-0.6v1.1h-0.8v-3h1.8
		c0.2,0,0.4,0.1,0.5,0.1c0.1,0.1,0.2,0.3,0.2,0.7c0,0.5-0.1,0.7-0.5,0.8c0.4,0.1,0.5,0.1,0.5,0.6c0,0.4,0,0.6,0.1,0.8h-0.8
		c-0.1-0.2-0.1-0.4-0.1-0.7C430.5,299.1,430.5,299.1,430.4,299.1 M430.5,297.7c-0.1-0.1-0.1-0.1-0.2-0.1h-0.7v0.8h0.7
		c0.1,0,0.2,0,0.2-0.1s0.1-0.1,0.1-0.4S430.5,297.8,430.5,297.7"/>
</g>
</svg>
