<?xml version="1.0" encoding="utf-8"?>
<!-- Generator: Adobe Illustrator 19.0.0, SVG Export Plug-In . SVG Version: 6.00 Build 0)  -->
<svg version="1.1" id="Layer_1" xmlns="http://www.w3.org/2000/svg" xmlns:xlink="http://www.w3.org/1999/xlink" x="0px" y="0px"
	 viewBox="0 0 500 500" style="enable-background:new 0 0 500 500;" xml:space="preserve">
<style type="text/css">
	.st0{fill:#EE3F35;}
	.st1{fill:#194F75;}
</style>
<g id="XMLID_1_">
	<path id="XMLID_5_" class="st0" d="M125.1,242.9c0-15.8-12.9-28.6-28.8-28.6c-15.9,0-28.8,12.8-28.8,28.6
		c0,15.8,12.9,28.6,28.8,28.6C112.2,271.6,125.1,258.8,125.1,242.9 M122.5,242.9c0,14.4-11.7,26-26.2,26c-14.4,0-26.2-11.7-26.2-26
		c0-14.4,11.7-26,26.2-26C110.7,216.9,122.5,228.6,122.5,242.9"/>
	<path id="XMLID_6_" class="st0" d="M97.6,218.1c0.2,0,0.4,0,0.7,0h0.1c0.3,0.1,0.1,0.7,0.2,0.9c0.1,0.2,0.2,0.2,0.4,0.3
		c0.5,0.1,1.1,0.1,1.7,0.1c0.5,0,1.3-0.1,1.6,0.2l0.2,0.3c0,0.2,0,0.4-0.1,0.5c-0.1,0.2-0.4,0.7-0.1,0.8c0.2,0.1,0.6,0.1,0.8,0.1
		c1,0.1,2.3,0.1,2.8,1c0.2,0.2,0.2,0.5,0.1,0.8c-0.1,0.2-0.3,0.6-0.2,0.8c0.1,0.2,0.5,0.2,0.7,0.2l0.3,0.1c0.3,0.1,0.5,0.2,0.7,0.3
		c0.4,0.2,0.9,0.4,1.2,0.8c0.2,0.2,0.5,0.4,0.7,0.7v0.1l-0.5-0.2c-0.2-0.1-0.3-0.2-0.5-0.2c-0.4-0.2-1-0.4-1.5-0.5
		c-0.3,0-0.5-0.1-0.8-0.1c-0.4-0.1-0.8-0.1-1-0.4c-0.3-0.4,0.3-1.1-0.2-1.5c-0.2-0.1-0.5-0.1-0.7-0.1c-0.6-0.1-1.2-0.1-1.9-0.2
		c-0.3-0.1-0.7-0.1-0.9-0.3c-0.2-0.2-0.3-0.5-0.2-0.8c0-0.2,0.3-0.5,0.1-0.7l-0.2-0.1c-0.3-0.1-0.7,0-1,0c-0.3,0-0.6,0-0.9,0l-0.4,0
		l-0.1,0.1c-0.1,0.1,0,0.7,0,0.9l0,0.3c0,0.7,0,1.5,0,2.2v0.6l0,0.3l0.1,0.1l0.3,0.1c0.3,0.1,0.7,0.3,1,0.4c1.1,0.4,2.2,0.9,3.2,1.4
		c0.5,0.2,1,0.5,1.5,0.8c0.3,0.2,0.6,0.4,0.9,0.6c1.2,0.8,2.2,1.8,3.1,2.9c0.1,0.2,0.2,0.3,0.3,0.5c0.2,0.3,0.4,0.6,0.6,1
		c0.2,0.3,0.3,0.6,0.4,0.9c0.1,0.3,0.3,0.7,0.3,1c0.2,0.8,0.4,1.5,0.4,2.4c0,0.3,0.1,0.7,0.1,1c0,0.4,0,0.8-0.1,1.1
		c0,0.1,0,0.3-0.1,0.5c-0.1,0.7-0.3,1.4-0.6,2.1c-1.2,2.8-3.5,5.2-6,7.2c-1,0.8-2,1.5-3.1,2.3c-0.2,0.2-0.5,0.3-0.7,0.5l-0.4,0.2
		l-0.1,0c0-0.2,0.1-0.3,0.2-0.4c0.1-0.2,0.2-0.4,0.3-0.5c0.5-0.9,0.8-2.1,0.1-3c-0.2-0.2-0.4-0.4-0.7-0.5c-0.2-0.1-1.1-0.5-1.3-0.4
		l-0.1,0.1c0,0.2,0,0.5,0,0.8c0,0.2,0,0.3,0,0.5v1c0,0.9,0,1.8,0,2.7v0.7v0.3c0.1,0.2,0.3,0.2,0.4,0.3c0.1,0.2,0.1,0.4,0.2,0.5
		c0.2,0.6,0.6,1.1,1.4,1.1l0.1,0l0.1-0.1l0.3-0.1c0.4-0.2,0.6-0.7,0.7-1.1l0.1-0.3l0.1-0.4l0.3-0.1l0.3,0.1c0.1,0.1,0.2,0.4,0.2,0.6
		c0.2,0.4,0.5,0.9,1,1l0.4,0l0.3-0.1c0.4-0.2,0.6-0.6,0.7-0.9c0.1-0.2,0.1-0.3,0.1-0.5c0.1-0.3,0-0.6,0.4-0.7l0.2-0.1l0.2,0.1
		l0.2,0.3c0,0.2,0.1,0.3,0.2,0.4c0.3,0.5,0.7,0.7,1.2,0.7l0.2,0l0.3-0.1c0.4-0.3,0.7-0.8,0.7-1.3l0-0.3c0-0.2-0.1-0.7,0.2-0.7
		l0.2,0.1l0.1,0.2c0.1,0.2,0.2,0.3,0.3,0.4c0.4,0.5,0.8,0.8,1.4,0.8l0.4-0.1c0.5-0.4,0.7-1.1,0.6-1.7l-0.1-0.4
		c0-0.2-0.2-0.4-0.1-0.6l0.4-0.3l0.4-0.3c0.6-0.4,1.2-0.9,1.6-1.5c0.3-0.4,0.4-0.7,0.5-1.2c0.3-1.2,0.2-2.7,0.2-4c0-0.2,0-0.4,0-0.6
		c0-0.7,0-1.4,0.1-2c0.2-0.9,1.1-2.7,2.2-2.7l0.4,0c0.4,0.1,0.7,0.3,0.9,0.6c0.1,0.2,0.2,0.4,0.4,0.4c0.3,0.1,0.7,0.1,0.9,0.3
		c0.1,0.1,0.2,0.3,0.2,0.4c0,0.3-0.3,0.5-0.5,0.6l-0.3,0.1l-0.1,0.3c-0.1,0.3-0.3,0.5-0.6,0.6c-0.2,0-0.4,0-0.5-0.1l-0.3-0.2l-0.3,0
		c-0.3,0-0.4,0.2-0.4,0.5c0,0.3,0,0.6,0,0.9c0,0.3,0,0.7,0.1,1c0,0.2,0,0.4,0,0.5c0,0.4,0.1,0.9,0.2,1.3c0.1,0.4,0.2,0.8,0.3,1.2
		c0.1,0.3,0.1,0.6,0.2,0.9c0.1,0.3,0.1,0.6,0.2,0.9c0.1,0.5,0.1,1,0.1,1.6l0,0.3c0,1.6-0.4,3.2-0.9,4.5c-0.3,0.7-0.6,1.4-1,2.1
		c-0.2,0.3-0.4,0.6-0.6,0.9c-0.1,0.1-0.2,0.4-0.4,0.4c-0.2,0-0.4-0.1-0.5-0.1c-0.4-0.1-0.9-0.2-1.3-0.3l-0.3,0
		c-0.3-0.1-0.7-0.1-1-0.2c-0.3,0-0.5-0.1-0.8-0.1l-0.4,0l-0.3,0c-0.2,0-0.4,0-0.7,0c-0.9,0.1-1.7,0.4-2.5,0.7
		c-0.3,0.1-0.6,0.2-0.9,0.3c-0.3,0.1-0.7,0.2-1,0.3c-0.5,0.2-1,0.2-1.6,0.3c-1,0.1-1.9-0.2-2.8-0.4c-0.2,0-0.4-0.1-0.5-0.2
		c-0.3-0.1-0.6-0.2-0.8-0.2l-0.4-0.1c-0.7-0.2-1.4-0.3-2.1-0.4c-0.1,0-0.3,0-0.4,0l-0.3,0c-0.3,0-0.6,0.1-0.9,0.1
		c-0.2,0-0.4,0.1-0.6,0.1c-0.3,0.1-0.6,0.2-0.9,0.3c-0.2,0-0.3,0.1-0.5,0.1c-0.9,0.2-1.7,0.5-2.7,0.5c-0.7,0-1.4-0.1-2-0.2
		c-0.2,0-0.4-0.1-0.5-0.1c-0.6-0.1-1.1-0.3-1.7-0.5c-0.3-0.1-0.6-0.2-0.8-0.3c-0.4-0.1-0.7-0.2-1.1-0.3c-0.3,0-0.5-0.1-0.8-0.1
		c-0.2,0-0.3,0-0.4-0.1c-0.6,0-1.3,0-1.9,0.1c-0.3,0-0.6,0.1-0.9,0.2c-0.3,0.1-0.6,0.1-0.9,0.2c-0.4,0.1-0.7,0.2-1.1,0.3
		c-0.2,0.1-0.4,0.1-0.6,0.2l-0.3,0l-0.2,0l-0.4-0.5c-0.1-0.3-0.3-0.5-0.4-0.8c-0.2-0.2-0.3-0.5-0.4-0.8c-0.3-0.5-0.5-1.1-0.6-1.7
		c-0.1-0.5-0.1-1.1-0.2-1.7c0-0.4-0.1-0.7-0.1-1.1c0-0.6,0.1-1.2,0.2-1.8c0.1-0.5,0.1-1,0.2-1.6l0-0.2c0-0.3,0.1-0.7,0.1-1v-0.3
		c0-0.4,0.1-0.9,0.1-1.3c0-0.4,0-0.8,0-1.2c-0.1-0.8-0.8-0.8-1.3-1.3c-0.1-0.1-0.2-0.2-0.3-0.4c-0.2-0.6,0.1-1.5,0.6-1.8
		c0.1-0.1,0.3-0.1,0.4-0.1l0.1,0l0.7,0.1c0.9,0.3,1,1.1,1,2c0,0.5,0,1,0,1.5c0,0.4,0,0.8,0,1.2c0,0.2,0,0.3,0,0.5c0,0.5,0,0.9,0,1.4
		c0.2,1.5,0.8,3,2,3.9c0.5,0.4,1.1,0.7,1.7,1l0.4,0.2c0.2,0.1,0.3,0.1,0.4,0.2c0.1,0.1,0.1,0.4,0.1,0.5l0,0.4c0,0.7,0.3,1.6,1,1.8
		c0.1,0,0.3,0,0.5,0l0.1,0l0.2-0.1c0.4-0.2,0.7-0.6,0.8-1c0.1-0.2,0.1-0.6,0.3-0.7l0.7,0.1c0.2,0.1,0.2,0.5,0.2,0.7
		c0.1,0.6,0.4,1.2,1,1.5c0.2,0.1,0.4,0.1,0.6,0.1l0.3-0.1c0.3-0.2,0.6-0.6,0.8-0.9c0.1-0.2,0.1-0.5,0.3-0.7l0.6,0
		c0.2,0.1,0.2,0.4,0.2,0.6c0.1,0.7,0.4,1.5,1.2,1.7l0.4,0l0.2,0l0.2-0.1c0.4-0.2,0.7-0.8,0.8-1.2c0-0.2,0-0.5,0.2-0.6l0.5-0.1
		c0.3,0.1,0.2,0.4,0.3,0.6c0.2,0.7,0.6,1.3,1.4,1.3l0.1,0l0.3-0.1c0.2-0.1,0.4-0.3,0.5-0.5c0.1-0.2,0.2-0.4,0.3-0.6
		c0.1-0.2,0.1-0.5,0.2-0.6l0.4-0.1l0.1-0.1c0.1-0.1,0-0.4,0-0.6c0-0.2,0-0.4,0-0.6c0-0.9,0-1.7,0.1-2.5c0-0.4,0-0.7,0-1.1
		c0-0.3,0-0.7,0-1l0-0.3l-0.2-0.1c-0.3,0-0.6,0-1,0.1c-1.1,0.2-2.2,0.5-3.3,0.8c-0.3,0.1-0.7,0.2-1,0.3c-0.5,0.2-1.1,0.3-1.6,0.5
		c-0.7,0.2-1.5,0.4-2.2,0.7c-0.3,0.1-0.7,0.2-1,0.3c-0.3,0.1-0.7,0.3-1,0.4l-0.7,0.2l0-0.1l0.3-0.3l0.3-0.3c0.3-0.3,0.6-0.6,0.9-0.9
		c0.4-0.5,0.9-0.9,1.2-1.5c1.4-1.9,2.6-4,3.2-6.2c0.4-1.3,0.6-2.6,0.6-4.1c0-0.7-0.2-1.5-0.3-2.1c-0.1-0.4-0.2-0.8-0.3-1.2
		c-0.1-0.3-0.2-0.5-0.2-0.8c-0.2-0.5-0.3-1-0.5-1.5l-0.1-0.4c-0.3-0.8-0.7-1.5-1.1-2.2c-0.2-0.4-0.5-0.8-0.8-1.2l-0.2-0.3
		c-0.2-0.2-0.3-0.4-0.5-0.5c-0.3-0.3-0.5-0.6-0.8-0.8c-0.5-0.5-1-0.9-1.5-1.4l-1-0.9L84,224c0.2,0,0.5,0,0.7,0c0.3,0,0.7,0,1,0
		c0.4,0,0.8,0,1.2,0.1c1,0.1,2.1,0.2,3.1,0.2c0.8,0.1,1.6,0.2,2.4,0.2c0.7,0.1,1.3,0.2,2,0.2c0.5,0.1,1,0.2,1.5,0.2
		c0.2,0,0.4,0.1,0.7,0.1c0.2,0,0.5,0.1,0.6,0.1l0.1-0.1c0-0.2,0-0.5,0-0.8c0-0.2,0-0.4,0-0.6c0-0.4,0-0.9,0-1.3l0-0.2
		c0-0.2,0-0.5,0-0.7c0-0.2,0-0.3,0-0.5c0-0.4,0-0.9,0-1.3c0-0.3,0-0.6,0-0.9c0-0.2,0-0.4,0-0.5L97.6,218.1L97.6,218.1z"/>
	<path id="XMLID_7_" class="st0" d="M82.8,257.8c1.1,0,2.2,0.3,3.1,0.7c0.4,0.2,0.8,0.3,1.1,0.5c0.3,0.1,0.6,0.2,0.9,0.3
		c0.9,0.2,1.8,0.3,2.8,0.3l0.2,0l0.3,0l0.2,0l0.1,0l0.1,0l0.1,0l0.1,0l0.1,0l0.1,0c0.4-0.1,0.7-0.2,1-0.2c0.5-0.1,0.9-0.3,1.4-0.4
		c0.2-0.1,0.5-0.2,0.8-0.2l0.2,0l0.1,0l0.2,0l0.1,0l0.2,0l0.4,0c0.7,0,1.3,0.1,1.9,0.2c0.2,0.1,0.5,0.1,0.7,0.2
		c0.2,0.1,0.4,0.1,0.6,0.2c1.2,0.4,2.4,0.7,3.8,0.7l0.4,0l0.2,0l0.1,0l0.1,0l0.1,0l0.2,0c0.2,0,0.3-0.1,0.5-0.1
		c0.3-0.1,0.7-0.2,1-0.2c0.8-0.3,1.6-0.6,2.4-0.8c0.2-0.1,0.5-0.2,0.7-0.2l0.1,0l0.1,0l0.1,0l0.1,0l0.1,0l0.1,0l0.1,0l0.2,0l0.4,0
		c0.9,0,1.8,0.2,2.6,0.4l0.4,0.1l0.3,0.1l0,0.1l0,0.2l-0.3,0.3c-0.2,0.2-0.5,0.5-0.7,0.7c-0.3,0.2-0.5,0.5-0.7,0.7l-0.2,0.2
		c-0.3,0.1-0.8,0-1.1-0.1c-0.7-0.1-1.5-0.1-2.2,0c-2.1,0.3-3.7,1.4-6,1.4c-0.4,0-0.9-0.1-1.2-0.2c-0.5-0.1-1-0.3-1.5-0.4
		c-0.9-0.3-1.8-0.6-2.8-0.7l-0.4,0c-1.1,0-2.1,0.2-3.1,0.4c-0.8,0.2-1.6,0.5-2.5,0.6c-0.2,0-0.4,0.1-0.7,0.1c-0.7,0-1.3,0-1.9-0.2
		c-0.6-0.1-1.3-0.4-1.8-0.6c-0.3-0.1-0.7-0.2-1-0.3c-0.2,0-0.4-0.1-0.5-0.1c-0.4-0.1-0.9-0.2-1.4-0.3c-0.7-0.1-1.4,0-2.1,0
		c-0.3,0-0.7,0.1-1,0.2c-0.2,0-0.4,0.1-0.5,0l-0.4-0.3c-0.3-0.2-0.6-0.6-0.9-0.8c-0.2-0.2-0.5-0.5-0.6-0.7l-0.1-0.2l0.1-0.1
		c0.2-0.1,0.4-0.1,0.6-0.2c0.2,0,0.3-0.1,0.5-0.1c0.2,0,0.4-0.1,0.5-0.1l0.5-0.1l0.4-0.1l0.1,0l0.1,0l0.1,0l0.1,0l0.1,0l0.1,0l0.2,0
		l0.3,0l0.2,0C82.5,257.8,82.7,257.8,82.8,257.8"/>
	<path id="XMLID_8_" class="st0" d="M82.5,261.3h0.9c0.4,0,0.7,0.1,1,0.1c0.7,0.1,1.4,0.4,2.1,0.7c0.6,0.2,1.2,0.4,1.9,0.6
		c0.8,0.2,1.7,0.2,2.6,0.2l0.2,0l0.2,0l0.1,0l0.1,0l0.1,0l0.1,0l0.1,0c0.3-0.1,0.5-0.1,0.8-0.2c0.5-0.1,0.9-0.3,1.4-0.4
		c0.3-0.1,0.6-0.2,0.9-0.2l0.6-0.1l0.1,0l0.1,0l0.2,0l0.4,0l0.4,0l0.4,0c0.4,0,0.8,0.1,1.1,0.2c1.6,0.4,3,1,4.8,1l0.3,0l0.3,0l0.2,0
		l0.1,0l0.1,0l0.2,0l0.2,0l0.1,0l0.1,0c0.3-0.1,0.6-0.2,0.9-0.3c0.8-0.2,1.5-0.5,2.3-0.7c0.2-0.1,0.5-0.1,0.8-0.1l0.1,0l0.1,0l0.1,0
		l0.1,0l0.1,0l0.2,0h0.4l0.4,0c0.2,0,0.7-0.1,0.7,0.2l-0.3,0.2c-0.3,0.2-0.6,0.4-0.8,0.6c-1.2,0.8-2.4,1.4-3.7,2
		c-1.4,0.6-2.8,1.1-4.4,1.5c-1.3,0.3-2.6,0.5-4,0.6c-0.6,0-1.2,0.1-1.8,0c-2.4-0.1-4.5-0.5-6.6-1.1c-0.8-0.3-1.6-0.6-2.4-0.9
		c-0.4-0.2-0.9-0.4-1.3-0.6c-0.7-0.3-1.4-0.7-2-1.1c-0.4-0.3-0.8-0.5-1.2-0.8c-0.2-0.1-0.4-0.3-0.6-0.4l-0.2-0.2
		c-0.1-0.2,0.1-0.3,0.3-0.3l0.1,0l0.1,0l0.1,0l0.2,0L82.5,261.3"/>
	<polygon id="XMLID_9_" class="st1" points="234.4,259.5 263.3,259.5 263.3,252.4 246.1,252.4 246.1,226.3 234.4,226.3 	"/>
	<polygon id="XMLID_10_" class="st1" points="264.7,259.5 293.5,259.5 293.5,252.4 276.4,252.4 276.4,226.3 264.7,226.3 	"/>
	<polygon id="XMLID_11_" class="st1" points="306.7,239.3 306.7,233.4 325.1,233.4 325.1,226.3 295,226.3 295,259.5 325.1,259.5 
		325.1,252.4 306.7,252.4 306.7,246.3 322.2,246.3 322.2,239.3 	"/>
	<path id="XMLID_12_" class="st1" d="M326.6,259.5h11.2v-26.2h5.7c1.7,0,5.3,0,5.3,3.5c0,3.2-3.5,4.3-6.7,4.3
		c-0.9,0-1.8-0.1-2.9-0.2c3.1,6,5.7,12.3,8.2,18.6h12.6c-2.7-4.5-5.4-9.7-8.1-14.7c5.1-1.6,8.1-4.5,8.1-8.4
		c0-6.6-3.8-10.1-13.6-10.1h-19.8V259.5z"/>
	<path id="XMLID_13_" class="st1" d="M361.2,226.3v22.5c0,8,7.6,11.3,18.5,11.3c10.9,0,18.5-3.3,18.5-11.3v-22.5h-11.7v18.9
		c0,4.8-1.5,7.6-6.8,7.6c-5.3,0-6.8-2.8-6.8-7.6v-18.9H361.2z"/>
	<path id="XMLID_14_" class="st1" d="M401.1,259.5h11.2v-26.2h4c2.5,0,4.7,0.3,4.7,3.6c0,2.5-2.4,3.6-5.5,3.6
		c-0.8,0-1.6-0.2-2.3-0.3l2.2,6.5c1.2,0.1,2.5,0.3,3.7,0.3c7.6,0,13-4.2,13-10.7c0-8.3-7.6-10-10.3-10h-20.7V259.5z"/>
	<path id="XMLID_15_" class="st1" d="M138.3,258.9c3.6,0.6,7.4,1.1,11.1,1.1c10.3,0,14.1-4.6,14.1-9c0-8.6-14.1-10.9-14.1-15.8
		c0-1.7,3.1-2.4,4.9-2.4c2.7,0,5.6,0.7,8.2,1.7l-1.3-7.9c-3.1-0.5-6.5-0.9-9.8-0.9c-10.2,0-13.6,4.7-13.6,8.6
		c0,8.4,14.1,11.8,14.1,16c0,2.3-3.3,2.6-5.2,2.6c-3.2,0-6.7-0.9-9.7-2.2L138.3,258.9z"/>
	<path id="XMLID_18_" class="st1" d="M177.1,242l12.5,17.5h13.9l-14.3-17.6l12.8-15.5h-13.2L177.1,242z M164.8,259.5h11.7v-33.1
		h-11.7V259.5z"/>
	<polygon id="XMLID_19_" class="st1" points="214.5,239.2 214.5,233.4 233,233.4 233,226.3 202.8,226.3 202.8,259.5 233,259.5 
		233,252.4 214.5,252.4 214.5,246.3 230.1,246.3 230.1,239.2 	"/>
	<path id="XMLID_20_" class="st1" d="M137,283.6l1.3-1.6c1.2,1.1,2.4,1.6,4,1.6c1.4,0,2.2-0.7,2.2-1.6v0c0-0.9-0.5-1.4-2.9-1.9
		c-2.7-0.7-4.2-1.4-4.2-3.8v0c0-2.2,1.8-3.7,4.3-3.7c1.8,0,3.3,0.6,4.6,1.6l-1.2,1.7c-1.1-0.9-2.3-1.3-3.4-1.3
		c-1.3,0-2.1,0.7-2.1,1.5v0c0,1,0.6,1.4,3,2c2.7,0.7,4,1.6,4,3.7v0c0,2.4-1.9,3.8-4.5,3.8C140.3,285.7,138.5,285,137,283.6"/>
	<polygon id="XMLID_21_" class="st1" points="149.4,272.8 151.6,272.8 151.6,279.2 157.6,272.8 160.4,272.8 155.1,278.3 
		160.6,285.5 157.9,285.5 153.6,279.8 151.6,281.8 151.6,285.5 149.4,285.5 	"/>
	<polygon id="XMLID_22_" class="st1" points="162.5,272.8 171.9,272.8 171.9,274.8 164.7,274.8 164.7,278.1 171.1,278.1 
		171.1,280.1 164.7,280.1 164.7,283.5 172,283.5 172,285.5 162.5,285.5 	"/>
	<polygon id="XMLID_23_" class="st1" points="174.6,272.8 176.8,272.8 176.8,283.5 183.5,283.5 183.5,285.5 174.6,285.5 	"/>
	<polygon id="XMLID_24_" class="st1" points="185.8,272.8 188,272.8 188,283.5 194.7,283.5 194.7,285.5 185.8,285.5 	"/>
	<polygon id="XMLID_25_" class="st1" points="197,272.8 206.4,272.8 206.4,274.8 199.2,274.8 199.2,278.1 205.5,278.1 205.5,280.1 
		199.2,280.1 199.2,283.5 206.5,283.5 206.5,285.5 197,285.5 	"/>
	<path id="XMLID_28_" class="st1" d="M209.1,272.8h5.6c1.6,0,2.8,0.5,3.7,1.3c0.7,0.7,1,1.6,1,2.7v0c0,2.1-1.2,3.3-3,3.8l3.4,4.8
		h-2.6l-3.1-4.4h-2.8v4.4h-2.2L209.1,272.8z M214.6,279.1c1.6,0,2.6-0.8,2.6-2.1v0c0-1.4-1-2.1-2.6-2.1h-3.2v4.2L214.6,279.1z"/>
	<path id="XMLID_29_" class="st1" d="M222,280.1v-7.3h2.2v7.2c0,2.4,1.2,3.6,3.2,3.6c2,0,3.2-1.2,3.2-3.5v-7.3h2.2v7.2
		c0,3.8-2.1,5.7-5.4,5.7C224,285.7,222,283.8,222,280.1"/>
	<path id="XMLID_32_" class="st1" d="M235.8,272.8h5c3,0,4.8,1.7,4.8,4.2v0c0,2.8-2.3,4.3-5.1,4.3h-2.5v4.1h-2.2V272.8z
		 M240.6,279.4c1.7,0,2.7-0.9,2.7-2.3v0c0-1.5-1.1-2.3-2.7-2.3h-2.6v4.6L240.6,279.4z"/>
	<polygon id="XMLID_33_" class="st1" points="253.3,272.8 255.5,272.8 255.5,278.1 261.6,278.1 261.6,272.8 263.8,272.8 
		263.8,285.5 261.6,285.5 261.6,280.2 255.5,280.2 255.5,285.5 253.3,285.5 	"/>
	<path id="XMLID_36_" class="st1" d="M266.5,279.2L266.5,279.2c0-3.6,2.7-6.6,6.6-6.6s6.6,2.9,6.6,6.5v0c0,3.6-2.7,6.5-6.6,6.5
		C269.2,285.7,266.5,282.8,266.5,279.2 M277.4,279.2L277.4,279.2c0-2.5-1.8-4.5-4.3-4.5c-2.5,0-4.3,2-4.3,4.5v0
		c0,2.5,1.8,4.5,4.3,4.5C275.6,283.6,277.4,281.7,277.4,279.2"/>
	<polygon id="XMLID_37_" class="st1" points="282.4,272.8 284.6,272.8 284.6,283.5 291.3,283.5 291.3,285.5 282.4,285.5 	"/>
	<path id="XMLID_40_" class="st1" d="M293.6,272.8h4.7c4,0,6.7,2.7,6.7,6.3v0c0,3.6-2.8,6.3-6.7,6.3h-4.7V272.8z M295.8,274.9v8.6
		h2.5c2.7,0,4.4-1.8,4.4-4.3v0c0-2.5-1.7-4.3-4.4-4.3H295.8z"/>
	<rect id="XMLID_41_" x="307.9" y="272.8" class="st1" width="2.2" height="12.7"/>
	<polygon id="XMLID_42_" class="st1" points="313.5,272.8 315.5,272.8 322.3,281.6 322.3,272.8 324.5,272.8 324.5,285.5 
		322.6,285.5 315.7,276.5 315.7,285.5 313.5,285.5 	"/>
	<path id="XMLID_43_" class="st1" d="M327.2,279.2L327.2,279.2c0-3.6,2.7-6.6,6.5-6.6c2.2,0,3.6,0.6,4.9,1.7l-1.4,1.7
		c-1-0.8-1.9-1.4-3.5-1.4c-2.3,0-4.1,2-4.1,4.5v0c0,2.6,1.7,4.5,4.3,4.5c1.2,0,2.3-0.4,3.1-1v-2.4h-3.2v-1.9h5.4v5.3
		c-1.2,1.1-3,2-5.3,2C329.8,285.7,327.2,282.9,327.2,279.2"/>
	<path id="XMLID_44_" class="st1" d="M341.1,283.6l1.3-1.6c1.2,1.1,2.4,1.6,4,1.6c1.4,0,2.2-0.7,2.2-1.6v0c0-0.9-0.5-1.4-2.9-1.9
		c-2.7-0.7-4.2-1.4-4.2-3.8v0c0-2.2,1.8-3.7,4.3-3.7c1.8,0,3.3,0.6,4.6,1.6l-1.2,1.7c-1.1-0.9-2.3-1.3-3.4-1.3
		c-1.3,0-2.1,0.7-2.1,1.5v0c0,1,0.6,1.4,3,2c2.7,0.7,4,1.6,4,3.7v0c0,2.4-1.9,3.8-4.5,3.8C344.4,285.7,342.6,285,341.1,283.6"/>
	<polygon id="XMLID_45_" class="st1" points="358.9,272.8 361.1,272.8 361.1,283.5 367.8,283.5 367.8,285.5 358.9,285.5 	"/>
	<rect id="XMLID_46_" x="370.2" y="272.8" class="st1" width="2.2" height="12.7"/>
	<polygon id="XMLID_47_" class="st1" points="375.8,272.8 378.2,272.8 382,278.8 385.9,272.8 388.3,272.8 388.3,285.5 386,285.5 
		386,276.4 382,282.4 382,282.4 378,276.5 378,285.5 375.8,285.5 	"/>
	<rect id="XMLID_48_" x="391.6" y="272.8" class="st1" width="2.2" height="12.7"/>
	<polygon id="XMLID_49_" class="st1" points="400.3,274.9 396.3,274.9 396.3,272.8 406.6,272.8 406.6,274.9 402.6,274.9 
		402.6,285.5 400.3,285.5 	"/>
	<polygon id="XMLID_50_" class="st1" points="408.9,272.8 418.3,272.8 418.3,274.8 411.2,274.8 411.2,278.1 417.5,278.1 
		417.5,280.1 411.2,280.1 411.2,283.5 418.4,283.5 418.4,285.5 408.9,285.5 	"/>
	<path id="XMLID_53_" class="st1" d="M421.1,272.8h4.7c4,0,6.7,2.7,6.7,6.3v0c0,3.6-2.8,6.3-6.7,6.3h-4.7V272.8z M423.3,274.9v8.6
		h2.5c2.7,0,4.4-1.8,4.4-4.3v0c0-2.5-1.7-4.3-4.4-4.3H423.3z"/>
</g>
</svg>
