<?xml version="1.0" encoding="UTF-8" standalone="no"?>
<svg
   xmlns:dc="http://purl.org/dc/elements/1.1/"
   xmlns:cc="http://creativecommons.org/ns#"
   xmlns:rdf="http://www.w3.org/1999/02/22-rdf-syntax-ns#"
   xmlns:svg="http://www.w3.org/2000/svg"
   xmlns="http://www.w3.org/2000/svg"
   xmlns:sodipodi="http://sodipodi.sourceforge.net/DTD/sodipodi-0.dtd"
   xmlns:inkscape="http://www.inkscape.org/namespaces/inkscape"
   height="512pt"
   viewBox="-50 0 512 512.00075"
   width="512pt"
   version="1.1"
   id="svg14"
   sodipodi:docname="02.svg"
   inkscape:version="0.92.4 5da689c313, 2019-01-14">
  <metadata
     id="metadata20">
    <rdf:RDF>
      <cc:Work
         rdf:about="">
        <dc:format>image/svg+xml</dc:format>
        <dc:type
           rdf:resource="http://purl.org/dc/dcmitype/StillImage" />
      </cc:Work>
    </rdf:RDF>
  </metadata>
  <defs
     id="defs18" />
  <sodipodi:namedview
     pagecolor="#ffffff"
     bordercolor="#666666"
     borderopacity="1"
     objecttolerance="10"
     gridtolerance="10"
     guidetolerance="10"
     inkscape:pageopacity="0"
     inkscape:pageshadow="2"
     inkscape:window-width="1366"
     inkscape:window-height="722"
     id="namedview16"
     showgrid="false"
     inkscape:zoom="0.45360611"
     inkscape:cx="-58.854357"
     inkscape:cy="364.98254"
     inkscape:window-x="0"
     inkscape:window-y="21"
     inkscape:window-maximized="1"
     inkscape:current-layer="svg14" />
  <path
     d="m88.867188 188.84375c-4.183594 0-7.574219 3.390625-7.574219 7.574219v68.671875c0 4.183594 3.390625 7.574218 7.574219 7.574218h68.671874c4.183594 0 7.574219-3.390624 7.574219-7.574218v-68.671875c0-4.183594-3.390625-7.574219-7.574219-7.574219zm61.097656 68.671875h-53.523438v-53.523437h53.523438zm0 0"
     id="path2"
     style="fill:#ececec" />
  <path
     d="m322.144531 191.871094h-131.28125c-4.183593 0-7.574219 3.394531-7.574219 7.574218 0 4.183594 3.390626 7.574219 7.574219 7.574219h131.28125c4.183594 0 7.574219-3.390625 7.574219-7.574219 0-4.179687-3.390625-7.574218-7.574219-7.574218zm0 0"
     id="path4"
     style="fill:#ececec" />
  <path
     d="m329.71875 232.773438c0-4.183594-3.390625-7.574219-7.574219-7.574219h-131.28125c-4.183593 0-7.574219 3.390625-7.574219 7.574219 0 4.183593 3.390626 7.574218 7.574219 7.574218h131.28125c4.183594 0 7.574219-3.390625 7.574219-7.574218zm0 0"
     id="path6"
     style="fill:#ececec" />
  <path
     d="m190.863281 257.515625c-4.183593 0-7.574219 3.390625-7.574219 7.574219 0 4.179687 3.390626 7.570312 7.574219 7.570312h100.988281c4.183594 0 7.574219-3.390625 7.574219-7.570312 0-4.183594-3.390625-7.574219-7.574219-7.574219zm0 0"
     id="path8"
     style="fill:#ececec" />
  <path
     d="m393.339844 55.542969c9.746094 0 17.675781-7.929688 17.675781-17.675781v-20.195313c0-9.742187-7.929687-17.671875-17.675781-17.671875h-285.621094c-4.183594 0-7.574219 3.390625-7.574219 7.574219 0 4.183593 3.390625 7.574219 7.574219 7.574219h285.621094c1.394531 0 2.527344 1.132812 2.527344 2.523437v20.199219c0 1.390625-1.132813 2.523437-2.527344 2.523437h-375.667969c-1.390625 0-2.523437-1.132812-2.523437-2.523437v-20.199219c0-1.390625 1.132812-2.523437 2.523437-2.523437h55.121094c4.183593 0 7.574219-3.390626 7.574219-7.574219 0-4.183594-3.390626-7.574219-7.574219-7.574219h-55.121094c-9.742187 0-17.671875 7.929688-17.671875 17.671875v20.199219c0 9.742187 7.929688 17.671875 17.671875 17.671875h4.546875v81.96875c0 4.179687 3.390625 7.574219 7.574219 7.574219 4.179687 0 7.574219-3.394532 7.574219-7.574219v-81.96875h336.28125v240.347656h-336.28125v-123.035156c0-4.183594-3.394532-7.574219-7.574219-7.574219-4.183594 0-7.574219 3.390625-7.574219 7.574219v123.035156h-4.546875c-9.742187 0-17.671875 7.925781-17.671875 17.671875v20.195312c0 9.746094 7.929688 17.675782 17.671875 17.675782h115.566406l-66.9375 149.90625c-1.046875 2.339844-.835937 5.054687.5625 7.207031 1.394531 2.152344 3.785157 3.453125 6.351563 3.453125h40.394531c2.988281 0 5.695313-1.757812 6.914063-4.484375l57.210937-128.121094v125.03125c0 4.183594 3.390625 7.574219 7.574219 7.574219h40.394531c4.183594 0 7.574219-3.390625 7.574219-7.574219v-125.03125l57.210937 128.121094c1.21875 2.726563 3.925781 4.484375 6.914063 4.484375h40.394531.019531c4.183594 0 7.574219-3.390625 7.574219-7.574219 0-1.296875-.324219-2.515625-.898437-3.582031l-66.71875-149.410156h57.375c4.183593 0 7.574218-3.394532 7.574218-7.574219 0-4.183594-3.390625-7.574219-7.574218-7.574219h-317.476563c-1.390625 0-2.523437-1.132812-2.523437-2.527344v-20.195312c0-1.390625 1.132812-2.527344 2.523437-2.527344h375.667969c1.394531 0 2.527344 1.132813 2.527344 2.527344v20.195312c0 1.394532-1.132813 2.527344-2.527344 2.527344h-22.59375c-4.183594 0-7.574219 3.390625-7.574219 7.574219 0 4.179687 3.390625 7.574219 7.574219 7.574219h22.59375c9.746094 0 17.671875-7.929688 17.671875-17.675782v-20.195312c0-9.746094-7.925781-17.671875-17.671875-17.671875h-4.542969v-240.347656zm-132.152344 295.886719 64.933594 145.421874h-23.804688l-64.933594-145.421874zm-43.058594 0v145.421874h-25.246094v-145.421874zm-44.496094 0-64.933593 145.421874h-23.808594l64.9375-145.421874zm0 0"
     id="path10"
     style="fill:#ececec" />
  <path
     d="m183.777344 107.535156c-2.164063-1.609375-5.015625-1.953125-7.496094-.894531l-116.132812 49.484375c-3.847657 1.640625-5.640626 6.089844-4 9.9375 1.226562 2.878906 4.027343 4.605469 6.972656 4.605469.988281 0 1.996094-.195313 2.964844-.609375l112.128906-47.777344 48.011718 35.777344c2.253907 1.675781 5.246094 1.972656 7.785157.761718l94.578125-45.078124-5.109375 16.859374c-1.214844 4 1.046875 8.230469 5.050781 9.445313.734375.21875 1.472656.324219 2.199219.324219 3.25 0 6.253906-2.105469 7.246093-5.378906l10.101563-33.324219c1.171875-3.871094-.90625-7.980469-4.71875-9.335938l-31.304687-11.105469c-3.941407-1.398437-8.269532.660157-9.671876 4.605469-1.398437 3.941407.664063 8.269531 4.605469 9.671875l14.140625 5.015625-89.511718 42.664063zm0 0"
     id="path12"
     style="fill:#ececec" />
</svg>
