<svg xmlns="http://www.w3.org/2000/svg" height="511pt" viewBox="0 -25 511.998 511" width="511pt"><path d="M466.191 360.43l-20.668-7.176c11.57-9.164 19.012-23.32 19.012-39.192v-15.148c0-3.348-.332-6.7-.992-9.953a7.572 7.572 0 00-8.926-5.926 7.576 7.576 0 00-5.922 8.926c.461 2.27.692 4.61.692 6.953v15.149c0 19.21-15.63 34.84-34.84 34.84s-34.84-15.63-34.84-34.84v-15.149c0-19.21 15.629-34.84 34.84-34.84 6.265 0 12.406 1.68 17.758 4.856a7.57 7.57 0 0010.379-2.645 7.572 7.572 0 00-2.645-10.379c-5.508-3.273-11.602-5.418-17.918-6.383v-90.98c0-37.586-30.578-68.164-68.164-68.164H324.66l23.063-13.317a7.574 7.574 0 002.77-10.347l-20.196-34.98a7.585 7.585 0 00-4.598-3.532 7.606 7.606 0 00-5.75.758l-23.933 13.82a67.502 67.502 0 00-12.246-7.086V8.075A7.574 7.574 0 00276.195.5h-40.394a7.574 7.574 0 00-7.574 7.574v27.621a67.502 67.502 0 00-12.247 7.086l-23.933-13.82a7.594 7.594 0 00-5.746-.758 7.582 7.582 0 00-4.602 3.531l-20.195 34.98a7.572 7.572 0 002.773 10.348l23.059 13.317h-29.293c-37.59 0-68.168 30.578-68.168 68.164v90.98c-6.316.965-12.406 3.11-17.918 6.383a7.572 7.572 0 00-2.644 10.38 7.572 7.572 0 0010.378 2.644 34.808 34.808 0 0117.758-4.856c19.211 0 34.84 15.63 34.84 34.84v15.148c0 19.211-15.629 34.84-34.84 34.84-19.21 0-34.84-15.629-34.84-34.84v-15.148c0-2.344.235-4.684.692-6.953a7.573 7.573 0 00-5.922-8.926 7.568 7.568 0 00-8.926 5.926 50.477 50.477 0 00-.992 9.953v15.149c0 15.87 7.445 30.027 19.016 39.19l-20.672 7.177C18.41 369.938 0 395.816 0 424.824v29.61c0 4.18 3.39 7.574 7.574 7.574H216.11a7.576 7.576 0 007.575-7.574 7.574 7.574 0 00-7.575-7.575h-42.414v-22.035c0-22.558 14.32-42.687 35.63-50.086l8.859-3.078 31.254 54.238a7.568 7.568 0 006.562 3.793c2.707 0 5.21-1.449 6.563-3.793l31.253-54.238 8.86 3.078c21.308 7.399 35.625 27.528 35.625 50.086v22.035h-86.785a7.576 7.576 0 00-7.575 7.575 7.579 7.579 0 007.575 7.574h252.91c4.18 0 7.57-3.395 7.57-7.574v-29.61c.004-29.008-18.406-54.886-45.805-64.394zm-35.754 3.62l7.36 2.555-23.25 40.34-23.246-40.34 7.355-2.554zM191.036 45.868l21.817 12.598a7.576 7.576 0 008.71-.805 52.785 52.785 0 0116.766-9.7 7.573 7.573 0 005.05-7.14V15.648h25.247V40.82c0 3.211 2.023 6.07 5.047 7.14a52.743 52.743 0 0116.765 9.7 7.583 7.583 0 008.711.805l21.817-12.598L333.59 67.73l-21.813 12.594a7.571 7.571 0 00-3.66 7.934c.598 3.238.899 6.5.899 9.691 0 3.196-.301 6.457-.899 9.696a7.571 7.571 0 003.66 7.933l21.813 12.594-12.625 21.863-21.817-12.597a7.576 7.576 0 00-8.71.804 52.743 52.743 0 01-16.766 9.7 7.57 7.57 0 00-5.047 7.14v25.172h-25.246v-25.172c0-3.21-2.024-6.07-5.05-7.14a52.785 52.785 0 01-16.767-9.7 7.576 7.576 0 00-8.71-.804l-21.817 12.597-12.625-21.863 21.813-12.594a7.565 7.565 0 003.66-7.933 53.567 53.567 0 01-.899-9.696c0-3.191.301-6.453.899-9.691a7.565 7.565 0 00-3.66-7.934L178.41 67.73zM256 348.902c-19.21 0-34.84-15.629-34.84-34.84v-15.148c0-19.21 15.63-34.84 34.84-34.84s34.84 15.63 34.84 34.84v15.148c0 19.211-15.63 34.84-34.84 34.84zm-142.656 15.149l7.355 2.554-23.25 40.34-23.246-40.34 7.356-2.554zm-98.196 82.808v-22.035c0-22.562 14.317-42.687 35.63-50.086l8.859-3.074 31.254 54.234a7.567 7.567 0 006.558 3.793c2.711 0 5.211-1.449 6.563-3.793l31.254-54.234 8.863 3.074c9.254 3.211 17.266 8.793 23.426 16.262a68.042 68.042 0 00-9.008 33.824v22.035zm189.207-86.43a68.035 68.035 0 00-27.617 18.067c-7.547-8.18-16.949-14.355-27.64-18.066l-20.672-7.176c11.57-9.164 19.015-23.32 19.015-39.192v-15.148c0-24.988-18.433-45.754-42.414-49.418v-90.953c0-29.234 23.782-53.02 53.016-53.02h29.297l-23.063 13.317a7.57 7.57 0 00-2.77 10.344l20.196 34.984a7.579 7.579 0 004.598 3.527c1.941.52 4.008.25 5.75-.758l23.933-13.816a67.732 67.732 0 0012.246 7.086v27.621a7.574 7.574 0 007.575 7.574h12.62v54.094c-23.98 3.664-42.413 24.426-42.413 49.418v15.148c0 15.872 7.445 30.028 19.015 39.192zM256 406.946l-23.25-40.34 7.36-2.554h31.78l7.356 2.554zm51.645-46.515l-20.668-7.176c11.57-9.164 19.011-23.32 19.011-39.192v-15.148c0-24.988-18.433-45.754-42.414-49.418v-54.094h12.621a7.574 7.574 0 007.575-7.574v-27.621a67.764 67.764 0 0012.25-7.086l23.93 13.816a7.568 7.568 0 005.75.758 7.568 7.568 0 004.597-3.527l20.2-34.984a7.574 7.574 0 00-2.774-10.344l-23.063-13.317h29.297c29.234 0 53.02 23.786 53.02 53.02v90.953c-23.985 3.664-42.415 24.426-42.415 49.418v15.149c0 15.87 7.442 30.027 19.012 39.19l-20.668 7.177c-10.695 3.71-20.097 9.886-27.644 18.062a67.987 67.987 0 00-27.617-18.062zm189.207 86.43H353.453v-22.036A68.005 68.005 0 00344.441 391c6.164-7.469 14.176-13.05 23.43-16.262l8.86-3.078 31.253 54.238a7.582 7.582 0 006.563 3.79c2.71 0 5.21-1.446 6.562-3.79l31.254-54.238 8.86 3.078c21.312 7.399 35.629 27.524 35.629 50.082zm0 0" fill="#ececec"/><path d="M256 125.723c15.313 0 27.77-12.461 27.77-27.774S271.313 70.18 256 70.18s-27.77 12.458-27.77 27.77 12.458 27.774 27.77 27.774zm0-40.395c6.96 0 12.621 5.66 12.621 12.621s-5.66 12.625-12.621 12.625-12.621-5.664-12.621-12.625c0-6.96 5.66-12.62 12.621-12.62zm0 0" fill="#ececec"/></svg>