<svg xmlns="http://www.w3.org/2000/svg" height="512pt" viewBox="-50 0 512 512.001" width="512pt"><path d="M88.867 188.844a7.574 7.574 0 00-7.574 7.574v68.672a7.574 7.574 0 007.574 7.574h68.672a7.574 7.574 0 007.574-7.574v-68.672a7.574 7.574 0 00-7.574-7.574zm61.098 68.672H96.44v-53.524h53.524zm0 0M322.145 191.871H190.863a7.576 7.576 0 00-7.574 7.574 7.574 7.574 0 007.574 7.575h131.282a7.574 7.574 0 007.574-7.575c0-4.18-3.39-7.574-7.574-7.574zm0 0M329.719 232.773a7.574 7.574 0 00-7.574-7.574H190.863a7.574 7.574 0 00-7.574 7.574 7.574 7.574 0 007.574 7.575h131.282a7.574 7.574 0 007.574-7.575zm0 0M190.863 257.516a7.573 7.573 0 100 15.145h100.989a7.573 7.573 0 100-15.145zm0 0" fill="#ececec"/><path d="M393.34 55.543c9.746 0 17.676-7.93 17.676-17.676V17.672C411.016 7.93 403.086 0 393.34 0H107.719a7.574 7.574 0 00-7.574 7.574 7.574 7.574 0 007.574 7.574h285.62a2.528 2.528 0 012.528 2.524v20.2a2.528 2.528 0 01-2.527 2.523H17.672a2.527 2.527 0 01-2.524-2.524v-20.2a2.527 2.527 0 012.524-2.523h55.121a7.574 7.574 0 007.574-7.574A7.574 7.574 0 0072.793 0H17.672C7.93 0 0 7.93 0 17.672v20.2c0 9.741 7.93 17.671 17.672 17.671h4.547v81.969c0 4.18 3.39 7.574 7.574 7.574a7.579 7.579 0 007.574-7.574V55.543h336.281v240.348H37.368V172.855a7.576 7.576 0 00-7.575-7.574 7.574 7.574 0 00-7.574 7.574v123.036h-4.547C7.93 295.89 0 303.816 0 313.562v20.196c0 9.746 7.93 17.676 17.672 17.676h115.566L66.301 501.34a7.563 7.563 0 00.562 7.207A7.569 7.569 0 0073.215 512h40.394a7.574 7.574 0 006.914-4.484l57.211-128.121v125.03A7.574 7.574 0 00185.31 512h40.394a7.574 7.574 0 007.574-7.574V379.395l57.211 128.12a7.574 7.574 0 006.914 4.485H337.817a7.574 7.574 0 007.574-7.574 7.528 7.528 0 00-.899-3.582l-66.719-149.41h57.375a7.576 7.576 0 007.575-7.575 7.574 7.574 0 00-7.575-7.574H17.672a2.528 2.528 0 01-2.524-2.527v-20.196a2.53 2.53 0 012.524-2.527H393.34a2.529 2.529 0 012.527 2.527v20.196a2.529 2.529 0 01-2.527 2.527h-22.594a7.574 7.574 0 00-7.574 7.574c0 4.18 3.39 7.575 7.574 7.575h22.594c9.746 0 17.672-7.93 17.672-17.676v-20.196c0-9.746-7.926-17.671-17.672-17.671h-4.543V55.543zM261.188 351.43l64.933 145.422h-23.805L237.383 351.43zm-43.06 0v145.422h-25.245V351.43zm-44.495 0l-64.934 145.422H84.891l64.937-145.422zm0 0" fill="#ececec"/><path d="M183.777 107.535a7.575 7.575 0 00-7.496-.894L60.148 156.125a7.576 7.576 0 00-4 9.938 7.576 7.576 0 006.973 4.605c.988 0 1.996-.195 2.965-.61l112.129-47.777 48.012 35.778a7.575 7.575 0 007.785.761l94.578-45.078-5.11 16.86c-1.214 4 1.047 8.23 5.051 9.445a7.575 7.575 0 009.445-5.055l10.102-33.324a7.58 7.58 0 00-4.719-9.336l-31.304-11.105a7.575 7.575 0 00-5.067 14.277l14.14 5.016-89.51 42.664zm0 0" fill="#ececec"/></svg>