<svg xmlns="http://www.w3.org/2000/svg" height="512pt" viewBox="0 0 512 512" width="512pt"><path d="M475.805 124.691a7.575 7.575 0 00-10.39-2.605 7.57 7.57 0 00-2.606 10.387c22.27 37.207 34.043 79.922 34.043 123.527 0 132.809-108.043 240.852-240.852 240.852-132.805 0-240.852-108.043-240.852-240.852S123.195 15.148 256 15.148c73.324 0 141.766 32.805 187.777 90.008a7.575 7.575 0 0010.649 1.156 7.576 7.576 0 001.152-10.652C406.68 34.867 333.934 0 256 0 187.621 0 123.332 26.629 74.98 74.98 26.63 123.332 0 187.617 0 256s26.629 132.668 74.98 181.02C123.332 485.37 187.621 512 256 512c68.383 0 132.668-26.629 181.02-74.98C485.37 388.668 512 324.383 512 256c0-46.348-12.516-91.75-36.195-131.309zm0 0" fill="#ececec"/><path d="M256 50.492C142.684 50.492 50.492 142.684 50.492 256S142.684 461.508 256 461.508 461.508 369.316 461.508 256 369.316 50.492 256 50.492zm101.633 366.395l-6.207-10.75a7.574 7.574 0 00-10.344-2.774 7.58 7.58 0 00-2.773 10.348l6.218 10.77c-24.363 12.847-51.824 20.57-80.953 21.714v-12.46c0-4.18-3.39-7.575-7.574-7.575s-7.574 3.395-7.574 7.574v12.461c-29.125-1.144-56.59-8.867-80.95-21.715l6.215-10.77c2.094-3.62.852-8.253-2.77-10.347a7.58 7.58 0 00-10.347 2.774l-6.207 10.75a191.84 191.84 0 01-59.25-59.254l10.746-6.203c3.625-2.094 4.867-6.727 2.774-10.348a7.578 7.578 0 00-10.348-2.773l-10.766 6.218c-12.851-24.359-20.57-51.824-21.714-80.953h12.457a7.573 7.573 0 100-15.144H65.805c1.144-29.13 8.867-56.594 21.715-80.953l10.77 6.218a7.577 7.577 0 007.574-13.121l-10.75-6.203a191.852 191.852 0 0159.253-59.254l6.207 10.75a7.572 7.572 0 0010.344 2.774 7.58 7.58 0 002.773-10.348l-6.218-10.77c24.363-12.847 51.824-20.57 80.953-21.714v12.46c0 4.18 3.39 7.575 7.574 7.575s7.574-3.395 7.574-7.574V65.805c29.125 1.144 56.59 8.867 80.95 21.715l-6.215 10.77c-2.094 3.62-.852 8.253 2.77 10.347a7.572 7.572 0 0010.348-2.773l6.206-10.75a191.84 191.84 0 0159.25 59.253l-10.75 6.203c-3.621 2.094-4.863 6.727-2.77 10.348a7.572 7.572 0 0010.344 2.773l10.77-6.218c12.851 24.359 20.57 51.824 21.714 80.953h-12.457a7.573 7.573 0 100 15.144h12.457c-1.144 29.13-8.863 56.594-21.714 80.953l-10.77-6.218a7.57 7.57 0 00-10.344 2.773c-2.093 3.621-.851 8.254 2.77 10.348l10.75 6.203a191.727 191.727 0 01-59.25 59.258zm0 0" fill="#ececec"/><path d="M342.75 309.188l-49.105-49.098c.144-1.344.222-2.707.222-4.09 0-11.902-5.523-22.535-14.137-29.48v-99.782c0-6.332-2.46-12.289-6.953-16.797A23.62 23.62 0 00256 103.008c-13.086 0-23.734 10.644-23.734 23.73v18.766c0 4.183 3.39 7.574 7.574 7.574s7.574-3.39 7.574-7.574v-18.766c0-4.734 3.852-8.586 8.586-8.586 2.297 0 4.457.895 6.066 2.5a8.573 8.573 0 012.516 6.086v92.387a37.662 37.662 0 00-17.168 0v-38.36c0-4.183-3.39-7.574-7.574-7.574s-7.574 3.391-7.574 7.575v45.754c-8.614 6.945-14.137 17.578-14.137 29.48 0 7.707 2.32 14.879 6.289 20.867l-76.781 76.781a7.58 7.58 0 000 10.715c1.48 1.477 3.418 2.215 5.355 2.215s3.88-.738 5.356-2.215l76.785-76.785a37.614 37.614 0 0025.222 6.035c.301.489.66.953 1.083 1.38l47.75 47.757c4.472 4.492 10.44 6.965 16.796 6.965 6.332 0 12.293-2.469 16.778-6.953a23.635 23.635 0 005.965-10.024c2.382-8.074.394-17.18-5.965-23.543-.004-.004-.008-.004-.012-.008zM233.277 256c0-12.527 10.196-22.723 22.723-22.723s22.723 10.196 22.723 22.723-10.196 22.723-22.723 22.723-22.723-10.196-22.723-22.723zm98.774 76.05a8.535 8.535 0 01-6.067 2.516 8.517 8.517 0 01-6.078-2.516l-43.902-43.913a38.205 38.205 0 0012.133-12.133l43.914 43.906c3.347 3.344 3.347 8.793 0 12.14zm0 0" fill="#ececec"/></svg>