<svg xmlns="http://www.w3.org/2000/svg" viewBox="0 0 500 500"><path d="M333.1 290c-10.5-2.8-15.3-8.7-15.3-19 0-9 3.7-14.3 12.2-17.4 2.5-.9 5.8-1.2 14.7-1.5l11.5-.3-.2-3.6c-.3-5.2-1.9-6.2-10-6.5-7.9-.3-10.4.2-12.5 2.5l-1.8 1.9-6.3-1.9c-3.4-1-6.4-2-6.6-2.2-.8-.8 2.1-5.7 4.7-8 6.1-5.6 18.8-7.7 31-5.1 4.8 1 8.9 3.3 11.8 6.6 4 4.5 4.4 6.7 4.4 24.9 0 15.1-.1 15.9-1.5 19-2.7 5.9-7.1 9.1-15.1 11-5.7 1.3-15.3 1.1-21-.4zm20.2-13.7c2.5-1.3 2.8-2.1 2.8-7.6v-4.5l-9.9.2c-8.9.2-10.1.3-11.8 1.6-1.3 1-1.9 2-2 3.8-.4 4.8.7 6.3 5.4 7.5 3.1.7 13.2.1 15.5-1zm44.7 14.6c-5.5-.9-10.1-3.1-13.2-6.3-5.5-5.5-5.5-5.5-5.5-43.1 0-28.6.1-32 1-32.4 1.9-.7 12.2-.4 13 .4.5.5.8 3.8.8 10.4 0 8.8.1 9.6 1.1 9.2 2.8-1.1 11-1.6 15.9-1 10.2 1.2 16.7 5 19.8 11.8 1.5 3.2 1.5 3.9 1.5 19.2 0 13.4-.2 16.3-1.1 19-2.3 6.5-7.4 10.5-15.8 12.2-3.9.9-13.7 1.2-17.5.6zm17.2-14.6c1.1-.6 2.2-1.5 2.4-2.1.2-.6.4-7.3.4-14.9 0-13.7 0-13.8-1.5-15.4-2-2-4.7-2.5-12.2-2.2-5 .2-6.5.5-7.9 1.6l-1.8 1.4-.2 14.9-.2 14.9 1.6 1.1c2.6 1.7 5.4 2.2 11.6 1.9 3.7-.1 6.5-.6 7.8-1.2zM67.5 289c-.4-1.1 19.9-68.2 21.7-71.9 2.5-4.9 7.7-7.8 13.8-7.8 6.2 0 10.6 2.4 13.4 7.4 2 3.4 22.6 71 22.1 72.3-.3.8-1.7 1-7.1 1-5.8 0-6.8-.2-7.3-1.1-.3-.6-1.8-5.7-3.4-11.3l-2.8-10.2H88.2l-2.8 10.2c-1.6 5.6-3.1 10.7-3.4 11.3-.5 1-1.5 1.1-7.3 1.1-5.5 0-6.9-.2-7.2-1zm42.3-49.6c-2.4-8.3-4.6-15.5-4.8-15.8-.5-.8-3.4-.8-3.9.1-.2.4-2.4 7.5-4.8 15.8l-4.4 15.1h22.2l-4.3-15.2zm34.6 50.2c-.2-.2-.4-18.3-.4-40.2 0-35.7.1-39.8 1-40.2 1.9-.7 12.2-.4 13 .4.5.5.8 3.8.8 10.4 0 5.3.2 9.4.5 9.3 1.5-1 11.8-1.6 16.6-1.1 9.6 1.1 16 4.7 19.2 10.6 1.4 2.6 1.4 3.2 1.4 26.8v24.2H183l-.3-22.2c-.2-12.2-.6-22.6-.9-23.1-2.4-3.7-20.1-3.6-22.5.1-.3.4-.5 10.4-.5 22.2 0 11.8-.2 21.8-.4 22.4-.3.8-1.6 1-7 1-3.6-.2-6.7-.4-7-.6zm62.2-.5c-.6-.7-.7-6.3-.6-23.4.2-21.9.3-22.5 1.7-25.8 2-4.4 6-8 10.8-9.8 5.2-2 13.4-2.8 19.5-2 10.4 1.3 16.1 4.5 19.2 10.8l1.8 3.8v47h-14.1l-.3-22.5-.3-22.5-1.8-1.4c-1.5-1.1-2.9-1.4-8.3-1.6-6.9-.2-10.7.5-12.2 2.3-.7.8-1 5.8-1.2 23.4l-.3 22.3-6.5.2c-5.2.1-6.8 0-7.4-.8zm79.2 0c-7.4-1.6-12.5-5.7-15-12-1.4-3.5-1.4-3.9-1.4-35.8v-32.2H283l.3 30.6c.3 33.2.4 33.3 4 35.2 1.3.7 4.5.9 12.6.9 6 0 11.2.2 11.7.5.6.4.8 2.2.6 6.9l-.2 6.4-11.3.1c-7 .2-12.7-.1-14.9-.6z" fill="#1f4787"/></svg>