<svg version="1.1" id="Layer_1" xmlns="http://www.w3.org/2000/svg" x="0" y="0" viewBox="0 0 500 500" xml:space="preserve"><style>.st0{fill:#f60}.st6{fill:#23282c}</style><g id="XMLID_2_"><path id="XMLID_21_" class="st0" d="M155 215.6l-39.4-47.7c-.8-.8-2.3-.4-2.3.8l3.3 46.2L88 190.4c-.8-.8-2.3 0-2.1 1.2l11.4 45.6L69.7 221c-1-.6-2.3.4-1.9 1.7l48.3 109c.4 1 2.1.8 2.3-.2l10.6-55.9 26.9-45.6c2.9-4.5 2.4-10.3-.9-14.4z"/><path id="XMLID_22_" d="M116.5 215l-28.8-24.5c-.8-.8-2.3 0-2.1 1.2L97 237.3l21.8 12.8-2.3-35.1z" fill="#e74030"/><path id="XMLID_23_" d="M116.9 307.6c-.4 1.2-2.1 1-2.3-.2l-17.4-70L69.4 221c-1-.6-2.3.4-1.9 1.7l48.3 109c.4 1 2.1.8 2.3-.2l10.6-56-.2.2-11.6 31.9z" fill="#fab418"/><path id="XMLID_24_" d="M116.9 307.6l12-31.9-5.4 8.9c-.6 1-2.3.6-2.3-.6l-2.3-33.8-21.8-12.8 17.4 70c.3 1.2 2 1.4 2.4.2" fill="#de0732"/><path id="XMLID_25_" class="st0" d="M154.6 215.6l-39.4-47.7c-.6-.8-2.1-.2-2.1.8l3.3 46.2 19.9 17.2c3.9 3.3 5.4 8.9 3.5 13.9l-11 29v.4l26.9-45.6c2.9-4.3 2.2-10.1-1.1-14.2"/><path id="XMLID_26_" d="M124.6 253.7c4.6 2.7 6.8 7.9 6 13.1l-1.7 8.5 11-29c1.9-5 .4-10.4-3.5-13.9l-19.9-17.2 2.5 35.2 5.6 3.3z" fill="#de0733"/><path id="XMLID_27_" d="M128.7 275.9l.2-.4v-.4"/><path id="XMLID_28_" d="M128.7 275.9l.2-.4v-.4"/><path id="XMLID_29_" d="M124.6 253.7l-5.8-3.5L121 284c0 1.2 1.7 1.7 2.3.6l5.2-8.9.2-.6 1.7-8.5c1.2-5-1.3-10.2-5.8-12.9" fill="#cc1d46"/><path id="XMLID_32_" class="st6" d="M184.9 276.5h23.6L196.7 245l-11.8 31.5zm11.2-43.5h1.9c2.5 0 4.8 1.5 5.6 3.9l27.8 70.9H223c-1.5 0-2.9-1-3.3-2.3l-7.7-19.9h-30.5l-7.5 19.9c-.6 1.5-1.9 2.3-3.3 2.3h-8.1l27.6-70.9c1.1-2.3 3.4-3.9 5.9-3.9z"/><path id="XMLID_36_" class="st6" d="M345.3 307.8h10.2v-74.6h-10.2m38.5 16.4v58.2h-9.3v-74.6h6c1.9 0 3.7 1 5 2.5l37.7 53V233h9.3v74.8h-4.6c-2.1 0-3.9-1-5-2.5l-39.1-55.7zm-75.2 58.2h-8.5L280 247.3l-20.1 60.5h-8.5L229 233.2h8.1c1.7 0 3.1 1 3.5 2.7l15.5 55.5 18-55.3c.6-1.9 2.3-3.1 4.4-3.1h3.5c2.1 0 3.7 1.2 4.4 3.1l18 55.3 15.5-55.7c.4-1.7 1.9-2.7 3.5-2.7h7.9l-22.7 74.8z"/><path id="XMLID_37_" fill="#3f3f3f" d="M148.6 275.3l-.2.8.2-.4v-.4"/></g></svg>