<svg version="1.1" id="Layer_1" xmlns="http://www.w3.org/2000/svg" x="0" y="0" viewBox="0 0 500 500" xml:space="preserve"><style>.st1{fill:#010101}</style><g id="XMLID_1_"><path id="XMLID_7_" d="M372.9 176.4l-5.3 5.5c8.2-.5 20.7.2 28.9 1.6 0 0-7.7 2.8-15 7.9 4.5-.1 8.4-.4 9.4-1.2 1-.7 6.4-7 9.1-10.5-7.9-2-18.5-3.2-27.1-3.3m-8.4-12.3c-3.1 3-7.8 8-12.5 13.5-20.3 2.2-37.1 7.6-64.8 18.6l19.3 3.4c17.5-8.4 38.1-15.9 56.7-17.2 2.6-6.9 6.5-15.9 12.3-24.4.1-.1-7.2 3.7-11 6.1m-297 96l19.9 1.9c67-1 112-9.6 189.9-46 10.7-5 20.2-9.1 23.5-10.3 7.4.1 19.2 2.4 28.8 3.9-5-2.6-14.8-6.5-20.1-8.7-6.6.4-20.1.9-25.3 1.2-4 1.7-7.6 3.3-12.4 5.5-94 42.7-145.2 52.9-204.3 52.5m339.4-78.2c6 .9 12.8 3.4 18.3 6.5-7.6-1.7-18.5-3.3-26.7-3.5 0 0 5.3-2.3 8.4-3" fill="#e92328"/><path id="XMLID_10_" class="st1" d="M205.3 322.4c.6-4.5 3.5-7.4 8.1-7.4 4.9 0 7.9 2.9 8 7.4h-16.1zm8.5-13.3c-9.5 0-16.4 6.6-16.4 16.5s7.3 16.5 17.8 16.5c3.1 0 6-.5 8.4-1.5l4.5-7.5-.6-.3c-3.9 2-7.9 3-11.6 3-5.4 0-10.1-2.7-10.6-7.5h24v-2.1c0-10.9-6.7-17.1-15.5-17.1"/><path id="XMLID_13_" class="st1" d="M374.6 322.4c.6-4.5 3.5-7.4 8.1-7.4 4.9 0 7.9 2.9 8 7.4h-16.1zm8.5-13.3c-9.5 0-16.4 6.6-16.4 16.5s7.3 16.5 17.8 16.5c3.1 0 6-.5 8.4-1.5l4.5-7.5-.6-.3c-3.9 2-7.9 3-11.6 3-5.4 0-10.1-2.7-10.6-7.5h24c1-12.3-5.7-19.2-15.5-19.2"/><path id="XMLID_16_" class="st1" d="M261.1 322.4c.6-4.5 3.5-7.4 8.1-7.4 4.9 0 7.9 2.9 8 7.4h-16.1zm8.6-13.3c-9.5 0-16.4 6.6-16.4 16.5s7.3 16.5 17.8 16.5c3.1 0 6-.5 8.4-1.5l4.5-7.5-.6-.3c-3.8 2-7.9 3-11.6 3-5.4 0-10.1-2.7-10.6-7.5h24c1-12.3-5.7-19.2-15.5-19.2"/><path id="XMLID_20_" class="st1" d="M91.8 334.2h-7.6v-13.4h7.9c6.7 0 9.8 1.7 9.8 6.6 0 6.1-5.9 6.8-10.1 6.8M84.2 302H91c4.6 0 6 .6 7.4 2 1.1 1 1.6 2.4 1.6 4 0 1.5-.5 2.8-1.6 3.8-1.4 1.3-3.2 1.9-6.6 1.9h-7.5V302zm15.9 14.9v-.1c4.8-1.4 8.1-4.9 8.1-10.1 0-8.5-7.2-11.7-14.2-11.7H70.3v.7l2.4 2c2.9 2.3 3.2 2.7 3.2 4.8v38.8h16.7c8.8 0 17.6-3.1 17.6-13.2-.1-6-4.2-10.6-10.1-11.2"/><path id="XMLID_21_" class="st1" d="M121.8 294.5c-2.9 0-5 2.2-5 4.7 0 2.4 2.1 4.7 5 4.7s5.1-2 5.1-4.7c.1-2.7-2.2-4.7-5.1-4.7"/><path id="XMLID_22_" class="st1" d="M113.8 310.4l1.2 1c2.8 2.2 3 2.6 3 5.2v24.7h7.9v-31.4h-12.1v.5z"/><path id="XMLID_25_" class="st1" d="M174.8 335c-5.7 0-9.2-4.5-9.2-9.4s3.5-9.4 9.2-9.4c5.8 0 9.3 4.5 9.3 9.4-.1 4.9-3.6 9.4-9.3 9.4m3.9-41.5l2.5 1.6c2.2 1.4 2.5 2.1 2.5 4.1v14.6h-.2c-1.7-2.1-4.8-4.8-10.7-4.8-9 0-15.2 7.2-15.2 16.5s5.8 16.5 15.5 16.5c4.4 0 8.5-1.7 10.8-5.6h.1l.8 4.7h6.7V293h-12.9v.5z"/><path id="XMLID_28_" class="st1" d="M344.1 335c-5.8 0-9.2-4.5-9.2-9.4s3.4-9.4 9.2-9.4c5.8 0 9.2 4.5 9.2 9.4s-3.4 9.4-9.2 9.4m3.6-41.5l1.1.8c3.8 2.4 4.2 3 4.2 7.2v12.4h-.2c-1.6-2.1-4.8-4.8-10.7-4.8-8.9 0-15.1 7.2-15.1 16.5s5.8 16.5 15.5 16.5c4.4 0 8.5-1.7 10.8-5.6h.1l.8 4.7h6.6V293h-13.2l.1.5z"/><path id="XMLID_29_" class="st1" d="M422.1 309.1c-4.2 0-7.6 2.2-9.3 5.8h-.1v-5h-13.3l.1.4 2 1.3c3.2 2 3.4 2.6 3.4 6.6v23.2h7.9v-16.8c0-1.7 1-7.9 8.4-7.9 1.3 0 2.5.3 3.8.5v-7.6c-1-.3-1.9-.5-2.9-.5"/><path id="XMLID_30_" class="st1" d="M244.4 304.1c0-5.5 4.8-7.1 11.2-4.6l.4-.4-1.8-6.6c-12-2.4-17.7 3-17.7 11.5v5.7h-7.6v.5l4 3.3c3.1 2.5 3.6 3 3.6 5.7v22.1h7.9v-24.8h7.3v-6.7h-7.3v-5.7z"/><path id="XMLID_31_" class="st1" d="M309.6 309.1c-3.5 0-7.4 1.7-10 5.6h-.1v-4.8h-6.7v-.1h-6.1v.4l2 1.3c3.2 2 3.4 2.6 3.4 6.6v23.2h7.9v-17.1c0-4.2 2-8 7.2-8 5.5 0 6.4 4.2 6.4 7.6v17.5h7.9v-19.8c-.2-7.3-4.5-12.4-11.9-12.4"/><path id="XMLID_32_" class="st1" d="M144.7 330.8v-14.2h8.4v-6.7h-8.4v-9.1h-5l-2.9 9.1h-7.6v.4l2.8 2.5c4.4 3.6 4.8 3.5 4.8 5.6v-1.7V331c0 10.3 7.2 12.1 13.6 10.4l3.9-6.3-.2-.1c-5.5 1.6-9.4 1.4-9.4-4.2"/><path id="XMLID_35_" class="st1" d="M428.8 295.9c0 .3-.1.6-.2.8l-.6.5-.7.2h-2.5v-3.2h2l.7.1.7.2.5.5c0 .3.1.5.1.9m-2.1-1.9h-2.2v6.9h.2v-3.2h2.1l2.1 3.2h.3l-2.1-3.3h.1l.7-.2.6-.3.4-.5.1-.8c0-.6-.2-1-.5-1.4-.4-.2-1-.4-1.8-.4"/><path id="XMLID_38_" class="st1" d="M428.7 302.7c-.7.3-1.4.5-2.2.5-.8 0-1.6-.1-2.3-.5-.7-.3-1.3-.7-1.8-1.2s-.9-1.2-1.2-1.8c-.3-.7-.4-1.5-.4-2.3 0-.8.1-1.5.4-2.2.3-.7.7-1.3 1.2-1.8s1.1-.9 1.8-1.2c.7-.3 1.5-.4 2.3-.4.8 0 1.5.2 2.2.4.7.3 1.3.7 1.8 1.2s.9 1.2 1.2 1.8c.3.7.5 1.4.5 2.2 0 .8-.2 1.6-.5 2.3-.3.7-.7 1.3-1.2 1.8s-1.1.9-1.8 1.2m3.3-3c.3-.7.5-1.5.5-2.4 0-.8-.2-1.6-.5-2.3-.3-.7-.7-1.4-1.3-1.9-.5-.5-1.2-.9-1.9-1.3-.7-.3-1.5-.5-2.3-.5-.8 0-1.6.2-2.4.5-.7.3-1.4.7-1.9 1.3-.5.6-1 1.2-1.3 1.9-.3.7-.5 1.5-.5 2.3 0 .8.2 1.6.5 2.4.3.7.7 1.4 1.3 1.9.5.5 1.2 1 1.9 1.3.7.3 1.5.5 2.4.5.8 0 1.6-.2 2.3-.5.7-.3 1.4-.8 1.9-1.3.6-.5 1-1.2 1.3-1.9"/></g></svg>