<svg version="1.1" id="Layer_1" xmlns="http://www.w3.org/2000/svg" x="0" y="0" viewBox="0 0 500 500" xml:space="preserve"><style>.st0{fill:#003768}</style><g id="XMLID_1_"><path id="XMLID_5_" class="st0" d="M185.9 280h-13.2l-4-9.8h-22L143 280h-13l19.8-49.2H164l21.9 49.2zm-28.8-37.5l-7.2 19H165l-7.9-19z"/><path id="XMLID_6_" class="st0" d="M241.6 280h-10.3l-27.2-31.6V280h-12.3v-49.3h11.3l26.2 30.1v-30.1h12.3z"/><path id="XMLID_7_" class="st0" d="M254.2 230.7h12.3v49.2h-12.3z"/><path id="XMLID_8_" class="st0" d="M312.4 243.5c-7.2-3.2-11.4-4.4-15.6-4.4-4.4 0-7.2 1.6-7.2 4.1 0 7.5 25 5.4 25 22.5 0 9.5-7.9 15-18.9 15-8.6 0-12.9-2.3-17.8-4.8v-10.6c7.1 4.7 11.4 6.3 16.8 6.3 4.7 0 7.2-1.6 7.2-4.6 0-8.1-25.1-5.1-25.1-22.8 0-8.5 7.4-14.1 18.8-14.1 5.5 0 10.5 1.2 16.7 3.8v9.6z"/><path id="XMLID_9_" class="st0" d="M369.9 275.7c-6.9 3.5-12.1 4.9-19.3 4.9-19.2 0-28.6-12.5-28.6-25.1 0-13.1 10.7-25.4 29.6-25.4 6.9 0 13 1.5 17.8 4.3v11c-5.4-3-10.9-5.1-17-5.1-10.5 0-17.9 6.2-17.9 14.9 0 8.8 7.3 15.1 17.6 15.1 6.4 0 10.8-2 17.8-5.4v10.8z"/><path id="XMLID_12_" class="st0" d="M404.3 280.6c-18.1 0-28.2-12.7-28.2-25.3 0-11.9 9.6-25.3 28.2-25.3s28.2 13.4 28.2 25.3c0 12.6-10.5 25.3-28.2 25.3m0-40.3c-9.4 0-15.6 6-15.6 15s6.2 15 15.6 15c9.3 0 15.6-6 15.6-15s-6.2-15-15.6-15"/><path id="XMLID_13_" class="st0" d="M102.8 241c9.4 0 13.8 6 13.8 14.3 0 7.2-4.6 14.3-14.4 14.3H90.8v-16.5H79.5V280h21.2c19.6 0 28.1-12.6 28.1-24.5 0-11.8-8.5-24.7-26-24.7V241z"/><path id="XMLID_14_" class="st0" d="M90.8 241h12v12h-12z"/><path id="XMLID_15_" fill="#00768a" d="M102.8 219.4v11.3H79.5v22.4h-12v-33.7z"/></g></svg>