<svg version="1.1" id="Layer_1" xmlns="http://www.w3.org/2000/svg" xmlns:xlink="http://www.w3.org/1999/xlink" x="0" y="0" viewBox="0 0 500 500" xml:space="preserve"><style>.st0{fill:#261c02}.st1{fill:#004356}.st2{fill:#668e9a}.st4{fill:#336978}</style><g id="XMLID_1_"><path id="XMLID_3_" class="st0" d="M174.1 187.3h1.7v125.5h-1.7z"/><path id="XMLID_4_" class="st0" d="M195.7 285.7h-3.8v-29.3h3.8l14.9 22.3v-22.3h3.7v29.3l-3.8-.1-14.8-21.9z"/><path id="XMLID_5_" class="st0" d="M229.7 268.7h12v3.4h-12z"/><path id="XMLID_6_" class="st0" d="M242.9 259.8v-3.4h-20.8v29.3h21.6l.1-3.5-17.9-.1v-22.3z"/><path id="XMLID_7_" class="st0" d="M248.1 259.8v-3.4h23.2v3.4h-9.7v25.9h-3.9v-25.9z"/><path id="XMLID_8_" class="st0" d="M275.1 256.4h4.1l5.9 25 7.4-25h4.9l7.2 25 6.1-25h3.8l-7.7 29.3h-4.1l-7.8-25.4-7.6 25.4h-4.2z"/><path id="XMLID_11_" class="st0" d="M332.2 259.2c-5.5 0-10 4.4-10 11.7 0 7.8 4.5 11.7 10 11.7s10-4 10-11.7c0-7.3-4.5-11.7-10-11.7m13.7 11.8c0 9.9-6.2 15.1-13.8 15.1-7.6 0-13.8-5.4-13.8-15.1 0-9.2 6.2-15.1 13.8-15.1 7.7 0 13.8 5.8 13.8 15.1"/><path id="XMLID_12_" class="st0" d="M366.4 259.8h-10.2v25.9h-3.8v-29.3h14.1s8.4.1 8.4 7.8-7.6 7.9-7.6 7.9 1.7 1.2 2.8 2.5c.7.9 6.8 11.1 6.8 11.1h-4.5s-4.1-7.1-5.2-8.8c-1.1-1.7-1.6-2.3-2.4-3.1-.7-.7-2.2-1.3-2.5-1.3H360v-3.4h6.4s4.6-.6 4.6-5c.1-4.1-4.6-4.3-4.6-4.3"/><path id="XMLID_13_" class="st0" d="M386.2 285.7h-3.7v-29.3h3.7v13.9l14.2-13.9h5.3l-12.2 12.3 13.2 17h-4.9l-11-14.4-4.6 4.1z"/><path id="XMLID_14_" class="st0" d="M427.8 264.8h3.7v-1.2c0-1.7-2.1-4.6-3.1-5.5-.9-.8-3.2-2.2-7.4-2.2s-6.5 1.5-7.6 2.4c-1.1.9-2.6 3.2-2.6 5.7 0 1.8.8 3.7 2.3 5 1.5 1.2 5.3 2.4 7.7 3.1 2.3.7 5 1.4 6.1 2.2 1.1.8 1.9 1.9 1.9 3.4s-.5 2.5-1.9 3.5c-1.5 1-3.7 1.5-5 1.5-1.3 0-3.3-.6-4.3-.9-1.1-.4-2.3-1.5-2.8-2.1-.5-.6-1.2-2.3-1.2-2.7v-1.5h-3.9v1.2c0 .7.6 3.2 1.3 4.1.7.9 1.9 2.5 3.1 3.3 1.2.7 3.6 2 7.8 2 4.2 0 6.5-1.4 7.8-2.5 1.3-1.1 2.9-3.1 2.9-5.9 0-2.8-.4-3.9-1.5-5.2-1.2-1.3-3.8-2.6-6-3.2-2.2-.6-6.3-1.7-7.8-2.3-1.4-.6-2.5-1.9-2.5-2.9s.1-2.6 1.5-3.5c1.4-.9 2.9-1.4 5-1.4s4.2.6 5 1.4c.8.8 1.1 1.3 1.4 1.8.3.5.3 1.7.3 1.7v.7z"/><path id="XMLID_15_" class="st1" d="M115 214.4h33.6s12.7 3.8 12.7 17.1-11.6 16.9-12.7 16.9H115v-34z"/><path id="XMLID_16_" class="st2" d="M148.6 214.4l-1 2.6h-30.1l-2.5-2.6z"/><g id="XMLID_19_"><defs><path id="XMLID_18_" d="M147.6 217s10.9 4.6 10.9 14.6-9.9 13.9-9.9 13.9h-31.1l-2.5 3h33.6c.7 0 12.7-3 12.7-16.9 0-13.3-12.7-17.1-12.7-17.1l-1 2.5z"/></defs><clipPath id="XMLID_47_"><use xlink:href="#XMLID_18_" overflow="visible"/></clipPath><linearGradient id="XMLID_48_" gradientUnits="userSpaceOnUse" x1="-4.995" y1="7.189" x2="-3.778" y2="7.189" gradientTransform="scale(24.8082) rotate(60 -1.481 17.015)"><stop offset="0" stop-color="#668e9a"/><stop offset="1" stop-color="#1a353c"/></linearGradient><path id="XMLID_20_" d="M147.6 217s10.9 4.6 10.9 14.6-9.9 13.9-9.9 13.9h-31.1l-2.5 3h33.6c.7 0 12.7-3 12.7-16.9 0-13.3-12.7-17.1-12.7-17.1l-1 2.5z" clip-path="url(#XMLID_47_)" fill="url(#XMLID_48_)"/></g><path id="XMLID_17_" class="st4" d="M115 248.5l2.5-3V217l-2.5-2.6z"/><path id="XMLID_21_" class="st1" d="M67.5 214.3h32.2c.3 0 12.9 8.3 12.9 34.8 0 26.5-12.9 36-16 36H67.5v-70.8z"/><path id="XMLID_22_" class="st2" d="M70 216.9l-2.5-2.6h32.2l-1.4 2.6z"/><path id="XMLID_23_" class="st4" d="M67.5 285.1l2.5-2.9v-65.3l-2.5-2.6z"/><g id="XMLID_26_"><defs><path id="XMLID_25_" d="M98.3 216.9s11 9.7 11 32.2c0 24.1-12.8 33.1-12.8 33.1H70l-2.5 2.9h29.1c3.1 0 16-9.5 16-36s-12.6-34.8-12.9-34.8l-1.4 2.6z"/></defs><clipPath id="XMLID_52_"><use xlink:href="#XMLID_25_" overflow="visible"/></clipPath><linearGradient id="XMLID_53_" gradientUnits="userSpaceOnUse" x1="-2.595" y1="3.8" x2="-1.379" y2="3.8" gradientTransform="scale(49.4565) rotate(60 -1.29 7.75)"><stop offset="0" stop-color="#668e9a"/><stop offset="1" stop-color="#1a353c"/></linearGradient><path id="XMLID_27_" d="M98.3 216.9s11 9.7 11 32.2c0 24.1-12.8 33.1-12.8 33.1H70l-2.5 2.9h29.1c3.1 0 16-9.5 16-36s-12.6-34.8-12.9-34.8l-1.4 2.6z" clip-path="url(#XMLID_52_)" fill="url(#XMLID_53_)"/></g><path id="XMLID_24_" class="st1" d="M115 251.4h34.8s12.7 3.8 12.7 17-11.6 16.8-12.7 16.8H115v-33.8z"/><path id="XMLID_28_" class="st2" d="M149.9 251.4l-1 2.5h-31.4l-2.5-2.5z"/><g id="XMLID_31_"><defs><path id="XMLID_30_" d="M148.9 253.9s10.9 4.6 10.9 14.5-9.9 13.8-9.9 13.8h-32.4l-2.5 2.9h34.8c.7 0 12.7-2.9 12.7-16.8 0-13.2-12.7-17-12.7-17l-.9 2.6z"/></defs><clipPath id="XMLID_54_"><use xlink:href="#XMLID_30_" overflow="visible"/></clipPath><linearGradient id="XMLID_55_" gradientUnits="userSpaceOnUse" x1="-4.783" y1="7.349" x2="-3.566" y2="7.349" gradientTransform="rotate(60 -63.209 437.366) scale(24.6159)"><stop offset="0" stop-color="#668e9a"/><stop offset="1" stop-color="#1a353c"/></linearGradient><path id="XMLID_32_" d="M148.9 253.9s10.9 4.6 10.9 14.5-9.9 13.8-9.9 13.8h-32.4l-2.5 2.9h34.8c.7 0 12.7-2.9 12.7-16.8 0-13.2-12.7-17-12.7-17l-.9 2.6z" clip-path="url(#XMLID_54_)" fill="url(#XMLID_55_)"/></g><path id="XMLID_29_" class="st4" d="M115 285.1l2.5-2.9v-28.3l-2.5-2.5z"/></g></svg>