<svg version="1.1" id="Layer_1" xmlns="http://www.w3.org/2000/svg" x="0" y="0" viewBox="0 0 500 500" xml:space="preserve"><style>.st0{fill:#adafb2}.st2{fill:#0096d6}.st3{fill:#fff}</style><g id="XMLID_3_"><path id="XMLID_60_" class="st0" d="M246.9 398.1l-74.7-74.7c-2.5-1.8-4.9-3.3-7.2-4.8-4.7-3.1-8.8-3.8-12.4-4.5-4.3-.8-9.7-1.9-12.1-7.5-2.3-5.3-3.3-11.2-2.8-17.7l-15.3-15.3v-35.2h-20.1c-7.9 0-15.2-4.1-19.5-11l-.1-.1-8.1-13.4 7.4-13.8v-57L67.5 116h42.9l-7.6-13.8h294l-7.6 13.8h43.2L418 142.9v59.8c0 4.8-1.3 9.4-3.8 13.4l-6.8 11.2c-4.3 6.9-11.7 11-19.5 11h-16.4v35.2l-15.3 15.3c.4 6.4-.5 12.4-2.8 17.7-2.5 5.7-7.8 6.7-12.1 7.5-3.6.7-7.7 1.5-12.4 4.5-2.3 1.5-4.7 3.1-7.2 4.8l-74.8 74.8"/><path id="XMLID_61_" d="M421.7 122.2h-43.3-.1l7.6-13.8H113.7l7.6 13.8h-43l10.2 19.1v60.3l-6.4 12 6.2 10.3c3 4.8 8.2 8 14.1 8h26.5v39l15.6 15.6c-.9 6.3-.3 12.3 2.1 17.5 2.3 5.2 10.8 1.9 22.2 9.2 2.7 1.8 5.3 3.5 7.8 5.3l70.5 70.5 70.5-70.5c2.5-1.7 5.1-3.5 7.8-5.3 11.4-7.4 19.9-4 22.2-9.2 2.3-5.3 2.9-11.2 2.1-17.5l15.6-15.6v-39h22.9c5.9 0 11.1-3.2 14.1-8l6.7-11.2c1.8-2.9 2.8-6.3 2.8-10v-61.4l9.9-19.1" fill="#231f20"/><path id="XMLID_62_" class="st0" d="M246.9 354.9c-7.8 0-15.8-1.3-22.3-4.1l22.3 22.3 22.3-22.3c-6.4 2.7-14.5 4.1-22.3 4.1"/><path id="XMLID_63_" class="st2" d="M246.9 198.1c-18.2 0-35.9 1.9-53 5.6 2.2 1.6 4.4 3.3 6.4 5 3.7 3.2 9.6 2.1 16.2.3 8.4-2.3 19.2-3.7 30.4-3.7s22 1.4 30.4 3.7c6.6 1.8 12.5 2.9 16.2-.3 2-1.7 4.1-3.4 6.4-5-17.1-3.6-34.8-5.6-53-5.6"/><path id="XMLID_64_" class="st2" d="M142.4 220.9c-.8.4-1.6.7-2.4 1.1v44.2l7.8 7.8c1.3-3.3 3-6.7 5-10.1 4-6.8 2.9-11.6.2-15.8-5.6-8.8-9.3-18.4-10.6-27.2"/><path id="XMLID_65_" class="st2" d="M351.4 220.9c-1.3 8.8-5 18.4-10.6 27.2-2.7 4.1-3.8 9 .2 15.8 2 3.4 3.7 6.7 5 10.1l7.8-7.8V222c-.8-.4-1.6-.8-2.4-1.1"/><path id="XMLID_66_" class="st3" d="M400.9 151.1v-12.5l3.1-5.8h-25.5c-3.5 0-6.3 3.3-6.3 7.3v29.8c0 4 2.8 7.3 6.3 7.3h3.6l9.7-4.7v28.4h-10.4v-16.4l-9.2 4.6v13.5c0 4 2.8 7.3 6.3 7.3h16.2c3.5 0 6.3-3.3 6.3-7.3v-32.7c0-4-2.8-7.3-6.3-7.3h-3.1l-10.2 5v-26.2h10.4v14.3l9.1-4.6"/><path id="XMLID_69_" class="st3" d="M299 189.5c-.9-1.7-2.7-5.4-2.7-5.4v-36.8c0-3.6-2.5-6.6-5.6-6.6h-14.1c-3.1 0-5.6 3-5.6 6.6v34.4l-2.8 5c3.9.2 7.5.4 11 .7v-11.3l9-4.9v17c4 .4 7.5.9 10.8 1.3m-19.8-20.8v-20.3h9v15.4l-9 4.9z"/><path id="XMLID_70_" class="st3" d="M357.8 192.9c-2.1-.6-6.1-1.6-8.3-2.1v-16.5l11.2-6.1v-8l-11.2 6.1v-17.9h8.3v5.6l8.2-4.5v-8.7h-27.4l2.7 5.1v46.3s-1.9 3.1-2.8 4.6c9 2.2 18.5 4.9 27.5 7.7v-28.7l-8.2 4.5v12.6"/><path id="XMLID_71_" class="st3" d="M153.1 190c-2.4.6-6.6 1.6-8.3 2.1v-17.8l11.2-6.1v-8l-11.2 6.1v-17.9h8.3v5.6l8.2-4.5v-8.7h-27.4l2.7 5.1v52.7s-1.7 3.8-2.5 5.6c8.9-2.8 18.3-5.5 27.2-7.6v-21.2l-8.2 4.5V190"/><path id="XMLID_72_" class="st3" d="M222.2 179.6c-2.4.1-6.2.4-8.3.6v-9.3l11.2-6.1v-7.4l-11.2 6.1v-15.1h8.3v4.5l8.2-4.5v-7.6H203l2.7 5.1v37.9s-1.8 3.6-2.7 5.3c8.9-1.1 17.8-1.9 27.4-2.4v-16.6l-8.2 4.5v5"/><path id="XMLID_73_" class="st3" d="M255 178.7h-9v-30.3h9v4.9l8.2-4.5v-1.4c0-3.6-2.5-6.6-5.6-6.6h-14.1c-3.1 0-5.6 3-5.6 6.6V180c0 1.9.7 3.7 1.9 4.9 1 1 2.4 1.6 3.8 1.5h6.3c4.5 0 8.9.1 13.3.3v-30.2l-12.8 7v7.5l4.6-2.5v10.2"/><path id="XMLID_76_" class="st3" d="M118.6 210h12.3l-3.1-5.8v-20.8c0-3-1.5-5.6-3.9-6.8l-7.2-3.5 7.2-3.5c2.4-1.1 3.9-3.8 3.9-6.8V140c0-4-2.8-7.3-6.3-7.3H96l3.1 5.8v65.6L96 210h12.3v-30.9l10.4 5V210m-10.4-42.7v-26h10.4v21l-10.4 5z"/><path id="XMLID_79_" class="st3" d="M329.7 193.4c1.3-.9 2-2.6 2-4.5v-41.5c0-3.6-2.5-6.6-5.6-6.6h-22.5l2.7 5.1v39.4s-2.4 4.1-2.8 4.8c3.7.5 7.3 1.1 10.8 1.7 4.1.7 8.1 1.5 12 2.3.5.1 2 .3 3.4-.7m-6.2-8.2c-2.3-.4-6.5-1.1-9-1.5v-35.4h9v36.9z"/><path id="XMLID_80_" class="st3" d="M166.7 140.8l2.7 5.1v44s-1.8 3.7-2.6 5.5c3.7-.8 7.3-1.6 10.8-2.3v-39.8l9-4.9v43.1c3.7-.6 7.4-1.2 11-1.7-.9-1.5-2.8-4.8-2.8-4.8v-37.6c0-3.6-2.5-6.6-5.6-6.6H186l-8.4 4.6v-4.5h-10.9"/><path id="XMLID_81_" class="st2" d="M147.9 132.4v-16.3h-3.2v6.6h-5.4v-6.6h-3.1v16.3h3.1v-6.8h5.4v6.8h3.2"/><path id="XMLID_82_" class="st2" d="M164.9 116.1v12.6c0 .2-.1.4-.2.6-.1.2-.4.3-.6.3h-3.8c-.2 0-.4-.1-.6-.3-.1-.1-.2-.4-.2-.6v-12.6h-3.1V130c0 .3 0 .7.1 1 .1.3.3.6.4.8.2.2.4.4.7.5.3.1.5.2.8.2h7.6c.3 0 .5-.1.8-.2.3-.1.5-.3.6-.5.2-.2.3-.5.4-.8.1-.3.2-.6.2-1v-13.9h-3.1"/><path id="XMLID_85_" class="st2" d="M176.5 116.1v16.3c0 .1 0 0 0 0h9.6c.3 0 .5-.1.8-.2.3-.1.5-.3.6-.5.2-.2.3-.5.4-.8.1-.3.2-.6.2-1v-11.4c0-.3-.1-.7-.2-1-.1-.3-.3-.6-.4-.8-.2-.2-.4-.4-.7-.5-.3-.1-.5-.2-.8-.2l-9.5.1m8.6 13.4h-5.4V119h5.4v10.5z"/><path id="XMLID_86_" class="st2" d="M196.6 129.5v2.9c0 .1 0 0 0 0h8.5c.3 0 .5-.1.8-.2.3-.1.4-.3.6-.5.2-.2.3-.5.4-.8.1-.3.2-.6.2-1v-4.7c0-.3-.1-.7-.2-.9-.1-.3-.3-.6-.4-.8-.2-.2-.4-.4-.6-.5-.3-.1-.5-.2-.8-.2h-4.5c-.3 0-.4-.1-.6-.3-.1-.1-.2-.4-.2-.6v-2c0-.2.1-.4.2-.6.1-.2.4-.3.6-.3h6.2v-2.9c0-.1 0 0 0 0h-8c-.3 0-.5 0-.8.2-.3.1-.5.3-.7.5-.2.2-.3.5-.4.8-.1.3-.1.6-.1 1v4.7c0 .3.1.7.1 1 .1.3.3.6.4.8.2.2.4.4.7.5.3.1.5.2.8.2h4.5c.2 0 .4.1.6.3.1.2.2.4.2.6v2.1c0 .2-.1.4-.2.6-.1.1-.4.3-.6.3h-6.7"/><path id="XMLID_87_" class="st2" d="M247.3 132.4v-13.9c0-.3-.1-.7-.2-1-.1-.3-.3-.6-.4-.8-.2-.2-.4-.4-.7-.5-.3-.1-.5-.2-.8-.2h-9.6v16.3h3.1V119h4.6c.2 0 .4.1.6.3.1.1.2.4.2.6v12.6h3.2"/><path id="XMLID_88_" class="st2" d="M271.9 116.1l-3.1 11.7-3.2-11.7h-3.3l4.4 16.3h4.2l4.4-16.3h-3.4"/><path id="XMLID_89_" class="st2" d="M306.4 129.5v-13.4h-3.1v16.3c0 .1 0 0 0 0h9.2v-2.9h-6.1"/><path id="XMLID_90_" class="st2" d="M322.7 129.5v-13.4h-3.1v16.3c0 .1 0 0 0 0h9.2v-2.9h-6.1"/><path id="XMLID_91_" class="st2" d="M339.5 119h6.9v-2.9H338c-.3 0-.5.1-.8.2-.3.1-.5.3-.7.5-.2.2-.3.5-.4.8-.1.3-.1.6-.1 1V130c0 .3.1.7.1 1 .1.3.3.6.4.8.2.2.4.4.7.5.3.1.5.2.8.2h8.5v-2.9h-6.9c-.3 0-.5-.3-.5-.6v-3.3h6.4v-2.9H339v-3.2c0-.3.2-.6.5-.6"/><path id="XMLID_92_" class="st2" d="M339.5 119h6.9v-2.9H338c-.3 0-.5.1-.8.2-.3.1-.5.3-.7.5-.2.2-.3.5-.4.8-.1.3-.1.6-.1 1V130c0 .3.1.7.1 1 .1.3.3.6.4.8.2.2.4.4.7.5.3.1.5.2.8.2h8.5v-2.9h-6.9c-.3 0-.5-.3-.5-.6v-3.3h6.4v-2.9H339v-3.2c0-.3.2-.6.5-.6"/><path id="XMLID_95_" class="st2" d="M294.7 132.4v-13.9c0-.3 0-.7-.1-1-.1-.3-.3-.6-.4-.8-.2-.2-.4-.4-.7-.5-.3-.1-.5-.2-.8-.2h-7.5c-.3 0-.5 0-.8.2-.3.1-.5.3-.7.5-.2.2-.3.5-.4.8-.1.3-.1.6-.1 1v13.9h3.1v-5.3h5.4v5.3h3m-8.5-8.1v-4.4c0-.2.1-.4.2-.6s.4-.3.6-.3h3.8c.2 0 .4.1.6.3.1.1.2.4.2.6v4.4h-5.4z"/><path id="XMLID_98_" class="st2" d="M227 117.6c-.1-.3-.3-.6-.4-.8-.2-.2-.4-.4-.7-.5-.3-.1-.5-.2-.8-.2h-7.5c-.3 0-.5 0-.8.2-.3.1-.5.3-.7.5-.2.2-.3.5-.4.8-.1.3-.2.6-.2 1V130c0 .3.1.7.2 1 .1.3.3.6.4.8.2.2.4.4.7.5.3.1.5.2.8.2h7.5c.3 0 .5-.1.8-.2.3-.1.5-.3.6-.5.2-.2.3-.5.4-.8.1-.3.2-.6.2-1v-11.4c.1-.4 0-.7-.1-1m-3 11.1c0 .2-.1.4-.2.6-.1.1-.4.3-.6.3h-3.7c-.2 0-.4-.1-.6-.3-.1-.1-.2-.4-.2-.6v-8.8c0-.2.1-.4.2-.6.1-.1.4-.3.6-.3h3.7c.2 0 .4.1.6.3.1.1.2.4.2.6v8.8z"/><path id="XMLID_99_" class="st2" d="M366.8 116.1h-3.3l-3.1 7.4-3-7.4h-3.3l4.8 11.3v5h3.1v-5l4.8-11.3"/><path id="XMLID_100_" class="st3" d="M159.3 236.9c-4-10.8-5.6-24.4-2.3-27.5 2.6-2.4 14.2 0 30 14.8-3.2-.7-5.8-.8-7.4-.8-1.4 0-1.4.6-1.1.9 4.4 3.8 7.8 9.1 8.6 10.4 4.9-3.8 10.3-7.3 16.2-10.2-16.2-16.4-33.7-23.9-43.9-20.2-7.4 2.7-7.7 18.7-.9 33 .9 1.6 1.1.5.8-.4"/><path id="XMLID_101_" class="st3" d="M334.5 204.2c-10.2-3.7-27.7 3.8-43.9 20.2 5.9 3 11.3 6.4 16.2 10.2.8-1.2 4.2-6.5 8.6-10.4.3-.3.3-.9-1.1-.9-1.6 0-4.1.1-7.4.8 15.8-14.7 27.4-17.1 30-14.8 3.4 3.1 1.8 16.7-2.3 27.5-.4.9-.1 2.1.7.3 6.9-14.2 6.6-30.2-.8-32.9"/><path id="XMLID_102_" class="st0" d="M220.2 237.5c7.9 3.6 13.9 11.5 17.9 21.5.4-.9.9-1.8 1.3-3 4-10.7 2.7-24.3 7.4-24.3s3.4 13.6 7.4 24.3c.4 1.2.9 2.1 1.3 3 4-9.9 10.1-17.9 17.9-21.5 19.2-8.9 46.8 11.2 61.4 37.2-7.7-27.5-39.5-60.3-88.1-60.3s-80.4 32.8-88.1 60.3c14.9-26 42.4-46 61.6-37.2"/><path id="XMLID_103_" class="st3" d="M205.1 253.2c-4.2-1.4-7.3-1.6-7.4-1.6-.4 0-.8-.3-.9-.7-.1-.4.1-.8.7-1 9.1-3.2 20-.5 27.4 7.5 2.6 2.8 4.9 5.3 8.3 5.5 1.7.1 3.4-1.1 4.9-3.8-4-9.9-10.1-17.9-17.9-21.5-19.2-8.9-46.8 11.3-61.5 37.3-.6 2.3-1.1 4.7-1.4 7-.6 4.9.3 9.7 3.5 13.4-3.2-17.1 21.3-41.7 44.3-42.1"/><path id="XMLID_104_" class="st3" d="M260.6 262.9c3.4-.2 5.8-2.7 8.3-5.5 7.4-8.1 18.2-10.8 27.4-7.5.6.2.8.6.7 1-.1.4-.4.7-.9.7 0 0-3.2.2-7.4 1.6 23 .4 47.5 25 44.3 42 3.2-3.7 4.1-8.6 3.5-13.4-.3-2.4-.8-4.7-1.4-7-14.6-26-42.3-46.1-61.5-37.3-7.9 3.6-13.9 11.5-17.9 21.5 1.5 2.8 3.2 4 4.9 3.9"/><path id="XMLID_106_" class="st3" d="M275.5 282.3c6.9 0 12.4-5.6 12.4-12.4 0-1.4-.3-2.8-.7-4.1.9-.3 1.6-.4 1.8-.4 1.8-.4 2.2 1.2 2.4 2.7 1 7.3-3 14.1-10.3 16.3-7.3 2.2-14.7-1.8-16.8-8.9 2.1 3.9 6.3 6.8 11.2 6.8"/><path id="XMLID_107_" class="st2" d="M275.6 278c1.7-.5 4.2-1.8 5.5-3.9.2 0 .4-.1.5-.2 1.5-.7 2.1-2.4 1.4-3.9-.2-.4-.4-.7-.7-1 .7-1 2.4-2.2 3.6-2.7.5-.2.9-.4 1.3-.5.4 1.3.7 2.7.7 4.1 0 6.9-5.6 12.4-12.4 12.4-4.9 0-9.2-2.8-11.2-7 3.3 3.7 9.7 3.2 11.3 2.7"/><path id="XMLID_108_" class="st3" d="M279.2 268.6c-1.5.7-2.1 2.4-1.4 3.9.7 1.5 2.4 2.1 3.9 1.4 1.5-.7 2.1-2.4 1.4-3.9-.3-.7-.9-1.3-1.6-1.5-.8-.3-1.6-.3-2.3.1"/><path id="XMLID_112_" class="st3" d="M218.3 282.3c-6.9 0-12.4-5.6-12.4-12.4 0-1.4.3-2.8.7-4.1-.9-.3-1.6-.4-1.8-.4-1.8-.4-2.2 1.2-2.4 2.7-1 7.3 3 14.1 10.3 16.3 7.3 2.2 14.7-1.8 16.8-8.9-2 3.9-6.3 6.8-11.2 6.8"/><path id="XMLID_113_" class="st2" d="M218.3 278c-1.7-.5-4.2-1.8-5.5-3.9-.2 0-.4-.1-.5-.2-1.5-.7-2.1-2.4-1.4-3.9.2-.4.4-.7.7-1-.7-1-2.4-2.2-3.6-2.7-.5-.2-.9-.4-1.3-.5-.4 1.3-.7 2.7-.7 4.1 0 6.9 5.6 12.4 12.4 12.4 4.9 0 9.2-2.8 11.2-7-3.3 3.7-9.7 3.2-11.3 2.7"/><path id="XMLID_114_" class="st3" d="M212.4 268.4c-.7.3-1.3.8-1.6 1.5-.7 1.5 0 3.2 1.4 3.9 1.5.7 3.2 0 3.9-1.4.7-1.5 0-3.2-1.4-3.9-.7-.3-1.6-.3-2.3-.1"/><path id="XMLID_115_" class="st3" d="M246.9 293.7c-36.1 0-68.4 27.7-32.1 39.7-3.4-3.8-5.9-8.5-6.7-12.6-.2-1.1-.6-2.1-1.3-2.1-.3 0-.5-.1-.7-.2-.8-.5-1.1-1.6-.6-2.4 3.7-5.6 10.7-5.9 11.3-5.9 1.3 0 2.4 1.3 2.2 2.6-.1 1.3-1.4 2.1-2.6 2.1-.9 0-4 .4-2.9 3.1 1.8 4.6 9.3 15.8 18.1 12.5.4-.2.8-.3 1.3-.5-2.5-1.2-4.9-3.2-6.5-5.1-1.2-1.5-2.2-3.1-3.2-4.7-2-3.3-.3-8.1 5.5-10.4 5.8-2.2 12-3.3 18.3-3.3 6.3 0 12.5 1 18.3 3.3 5.8 2.3 7.5 7 5.5 10.4-1 1.6-2 3.3-3.2 4.7-1.6 1.9-4 3.9-6.5 5.1 1.3.5 2.6 1.1 3.7 1.8 4.9 2.5 12.4-3.2 13.7-6.2.6-1.2 1.3-1.7 2.1-1.7.9 0 1.6.7 1.9 1.5.7 2.8-.7 5.6-3.3 7.9 36.2-11.9 3.8-39.6-32.3-39.6"/><path id="XMLID_116_" class="st3" d="M230.5 338c-2.1 0-2.7 2.3-.8 3 5.3 1.8 11.3 2.8 17.3 2.8s11.9-.9 17.3-2.8c1.9-.7 1.3-3-.8-3h-33"/><path id="XMLID_117_" class="st0" d="M384.4 246h-.1l-1.3-3.9h-2.2v6h1.2v-4.8h.1l1.7 4.8h1.1l1.8-4.8v4.8h1.2v-6h-2.1z"/><path id="XMLID_118_" class="st0" d="M374.9 243.2h1.8v4.9h1.3v-4.9h1.8v-1.1h-4.9z"/></g></svg>