<svg version="1.1" id="Layer_1" xmlns="http://www.w3.org/2000/svg" x="0" y="0" viewBox="0 0 500 500" xml:space="preserve"><style>.st1{fill:#222720}</style><g id="XMLID_1_"><path id="XMLID_3_" fill="#ffc527" d="M67.5 67.5h365v365h-365z"/><path id="XMLID_6_" class="st1" d="M353.2 194.2c-9.1-10.1-21.9-15.6-35.9-15.6-18.4 0-27.7 8.3-33.3 15v-52.8h-35.5v19.7h8.8V284h25.5v-14.1c7.2 10.9 18.7 16.7 33.6 16.7 15.2 0 28.1-5.4 37.4-15.6 8.8-9.6 13.5-23.2 13.5-38.3-.3-15.1-5.1-28.7-14.1-38.5zm-12.9 38.3c0 7.9-2.8 15.2-7.8 20.7-5.4 6-12.8 9-21.4 9-13.5 0-28.1-9.2-28.1-29.7s14.5-29.7 28.1-29.7c8.6 0 15.9 3.2 21.4 9 5 5.5 7.8 12.9 7.8 20.7z"/><path id="XMLID_7_" class="st1" d="M232.2 262.4c-5.2 0-9.1-2.8-11.6-5.6-1.3-1.6-24.6-29-24.6-29l44.3-46.8h-34.6l-38.2 41.1v-81.3h-35.4v19.7h8.8v123.4h26.6v-50.5l29 35.4c9.1 12.4 16.1 16.4 28.6 16.4 2.6 0 10.5-.2 13.7-1.1l.5-.1v-21.5c.2-.1-6-.1-7.1-.1z"/><path id="XMLID_8_" class="st1" d="M175.1 304.8v20.9h-22.9v-20.9h-11.1v52.4h11.1v-20.9h22.9v20.9h11.1v-52.4z"/><path id="XMLID_11_" class="st1" d="M221.4 304.1c-14.7 0-26.8 12-26.8 26.9 0 14.8 12 26.9 26.8 26.9s26.8-12 26.8-26.9c.1-14.8-11.9-26.9-26.8-26.9zm15.8 26.8c0 8.8-7.1 15.8-15.7 15.8s-15.7-7.1-15.7-15.8 7.1-15.8 15.7-15.8c8.7 0 15.7 7.2 15.7 15.8z"/><path id="XMLID_12_" class="st1" d="M300.1 304.8l-16.3 22.7-15.5-22.7h-11.2v52.4h11.2v-32.9l15.5 22.7 15.7-22.8v33h11.2v-52.4z"/><path id="XMLID_13_" class="st1" d="M361.3 315.3v-10.5h-38.5v52.4h38.5v-10.5h-27.5v-10.4h20.7v-10.6h-20.7v-10.4z"/></g></svg>