<svg version="1.1" id="Layer_1" xmlns="http://www.w3.org/2000/svg" x="0" y="0" viewBox="0 0 500 500" xml:space="preserve"><style>.st0{fill:#f00000}</style><g id="XMLID_1_"><path id="XMLID_12_" class="st0" d="M387.7 194.4h-.6c-.6.1-1.3 1-1.8 1-1.3.2-1.7-.9-2.8-.8-.2 0-.2.5-.3.8-3.7 0-5.2.6-7.5-.8-1.7 1.1-2.2.5-4.6 1.3-4.6 1.5-10.2 2.7-14.9 4.6-1.2.5-1.6 2.2-1.8 2.3-1.3 1-1.9.4-1 1.8.1.2.7.9.8 1 0-.2.2-.3.2-.3.1-.3-.2-1.1-.2-1.5.8-.6 6.3-2.6 8-2.6-1.8 1.6-2.6 3.3-5.4 2.6-1.5 2.1-1.5 3.6-3.1 5.9h-.8c-.8-.4-.6-.9-.4-1.1-.1.1-.4.3-.9.6s-.9.2-1.5.5c-3.1 1.6-8.2 3.6-9 6.7-.5-.5-1-.8-1.5-1.3-.8 2-1.8 1.7-3.9 2.3-.7 4.1-2.8 7.4-6.7 9.3.3 2.3.1 3.5-2.1 3.6 1.1 2-.3 3.2-1 5.2 0 0-.5 2.2.3 3.6-1-.3-1.5-.1-2.3-.3.1.1.1.6.3.8.4.3.8.6 1 .8.4.2.6.1 1 .2v.8h-1c1.3 2.5 0 5.5-.5 7.5.3.3 1.4 1 1.5 1.3.3.7.1 3.2.5 5.2.7 3.1 2.7 5.4 3.1 8.8.1 1.1-.8 1.6-.8 1.8-.2 1.3.5 2.2.8 3.3-1.1 1-1.2 1.2-1.8 2.8.5 0 2.1.2 2.1.2 1.3 2.1.9 4.7 2.1 7.5.3.7 2 1.8 2.3 2.6.5 1.1.2 2.3.8 3.3.4.9 2.3 2 2.6 2.9.1.2-.1.9 0 1 1.8 1.4 1.3-.2 1.5-1 .7-2.1 2.1.2 2.1.2s-1.1.9 1 1.8c2.6 1.1 4.7 2.7 7 3.9-.6 0-1.2-.1-1.8 0v.8c2.3.7 2.5 2.1 4.1.8v1.5c1.3.6 2.4-.5 3.6 0 1.4.7 1.3 2 1 3.1 2.4.4 4.3.9 6.2 1.5 3.4 1.1 7.8 2 13.2 1.8.1.2.4 1.2.5 1.3h.5c1.9-.7 6.8-.3 8.3-1 .4-.2 1-1.4 1.3-1.8 1.5.8 2.6.7 4.4.2 0 0-.8 1.6.5 1.3.4-.1 1.8-1.7 2.1-1.8 1.2-.3 3.3.1 5.4-.3 2.2-.4 5.6-2.1 7.2-2.3 1.1-.2 1.5.7 2.8 0 .7-.4-2-.7-2.8-1 .7-.7 2.2-1.2 2.8-2.1.7-.9.7-2.2 1.5-2.8 1.5-1.2 3.5-2.4 5.7-2.9 1.1-3.3 3.9-3.5 5.7-5.9 2.7-3.9 5.7-8.6 7.7-12.9.7-1.5.6-3 1.3-4.4.2 0 .7.1 1 0 .3-.1.2-.6.5-.8-.3-2.6-.6-4.2-1.3-5.9 1.3-1.3 1.3-3.8.5-4.4 1.8-1 1.3-2.6-.5-3.4 2.7-.8 1.8-1.9.8-3.9 1.4-.4 1.3-.9 2.1-1.3-.3-1.5-.6-1.7-1.8-2.3.3-.8 1.1-1.5.3-2.8-.1-.1-.8-.2-1-.2 0 0 1.2-.9 1.8-1-1.8-.7-2-1.2-1-2.8-1-.5-1.6-.6-2.6-1 0 0 1.1-.7 1.3-.8-.6-1.1-.9-1.1-2.1-1.8 1.6-2.9-2.9-3.9-.3-5.7-2.8-1.3-2.9-5-5.9-5.2.5-.2 2.6-1.2 3.1-1.3-2.4-.1-4.1-2.7-6.7-4.1.2 0 1.6-.7 2.1-.8-2-1.1-1.6-2.3-2.3-3.9-.5-1.1-4.2-3.6-5.4-4.4 1-.3-.5-2.5-.8-3.3-1.7-.1-2.7-.3-3.9-.3.3-1.1.2-1.4.5-2.3-2.1-1.3-4-3.6-7.2-3.6.1-.5-.9-2.7-1.8-3.1-1.3-.5-3.5.1-4.6.2-1.3-1.3-4-3.1-6.8-3zm-12.4 5.5c2.5-.1-.7 1-1.5 1l-.5 1.3c1.6-.2 2.3-.1 3.3.8.4-.3.1-.7.3-1.3 2.5-.4 4.4.8 5.9 1 1.8.2.1-1.3 1-1.5 2-.5 15.3 5.7 16 6.7.3.3 0 1.5.3 1.8.1.1.8-.1 1 0 1 .3 2.6 3 3.1 3.9 0 0 .2 1.1.2 1.3-2.1.5-2.9.8-4.9.3 0 0 1.2-.3 1-.3 1.5-.4 3.5-1 1-1.8-.8-.3-2.5-.3-3.3-.8-1.1-.6-.6-3-2.1-3.4-2.1-.5-2.7.7-2.8 1.8-2.5.1-3.7-1.7-5.7-2.3-1.3-.4-2.9-.3-3.9-.5-3.3-.8-7.7-1.4-11.9-.5-4.1.9-12.5 6.9-16.7 4.6-.5.4.5 1.3-1.8 2.3.1-.1.3-1.5.8-2.1.7-1 1.5-.3 2.6-1 .5-.3 0-.9 0-1.5 2.4-.8 4.1-1.6 6.7-2.6 3.4-1.4 4.7-1.3 9.5-1.3.1-.4.2-1.4.5-1.6.3-.2 1.9-.2 2.1-.2-1.8-.3-5 1.2-6.7.8-.5-.1.1-1-.3-1.3l.5-1c.8.2 1.8.3 1.8.3 1.9-.9 2.1-2.8 4.5-2.9zm15.2.5c.8.2 2.1 1.2 2.6 1.3 3.5.8 5.8-.2 9.8 1.3 1.2.5 4 5.3 4.9 5.7.4.1 1.2-.2 1.5 0 .2.1-.1 1.1 0 1.3.4 1.1 2.1 2.1 2.6 3.1.3.8-.2 2.2 0 2.6.1.3 1.3.6 1.6.8l-1 .8c-1.4-1-4.3-2.8-5.2-4.4-.2-.4 0-1.2-.2-1.6-.8-1.1-5.3-4.1-6.7-5.2-.3-.2-.3-1.4-.5-1.5-.4-.3-1.3.1-1.8 0-2.5-.7-6.2-3.3-7.6-4.2zm-7.8.5c.4 0 .5.4.1.3.6.3-1-.1-.3-.3h.2zM356 202c.8.1 1.8.3.8.5-1 .1-.8-.5-.8-.5zm18.8 8.7c1.4-.1-.7 1.8-1.8 1.8-1.6 0 1.6-1.8 1.8-1.8zm-11 2.8c1 0 2 .5 2.4.6 4.1.6 6.1-1.3 10.3-.2.9.2 1.7 1.7 2.6 1.8 1.8.2 3.5-.9 6.2 0 2.5.8 5.9 4.2 8.3 4.6 3.5.7 2-1.5.2-2.3.3-1.6.3-1.7-1.8-2.1.3-.6.8-1.1 1-1.5 0 0 .6 0 .2.2.9.6 2 .6 3.1 1.3 1.4.9 1.9 3.2 2.3 4.4-.3-.1-.7-.3-1.3-.3 0 .2.1 1.2 0 1.3 2.8 2.6 4.8 5.9 7.5 8.5-.3 0-1.8.5-2.1.5l-.3.5c3.7.2 3.8 2.1 4.4 6.2-.2-.1-1-.3-1-.3v1.3c4.2 5.6 1.8 8.8 3.9 15.7-.7.7-1.9 1.4-2.1 2.6-.1.8.8 2.5.8 2.9-.1 1-1.6 2.6-2.1 3.3 1.9 1 3.6 2.1 2.8 4.6-1.3-.1-2.9.1-4.4 0-.1 2.3 1.7 2.1 1.3 4.4-.4 2-10.2 5.6-5.9 6.4-.9.5-2.7 2.6-1.3 1.8l-.5.8c-3.1-.7-4 1.4-6.7 2.6-5.4 2.4-16.9 2-22.4.3-1-.3-1.7-2.1-2.6-2.3-.9-.2-1.8.4-2.3.2-.8-.3-4.4-5.2-5.9-6.2-2.2-1.3-8.4-5.6-9-8-.1-.4.6-.7.5-1.3-.2-2.4-2.2-3.7-1.5-6.4-.5-.2-.9 0-1-.5-.2-1 .5-1.3.5-1.8 0-.4-1-1-1-1.5-.4-2.7 0-4.4-.8-7 .9-.5 1.7-.8 2.1-1.8.8-2.3-.3-3.3 1.5-4.9-2.2-6.2-4.4-1.3-8-1.5 1.2-2.5 1-6 2.3-8.5.7-1.4 3.9-3.7 5.2-4.6.7-.5 1.9-.2 2.6-.8.6-.5-.2-1.3.2-2.1.5-.8 2.4-1.9 3.4-2.3 0-.2-.2-1.1 0-1.3.9-1.2 4-1.4 5.7-1.8 0 0 .2-.6.2-.8-.7-.3-.7-.6-1-.8 3.6-.4 6-1.9 9.5-2.3-2.7-.8-7.1-.1-9.5.2v-1c1.4 0 2.4-.4 3.1-.5v-.3h.4zm44 4.2h.5c1 1.7 2.7 2.7 3.3 4.6 0 0 .7.9 0 .8-1.6-.3-2.6-3.9-3.8-5.4zm4.7 27.6c.8.4.2 1.5.2 1.5-1.1.5 0-1.1-.2-1.5z"/><path id="XMLID_13_" class="st0" d="M407.2 202.2c.4 0 .4.5 0 .5s-.4-.5 0-.5z"/><path id="XMLID_14_" class="st0" d="M349.3 203.5c.2-.2-.3 1.6-.5 1.8-.3.2.1-1.5.5-1.8z"/><path id="XMLID_15_" class="st0" d="M344.9 206.3c.8-.2.3.5.3.5-.3 0-1-.3-.3-.5z"/><path id="XMLID_16_" class="st0" d="M347.2 206.6c1-.2 1.8.6.8.8-.7.1-1.7-.7-.8-.8z"/><path id="XMLID_19_" class="st0" d="M366 206.9c.3.1-.3.5-.3.5.1-.2-.1-.7.3-.5m0 0"/><path id="XMLID_20_" class="st0" d="M392.3 206.9c.5 0 .3.5-.3.5-.5 0 .1-.5.3-.5z"/><path id="XMLID_21_" class="st0" d="M341.3 207.6c-.3.9-.8 1.3-.8 1.3-.7.5.4-1 .8-1.3z"/><path id="XMLID_22_" class="st0" d="M343.8 207.6c1.5.3.4.9.8 1.3 0 0-1.8-1.5-.8-1.3z"/><path id="XMLID_23_" class="st0" d="M365 207.6c.2 0 .8.6.3.5-.6 0-.8-.5-.3-.5z"/><path id="XMLID_24_" class="st0" d="M339.7 209.4c.5-.2.1 2.2-.3 2.6-.4.5-1.2.5-1.8.8 1.6 3.1-2.9 4.2-5.9 4.1 0 0-.8.2-.3-.3 1-.9 2.3-.5 3.6-1.3.1-.1 1.8-3.6.8-3.6 4.4.9 1.7-1.4 3.9-2.3z"/><path id="XMLID_25_" class="st0" d="M371.7 214.3c.4 0 .4 1-.3 1-.6.1-.1-1 .3-1z"/><path id="XMLID_26_" class="st0" d="M375.5 214.8c.6 0 .7.5.3.5-.5.1-.8-.4-.3-.5z"/><path id="XMLID_27_" class="st0" d="M368.1 215.9c.4 0 4.9 0 2.8.8-1.2.4-4.1-.8-2.8-.8z"/><path id="XMLID_28_" class="st0" d="M419.6 219c.3.1 1.1 1.2.8 1-.5-.2-1.2-1.2-.8-1z"/><path id="XMLID_29_" class="st0" d="M329.4 219.2c1.1.6 1.8.9.3 1-1.9.2-.9 0-.3-1z"/><path id="XMLID_30_" class="st0" d="M327.9 220.8l-1 1.3c.3-.4.6-1 1-1.3z"/><path id="XMLID_31_" class="st0" d="M357 221l-.5 1c.2-.7-.1-.6.5-1z"/><path id="XMLID_32_" class="st0" d="M323.7 233.1c.5.1.8 1.4.3 1.3-.5-.1-.8-1.4-.3-1.3z"/><path id="XMLID_33_" class="st0" d="M320.9 237c.5 0 .8.5.3.5s-.8-.5-.3-.5z"/><path id="XMLID_34_" class="st0" d="M326.1 266.9c.6 0 .7.5.3.5-.3 0-.9-.6-.3-.5z"/><path id="XMLID_35_" class="st0" d="M326.3 267.7c.3.1 0 1.1 0 1-.4 0-.3-1.2 0-1z"/><path id="XMLID_36_" class="st0" d="M403.6 271.8c.5-.2-.3 1.1-.8 1.3-.4.1.5-1.2.8-1.3z"/><path id="XMLID_37_" class="st0" d="M338.4 290.6c.3.1.7 1.2.3 1-.1 0-.7-1.2-.3-1z"/><path id="XMLID_38_" class="st0" d="M340 292.7c.3.1.4.6 0 .5 0 0-.7-.7 0-.5z"/><path id="XMLID_39_" class="st0" d="M342 295c.3.1 1 1.2.5 1-.2-.1-1-1.2-.5-1z"/><path id="XMLID_40_" class="st0" d="M345.4 298.3c.3.1.9 1 .5.8-.1 0-1-1-.5-.8z"/><path id="XMLID_41_" class="st0" d="M353.6 299.1c1.4.1.3 1.1.5 1.3 0 0-1.6-1.4-.5-1.3z"/><path id="XMLID_42_" class="st0" d="M347.2 299.9c.3.1.8.6.3.5-.3-.1-.8-.6-.3-.5z"/><path id="XMLID_43_" class="st0" d="M348.5 300.9c.4 0 .4.3 0 .3s-.4-.3 0-.3z"/><path id="XMLID_44_" class="st0" d="M349.8 301.7c.4.2 1.4.9 1 .8-.4-.2-1.3-.9-1-.8z"/><path id="XMLID_48_" d="M153.3 275.9v12.9h3.3c.6 0 4.2 0 4.2-3.6 0-1.5-1-2.8-2.6-3v-.1c1.7-.6 2.2-1.7 2.2-2.9 0-1.7-1.1-3.2-3.8-3.2h-3.3zm1.2 1.1h2.1c1.4 0 2.6.6 2.6 2.2 0 1.4-.9 2.4-2.6 2.4h-2.1V277zm0 5.7h2.1c1.7 0 3 .9 3 2.5 0 2.4-2 2.6-3.1 2.6h-1.9v-5.1z"/><path id="XMLID_52_" d="M153.3 275.9h-.2V289h3.5c.3 0 1.4 0 2.4-.5s2-1.5 2-3.3c0-1.6-1.1-2.9-2.8-3.3v.2h.2v-.1h-.2l.1.2c1.7-.6 2.4-1.8 2.4-3.1 0-.9-.3-1.8-.9-2.4-.7-.6-1.7-1-3-1h-3.6v.2h.1v.2h3.4c1.3 0 2.2.4 2.7.9.6.5.8 1.3.8 2.1 0 1.1-.5 2.2-2.1 2.7h-.1v.4h.2c1.5.3 2.4 1.4 2.4 2.8 0 1.7-.8 2.5-1.8 3-.9.4-2 .4-2.3.4h-3.1v-12.6h-.1v.2-.1zm1.2 1.1v.2h2.1c.7 0 1.3.2 1.7.5.4.3.7.8.7 1.5 0 1.3-.8 2.2-2.4 2.2h-1.8V277h-.3v.2-.2h-.2v4.9h2.3c.9 0 1.6-.3 2.1-.8s.7-1.2.7-1.9c0-.8-.3-1.5-.8-1.9-.5-.4-1.2-.6-2-.6H154.3v.2h.2zm0 5.7v.2h2.1c1.7 0 2.8.8 2.8 2.3 0 1.1-.5 1.7-1 2-.6.3-1.3.4-1.9.4h-1.7v-4.9h-.3v.2-.2h-.2v5.3h2.2c.6 0 1.4 0 2.1-.4.7-.4 1.3-1.1 1.3-2.3 0-.9-.3-1.6-.9-2-.6-.5-1.4-.7-2.3-.7H154.4v.2h.1z"/><path id="XMLID_55_" d="M169.6 284.4v-.4c0-1.6-.3-4.8-3.8-4.8-2.4 0-4.1 1.7-4.1 4.7 0 3.2 1.6 5 4.3 5 1 0 1.9-.1 2.8-.5v-1.1c-.9.5-1.9.6-2.8.6-2.7 0-3.1-2.4-3.1-3.5h6.7zm-6.6-1c0-1.6 1-3.3 2.9-3.3 2.4 0 2.6 2.5 2.6 3.3H163z"/><path id="XMLID_58_" d="M169.6 284.4h.2v-.4c0-.8-.1-2.1-.6-3.1-.5-1.1-1.6-1.9-3.4-1.9-1.2 0-2.3.5-3.1 1.3-.8.9-1.2 2.1-1.2 3.6 0 1.7.4 3 1.2 3.9.8.9 1.9 1.4 3.3 1.4 1 0 1.9-.1 2.9-.5l.1-.1V287l-.3.2c-.9.5-1.8.6-2.7.6-1.3 0-1.9-.5-2.4-1.2-.4-.7-.5-1.5-.5-2.1v-.1h-.2v.2h6.9v-.2h-.2v-.2h-6.9V284.5c0 .6.1 1.5.6 2.3.5.8 1.3 1.4 2.7 1.4 1 0 1.9-.1 2.9-.6l-.1-.2h-.2v1.1h.2l-.1-.2c-.9.4-1.8.5-2.7.5-1.3 0-2.3-.4-3-1.2-.7-.8-1.1-2-1.1-3.6 0-2.9 1.6-4.5 3.9-4.5 1.7 0 2.5.7 3 1.7.5.9.5 2.1.5 2.9v.4h.3v-.2.1zm-6.6-1h.2c0-.8.3-1.5.7-2.1.4-.6 1.1-.9 2-1 1.1 0 1.6.5 2 1.1.3.6.4 1.4.4 1.8v.1h.2v-.2H163v.3h.2-.2v.2h5.6V283.3c0-.4-.1-1.3-.4-2-.4-.7-1.1-1.4-2.3-1.4-1 0-1.8.5-2.3 1.1-.5.7-.8 1.5-.8 2.3v.2h.2v-.1z"/><path id="XMLID_59_" d="M170.7 274.8h1.2v14h-1.2z"/><path id="XMLID_60_" d="M170.7 274.8h-.2V289H172.1v-14.4H170.5v.2h.2v.2h1v13.6h-.8v-13.8h-.2v.2z"/><path id="XMLID_61_" d="M173.7 274.8h1.2v14h-1.2z"/><path id="XMLID_62_" d="M173.7 274.8h-.2V289H175.1v-14.4H173.5v.2h.2v.2h1v13.6h-.8v-13.8h-.2v.2z"/><path id="XMLID_63_" d="M182.4 288.8h6.5v-1.1h-5.2v-11.8h-1.3z"/><path id="XMLID_64_" d="M182.4 288.8v.2h6.7v-1.5h-5.2v-11.8h-1.7V289h.2v-.2h.3v-12.7h.8v11.8h5.2v.7h-6.3v.2h.3z"/><path id="XMLID_67_" d="M190 280.9c.9-.5 1.9-.7 2.8-.7 2.1 0 2.2 1.9 2.2 2.5v.3h-.6c-1.9 0-5.4.1-5.4 3.2 0 1.5 1 2.7 3.1 2.7 1 0 2.3-.3 3.1-1.7v1.6h1l-.1-2.1v-4c0-1.3-.3-3.5-3.3-3.5-1.1 0-2 .2-2.8.6v1.1zm5 3.1v.7c0 2.1-1.1 3.3-2.9 3.3-1.1 0-1.9-.8-1.9-1.8 0-1.9 2-2.2 3.7-2.2h1.1z"/><path id="XMLID_70_" d="M190 280.9l.1.2c.9-.5 1.8-.7 2.7-.7 1 0 1.4.4 1.7.9.2.5.3 1.1.3 1.4v.1h-.4c-1 0-2.3 0-3.5.5-1.2.4-2.1 1.3-2.1 3 0 .8.3 1.5.8 2 .6.5 1.4.8 2.5.8 1 0 2.4-.3 3.3-1.9l-.2-.1v.2-.2h-.2v1.8h1.4l-.1-2.3v-4c0-.7-.1-1.6-.6-2.3-.5-.8-1.4-1.4-3-1.4-1.1 0-2.1.2-2.9.6l-.1.1v1.6l.3-.2v-.1h.2v-1.1h-.2l.1.2c.8-.3 1.7-.6 2.7-.6 1.5 0 2.2.5 2.6 1.2.4.7.5 1.5.5 2.1v5.8h-.6V287H195l-.1.1c-.7 1.4-1.9 1.6-2.9 1.6-2 0-2.9-1.1-2.9-2.5 0-1.5.8-2.2 1.8-2.6 1.1-.4 2.4-.4 3.3-.4h.8v-.5c0-.3 0-1-.3-1.6-.3-.6-.9-1.1-2.1-1.1-1 0-2 .2-2.9.7l.3.2h.2-.2zm5 3.1h-.2v.7c0 1-.3 1.8-.7 2.3-.5.5-1.1.8-2 .8-1 0-1.6-.7-1.6-1.6 0-.9.4-1.3 1.1-1.6.7-.3 1.6-.4 2.4-.4h1v-.2h-.2.2v-.2h-1c-.9 0-1.8.1-2.6.4-.8.3-1.4 1-1.4 2 0 .6.2 1.1.6 1.4.4.4.9.6 1.5.6.9 0 1.7-.3 2.3-.9.6-.6.8-1.5.8-2.5v-1h-.2v.2z"/><path id="XMLID_73_" d="M198.1 274.8V287l-.1 1.8h1.1v-1.9h.1c.5 1.2 1.5 2.1 2.9 2.1 2.1 0 4.1-1.3 4.1-4.8s-2-4.9-4.1-4.9c-1 0-2.1.4-2.8 1.8v-6.3h-1.2zm1.2 9.3c0-3 1.7-3.9 2.8-3.9 1.1 0 2.8.9 2.8 3.9s-1.7 3.9-2.8 3.9c-1.1 0-2.8-1-2.8-3.9z"/><path id="XMLID_76_" d="M198.1 274.8h-.2V287l-.1 1.8v.2h1.5v-2.2h-.2v.2h.1v-.2l-.2.1c.5 1.2 1.6 2.2 3.1 2.2 1.1 0 2.2-.4 3-1.2.8-.8 1.3-2.1 1.3-3.9 0-1.8-.5-3.1-1.3-3.9-.8-.8-1.9-1.2-3-1.2-1 0-2.2.4-3 1.9l.2.1h.2v-6.5H197.9v.2h.2v.2h.9v6.1l.4.1c.8-1.4 1.8-1.7 2.7-1.7 1 0 2 .3 2.7 1.1.7.7 1.2 1.9 1.2 3.6 0 1.7-.5 2.9-1.2 3.6-.7.7-1.7 1-2.7 1-1.3 0-2.2-.8-2.7-2l-.1-.1h-.4v1.9h-.7l.1-1.6v-12.2h-.2v.2zm1.2 9.3h.2c0-2.9 1.6-3.7 2.6-3.7s2.6.8 2.6 3.7c0 2.9-1.6 3.7-2.6 3.7s-2.6-.8-2.6-3.7h-.5c0 1.5.5 2.5 1.1 3.2.6.6 1.4.9 2 .9.6 0 1.4-.3 2-.9.6-.6 1.1-1.7 1.1-3.2 0-1.5-.5-2.6-1.1-3.2-.6-.6-1.4-.9-2-.9-.6 0-1.4.2-2 .9-.6.6-1.1 1.7-1.1 3.2h.3z"/><path id="XMLID_77_" d="M212.3 279.7c-.8-.3-1.4-.5-2.2-.5-1.8 0-3.2.8-3.2 2.3 0 1.6 1.2 2.2 2.4 2.7 1.3.6 2.1.8 2.1 2 0 1.1-.8 1.7-2.1 1.7-.8 0-1.6-.2-2.4-.6l-.1 1.1c.9.3 1.7.4 2.5.4 2.5 0 3.4-1.4 3.4-2.7 0-1.6-1.3-2.3-2.2-2.7-1.6-.7-2.4-.9-2.4-2s1.1-1.3 2-1.3c.9 0 1.5.1 2.2.4v-.8z"/><path id="XMLID_78_" d="M212.3 279.7l.1-.2c-.8-.4-1.5-.5-2.3-.5-.9 0-1.8.2-2.4.6-.6.4-1 1.1-1 1.9 0 .8.3 1.5.8 1.9.5.4 1.1.7 1.7 1 .6.3 1.2.5 1.5.7.3.3.5.5.5 1.1 0 .5-.2.8-.5 1.1-.3.3-.8.4-1.4.4-.7 0-1.6-.2-2.4-.5l-.3-.1-.1 1.4v.2l.1.1c.9.3 1.7.4 2.5.4 1.3 0 2.2-.4 2.8-.9.6-.6.8-1.3.8-2 0-1.8-1.4-2.5-2.3-2.9-.8-.4-1.4-.6-1.8-.8-.4-.3-.5-.5-.5-1s.2-.7.5-.9c.3-.2.8-.2 1.2-.2.8 0 1.5.1 2.1.4l.3.1.1-1.2v-.1l-.1-.1.1.1h-.2l-.1.9h.2l.1-.2c-.7-.3-1.4-.5-2.3-.5-.5 0-1 .1-1.4.3-.4.2-.8.6-.8 1.2s.3 1 .7 1.3c.4.3 1 .5 1.9.9.9.4 2 1 2 2.5 0 1.2-.8 2.5-3.2 2.5-.8 0-1.5-.1-2.4-.4l-.1.2h.2l.1-1.1h-.2l-.1.2c.9.4 1.7.6 2.5.6.7 0 1.3-.2 1.7-.5.4-.3.7-.8.7-1.4 0-.7-.2-1.1-.7-1.4-.4-.3-.9-.5-1.6-.8-.6-.3-1.2-.5-1.6-.9-.4-.4-.7-.9-.7-1.6 0-.7.3-1.2.8-1.5.5-.4 1.3-.6 2.1-.6s1.4.1 2.2.5l.2-.2h-.2.2z"/><path id="XMLID_79_" d="M219.7 275.9h1.2v12.9h-1.2z"/><path id="XMLID_80_" d="M219.7 275.9h-.2V289H221.1v-13.3H219.5v.2h.2v.2h1v12.5h-.8v-12.7h-.2v.2z"/><path id="XMLID_81_" d="M224.3 288.8v-5.5c0-1.7 1.2-3.1 2.8-3.1 2.3 0 2.3 1.6 2.3 2.8v5.8h1.2v-5.9c0-1.4-.3-3.7-3.3-3.7-.4 0-2.2.1-3.1 2.1v-1.9h-1l.1 2.2v7.3h1v-.1z"/><path id="XMLID_82_" d="M224.3 288.8h.2v-5.5c0-1.6 1.1-2.9 2.6-2.9 1.1 0 1.6.4 1.8.8.3.5.3 1.1.3 1.7v6.1H230.8v-6.1c0-.7-.1-1.7-.5-2.5-.5-.8-1.4-1.4-3-1.4-.5 0-2.4.1-3.3 2.2l.2.1v-.2.2h.2v-2.1H223l.1 2.4v7.5H224.7v-.2h-.4v-.2h-.9v-9h.6v1.9H224.3l.1-.1c.8-1.9 2.5-2 2.9-2 1.5 0 2.2.5 2.6 1.2.4.7.5 1.6.5 2.3v5.6h-.7V282.9c0-.6 0-1.3-.3-1.9-.3-.6-1-1-2.2-1-1.7 0-3 1.5-3 3.3v5.5h.1v-.2.2z"/><path id="XMLID_83_" d="M233.6 288.8v-5.5c0-1.7 1.2-3.1 2.8-3.1 2.3 0 2.3 1.6 2.3 2.8v5.8h1.2v-5.9c0-1.4-.3-3.7-3.3-3.7-.4 0-2.2.1-3.1 2.1v-1.9h-1l.1 2.2v7.3h1z"/><path id="XMLID_84_" d="M233.6 288.8h.2v-5.5c0-1.6 1.1-2.9 2.6-2.9 1.1 0 1.6.4 1.8.8.3.5.3 1.1.3 1.7v6.1H240.1v-6.1c0-.7-.1-1.7-.5-2.5-.5-.8-1.4-1.4-3-1.4-.5 0-2.4.1-3.3 2.2l.2.1v-.2.2h.2v-2.1h-1.4l.1 2.4h.2-.2v7.5H234v-.2h-.4v-.2h-.9v-9h.6v1.9H233.6l.1-.1c.8-1.9 2.5-2 2.9-2 1.5 0 2.2.5 2.6 1.2.4.7.5 1.6.5 2.3v5.6h-.7V282.9c0-.6 0-1.3-.3-1.9-.3-.6-1-1-2.2-1-1.7 0-3 1.5-3 3.3v5.5h.1v-.2.2z"/><path id="XMLID_87_" d="M241.1 284.1c0 2.9 1.7 4.8 4.4 4.8 2.6 0 4.4-1.9 4.4-4.8s-1.7-4.9-4.4-4.9-4.4 1.9-4.4 4.9zm1.2 0c0-1.8.9-3.9 3.1-3.9s3.1 2.1 3.1 3.9c0 1.8-.9 3.9-3.1 3.9s-3.1-2.1-3.1-3.9z"/><path id="XMLID_90_" d="M241.1 284.1h-.2c0 1.5.4 2.8 1.3 3.7.8.9 2 1.4 3.3 1.4 1.4 0 2.5-.5 3.3-1.4.8-.9 1.3-2.2 1.3-3.7s-.4-2.8-1.2-3.7c-.8-.9-2-1.4-3.3-1.4-1.4 0-2.5.5-3.3 1.4-.8.9-1.2 2.2-1.2 3.7h.2c0-2.9 1.6-4.6 4.1-4.7 2.5 0 4.1 1.8 4.1 4.7 0 2.8-1.7 4.6-4.1 4.6-2.5 0-4.1-1.8-4.1-4.6h-.2zm1.2 0h.2c0-.9.2-1.8.7-2.5.5-.7 1.2-1.2 2.2-1.2 1 0 1.7.5 2.2 1.2.5.7.7 1.6.7 2.5 0 .9-.2 1.8-.7 2.5-.5.7-1.2 1.2-2.2 1.2-1 0-1.7-.5-2.2-1.2-.5-.7-.7-1.6-.7-2.5h-.4c0 .9.2 1.9.8 2.7.5.8 1.4 1.3 2.6 1.3 1.2 0 2-.6 2.6-1.3.5-.8.8-1.8.8-2.7 0-1-.2-2-.8-2.8-.5-.8-1.4-1.4-2.6-1.3-1.2 0-2 .6-2.6 1.3-.5.8-.8 1.8-.8 2.8h.2z"/><path id="XMLID_91_" d="M254.5 288.8l3.2-9.4h-1.2l-2.5 7.7-.2.7-.2-.7-2.5-7.7h-1.2l3.2 9.4z"/><path id="XMLID_92_" d="M254.5 288.8h.2l3.3-9.6h-1.6l-2.6 7.8-.2.7.2.1v-.2.2l.2-.1-.2-.7-2.6-7.8h-1.6l3.4 9.8h1.6l.1-.2h-.2v-.2h-1.2l-3.1-9h.7l2.5 7.5.2.7v.2h.4l.2-.9 2.5-7.5h.7l-3.1 9.1.2.1v-.2z"/><path id="XMLID_95_" d="M258.8 280.9c.9-.5 1.9-.7 2.8-.7 2.1 0 2.2 1.9 2.2 2.5v.3h-.6c-1.9 0-5.4.1-5.4 3.2 0 1.5 1 2.7 3.1 2.7 1 0 2.3-.3 3.1-1.7v1.6h1l-.1-2.1v-4c0-1.3-.3-3.5-3.3-3.5-1.1 0-2 .2-2.8.6v1.1zm5 3.1v.7c0 2.1-1.1 3.3-2.9 3.3-1.1 0-1.9-.8-1.9-1.8 0-1.9 2-2.2 3.7-2.2h1.1z"/><path id="XMLID_98_" d="M258.8 280.9l.1.2c.9-.5 1.8-.7 2.7-.7 1 0 1.5.4 1.7.9.2.5.3 1.1.3 1.4v.1h-.4c-1 0-2.3 0-3.5.5-1.2.4-2.1 1.3-2.1 3 0 .8.3 1.5.8 2 .6.5 1.4.8 2.4.8s2.4-.3 3.3-1.9l-.2-.1v.2-.2h-.2v1.8h1.4l-.1-2.3v-4c0-.7-.1-1.6-.6-2.3-.5-.8-1.4-1.4-3-1.4-1.1 0-2.1.2-2.9.6l-.1.1v1.6l.3-.2.1-.1h.2v-1.1h-.2l.1.2c.8-.3 1.7-.6 2.7-.6 1.5 0 2.2.5 2.6 1.2.4.7.5 1.5.5 2.1v5.8h-.6V287h-.2l-.1.1c-.7 1.4-1.9 1.6-2.9 1.6-2 0-2.9-1.1-2.9-2.5 0-1.5.8-2.2 1.8-2.6 1.1-.4 2.4-.4 3.3-.4h.8v-.5c0-.3 0-1-.3-1.6-.3-.6-.9-1.1-2.1-1.1-1 0-2 .2-2.9.7l.2.2h.2-.2zm5 3.1h-.2v.7c0 1-.3 1.8-.7 2.3-.5.5-1.1.8-2 .8-1 0-1.6-.7-1.6-1.6 0-.9.4-1.3 1.1-1.6.7-.3 1.6-.4 2.4-.4h1v-.2h-.2.2v-.2h-1c-.9 0-1.8.1-2.6.4-.8.3-1.4 1-1.4 2 0 .6.2 1.1.6 1.4.4.4.9.6 1.5.6.9 0 1.7-.3 2.3-.9.6-.6.8-1.5.8-2.5v-1h-.2v.2z"/><path id="XMLID_99_" d="M267.7 277v2.3h-1.9v1h1.9v5.9c0 1 .1 2.7 2.1 2.7.3 0 .8 0 1.3-.2v-1c-.4.2-.7.2-1.2.2-.8 0-1.1-.2-1.1-1.8v-5.8h2.2v-1h-2.2v-2.8l-1.1.5z"/><path id="XMLID_100_" d="M267.7 277h-.2v2.1h-1.9v1.4h1.9v5.6c0 .5 0 1.2.3 1.9.3.6.9 1.1 2 1.1.3 0 .8 0 1.4-.2h.1V287.5l-.3.1c-.3.1-.6.2-1.1.2-.4 0-.5-.1-.7-.2-.1-.2-.2-.6-.2-1.4v-5.6h2.2v-1.4H269v-2.9l-1.4.5-.1.1v.1h.2l.1.2.9-.3v2.7h2.2v.6h-2.2v6c0 .8.1 1.3.3 1.6.2.3.6.4 1 .4.5 0 .9 0 1.3-.2l-.1-.2h-.2v1h.2l-.1-.2c-.5.2-.9.2-1.2.2-1 0-1.4-.4-1.7-.9-.3-.5-.3-1.1-.3-1.7v-6.1H266v-.6h1.9V277h-.2l.1.2-.1-.2z"/><path id="XMLID_103_" d="M272.4 279.4v9.4h1.2v-9.4h-1.2zm0-4.2v1.5h1.3v-1.5h-1.3z"/><path id="XMLID_107_" d="M272.4 279.4h-.2v9.6H273.8v-9.8H272.2v.2h.2v.2h.9v9h-.7v-9.2h-.2v.2-.2zm0-4.2h-.2v1.7h1.7V275h-1.7v.2h.2v.2h1.1v1.1h-.8v-1.3h-.3v.2-.2z"/><path id="XMLID_113_" d="M274.8 284.1c0 2.9 1.7 4.8 4.4 4.8 2.6 0 4.4-1.9 4.4-4.8s-1.7-4.9-4.4-4.9-4.4 1.9-4.4 4.9zm1.2 0c0-1.8.9-3.9 3.1-3.9s3.1 2.1 3.1 3.9c0 1.8-.9 3.9-3.1 3.9-2.1 0-3.1-2.1-3.1-3.9z"/><path id="XMLID_116_" d="M274.8 284.1h-.2c0 1.5.4 2.8 1.3 3.7.8.9 2 1.4 3.3 1.4 1.4 0 2.5-.5 3.3-1.4.8-.9 1.3-2.2 1.3-3.7s-.4-2.8-1.2-3.7c-.8-.9-2-1.4-3.3-1.4-1.4 0-2.5.5-3.3 1.4-.8.9-1.2 2.2-1.2 3.7h.2c0-2.9 1.6-4.6 4.1-4.7 2.5 0 4.1 1.8 4.1 4.7 0 2.8-1.6 4.6-4.1 4.6-2.5 0-4.1-1.8-4.1-4.6h-.2zm1.2 0h.2c0-.9.2-1.8.7-2.5.5-.7 1.2-1.2 2.2-1.2 1 0 1.7.5 2.2 1.2.5.7.7 1.6.7 2.5 0 .9-.2 1.8-.7 2.5-.5.7-1.2 1.2-2.2 1.2-1 0-1.7-.5-2.2-1.2-.5-.7-.7-1.6-.7-2.5h-.4c0 .9.2 1.9.8 2.7.5.8 1.4 1.3 2.6 1.3 1.2 0 2-.6 2.6-1.3.5-.8.8-1.8.8-2.7 0-1-.2-2-.8-2.8-.5-.8-1.4-1.4-2.6-1.3-1.2 0-2 .6-2.6 1.3-.5.8-.8 1.8-.8 2.8h.2z"/><path id="XMLID_117_" d="M285.9 288.8v-5.5c0-1.7 1.2-3.1 2.8-3.1 2.3 0 2.3 1.6 2.3 2.8v5.8h1.2v-5.9c0-1.4-.3-3.7-3.3-3.7-.4 0-2.2.1-3.1 2.1v-1.9h-1l.1 2.2v7.3h1v-.1z"/><path id="XMLID_118_" d="M285.9 288.8h.2v-5.5c0-1.6 1.1-2.9 2.6-2.9 1.1 0 1.6.4 1.8.8.3.5.3 1.1.3 1.7v6.1H292.4v-6.1c0-.7-.1-1.7-.5-2.5-.5-.8-1.4-1.4-3-1.4-.5 0-2.4.1-3.3 2.2l.2.1v-.2.2h.2v-2.1h-1.4l.1 2.4v7.5H286.3v-.2h-.4v-.2h-.9v-7l-.1-2h.6v1.9H285.8l.1-.1c.8-1.9 2.5-2 2.9-2 1.5 0 2.2.5 2.6 1.2.4.7.5 1.6.5 2.3v5.6h-.7V282.9c0-.6 0-1.3-.3-1.9-.3-.6-1-1-2.2-1-1.7 0-3 1.5-3 3.3v5.5h.2v-.2.2z"/><path id="XMLID_119_" d="M299 279.7c-.8-.3-1.4-.5-2.2-.5-1.8 0-3.2.8-3.2 2.3 0 1.6 1.2 2.2 2.4 2.7 1.3.6 2.1.8 2.1 2 0 1.1-.8 1.7-2.1 1.7-.8 0-1.6-.2-2.4-.6l-.1 1.1c.9.3 1.7.4 2.5.4 2.5 0 3.4-1.4 3.4-2.7 0-1.6-1.3-2.3-2.2-2.7-1.6-.7-2.4-.9-2.4-2s1.1-1.3 2-1.3c.9 0 1.5.1 2.2.4v-.8z"/><path id="XMLID_120_" d="M299 279.7l.1-.2c-.8-.4-1.5-.5-2.3-.5-.9 0-1.8.2-2.4.6-.6.4-1 1.1-1 1.9 0 .8.3 1.5.8 1.9.5.4 1.1.7 1.7 1 .6.3 1.2.5 1.5.7.3.3.5.5.5 1.1 0 .5-.2.8-.5 1.1-.3.3-.8.4-1.4.4-.7 0-1.6-.2-2.4-.5l-.3-.1-.1 1.4v.2l.1.1c.9.3 1.7.4 2.5.4 1.3 0 2.2-.4 2.8-.9.6-.6.8-1.3.8-2 0-1.8-1.4-2.5-2.3-2.9-.8-.4-1.4-.6-1.8-.8-.4-.3-.5-.5-.5-1s.2-.7.5-.9c.3-.2.8-.2 1.2-.2.8 0 1.5.1 2.1.4l.3.1.1-1.2v-.1l-.1-.1.1.1h-.2l-.1.9h.2l.1-.2c-.7-.3-1.4-.5-2.3-.5-.5 0-1 .1-1.4.3-.4.2-.8.6-.8 1.2s.3 1 .7 1.3c.4.3 1 .5 1.9.9.9.4 2 1 2 2.5 0 1.2-.8 2.5-3.2 2.5-.8 0-1.6-.1-2.4-.4l-.1.2h.2l.1-1.1h-.2l-.1.2c.9.4 1.7.6 2.5.6.7 0 1.3-.2 1.7-.5.4-.3.7-.8.7-1.4 0-.7-.2-1.1-.7-1.4-.4-.3-.9-.5-1.6-.8-.6-.3-1.2-.5-1.6-.9-.4-.4-.7-.9-.7-1.6 0-.7.3-1.2.8-1.5.5-.4 1.3-.6 2.1-.6s1.4.1 2.2.5l.2-.2h-.2.2z"/><path id="XMLID_121_" d="M67.7 267.2h10.1v-2.8h-6.7v-14h-3.4z"/><path id="XMLID_122_" d="M67.7 267.2v.3H78v-3.3h-6.7v-14h-3.8v17.3h.2v-.3h.2v-16.6h3v14h6.7v2.4h-9.9v.2h.2z"/><path id="XMLID_123_" d="M88.1 254.8v6.6c0 1.7-1 3.4-2.9 3.4-2 0-2.1-1.6-2.1-2.4v-7.5h-3.3v8c0 4.3 2.9 4.6 4.4 4.6 1 0 2.7-.3 3.9-2.1h.1v1.9h3.1v-12.4h-3.2z"/><path id="XMLID_124_" d="M88.1 254.8h-.2v6.6c0 .8-.2 1.6-.7 2.2-.5.6-1.1 1-2 1-1 0-1.4-.4-1.6-.8-.2-.5-.3-1-.3-1.4v-7.7h-3.7v8.3c0 2.2.8 3.4 1.7 4.1 1 .7 2.1.7 2.9.7 1 0 2.9-.3 4.1-2.2l-.2-.1v.2h.1v-.2H88v2.1h3.6v-12.9h-3.7v.2h.2v.2h3.1v12h-2.7v-1.9h-.4l-.1.1c-1.2 1.7-2.8 2-3.8 2-.7 0-1.8-.1-2.7-.7-.9-.6-1.6-1.6-1.6-3.7V255h2.8v7.3c0 .4 0 1.1.3 1.6.3.6.9 1 2 1 1 0 1.8-.5 2.3-1.1.5-.7.8-1.6.8-2.5v-6.6.2-.1z"/><path id="XMLID_125_" d="M103.3 255c-.9-.2-1.9-.3-2.8-.3-4.4 0-6.7 3-6.7 6.3s2 6.5 6.5 6.5c1.4 0 2.6-.3 3.2-.5l-.1-2.4c-.8.4-1.8.5-2.5.5-2.3 0-3.7-1.8-3.7-4 0-2.5 1.7-4.1 3.9-4.1.8 0 1.4.1 2 .3l.2-2.3z"/><path id="XMLID_126_" d="M103.3 255l.1-.2c-1-.2-2-.3-2.8-.3-2.3 0-4 .8-5.2 2-1.2 1.2-1.8 2.8-1.8 4.5 0 1.7.5 3.4 1.6 4.6 1.1 1.3 2.8 2.1 5.1 2.1 1.4 0 2.6-.3 3.3-.5h.2l-.1-2.8-.3.1c-.8.3-1.7.5-2.4.5-2.2 0-3.4-1.6-3.4-3.8 0-2.4 1.6-3.9 3.7-3.9.8 0 1.4.1 1.9.3l.3.1.2-2.8h-.2l-.2.1h-.2l-.2 2.4h.2l.1-.2c-.6-.3-1.3-.4-2.1-.4-1.1 0-2.2.4-2.9 1.2-.7.8-1.2 1.8-1.2 3.1 0 1.2.4 2.2 1 3 .7.8 1.6 1.2 2.8 1.2.8 0 1.7-.1 2.6-.5l-.1-.2h-.2l.1 2.4h.2l-.1-.2c-.6.2-1.7.5-3.1.5-4.3 0-6.3-3.1-6.3-6.3 0-3.2 2.2-6.1 6.5-6.1.8 0 1.8.1 2.7.3l.2-.2h-.2.2z"/><path id="XMLID_146_" d="M116.8 262v-.7c0-1.1-.1-6.7-5.7-6.7-3.3 0-6.1 2.4-6.1 6.4 0 4.4 3 6.4 6.7 6.4 1.5 0 3-.3 4.3-.8v-2.4c-1.2.5-2.5.9-3.9.9-2.5 0-3.6-1.5-3.7-3.1h8.4zm-8.5-2.2c0-1.6 1.1-2.9 2.5-2.9 1.2 0 2.6.8 2.6 2.9h-5.1z"/><path id="XMLID_149_" d="M116.8 262h.2v-.7c0-.6 0-2.3-.8-3.8-.7-1.6-2.3-3-5.2-3-1.7 0-3.3.6-4.5 1.8-1.2 1.1-1.9 2.8-1.9 4.9 0 2.2.8 3.9 2 5 1.3 1.1 3 1.6 4.9 1.6 1.5 0 3.1-.3 4.4-.8l.1-.1V264l-.3.1c-1.2.5-2.4.8-3.8.8-2.4 0-3.4-1.4-3.5-2.9h-.2v.2h8.7v-.2h-.1v-.2h-8.7v.2c.1 1.7 1.4 3.3 3.9 3.3 1.5 0 2.8-.3 4-.9l-.1-.2h-.2v2.4h.2l-.1-.2c-1.2.5-2.8.8-4.2.8-1.8 0-3.4-.5-4.6-1.5-1.2-1-1.9-2.5-1.9-4.7 0-3.9 2.7-6.2 5.9-6.2 2.8 0 4.1 1.3 4.8 2.8.7 1.5.7 3.1.7 3.7v.7h.3v-.2.2zm-8.5-2.2h.2c0-1.5 1-2.7 2.3-2.7 1.1 0 2.4.7 2.4 2.6v.1h.2v-.2h-5.1v.2h.2-.2v.2h5.3V259.7c0-1.1-.4-1.8-.9-2.3-.5-.5-1.2-.7-1.9-.7-1.6 0-2.7 1.4-2.8 3.1v.2h.2v-.2z"/><path id="XMLID_150_" d="M122.5 267.2v-6.7c0-1.3.9-3.3 2.9-3.3 1.5 0 2.1 1.2 2.1 2.5v7.5h3.3v-8.7c0-2.5-1.8-3.9-4.4-3.9-1 0-2.7.3-3.9 2.1h-.1v-1.9h-3.1v12.4h3.2z"/><path id="XMLID_151_" d="M122.5 267.2h.2v-6.7c0-.6.2-1.4.7-2 .5-.6 1.1-1 2.1-1 .7 0 1.2.3 1.5.7.3.4.4 1 .4 1.6v7.7h3.7v-8.9c0-1.3-.5-2.3-1.3-3.1-.8-.7-2-1.1-3.3-1.1-1 0-2.9.3-4.1 2.2l.2.1v-.2h-.1v.2h.2v-2.1H119v12.9h3.7v-.2h-.2v-.3h-3.1v-12h2.7v1.9h.4l.1-.1c1.2-1.7 2.8-2 3.8-2 2.5 0 4.2 1.3 4.2 3.7v8.5h-2.8v-7.3c0-.6-.1-1.3-.5-1.8s-1-.9-1.8-.9c-1.1 0-1.9.5-2.4 1.2s-.7 1.5-.7 2.3v6.7h.1v-.2.2z"/><path id="XMLID_152_" d="M135.1 257.2v6.4c0 .8 0 3.8 3.6 3.8 1.2 0 2.3-.3 2.5-.3v-2.3c-.4.1-.8.2-1.3.2-1.6 0-1.6-1.1-1.6-2.2v-5.6h2.9v-2.4h-2.9v-3.5l-3.3 1v2.5h-2.5v2.4h2.6z"/><path id="XMLID_153_" d="M135.1 257.2h-.2v6.4c0 .4 0 1.4.5 2.3.5.9 1.5 1.7 3.3 1.7 1.2 0 2.4-.3 2.6-.3h.2v-2.8l-.3.1c-.4.1-.8.2-1.2.2-.8 0-1-.2-1.2-.6-.2-.3-.2-.9-.2-1.4v-5.4h2.9v-2.8h-2.9V251l-3.7 1.2v2.4h-2.5v2.8h2.7v-.2h-.2.2v-.2h-2.2v-2h2.5v-2.5l2.8-.9v3.4h2.9v2h-2.9v5.9c0 .5 0 1.1.2 1.6s.7.8 1.6.8c.5 0 .9-.1 1.3-.2l-.1-.2h-.2v2.3h.2l-.1-.2c-.2 0-1.3.3-2.5.3-1.7 0-2.5-.7-3-1.5-.4-.8-.4-1.7-.4-2.1V257h-.2v.2z"/><path id="XMLID_154_" d="M163.8 253.4v-3h-13.1v3h4.8v13.8h3.4v-13.8z"/><path id="XMLID_155_" d="M163.8 253.4h.2v-3.2h-13.5v3.4h4.8v13.9h3.9v-13.9h4.8v-.2h-.2v-.2h-5.1V267h-3v-13.8h-4.8v-2.6h12.7v2.8h.2v-.2z"/><path id="XMLID_158_" d="M176.9 262v-.7c0-1.1-.1-6.7-5.7-6.7-3.3 0-6.1 2.4-6.1 6.4 0 4.4 3 6.4 6.7 6.4 1.5 0 3-.3 4.3-.8v-2.4c-1.2.5-2.4.9-3.9.9-2.4 0-3.6-1.5-3.7-3.1h8.4zm-8.5-2.2c0-1.6 1.1-2.9 2.5-2.9 1.2 0 2.6.8 2.6 2.9h-5.1z"/><path id="XMLID_161_" d="M176.9 262h.2v-.7c0-.6 0-2.3-.8-3.8-.7-1.6-2.3-3-5.2-3-1.7 0-3.3.6-4.5 1.8-1.2 1.1-1.9 2.8-1.9 4.9 0 2.2.8 3.9 2 5 1.3 1.1 3 1.6 4.9 1.6 1.5 0 3.1-.3 4.4-.8l.1-.1V264l-.3.1c-1.2.5-2.4.8-3.8.8-2.4 0-3.4-1.4-3.5-2.9h-.2v.2h8.7v-.2h-.1v-.2h-8.7v.2c.1 1.7 1.4 3.3 3.9 3.3 1.5 0 2.8-.3 4-.9l-.1-.2h-.2v2.4h.2l-.1-.2c-1.2.5-2.8.8-4.2.8-1.8 0-3.4-.5-4.6-1.5-1.2-1-1.9-2.5-1.9-4.7 0-3.9 2.7-6.2 5.9-6.2 2.7 0 4.1 1.3 4.8 2.8.7 1.5.7 3.1.7 3.7v.7h.3v-.2.2zm-8.5-2.2h.2c0-1.5 1-2.7 2.3-2.7 1.1 0 2.4.7 2.4 2.6v.1h.2v-.2h-5.1v.2h.2-.2v.2h5.3V259.7c0-1.1-.4-1.8-.9-2.3-.5-.5-1.2-.7-1.9-.7-1.6 0-2.7 1.4-2.8 3.1v.2h.2v-.2z"/><path id="XMLID_162_" d="M188.1 255c-.9-.2-1.9-.3-2.8-.3-4.4 0-6.7 3-6.7 6.3s2 6.5 6.5 6.5c1.4 0 2.6-.3 3.2-.5l-.1-2.4c-.8.4-1.8.5-2.5.5-2.3 0-3.7-1.8-3.7-4 0-2.5 1.7-4.1 3.9-4.1.8 0 1.4.1 2 .3l.2-2.3z"/><path id="XMLID_163_" d="M188.1 255l.1-.2c-1-.2-2-.3-2.8-.3-2.3 0-4 .8-5.2 2-1.2 1.2-1.8 2.8-1.8 4.5 0 1.7.5 3.4 1.6 4.6 1.1 1.3 2.8 2.1 5.1 2.1 1.4 0 2.6-.3 3.3-.5h.2l-.1-2.8-.3.1c-.8.3-1.7.5-2.4.5-2.2 0-3.4-1.6-3.4-3.8 0-2.4 1.6-3.9 3.7-3.9.8 0 1.4.1 1.9.3l.3.1.2-2.9h-.2v.2l.1-.2-.3.2v.2-.2h-.2l-.2 2.4h.2l.1-.2c-.6-.3-1.3-.4-2.1-.4-1.1 0-2.2.4-2.9 1.2-.7.8-1.2 1.8-1.2 3.1 0 1.2.4 2.2 1 3 .7.8 1.6 1.2 2.8 1.2.8 0 1.7-.1 2.6-.5l-.1-.2h-.2l.1 2.4h.2l-.1-.2c-.6.2-1.7.5-3.1.5-4.3 0-6.3-3.1-6.3-6.3 0-3.2 2.2-6.1 6.5-6.1.8 0 1.8.1 2.7.3v-.2z"/><path id="XMLID_164_" d="M190.4 267.2h3.3V261c0-2.7 1.6-3.8 2.9-3.8 2.1 0 2.1 1.8 2.1 2.8v7.2h3.3V259c0-.5 0-4.4-4.4-4.4-2.5 0-3.6 1.6-4 2.1h-.1l.1-1.9v-5.6h-3.3l.1 18z"/><path id="XMLID_165_" d="M190.4 267.2v.2h3.5V261c0-2.6 1.5-3.6 2.7-3.6 1 0 1.4.4 1.7.9.2.5.3 1.2.3 1.7v7.4h3.7V259c0-.3 0-1.4-.6-2.5s-1.8-2.1-4-2.1c-2.6 0-3.8 1.7-4.1 2.2l.2.1v-.2h-.1v.2h.2l.1-1.9V249h-3.7v18.4h.2v-.4l-.1.2h.2v-17.8h2.8v5.4l-.1 1.9v.2h.4l.1-.1c.4-.5 1.4-2 3.8-2 2.1 0 3.1.9 3.6 1.9.5 1 .5 2 .5 2.3v8h-2.8v-6.9c0-.5 0-1.2-.3-1.9-.3-.6-.9-1.2-2-1.2-.7 0-1.5.3-2.1.9-.6.7-1 1.7-1 3v6h-3.1v.3z"/><path id="XMLID_166_" d="M208.4 267.2v-6.7c0-1.3.9-3.3 2.9-3.3 1.5 0 2.1 1.2 2.1 2.5v7.5h3.3v-8.7c0-2.5-1.9-3.9-4.4-3.9-1 0-2.7.3-3.9 2.1h-.1v-1.9h-3.1v12.4h3.2z"/><path id="XMLID_167_" d="M208.4 267.2h.2v-6.7c0-.6.2-1.4.7-2 .5-.6 1.1-1 2.1-1 .7 0 1.2.3 1.5.7.3.4.4 1 .4 1.6v7.7h3.7v-8.9c0-1.3-.5-2.3-1.3-3.1-.8-.7-2-1.1-3.3-1.1-1 0-2.9.3-4.1 2.2l.2.1v-.2h-.1v.2h.2v-2.1H205v12.9h3.7v-.2h-.3v-.3h-3.1v-12h2.7v1.9h.4l.1-.1c1.2-1.7 2.8-2 3.8-2 2.5 0 4.2 1.3 4.2 3.7v8.5h-2.8v-7.3c0-.6-.1-1.3-.5-1.8s-1-.9-1.8-.9c-1.1 0-1.9.5-2.4 1.2s-.7 1.5-.7 2.3v6.7h.1v-.2.2z"/><path id="XMLID_170_" d="M219.1 261c0 4.2 2.7 6.4 6.4 6.4s6.4-2.3 6.4-6.4c0-4.2-2.7-6.4-6.4-6.4s-6.4 2.3-6.4 6.4zm3.4 0c0-2.9 1.6-4.1 3-4.1 1.8 0 3 1.6 3 4.1 0 2.4-1.2 4.1-3 4.1-1.4 0-3-1.2-3-4.1z"/><path id="XMLID_173_" d="M219.1 261h-.2c0 2.1.7 3.8 1.9 4.9 1.2 1.1 2.9 1.7 4.8 1.7s3.6-.6 4.7-1.7c1.2-1.1 1.9-2.8 1.9-4.9 0-2.1-.7-3.8-1.9-4.9-1.2-1.1-2.8-1.7-4.7-1.7-1.9 0-3.6.6-4.8 1.7-1.2 1.1-1.9 2.8-1.9 4.9h.4c0-4.1 2.6-6.2 6.2-6.2s6.2 2.1 6.2 6.2-2.6 6.2-6.2 6.2-6.2-2.2-6.2-6.2h-.2zm3.4 0h.2c0-2.8 1.5-3.8 2.8-3.8.8 0 1.5.4 2 1 .5.7.8 1.6.8 2.8 0 1.2-.3 2.2-.8 2.8-.5.7-1.2 1-2 1-1.3 0-2.8-1-2.8-3.8h-.4c0 1.5.4 2.5 1 3.2.6.7 1.4 1 2.2 1 1 0 1.8-.4 2.3-1.2.6-.8.9-1.8.9-3.1s-.3-2.3-.9-3.1c-.6-.8-1.4-1.2-2.3-1.2-.8 0-1.6.3-2.2 1-.6.7-1 1.8-1 3.2h.2z"/><path id="XMLID_174_" d="M234.3 249.2h3.3v18h-3.3z"/><path id="XMLID_175_" d="M234.3 249.2h-.2v18.3h3.7V249h-3.7v.2h.2v.2h3.1V267h-2.9v-17.8h-.2v.2z"/><path id="XMLID_178_" d="M240 261c0 4.2 2.7 6.4 6.4 6.4s6.4-2.3 6.4-6.4c0-4.2-2.7-6.4-6.4-6.4s-6.4 2.3-6.4 6.4zm3.4 0c0-2.9 1.6-4.1 3-4.1 1.8 0 3 1.6 3 4.1 0 2.4-1.2 4.1-3 4.1-1.4 0-3-1.2-3-4.1z"/><path id="XMLID_181_" d="M240 261h-.2c0 2.1.7 3.8 1.9 4.9 1.2 1.1 2.9 1.7 4.8 1.7s3.6-.6 4.7-1.7c1.2-1.1 1.9-2.8 1.9-4.9 0-2.1-.7-3.8-1.9-4.9-1.2-1.1-2.8-1.7-4.7-1.7-1.9 0-3.6.6-4.8 1.7-1.2 1.1-1.9 2.8-1.9 4.9h.4c0-4.1 2.6-6.2 6.2-6.2s6.2 2.1 6.2 6.2-2.6 6.2-6.2 6.2-6.2-2.2-6.2-6.2h-.2zm3.4 0h.2c0-2.8 1.5-3.8 2.8-3.8.8 0 1.5.4 2 1 .5.7.8 1.6.8 2.8 0 1.2-.3 2.2-.8 2.8-.5.7-1.2 1-2 1-1.3 0-2.8-1-2.8-3.8h-.4c0 1.5.4 2.5 1 3.2.6.7 1.4 1 2.2 1 1 0 1.8-.4 2.3-1.2.6-.8.9-1.8.9-3.1s-.3-2.3-.9-3.1c-.6-.8-1.4-1.2-2.3-1.2-.8 0-1.6.3-2.2 1-.6.7-1 1.8-1 3.2h.2z"/><path id="XMLID_184_" d="M255.8 271.7c1.8.7 3.5.9 4.6.9 6.3 0 6.3-4.9 6.3-6.3v-11.5h-3.1v2.1h-.1c-.8-1.7-2.6-2.2-4-2.2-3 0-5.1 2.5-5.1 6.3 0 2.9 1.4 6.2 5.2 6.2 2.6 0 3.5-1.7 3.8-2.3h.1v1.6c0 2.1-1.3 3.3-3.6 3.3-1.3 0-2.8-.5-3.8-1l-.3 2.9zm4.8-14.3c1.8 0 3 1.3 3 3.4 0 2.7-1.3 3.9-2.7 3.9-1.1 0-2.9-.6-2.9-3.7-.1-1.9.8-3.6 2.6-3.6z"/><path id="XMLID_187_" d="M255.8 271.7l-.1.2c1.9.7 3.5.9 4.7.9 3.2 0 4.9-1.3 5.7-2.7.8-1.5.8-3.1.8-3.8v-11.7h-3.5v2.3h.2v-.2h-.1v.2l.2-.1c-.9-1.8-2.8-2.3-4.2-2.3-1.5 0-2.9.7-3.8 1.8-.9 1.2-1.5 2.8-1.5 4.7 0 1.5.3 3.1 1.2 4.3.8 1.2 2.2 2.1 4.2 2.1 2.7 0 3.7-1.8 4-2.4l-.2-.1v.2h.1v-.1h-.2v1.6c0 1-.3 1.8-.9 2.3-.6.5-1.4.8-2.5.8-1.3 0-2.7-.5-3.7-1l-.3-.1-.3 3 .2.1v-.2l-.1.4.1-.2v.2h.2l.3-2.9h-.2l-.1.2c1.1.6 2.5 1.1 3.9 1.1 1.2 0 2.2-.3 2.8-1 .7-.6 1-1.5 1-2.6v-1.9h-.4l-.1.1c-.3.6-1.1 2.1-3.6 2.1-1.8 0-3-.8-3.8-1.9-.8-1.1-1.1-2.7-1.1-4.1 0-3.8 2.1-6.1 4.9-6.1 1.4 0 3.1.4 3.8 2l.1.1h.4v-2h2.7v11.2c0 .7 0 2.3-.8 3.6-.8 1.3-2.3 2.5-5.3 2.5-1.2 0-2.8-.1-4.6-.9l-.1.3v.2-.2zm4.8-14.3v.2c1.7 0 2.8 1.2 2.8 3.2 0 2.6-1.3 3.7-2.5 3.7-.5 0-1.2-.1-1.7-.6s-1-1.3-1-2.9c0-.9.2-1.8.6-2.4.4-.6 1-1 1.8-1v-.4c-1 0-1.7.5-2.2 1.2-.5.7-.7 1.7-.7 2.6 0 1.6.5 2.6 1.1 3.2.6.6 1.4.7 2 .7.8 0 1.5-.4 2.1-1.1.5-.7.9-1.7.9-3.1 0-1.1-.3-2-.9-2.6-.6-.6-1.4-1-2.3-1v.3z"/><path id="XMLID_190_" d="M270 254.8v12.4h3.3v-12.4H270zm3.3-5.2h-3.4v3.4h3.4v-3.4z"/><path id="XMLID_193_" d="M270 254.8h-.2v12.7h3.7v-12.9h-3.7v.2h.2v.2h3.1v12h-2.8v-12.2h-.3v.2-.2zm3.3-5.2v-.2h-3.6v3.8h3.8v-3.8h-.2v.2h-.2v3.2h-2.9v-2.9h3.2v-.3h-.2.1z"/><path id="XMLID_196_" d="M287.6 262v-.7c0-1.1-.1-6.7-5.7-6.7-3.3 0-6.1 2.4-6.1 6.4 0 4.4 3 6.4 6.7 6.4 1.5 0 3-.3 4.3-.8v-2.4c-1.2.5-2.4.9-3.9.9-2.4 0-3.6-1.5-3.7-3.1h8.4zm-8.5-2.2c0-1.6 1.1-2.9 2.5-2.9 1.2 0 2.6.8 2.6 2.9h-5.1z"/><path id="XMLID_199_" d="M287.6 262h.2v-.7c0-.6 0-2.3-.8-3.8-.7-1.6-2.3-3-5.2-3-1.7 0-3.3.6-4.5 1.8-1.2 1.1-1.9 2.8-1.9 4.9 0 2.2.8 3.9 2 5 1.3 1.1 3 1.6 4.9 1.6 1.5 0 3.1-.3 4.4-.8l.1-.1V264l-.3.1c-1.2.5-2.4.8-3.8.8-2.4 0-3.4-1.4-3.5-2.9h-.2v.2h8.7v-.2h-.1v-.2h-8.7v.2c.1 1.7 1.4 3.3 3.9 3.3 1.5 0 2.8-.3 4-.9l-.1-.2h-.2v2.4h.2l-.1-.2c-1.2.5-2.8.8-4.2.8-1.8 0-3.4-.5-4.6-1.5-1.2-1-1.9-2.5-1.9-4.7 0-3.9 2.7-6.2 5.9-6.2 2.8 0 4.1 1.3 4.8 2.8.7 1.5.7 3.1.7 3.7v.7h.3v-.2.2zm-8.5-2.2h.2c0-1.5 1-2.7 2.3-2.7 1.1 0 2.4.7 2.4 2.6v.1h.2v-.2h-5.1v.2h.2-.2v.2h5.3V259.7c0-1.1-.4-1.8-.9-2.3-.5-.5-1.2-.7-1.9-.7-1.6 0-2.7 1.4-2.8 3.1v.2h.2v-.2z"/><path id="XMLID_200_" d="M298.1 255.1c-1.8-.6-3.3-.5-4-.5-3.7 0-4.5 2.3-4.5 3.7 0 1.9 1.1 2.7 2.6 3.3 1.3.6 2.9.8 2.9 2 0 .5-.4 1.3-2.1 1.3-1.7 0-3.3-.8-3.5-.8l-.1 2.5c1.2.4 2.9.7 4.1.7 3.3 0 4.9-1.9 4.9-3.8 0-2.4-1.9-3.3-3.3-3.8-1-.3-2.2-.6-2.2-1.6 0-.3.1-1.3 2.2-1.3 1.3 0 2.4.4 2.8.6l.2-2.3z"/><path id="XMLID_201_" d="M298.1 255.1l.1-.2c-1.7-.5-3.1-.5-3.9-.5h-.2c-1.9 0-3.1.6-3.8 1.4-.7.8-.9 1.8-.9 2.5 0 1.9 1.2 2.9 2.7 3.5.7.3 1.4.5 1.9.7.5.3.8.6.9 1.1 0 .4-.2 1.1-1.9 1.1-1.6 0-3.3-.8-3.4-.8l-.3-.1-.2 3 .1.1c1.3.4 2.9.7 4.2.7 1.7 0 3-.5 3.8-1.2.8-.8 1.2-1.8 1.2-2.8 0-1.3-.5-2.2-1.2-2.8-.7-.6-1.6-.9-2.3-1.2-.5-.2-1.1-.3-1.4-.5-.4-.2-.6-.5-.6-.9 0-.1 0-.4.3-.6.2-.2.7-.5 1.7-.5 1.3 0 2.3.4 2.8.6l.2.1.3-2.8-.2-.1.1.2h-.2l-.3 2.4h.2l.1-.2c-.5-.2-1.5-.6-2.9-.6-1.1 0-1.7.3-2 .6-.3.3-.4.7-.4.9 0 .6.4 1 .8 1.3l1.5.6c.7.2 1.5.5 2.1 1.1.6.6 1.1 1.3 1.1 2.5 0 1.9-1.4 3.6-4.6 3.6-1.2 0-2.8-.3-4.1-.7l-.1.2h.2l.1-2.5h-.2l-.1.2c.2.1 1.8.9 3.6.9.9 0 1.4-.2 1.8-.5.4-.3.5-.7.5-1 0-.7-.5-1.2-1.1-1.5-.6-.3-1.3-.5-2-.8-1.5-.7-2.5-1.4-2.5-3.1 0-.7.2-1.5.8-2.2.6-.7 1.7-1.2 3.5-1.2h.2c.8 0 2.1 0 3.7.5l.3-.5h-.2.2z"/></g></svg>