<svg xmlns="http://www.w3.org/2000/svg" viewBox="0 0 500 500"><path d="M380.6 258.7v-7.8h11.9V248h-11.9v-7.5h13.3v-2.9h-16.3v23.9h16.7v-2.9h-13.7zm-12.5-7c0 4.5-2.6 7.2-7 7.2s-7.1-2.7-7.1-7.2v-14h-3v14c0 6.3 3.8 10 10.1 10s10-3.8 10-10v-14h-3v14zM336 240.4c2.6 0 5.1 1 7.1 2.7v.1l1.7-2.3h-.1c-2.5-2.1-5.6-3.3-8.8-3.3-7 0-12.6 5.2-12.6 12s5.5 12.1 12.4 12.1c3.2-.1 6.3-1.2 8.9-3.1v-8.9h-9.3v2.7h6.7v4.5c-1.8 1.2-3.9 1.9-6.1 1.9-5.3 0-9.6-4.1-9.6-9.2s4.2-9.3 9.4-9.3l.3.1zm-25.6-2.7h-2.9l-10.6 23.6-.1.3h3.2l2.7-6h10.1l-1.3-2.9h-7.6l5.1-11.4 8.9 20.2v.1h3.2l-10.7-23.9zm-31.6 13.2h11.9V248h-11.9v-7.5H292v-2.9h-16.3v23.9h16.7v-2.9h-13.7v-7.7zm-19.7-13.2h-2.9v23.9h13.3v-2.9h-10.3l-.1-21zm-28.5 20.1v-6.3H242v-3.6h-11.4v-6.3h12.7v-3.8h-16.7v23.9h17.2v-3.8h-13.2zm-14.7-20.1v17.8L202 237.7h-4v23.9h4v-17.4l13.5 17.4h4.3v-23.9h-3.9zm-47.1 23.9h4.3l2.4-5.4h9.3l-1.7-3.7H177l4.3-9.8 6 13.5 2.4 5.4h4.3l-10.5-23.9h-4.3l-10.4 23.9zm-10.6-23.9l-7.2 15-7.2-15h-6.3v23.9h4V243l8.3 16.5h2.3l8.3-16.5v18.6h4v-23.9h-6.2zm-31.8 0V251c0 2.2-.5 3.9-1.6 5.2-1.1 1.3-2.8 2-4.5 1.9-1.7.1-3.3-.6-4.4-1.9-1.1-1.3-1.7-3-1.7-5.2v-13.2h-4v13.4c0 3.4 1 6.1 2.8 7.9 2 1.9 4.6 2.9 7.3 2.8 2.7.1 5.3-.9 7.3-2.8 1.9-1.9 2.8-4.5 2.8-7.9v-13.4h-4zm-27.1 0V248H87.5v-10.3h-4v23.9h4v-9.8h11.8v9.8h4v-23.9h-4zm-25.1.6v4.4h-2.1v-3.8h-1.2v3.8h-2.1v-4.3h-1.3v5.6h8v-5.7h-1.3zm1.3 9.7v-1.3h-8v1.3h3.4v4h-3.4v1.3h8V252h-3.3v-4h3.3zm-6.8 9.5v-2.4h-1.2v6.1h1.2v-2.4h6.8v-1.4h-6.8z" fill="#1d252c"/><path d="M421.8 235.3l-4.6 4.4-4.5-4.4H407l-4.8 4.7v10.2l15 14.7 15.3-14.7v-10l-4.9-4.7h-5.8zm.7 2.3h4.4l-3.6 8-4.5-4.5 3.7-3.5zm-6.1 23.4l-3.4-3.4 3.1-7.2 3.5 3.4-3.2 7.2zm-1.8-12.1l-3.2 7.2-3.8-3.8 5.2-5.2 1.8 1.8zm6 2.8l-6.5-6.4 1.7-4.1 2.1 2 4.5 4.5-1.8 4zm-12.7-14.1h4.3l2.1 2.1-1.8 4-5.5-5.2.9-.9zm-3.3 3.3l.8-.8 5.8 5.5-5.2 5.2-1.4-1.4v-8.5zm25.5 8.5l-10.9 10.3 4.7-10.5.5-1.1h5.7v1.3zm0-3.5h-4.7l3-6.7 1.7 1.7v5z" fill="#fe3b1f"/></svg>