<svg version="1.1" id="Layer_1" xmlns="http://www.w3.org/2000/svg" x="0" y="0" viewBox="0 0 500 500" xml:space="preserve"><style>.st38{fill:#a6700e}.st39{fill:#c59936}</style><g id="XMLID_1_"><radialGradient id="XMLID_97_" cx="-5.6" cy=".133" r="1.577" gradientTransform="matrix(45.8101 0 0 -45.8101 326.7 286.115)" gradientUnits="userSpaceOnUse"><stop offset="0" stop-color="#e5b86d"/><stop offset="1" stop-color="#a6700e"/></radialGradient><path id="XMLID_3_" d="M70.9 243.7c0 6.1.9 11.9 4.1 16.6v-4.1c0-5.1 4.1-8.8 8.2-11-4.2 1.4-8.8.5-12.3-1.5z" fill="url(#XMLID_97_)"/><radialGradient id="XMLID_98_" cx="-5.626" cy=".136" r="1.577" gradientTransform="matrix(45.5864 0 0 -45.5864 326.81 285.968)" gradientUnits="userSpaceOnUse"><stop offset="0" stop-color="#e5b86d"/><stop offset="1" stop-color="#a6700e"/></radialGradient><path id="XMLID_6_" d="M78.7 234.9c-1.4 0-2.6 1-3.8 2-1.5 1.2-2.9 2.4-4.8 1.8 1.2.9 2.7 1.1 4.5 1l.4.2h.8c1.3-.3 2.8-1.9 4.3-1.9 2.9-.4 6.6-.9 8.7 1.7l-1-2c-2.7-.1-5-1.2-7.4-2.4-.5-.2-1-.3-1.4-.3l-.3-.1zm-2.8 3.3l-1.3 1.2h-1.3c-.3-.7 2-2.2 2.6-1.2" fill="url(#XMLID_98_)"/><radialGradient id="XMLID_99_" cx="-5.627" cy=".136" r="1.577" gradientTransform="matrix(45.584 0 0 -45.584 326.7 285.968)" gradientUnits="userSpaceOnUse"><stop offset="0" stop-color="#e5b86d"/><stop offset="1" stop-color="#a6700e"/></radialGradient><path id="XMLID_7_" d="M67.5 228.7c1.4.4 2.8.7 4.3.9 2.9-1.3 3.7-3.7 2.5-6.8-1.6-2.5-4.1-3.9-6.8-4.6v10.5z" fill="url(#XMLID_99_)"/><radialGradient id="XMLID_100_" cx="-5.627" cy=".136" r="1.577" gradientTransform="matrix(45.5799 0 0 -45.5799 326.773 285.968)" gradientUnits="userSpaceOnUse"><stop offset="0" stop-color="#e5b86d"/><stop offset="1" stop-color="#a6700e"/></radialGradient><path id="XMLID_8_" d="M81.7 253.2c-4.7 9.7 1.9 23.1-4.8 31.4h10.6c.5-.4.9-.9 1.4-1.5 7.8-10.2-7.5-16.2-7.2-26 .4-3.9 2.5-6.9 5.2-10.1l-.3-.3c-2.5 2.4-3.5 4.1-4.9 6.5" fill="url(#XMLID_100_)"/><radialGradient id="XMLID_101_" cx="-5.628" cy=".136" r="1.577" gradientTransform="matrix(45.5756 0 0 -45.5756 326.736 285.93)" gradientUnits="userSpaceOnUse"><stop offset="0" stop-color="#e5b86d"/><stop offset="1" stop-color="#a6700e"/></radialGradient><path id="XMLID_9_" d="M102.2 215.2c10.4 8 17.1 20.6 17.2 34.7 0 14.2-6.7 26.7-17.2 34.7H137v-69.5h-34.8z" fill="url(#XMLID_101_)"/><radialGradient id="XMLID_102_" cx="-5.618" cy=".136" r="1.577" gradientTransform="matrix(45.654 0 0 -45.654 326.736 285.93)" gradientUnits="userSpaceOnUse"><stop offset="0" stop-color="#e5b86d"/><stop offset="1" stop-color="#a6700e"/></radialGradient><path id="XMLID_10_" d="M67.5 256.1v28.6h6l1.5-1.2c8.1-11.1-1.6-18.8-7.5-27.4z" fill="url(#XMLID_102_)"/><radialGradient id="XMLID_103_" cx="-5.627" cy=".136" r="1.577" gradientTransform="matrix(45.5762 0 0 -45.5762 326.773 285.93)" gradientUnits="userSpaceOnUse"><stop offset="0" stop-color="#e5b86d"/><stop offset="1" stop-color="#a6700e"/></radialGradient><path id="XMLID_11_" d="M67.5 215.2v1.1c1.7.3 3.3.7 4.7 1.4 3.3 2 5.9 5.2 5.6 9.1l7.5-.7c1-2.4 1.4-6.2.5-8.1-.6-1.2-1.1-2.1-1.8-2.9H67.5z" fill="url(#XMLID_103_)"/><radialGradient id="XMLID_104_" cx="-5.669" cy=".141" r="1.577" gradientTransform="matrix(45.2413 0 0 -45.2413 326.773 285.635)" gradientUnits="userSpaceOnUse"><stop offset="0" stop-color="#e5b86d"/><stop offset="1" stop-color="#a6700e"/></radialGradient><path id="XMLID_12_" d="M87.3 215.2c1.5 2.1 1.6 4.8 1.8 7.2 2.9-2.2 6.5-3.5 10.3-2.5-2.6-2-4.3-3.5-7.4-4.7h-4.7z" fill="url(#XMLID_104_)"/><radialGradient id="XMLID_105_" cx="-5.633" cy=".137" r="1.577" gradientTransform="matrix(45.5287 0 0 -45.5287 326.773 285.93)" gradientUnits="userSpaceOnUse"><stop offset="0" stop-color="#e5b86d"/><stop offset="1" stop-color="#a6700e"/></radialGradient><path id="XMLID_16_" d="M93.7 251.8c-2.2.6-4.3-.8-6.5-1.2 0-.3-.1-.6.1-.8-3.2 2-2.3 5.8-2.9 8.9.8 3.4 4.4 4.7 6.9 6.7 3.7.7 7.1-1 10.3-2.2.5.5 1.3 1 .9 1.8-2.5 3.5-6.3 5.1-10.6 4.7 2.6 4.9.8 10.6-1.9 15h2.6c7.7-3.6 15.1-8.9 15.7-19.3.8-6.5.3-13.3-4.4-17.9h-1c-.8 0-1.6.1-2.2-.7-2.1 2-4.9 2.8-7 5m1.4 0c1.4-1.5 5.2-4.3 6.5-3.3.3.3.5 1.2.4 2.1l-.7 1.6-.7-2c-1.8.4-3.6 1.1-4.5 2.9-.1.5.1 1.6-.4 2-1.2-.3-.5-2.3-.6-3.3m6.2 7.3c1.4 5.1-4.6 4.2-7.2 5.6-1-.8-.5-2.1-.7-3.1l.7-.7c.7 2 1.9 1.2 3.2.5.8-.4 1.6-.9 2.4-.7 1-.4.6-1.8 1.6-1.6" fill="url(#XMLID_105_)"/><radialGradient id="XMLID_106_" cx="-5.632" cy=".136" r="1.577" gradientTransform="matrix(45.5436 0 0 -45.5436 326.736 285.968)" gradientUnits="userSpaceOnUse"><stop offset="0" stop-color="#e5b86d"/><stop offset="1" stop-color="#a6700e"/></radialGradient><path id="XMLID_17_" d="M96.1 221.7c-3.4.2-6.7 2.7-8 4.7 2.4 1.3 5 3.3 7.2 5.4-.1.8.4 1.8-.7 2.2-1.2-.9-2.2-3.3-3.7-2.5 1.2 2.5 4.3 2.7 6.8 3.4.9.9.7 2.5 2.6 1.8.9.3 1.3 1.3 1.6 2.2-1 1.9-3.3 1.7-5.4 1.6-1-.1-2.1-.2-2.8 0 2 .8 4.2 1 6 2.2 1.8 1.2 2.4-1.6 3.1-2.5 3.1.8 1.4 4 2.7 5.9 6.7 6.9 5.4 19.1 2 27.1 9.1-8.4 8.4-27 6.3-34.5-2.1-7.3-8.5-17-17.1-17h-.6" fill="url(#XMLID_106_)"/><radialGradient id="XMLID_107_" cx="-4.693" cy=".75" r="1.577" gradientTransform="matrix(45.9745 0 0 -45.9745 397.416 236.94)" gradientUnits="userSpaceOnUse"><stop offset="0" stop-color="#e5b86d"/><stop offset=".258" stop-color="#e5b86d"/><stop offset="1" stop-color="#a6700e"/></radialGradient><path id="XMLID_23_" d="M102.2 215.2c5.4 4.1 9.8 9.5 12.8 15.7 6.9 3.2 14.2 7.5 22 12.9v-28.5h-34.8zm-14.9 0c1.5 2.1 1.6 4.8 1.8 7.2 2.9-2.2 6.5-3.5 10.3-2.5-2.6-2-4.3-3.5-7.4-4.7h-4.7zm-19.8 0v1.1c1.7.3 3.3.7 4.7 1.4 2.2 1.3 4.1 3.2 5 5.5 2.9-.3 5.8-.4 8.9-.2.3-1.8.2-3.7-.3-4.9-.6-1.2-1.1-2.1-1.8-2.9H67.5zm0 9.9c2.3-.7 4.6-1.2 7-1.6-.1-.2-.1-.5-.2-.7-1.6-2.5-4.1-4-6.8-4.6v6.9zm28.6-3.4c-1.8.1-3.5.8-4.9 1.7 5.3.8 11 2.2 17 4.5-3-3.6-6.9-6.3-11.4-6.3-.3.1-.5.1-.7.1" fill="url(#XMLID_107_)"/><radialGradient id="XMLID_108_" cx="-2.688" cy="-.069" r="1.577" gradientTransform="matrix(81.5363 0 0 -81.5363 391.504 306.473)" gradientUnits="userSpaceOnUse"><stop offset="0" stop-color="#e5b86d"/><stop offset="1" stop-color="#a6700e"/></radialGradient><path id="XMLID_28_" d="M114.6 269.8c-3 5.8-7.2 10.9-12.4 14.8H137v-48.2c-5.2 12.4-12.2 25.5-22.4 33.4m-47.1 14.9h6l1.5-1.2c2.3-3.2 3.2-6 3.1-8.8-3.3-1.2-6.8-2.7-10.5-4.7v14.7zm25.4-7.3c-.5 2.6-1.6 5.1-3 7.2h2.6c4.8-2.2 9.4-5.1 12.4-9.3-3.6 1.4-7.6 2.1-12 2.1m-16.1 7.3h10.6c.5-.4.9-.9 1.4-1.5 1.6-2.1 2.2-4 2.2-5.8-3.4-.2-7.1-.8-11-2.1-.2 3.5-1 6.7-3.2 9.4" fill="url(#XMLID_108_)"/><linearGradient id="XMLID_110_" gradientUnits="userSpaceOnUse" x1="-938.524" y1="63.903" x2="-936.947" y2="63.903" gradientTransform="matrix(.2668 0 0 -.2668 337.28 267.139)"><stop offset="0" stop-color="#e5b86d"/><stop offset="1" stop-color="#a6700e"/></linearGradient><path id="XMLID_29_" d="M86.9 250.1v.1l.3.1c0-.2 0-.4.1-.5l-.4.3z" fill="url(#XMLID_110_)"/><linearGradient id="XMLID_111_" gradientUnits="userSpaceOnUse" x1="-59.45" y1="3.182" x2="-57.873" y2="3.182" gradientTransform="matrix(4.1653 0 0 -4.1653 342.121 273.725)"><stop offset="0" stop-color="#e5b86d"/><stop offset="1" stop-color="#a6700e"/></linearGradient><path id="XMLID_30_" d="M99.4 260.3c-.8-.1-1.6.3-2.4.7-.9.5-1.8 1-2.5.6.7 1 1.7.4 2.8-.3.8-.4 1.6-.9 2.4-.7.8-.4.6-1.6 1.3-1.6l-.1-.3h-.2c-.7 0-.4 1.3-1.3 1.6" fill="url(#XMLID_111_)"/><linearGradient id="XMLID_112_" gradientUnits="userSpaceOnUse" x1="-2053.124" y1="140.852" x2="-2051.548" y2="140.852" gradientTransform="matrix(.1219 0 0 -.1219 337.546 266.933)"><stop offset="0" stop-color="#e5b86d"/><stop offset="1" stop-color="#a6700e"/></linearGradient><path id="XMLID_31_" d="M87.3 249.8l.2-.1-.2.1z" fill="url(#XMLID_112_)"/><linearGradient id="XMLID_116_" gradientUnits="userSpaceOnUse" x1="-446.517" y1="22.515" x2="-444.941" y2="22.515" gradientTransform="matrix(.5557 0 0 -.5557 341.25 275.01)"><stop offset="0" stop-color="#e5b86d"/><stop offset="1" stop-color="#a6700e"/></linearGradient><path id="XMLID_32_" d="M93.8 260.6l-.7.7c.1 1-.4 2.4.7 3.1-.6-.8-.2-1.9-.3-2.8l.5-.5c-.1-.1-.1-.3-.2-.5z" fill="url(#XMLID_116_)"/><linearGradient id="XMLID_117_" gradientUnits="userSpaceOnUse" x1="-57.538" y1="3.859" x2="-55.961" y2="3.859" gradientTransform="matrix(4.3028 0 0 -4.3028 342.219 267.915)"><stop offset="0" stop-color="#e5b86d"/><stop offset="1" stop-color="#a6700e"/></linearGradient><path id="XMLID_33_" d="M94.7 251.5c.1 1-.4 2.8.4 3.2-.3-.6 0-2.1-.1-2.9 1.3-1.4 5-4.2 6.4-3.3-.2-.3-.5-.5-1-.5-1.6 0-4.5 2.2-5.7 3.5" fill="url(#XMLID_117_)"/><linearGradient id="XMLID_118_" gradientUnits="userSpaceOnUse" x1="-578.919" y1="39.358" x2="-577.342" y2="39.358" gradientTransform="matrix(.424 0 0 -.424 345.85 267.766)"><stop offset="0" stop-color="#e5b86d"/><stop offset="1" stop-color="#a6700e"/></linearGradient><path id="XMLID_34_" fill="url(#XMLID_118_)" d="M100.4 250.3l.5 1.7.1-.4-.4-1.4z"/><linearGradient id="XMLID_119_" gradientUnits="userSpaceOnUse" x1="-271.845" y1="25.626" x2="-270.268" y2="25.626" gradientTransform="matrix(.9133 0 0 -.9133 340.98 256.12)"><stop offset="0" stop-color="#e5b86d"/><stop offset="1" stop-color="#a6700e"/></linearGradient><path id="XMLID_35_" d="M92.7 231.9c.5.5 1 1.2 1.4 1.6-.4-.5-.9-1.1-1.4-1.6z" fill="url(#XMLID_119_)"/><linearGradient id="XMLID_120_" gradientUnits="userSpaceOnUse" x1="-174.447" y1="15.551" x2="-172.871" y2="15.551" gradientTransform="matrix(1.4107 0 0 -1.4107 344.79 258.663)"><stop offset="0" stop-color="#e5b86d"/><stop offset="1" stop-color="#a6700e"/></linearGradient><path id="XMLID_36_" d="M98.7 236.4c.3.4.7.7 1.7.3.2.1.4.2.5.3-.2-.3-.5-.5-.9-.6-.6.2-1 .2-1.3 0" fill="url(#XMLID_120_)"/><linearGradient id="XMLID_121_" gradientUnits="userSpaceOnUse" x1="-57.558" y1="5.71" x2="-55.982" y2="5.71" gradientTransform="matrix(4.3427 0 0 -4.3427 338.081 253.702)"><stop offset="0" stop-color="#e5b86d"/><stop offset="1" stop-color="#a6700e"/></linearGradient><path id="XMLID_37_" d="M88.1 226.4c2.2 1.2 4.7 3.1 6.8 5-2.1-2-4.5-3.8-6.8-5.1v.1z" fill="url(#XMLID_121_)"/><linearGradient id="XMLID_122_" gradientUnits="userSpaceOnUse" x1="-44.685" y1="3.155" x2="-43.109" y2="3.155" gradientTransform="matrix(5.4419 0 0 -5.4419 349.845 266.933)"><stop offset="0" stop-color="#e5b86d"/><stop offset="1" stop-color="#a6700e"/></linearGradient><path id="XMLID_38_" d="M106.7 226.3c3.3 3.4 5.7 8.1 6.9 12.1 2.1 7.3 2.8 25-5.5 33.7-.1.4-.3.8-.4 1.1 9.1-8.4 8.4-27 6.3-34.5-1.3-4.1-3.8-8.9-7.3-12.4z" fill="url(#XMLID_122_)"/><linearGradient id="XMLID_123_" gradientUnits="userSpaceOnUse" x1="-24.686" y1="1.196" x2="-23.11" y2="1.196" gradientTransform="matrix(10.1587 0 0 -10.1587 336.657 275.647)"><stop offset="0" stop-color="#e5b86d"/><stop offset="1" stop-color="#a6700e"/></linearGradient><path id="XMLID_39_" d="M85.9 261.5c1.5 1.6 3.7 2.6 5.4 3.9 3.7.7 7.1-1 10.3-2.2l.3.3-.6-.6c-3.3 1.2-6.7 2.9-10.3 2.2-1.6-1.3-3.6-2.2-5.1-3.6z" fill="url(#XMLID_123_)"/><linearGradient id="XMLID_124_" gradientUnits="userSpaceOnUse" x1="-64.401" y1="5.969" x2="-62.825" y2="5.969" gradientTransform="matrix(3.8613 0 0 -3.8613 340.304 256.74)"><stop offset="0" stop-color="#e5b86d"/><stop offset="1" stop-color="#a6700e"/></linearGradient><path id="XMLID_40_" d="M91.6 232.5c1.4 1.6 4 1.9 6.1 2.4l-.3-.3c-.8-.2-1.8-.4-2.7-.6l-.1.1-.2-.1c-1-.4-2-.8-2.8-1.5z" fill="url(#XMLID_124_)"/><linearGradient id="XMLID_125_" gradientUnits="userSpaceOnUse" x1="-46.847" y1="2.953" x2="-45.271" y2="2.953" gradientTransform="matrix(5.4413 0 0 -5.4413 329.488 268.841)"><stop offset="0" stop-color="#e5b86d"/><stop offset="1" stop-color="#a6700e"/></linearGradient><path id="XMLID_41_" d="M81.5 245.7c-3.7 2.3-7 5.7-7 10.2v3.9l.3.5v-4.1c0-5.1 4.1-8.8 8.2-11-.4.2-.9.4-1.5.5" fill="url(#XMLID_125_)"/><linearGradient id="XMLID_126_" gradientUnits="userSpaceOnUse" x1="-326.92" y1="27.739" x2="-325.344" y2="27.739" gradientTransform="matrix(.7653 0 0 -.7653 337.672 259.894)"><stop offset="0" stop-color="#e5b86d"/><stop offset="1" stop-color="#a6700e"/></linearGradient><path id="XMLID_42_" fill="url(#XMLID_126_)" d="M87.5 237.7l.8 1.5.4.5-1-2-.2-.1z"/><linearGradient id="XMLID_127_" gradientUnits="userSpaceOnUse" x1="-28.252" y1="1.259" x2="-26.675" y2="1.259" gradientTransform="matrix(8.9936 0 0 -8.9936 330.924 277.068)"><stop offset="0" stop-color="#e5b86d"/><stop offset="1" stop-color="#a6700e"/></linearGradient><path id="XMLID_43_" d="M85.7 247.6c-2.4 2.9-4.1 5.6-4.5 9.2-.3 9.8 15 15.8 7.2 26-.4.6-.9 1-1.3 1.5h-10l-.3.3h10.6c.5-.4.9-.9 1.4-1.5 7.8-10.2-7.5-16.2-7.2-26 .4-3.9 2.5-6.9 5.2-10.1l-.3-.3c-.2.4-.5.7-.8.9" fill="url(#XMLID_127_)"/><linearGradient id="XMLID_128_" gradientUnits="userSpaceOnUse" x1="-47.473" y1="5.18" x2="-45.897" y2="5.18" gradientTransform="matrix(5.3448 0 0 -5.3448 331.53 248.692)"><stop offset="0" stop-color="#e5b86d"/><stop offset="1" stop-color="#a6700e"/></linearGradient><path id="XMLID_44_" d="M83.9 215.2c.5.7 1 1.5 1.5 2.5.9 1.9.5 5.7-.5 8.1l-7.1.6v.4l7.5-.7c1-2.4 1.4-6.2.5-8.1-.6-1.2-1.2-2.1-1.9-2.8z" fill="url(#XMLID_128_)"/><linearGradient id="XMLID_129_" gradientUnits="userSpaceOnUse" x1="-38.537" y1="1.442" x2="-36.961" y2="1.442" gradientTransform="matrix(6.6818 0 0 -6.6818 325.004 280)"><stop offset="0" stop-color="#e5b86d"/><stop offset="1" stop-color="#a6700e"/></linearGradient><path id="XMLID_45_" d="M67.5 256.1v.1c5.9 8.5 15.1 16.1 7.1 26.9l-1.5 1.2h-5.6v.3h6l1.5-1.2c8.1-11-1.6-18.7-7.5-27.3z" fill="url(#XMLID_129_)"/><linearGradient id="XMLID_131_" gradientUnits="userSpaceOnUse" x1="-21.17" y1=".952" x2="-19.594" y2=".952" gradientTransform="matrix(11.7748 0 0 -11.7748 339.264 277.275)"><stop offset="0" stop-color="#e5b86d"/><stop offset="1" stop-color="#a6700e"/></linearGradient><path id="XMLID_46_" d="M103.8 247.5c4.4 4.6 4.9 11.2 4.1 17.6-.5 10.3-7.9 15.7-15.7 19.3h-2l-.2.3h2.6c7.7-3.6 15.1-8.9 15.7-19.3.7-6.5.2-13.3-4.5-17.9z" fill="url(#XMLID_131_)"/><linearGradient id="XMLID_132_" gradientUnits="userSpaceOnUse" x1="-11.107" y1=".776" x2="-9.53" y2=".776" gradientTransform="matrix(22.04 0 0 -22.04 347.027 267.032)"><stop offset="0" stop-color="#e5b86d"/><stop offset="1" stop-color="#a6700e"/></linearGradient><path id="XMLID_47_" fill="url(#XMLID_132_)" d="M136.6 215.2v69.1h-33.9l-.5.4H137v-69.5z"/><linearGradient id="XMLID_133_" gradientUnits="userSpaceOnUse" x1="-55.787" y1="5.662" x2="-54.21" y2="5.662" gradientTransform="matrix(4.6158 0 0 -4.6158 325.004 251.383)"><stop offset="0" stop-color="#e5b86d"/><stop offset="1" stop-color="#a6700e"/></linearGradient><path id="XMLID_48_" d="M73.9 222.4c1.2 3.1.4 5.5-2.5 6.8-1.3-.2-2.6-.4-3.9-.8v.3c1.4.4 2.8.7 4.3.9 2.9-1.3 3.7-3.7 2.5-6.8-.4-.7-1-1.3-1.5-1.8.4.4.8.9 1.1 1.4" fill="url(#XMLID_133_)"/><linearGradient id="XMLID_137_" gradientUnits="userSpaceOnUse" x1="-22.483" y1="1.864" x2="-20.907" y2="1.864" gradientTransform="matrix(11.4107 0 0 -11.4107 326.644 259.823)"><stop offset="0" stop-color="#e5b86d"/><stop offset="1" stop-color="#a6700e"/></linearGradient><path id="XMLID_49_" d="M79.7 237.6c-1.9 0-3.8 2.5-5.3 1.8h-1.1v-.1c-1 0-2-.2-2.8-.6l-.4-.1c1.2.9 2.7 1.1 4.5 1l.4.2h.8c1.3-.3 2.8-1.9 4.3-1.9 2.6-.4 5.9-.8 8 1.1-1.3-1.4-3.1-1.8-4.9-1.8-1.2.1-2.5.2-3.5.4" fill="url(#XMLID_137_)"/><linearGradient id="XMLID_138_" gradientUnits="userSpaceOnUse" x1="-89.56" y1="10.655" x2="-87.983" y2="10.655" gradientTransform="matrix(2.7333 0 0 -2.7333 347.03 246.201)"><stop offset="0" stop-color="#e5b86d"/><stop offset="1" stop-color="#a6700e"/></linearGradient><path id="XMLID_50_" d="M102.2 215.2c1.5 1.2 3 2.4 4.3 3.8-1.3-1.4-2.7-2.6-4.3-3.8z" fill="url(#XMLID_138_)"/><linearGradient id="XMLID_139_" gradientUnits="userSpaceOnUse" x1="-38.022" y1="3.096" x2="-36.445" y2="3.096" gradientTransform="matrix(6.52 0 0 -6.52 341.648 261.697)"><stop offset="0" stop-color="#e5b86d"/><stop offset="1" stop-color="#a6700e"/></linearGradient><path id="XMLID_51_" d="M99.4 242.4c-1.6-1-3.5-1.4-5.3-1.9l-.4.1c2 .8 4.2 1 6 2.2 1.8 1.2 2.4-1.6 3.1-2.5.5.1.8.3 1.1.5-.3-.4-.8-.7-1.5-.9-.6 1-1.2 3.7-3 2.5" fill="url(#XMLID_139_)"/><linearGradient id="XMLID_140_" gradientUnits="userSpaceOnUse" x1="-37.939" y1="4.22" x2="-36.362" y2="4.22" gradientTransform="matrix(6.58 0 0 -6.58 338.632 248.553)"><stop offset="0" stop-color="#e5b86d"/><stop offset="1" stop-color="#a6700e"/></linearGradient><path id="XMLID_52_" d="M89 221.8v.6c2.9-2.2 6.5-3.5 10.3-2.5l-.5-.4c-.9-.2-1.7-.3-2.5-.3-2.7 0-5.2 1.1-7.3 2.6" fill="url(#XMLID_140_)"/><linearGradient id="XMLID_145_" gradientUnits="userSpaceOnUse" x1="-155.135" y1="12.976" x2="-153.558" y2="12.976" gradientTransform="matrix(1.6472 0 0 -1.6472 328.413 259.643)"><stop offset="0" stop-color="#e5b86d"/><stop offset="1" stop-color="#a6700e"/></linearGradient><path id="XMLID_53_" d="M72.9 239h.4c.3-.6 1.4-1.3 2.1-1.1l.1-.1c-.1-.2-.4-.3-.7-.3-.9 0-2.1 1-1.9 1.5" fill="url(#XMLID_145_)"/><linearGradient id="XMLID_146_" gradientUnits="userSpaceOnUse" x1="-56.271" y1="6.304" x2="-54.695" y2="6.304" gradientTransform="matrix(4.576 0 0 -4.576 325.004 246.678)"><stop offset="0" stop-color="#e5b86d"/><stop offset="1" stop-color="#a6700e"/></linearGradient><path id="XMLID_54_" d="M67.5 216.3c1.7.3 3.3.7 4.7 1.4.9.5 1.8 1.2 2.5 1.9-.8-.9-1.8-1.7-2.9-2.3-1.3-.6-2.8-1-4.3-1.3v.3z" fill="url(#XMLID_146_)"/><path id="XMLID_55_" class="st38" d="M173.9 261.2h-4.7v-17.3l-7.1 12.8h-2.8l-7.1-12.8v17.3h-4.8v-26.1h4.8l8.5 15.1 8.5-15.1h4.7z"/><path id="XMLID_56_" class="st38" d="M202.5 260.5c-3 .8-5.9 1.1-8.5 1.1-4.4 0-8-1.3-10.7-3.9-2.6-2.5-4-5.7-4-9.5 0-4 1.4-7.2 4.1-9.7 2.7-2.5 6.2-3.8 10.5-3.8 2.5 0 5 .3 7.4.9l-.7 4.2c-2.5-.4-4.6-.6-6.2-.6-3.3 0-5.8.8-7.5 2.4-1.7 1.6-2.6 3.8-2.6 6.7 0 2.7.8 4.8 2.5 6.5 1.7 1.7 3.9 2.5 6.8 2.5 1.4 0 2.8-.1 4.3-.3v-8.7h4.7v12.2z"/><path id="XMLID_57_" class="st38" d="M235.4 261.2h-4.8v-17.3l-7.1 12.8h-2.8l-7.1-12.8v17.3h-4.8v-26.1h4.8l8.5 15.1 8.5-15.1h4.8z"/><path id="XMLID_60_" class="st38" d="M268.9 243.2c0-1.2-.4-2.2-1.2-2.9-.8-.8-1.8-1.1-3-1.1H257v8.2h7.7c1.2 0 2.2-.4 3-1.2.8-.7 1.2-1.7 1.2-3m7.9 18h-6.2l-7.2-9.9H257v9.9h-5v-26.1h13.6c2.5 0 4.5.8 6.1 2.4 1.5 1.6 2.3 3.5 2.3 5.7 0 1.6-.5 3.1-1.4 4.5-.9 1.3-2.2 2.3-3.7 2.9l7.9 10.6z"/><path id="XMLID_61_" class="st38" d="M299.7 261.2h-18.8v-26.1h18.8v4.3h-13.8v6.1h12.9v4.3h-12.9v7.1h13.8z"/><path id="XMLID_62_" class="st38" d="M325.5 254c0 2.3-1 4.1-3 5.5-2 1.4-4.6 2.1-7.8 2.1-4 0-7.6-.7-10.8-2.2l1.1-3.9c3.5 1.2 6.7 1.8 9.6 1.8 3.9 0 5.8-1.1 5.8-3.2 0-.9-.5-1.6-1.4-2.1-.7-.4-2.5-1.2-5.3-2.2-3.4-1.3-5.7-2.4-6.8-3.4-1.4-1.2-2.1-2.8-2.1-4.9 0-4.6 3.5-6.9 10.4-6.9 3.4 0 6.5.4 9.4 1.3l-.7 4c-2.9-.7-5.8-1-8.6-1-2 0-3.5.2-4.3.5-.8.4-1.2 1-1.2 1.9 0 .9.5 1.7 1.5 2.3.7.4 2.7 1.2 5.8 2.5 3.3 1.3 5.4 2.3 6.4 3.1 1.4 1.2 2 2.8 2 4.8"/><path id="XMLID_65_" class="st38" d="M350 248.2c0-2.6-.7-4.8-2.2-6.5-1.5-1.7-3.4-2.5-5.9-2.5-2.5 0-4.4.8-5.9 2.5s-2.2 3.9-2.2 6.5.7 4.8 2.2 6.4c1.5 1.7 3.4 2.6 5.9 2.6 2.5 0 4.4-.9 5.9-2.6 1.5-1.7 2.2-3.8 2.2-6.4m5 0c0 3.7-1.3 6.9-3.8 9.5-2.5 2.6-5.6 3.9-9.3 3.9-3.7 0-6.8-1.3-9.3-3.9-2.5-2.6-3.8-5.8-3.8-9.5s1.3-6.9 3.8-9.5c2.5-2.6 5.6-3.9 9.3-3.9 3.7 0 6.8 1.3 9.3 3.9 2.6 2.5 3.8 5.7 3.8 9.5"/><path id="XMLID_68_" class="st38" d="M377.2 243.2c0-1.2-.4-2.2-1.2-2.9-.8-.8-1.8-1.1-3-1.1h-7.7v8.2h7.7c1.2 0 2.2-.4 3-1.2.8-.7 1.2-1.7 1.2-3m7.8 18h-6.2l-7.2-9.9h-6.4v9.9h-5v-26.1h13.6c2.5 0 4.5.8 6.1 2.4 1.5 1.6 2.3 3.5 2.3 5.7 0 1.6-.5 3.1-1.4 4.5-.9 1.3-2.2 2.3-3.7 2.9l7.9 10.6z"/><path id="XMLID_69_" class="st38" d="M408.3 239.4h-8.7v21.8h-5v-21.8h-8.7v-4.3h22.4z"/><path id="XMLID_70_" class="st38" d="M432.5 254c0 2.3-1 4.1-3 5.5-2 1.4-4.6 2.1-7.8 2.1-4 0-7.6-.7-10.8-2.2l1.1-3.9c3.5 1.2 6.7 1.8 9.6 1.8 3.9 0 5.8-1.1 5.8-3.2 0-.9-.5-1.6-1.4-2.1-.7-.4-2.5-1.2-5.3-2.2-3.4-1.3-5.6-2.4-6.8-3.4-1.4-1.2-2.1-2.8-2.1-4.9 0-4.6 3.5-6.9 10.4-6.9 3.4 0 6.5.4 9.4 1.3l-.7 4c-2.9-.7-5.8-1-8.6-1-2 0-3.5.2-4.3.5-.8.4-1.2 1-1.2 1.9 0 .9.5 1.7 1.5 2.3.7.4 2.7 1.2 5.8 2.5 3.3 1.3 5.4 2.3 6.4 3.1 1.4 1.2 2 2.8 2 4.8"/><path id="XMLID_71_" class="st39" d="M147.4 270.3h2.7v14.3h-2.7z"/><path id="XMLID_72_" class="st39" d="M166.7 284.6H164l-7.2-10v10h-2.6v-14.3h2.6l7.2 9.9v-9.9h2.7z"/><path id="XMLID_73_" class="st39" d="M181.2 272.6h-4.8v12h-2.7v-12h-4.8v-2.3h12.3z"/><path id="XMLID_74_" class="st39" d="M193.7 284.6h-10.3v-14.3h10.3v2.3h-7.5v3.4h7v2.4h-7v3.8h7.5z"/><path id="XMLID_77_" class="st39" d="M206.4 274.7c0-.7-.2-1.2-.7-1.6-.4-.4-1-.6-1.6-.6h-4.2v4.5h4.2c.7 0 1.2-.2 1.6-.6.5-.4.7-1 .7-1.7m4.3 9.9h-3.4l-3.9-5.4h-3.5v5.4h-2.8v-14.3h7.5c1.3 0 2.5.4 3.4 1.3.8.9 1.3 1.9 1.3 3.1 0 .9-.2 1.7-.8 2.5-.5.7-1.2 1.3-2 1.6l4.2 5.8z"/><path id="XMLID_78_" class="st39" d="M225.6 284.6h-2.7l-7.1-10v10h-2.7v-14.3h2.7l7.1 9.9v-9.9h2.7z"/><path id="XMLID_81_" class="st39" d="M236.8 279.3l-2.2-6.2-2.2 6.2h4.4zm4.6 5.3h-2.7l-1.2-3.2h-5.7l-1.2 3.2h-2.7l5.6-14.3h2.5l5.4 14.3z"/><path id="XMLID_82_" class="st39" d="M252.8 272.6h-4.7v12h-2.8v-12h-4.7v-2.3h12.2z"/><path id="XMLID_83_" class="st39" d="M255.1 270.3h2.8v14.3h-2.8z"/><path id="XMLID_86_" class="st39" d="M272.5 277.4c0-1.5-.4-2.6-1.2-3.6-.8-.9-1.9-1.4-3.2-1.4-1.3 0-2.4.5-3.2 1.4-.8.9-1.2 2.1-1.2 3.6 0 1.4.4 2.6 1.2 3.5.8.9 1.9 1.4 3.2 1.4 1.3 0 2.4-.5 3.2-1.4.8-.8 1.2-2 1.2-3.5m2.7 0c0 2-.7 3.8-2.1 5.2-1.4 1.4-3.1 2.2-5.1 2.2-2 0-3.7-.7-5.1-2.2-1.4-1.4-2.1-3.2-2.1-5.2s.7-3.8 2.1-5.2c1.4-1.4 3.1-2.2 5.1-2.2 2 0 3.7.7 5.1 2.2 1.5 1.4 2.1 3.2 2.1 5.2"/><path id="XMLID_87_" class="st39" d="M290.8 284.6h-2.7l-7.2-10v10h-2.7v-14.3h2.7l7.1 9.9v-9.9h2.8z"/><path id="XMLID_90_" class="st39" d="M301.9 279.3l-2.2-6.2-2.2 6.2h4.4zm4.7 5.3h-2.7l-1.2-3.2H297l-1.2 3.2H293l5.6-14.3h2.5l5.5 14.3z"/><path id="XMLID_91_" class="st39" d="M318.6 284.6h-9.8v-14.3h2.8v11.9h7z"/><path id="XMLID_96_" class="st39" d="M322.1 272.5h-1v1.1h1c.3 0 .6-.2.6-.5-.1-.4-.3-.6-.6-.6m.8 2.9l-1-1.3h-.8v1.3h-.7V272h1.8c.7 0 1.1.5 1.1 1.1 0 .4-.3.8-.7 1l1 1.4h-.7zm-1.1-4.8c-1.7 0-2.9 1.4-2.9 3s1.2 3 2.9 3 2.9-1.5 2.9-3-1.2-3-2.9-3m0 6.6c-2 0-3.4-1.6-3.4-3.5s1.5-3.5 3.4-3.5c2 0 3.4 1.6 3.4 3.5s-1.4 3.5-3.4 3.5"/></g></svg>