<svg version="1.1" id="Layer_1" xmlns="http://www.w3.org/2000/svg" x="0" y="0" viewBox="0 0 500 500" xml:space="preserve"><style>.st0{fill:#008acd}.st1{fill:#565c60}</style><g id="XMLID_1_"><path id="XMLID_3_" class="st0" d="M155.8 230.4l-21.2-33.1-67.1 104.9h23.9l43.2-67.6 21.2 33.3 21.1-33.3 43 67.6h23.9l-66.9-105z"/><path id="XMLID_4_" class="st1" d="M243.8 302.2l-45.7-71.7-11.9 18.7-9.3 14.6-9.2-14.6-11.9-18.7-11.9 18.7-33.8 53H134l21.8-34.3 21.2 33.4 21.2-33.3 21.7 34.2z"/><path id="XMLID_24_" class="st1" d="M430.8 281.9c-2.4-2.3-5.9-3.7-9.9-3.7-6.5 0-11.7 5.1-11.7 11.4 0 6.3 5.3 11.5 11.7 11.5 4.2 0 7.6-1.3 9.9-3.6v-15.6zm1.7-4.9v25.5h-1.7v-3.1c-2.5 2-6 3.3-10.1 3.3-7.4 0-13.3-5.9-13.3-13.1 0-7.2 5.9-13.1 13.3-13.1 3.9 0 7.7 1.3 10.1 3.4V277h1.7zm-35.5 1.6v15.8c0 4.8 2.3 6.7 5.6 6.7 2.1 0 3.4-.2 4.2-.5v1.6c-.9.2-2.4.6-4.5.6-3.9 0-7.1-2.5-7.1-7.4v-16.8h-4.7V277h4.7v-10.2h1.8V277h9.9v1.6H397zm-18.4 0v15.8c0 4.8 2.3 6.7 5.6 6.7 2.1 0 3.4-.2 4.2-.5v1.6c-.9.2-2.4.6-4.5.6-3.9 0-7.1-2.5-7.1-7.4v-16.8h-4.7V277h4.7v-10.2h1.8V277h9.9v1.6h-9.9zm-30.7 10.3h21.8c-.3-6.3-4.3-10.7-10.6-10.7-6.4 0-10.9 4.7-11.2 10.7zm23.5 1.5h-23.5c.4 6.3 5.4 10.7 11.3 10.7 3.8 0 7.5-1.4 9.8-4.3l1.3 1c-2.4 3-6.4 4.9-11.2 4.9-7.7 0-13-5.9-13-13.1 0-7.2 5.3-13.1 13-13.1 7.6 0 12.3 5.5 12.3 13.3v.6zM339.7 277h1.8v25.5h-1.8V277zm2.3-6.7c0 .8-.6 1.4-1.4 1.4-.8 0-1.4-.6-1.4-1.4 0-.8.6-1.4 1.4-1.4.7 0 1.4.6 1.4 1.4zm-19.3 12.9c1.5-3.9 4.5-6.5 8.7-6.6 1.4 0 2.9.3 4.4 1.1l-.4 1.7c-1.5-.7-2.9-.9-4.1-.9-5.1 0-8.5 4.7-8.5 10.8v13.4H321V277h1.7v6.2zm-8.7-1.3c-2.4-2.3-5.9-3.7-9.9-3.7-6.5 0-11.7 5.1-11.7 11.4 0 6.3 5.3 11.5 11.7 11.5 4.2 0 7.6-1.3 9.9-3.6v-15.6zm1.6-4.9v25.5H314v-3.1c-2.5 2-6 3.3-10.1 3.3-7.4 0-13.3-5.9-13.3-13.1 0-7.2 5.9-13.1 13.3-13.1 3.9 0 7.7 1.3 10.1 3.4V277h1.6zm-28.2-7.8v33.4h-1.8v-29.3L271.2 297l-14.4-23.7v29.3H255v-33.4h1.2l15 24.5 15-24.5h1.2zm107.2-21.8v14.4H388v-14.4c0-4-1.9-5.9-5.6-5.9-2.3 0-4.2.8-5.7 2v18.2h-6.6V236h6.6v1.6c1.9-1.3 4.3-2.1 6.9-2.1 7.6.1 11 3.6 11 11.9zM360.3 236h6.6v25.7h-6.6V236zm-9.7 5.5v9.1c0 4.6.8 5.9 4.1 5.9 1.1 0 2.1-.1 3-.2v4.9c-.3.1-2.3.9-6 .9-4.3 0-7.8-2.7-7.8-8.1v-12.6h-3.6V236h3.6v-10h6.6v10h7.2v5.4h-7.1zm-22.3-1.9c1.8-2.4 4.5-4 8.1-4.1.5 0 1.1.1 1.6.3v7.2s-1.8-.4-3.2-.4c-4.7 0-6.5 3.4-6.5 6.7v12.4h-6.6V236h6.6v3.6zm-16.3 4.1c-1.6-1.4-3.9-2.2-6.3-2.2-4.7 0-7.6 3.5-7.6 7.3 0 3.9 3 7.4 7.6 7.4 2.5 0 4.7-.8 6.3-2.2v-10.3zm6.6-7.7v25.7H312v-1.9c-2.1 1.4-4.7 2.3-7.5 2.3-8.1 0-12.8-6.5-12.8-13.3 0-6.9 4.7-13.3 12.8-13.3 2.7 0 5.4.9 7.5 2.1V236h6.6zm-29.4-7.6v33.4h-6.8v-18.5L272 257.8l-10.4-14.5v18.5h-6.8v-33.4h3.3l13.8 19.1 13.8-19.1h3.5z"/><path id="XMLID_25_" class="st0" d="M363.6 222.9l-3.3 5.2 3.3 5.1 3.3-5.1z"/></g></svg>