<svg version="1.1" id="Layer_1" xmlns="http://www.w3.org/2000/svg" x="0" y="0" viewBox="0 0 500 500" xml:space="preserve"><style>.st0{fill:#0969b2}.st1{fill:#0868b2}</style><g id="XMLID_1_"><path id="XMLID_5_" class="st0" d="M223.8 256.6c-4.1 0-7.5-3.3-7.5-7.5 0-4.1 3.3-7.5 7.5-7.5 4.1 0 7.5 3.3 7.5 7.5s-3.4 7.5-7.5 7.5m-.6-27.4h-1c-2.2.1-4.7.4-7.3.9h-12.6V289l15.4.2v-19.8c2.3.7 4.4 1 6.5 1 11.7 0 18.9-10.3 19.4-20.6.6-10.3-5.5-20.6-20.4-20.6"/><path id="XMLID_13_" class="st0" d="M269.8 257c-4.1 0-7.5-3.4-7.5-7.5s3.3-7.5 7.5-7.5c4.1 0 7.5 3.3 7.5 7.5 0 4.1-3.4 7.5-7.5 7.5m-.3-28.3h-.2c-26.9.2-26.6 41.7 0 41.7 2.6 0 5.5-.4 8.7-1.3h13.3v-38.7h-11.8c-3.6-1.2-7-1.7-10-1.7m48.6-.3c-2.5 0-5.2.4-7.7 1.1l-12.5.8v38.3h15v-19.1c-.1-4.8 2.9-7 6-7 3.3 0 6.7 2.5 6.5 7v19.1h15v-21.7c-1.5-11.4-11.2-18.4-22.3-18.5m93.1 29c-4.1 0-7.5-3.3-7.5-7.5 0-4.1 3.3-7.5 7.5-7.5 4.1 0 7.5 3.3 7.5 7.5 0 4.1-3.4 7.5-7.5 7.5m1.3-29.3c-13.7 0-21.6 10.6-22.3 21.2-.7 10.6 5.8 21.2 21 21.2 2.8 0 5.8-.4 9.1-1.1l12.2.5-.4-40.7-11.3.2c-2.9-.9-5.7-1.3-8.3-1.3m-47 29.3c-4.1 0-7.5-3.3-7.5-7.5 0-4.1 3.3-7.5 7.5-7.5 4.1 0 7.5 3.3 7.5 7.5 0 4.1-3.4 7.5-7.5 7.5m20.9-48.2h-15v20c-1.9-.3-3.7-.5-5.4-.5-13.5 0-21.1 10.3-21.8 20.5-.7 10.3 5.4 20.5 19.2 20.5 2.8 0 6-.4 9.5-1.4h13.5v-59.1"/><circle id="XMLID_14_" class="st1" cx="81.9" cy="213.6" r="14.4"/><path id="XMLID_15_" d="M124 199.2c-27.8 0-50.2 22.5-50.2 50.2v.5h28.8v-.9c0-11.9 9.6-21.6 21.5-21.7l-.1-28.1z" fill="#7bb1e0"/><circle id="XMLID_16_" class="st1" cx="167.1" cy="214" r="14.4"/><path id="XMLID_17_" d="M124.1 199.2c27.8 0 50.2 22.5 50.2 50.2v.5h-28.8v-.9c0-11.9-9.6-21.6-21.5-21.7l.1-28.1z" fill="#5588c7"/><path id="XMLID_19_" d="M124 300.8c-27.8 0-50.2-22.5-50.2-50.2v-.5h28.8v.9c0 11.9 9.6 21.6 21.5 21.7l-.1 28.1z" fill="#272a67"/><path id="XMLID_20_" class="st1" d="M124.1 300.8c27.8 0 50.2-22.5 50.2-50.2v-.5h-28.8v.9c0 11.9-9.6 21.6-21.5 21.7l.1 28.1z"/></g></svg>