<svg version="1.1" id="Layer_1" xmlns="http://www.w3.org/2000/svg" x="0" y="0" viewBox="0 0 500 500" xml:space="preserve"><style>.st1{fill:#df8c42}</style><g id="XMLID_1_"><path id="XMLID_3_" d="M104.8 285.7c20.6 0 37.3-16.7 37.3-37.3 0-20.6-16.7-37.3-37.3-37.3-20.6 0-37.3 16.7-37.3 37.3 0 20.6 16.7 37.3 37.3 37.3z" fill="#fafdff"/><path id="XMLID_17_" class="st1" d="M295.6 280.5c0 2.8 2.6 3.1 4.7 3.3 1.5.2 2.8.3 2.8 1.4 0 1-1 1.6-2.7 1.6-1 0-2-.4-2.8-1-.4-.3-.6-.4-1-.1l-.8.8c-.4.4-.3.5.1.9.9.8 2.4 1.6 4.4 1.6 2.5 0 5.2-1.3 5.2-3.9 0-2.8-2.6-3.1-4.7-3.4-1.5-.2-2.8-.3-2.8-1.3 0-.7.6-1.5 2.3-1.5 1.1 0 2 .3 2.8 1 .2.2.5.2.7 0 .3-.3.7-.6 1-.8.2-.2.2-.4 0-.6-1.1-1-2.6-1.5-4.4-1.5-2.7 0-4.8 1.5-4.8 3.5zm22.6-3.3h-1.5c-.3 0-.5.2-.5.5v3.9c0 .2-.1.3-.3.3h-4.7c-.2 0-.4-.2-.4-.3v-3.9c0-.3-.2-.5-.5-.5h-1.5c-.3 0-.5.2-.5.5v10.7c0 .3.2.4.5.4h1.5c.3 0 .5-.2.5-.5v-3.9c0-.2.2-.3.3-.3h4.7c.2 0 .3.2.3.3v3.9c0 .3.2.5.5.5h1.5c.3 0 .5-.2.5-.5v-10.7c.1-.2-.1-.4-.4-.4zm10 11.7c3.4-.1 6.1-2.7 6.1-6 0-3.4-2.6-5.9-6.1-6h-.3c-3.5 0-6.1 2.6-6.1 6 0 3.3 2.6 5.8 6 6h.4zm0-2.1h-.3c-2-.1-3.6-1.7-3.6-3.8 0-2.1 1.6-3.8 3.8-3.8 2.1 0 3.8 1.7 3.8 3.8-.1 2.1-1.6 3.7-3.7 3.8zm18-9.6h-8c-.3 0-.5.2-.5.5v10.6c0 .3.2.5.5.5h8.2c.3 0 .5-.2.5-.5v-1.2c0-.3-.2-.5-.5-.5h-5.8c-.2 0-.3-.1-.3-.3v-2c0-.2.1-.3.3-.3h4.8c.3 0 .5-.2.5-.4v-1.2c0-.3-.2-.5-.5-.5h-4.8c-.2 0-.3-.1-.3-.3v-1.9c0-.2.1-.3.3-.3h5.7c.3 0 .5-.2.5-.4v-1.2c-.2-.4-.3-.6-.6-.6zm3.9 3.3c0 2.8 2.6 3.1 4.7 3.3 1.5.2 2.8.3 2.8 1.4 0 1-1.1 1.6-2.7 1.6-1 0-2-.4-2.8-1-.4-.3-.6-.4-1-.1l-.8.8c-.4.4-.3.5.1.9.9.8 2.4 1.6 4.4 1.6 2.5 0 5.2-1.3 5.2-3.9 0-2.8-2.6-3.1-4.7-3.4-1.5-.2-2.8-.3-2.8-1.3 0-.7.6-1.5 2.3-1.5 1.1 0 2 .3 2.8 1 .2.2.5.2.7 0 .3-.3.7-.6 1-.8.2-.2.2-.4 0-.6-1.1-1-2.6-1.5-4.4-1.5-2.7 0-4.8 1.5-4.8 3.5zm18.7 8.4c3.4-.1 6.1-2.7 6.1-6 0-3.4-2.6-5.9-6.1-6h-.3c-3.5 0-6.2 2.6-6.2 6 0 3.3 2.6 5.8 6 6h.5zm0-2.1h-.3c-2-.1-3.6-1.7-3.6-3.8 0-2.1 1.7-3.8 3.8-3.8 2.1 0 3.8 1.7 3.8 3.8-.1 2.1-1.6 3.7-3.7 3.8zm18.9-9.6h-1.5c-.3 0-.5.2-.5.4v6.1c0 1.9-.9 3-2.6 3h-.3c-1.6-.1-2.5-1.2-2.5-3v-6.1c0-.3-.2-.5-.5-.5h-1.5c-.3 0-.5.2-.5.5v6.1c0 3.2 1.8 5 4.9 5.1h.3c3.2 0 5-1.9 5-5.1v-6.1c.2-.2 0-.4-.3-.4zm4.6 0c-.3 0-.5.2-.5.4v10.6c0 .3.2.5.5.5h1.5c.3 0 .5-.2.5-.5v-3c0-.2.1-.3.3-.3h1.9c.2 0 .4.1.5.3.5.8 2 2.8 2.1 3.1.2.3.4.5.8.5h1.8c.3 0 .3-.2.2-.5-.2-.3-2.6-3.7-2.6-3.7l.2-.1c1.6-.6 2.5-1.8 2.5-3.5 0-2.4-1.6-3.8-4.4-3.8h-5.3zm1.9 5.4v-2.9c0-.2.1-.3.3-.3h2.7c1.4 0 2.2.6 2.2 1.8 0 1.1-.8 1.8-2.2 1.8h-2.7c-.1-.1-.3-.2-.3-.4zm10.5.1v.5c.1 3.2 2.7 5.6 6 5.6 1.8 0 3.2-.5 4.4-1.7.2-.2.2-.4 0-.6l-.9-.9c-.2-.2-.4-.2-.7 0-.8.7-1.6 1-2.8 1-2.1 0-3.6-1.6-3.6-3.8 0-2.1 1.4-3.7 3.4-3.8h.5c.9.1 1.6.4 2.4 1 .2.2.5.2.6-.1.3-.3.7-.8.9-1.1.2-.2.2-.4 0-.6-1.2-1-2.5-1.4-4.2-1.4-3.3.2-5.9 2.7-6 5.9zm22.1-5.5h-8c-.3 0-.5.2-.5.5v10.6c0 .3.2.5.5.5h8.2c.3 0 .5-.2.5-.5v-1.2c0-.3-.2-.5-.5-.5h-5.8c-.2 0-.3-.1-.3-.3v-2c0-.2.1-.3.3-.3h4.8c.3 0 .5-.2.5-.5v-1.2c0-.3-.2-.5-.5-.5h-4.8c-.2 0-.3-.1-.3-.3v-1.9c0-.2.1-.3.3-.3h5.7c.3 0 .5-.2.5-.4v-1.2c-.1-.4-.3-.5-.6-.5z"/><path id="XMLID_28_" class="st1" d="M199.7 233.1c-.2-10.1-7.9-17.6-19.7-17.6h-25.3c-.7 0-1.5.7-1.5 1.5v49.7c0 .8.7 1.5 1.5 1.5h6.9c.8 0 1.5-.7 1.5-1.5v-12.8c0-.8.5-1.3 1.3-1.3H180c11.8 0 19.5-7.5 19.7-17.6v-1c.1-.4 0-.9 0-.9zm-20 10.4h-15.1c-.8 0-1.3-.5-1.3-1.3v-16.3c0-.8.5-1.3 1.4-1.3h15.1c6.8 0 10 4.1 10.2 8.6v2c-.4 4.3-3.5 8.3-10.3 8.3zm65.2-14.3c0-.8-.7-1.5-1.5-1.5h-5.9c-.8 0-1.5.7-1.5 1.5v3.5h-.2c-2.3-3.4-7-6-13.1-6-13.4 0-21.9 11.4-21.9 21.3 0 10.5 7.9 21.3 21.4 21.3 5.6 0 10.8-2.3 13.6-6h.2v3.4c0 .8.7 1.5 1.5 1.5h5.9c.8 0 1.5-.7 1.5-1.5v-37.5zm-21.5 31.9c-7.2 0-13.1-5.9-13.1-13.1 0-7.3 6-13.1 13.1-13.1 7 0 13 5.9 13 13.1-.1 7.3-6 13.1-13 13.1zm65.6-32c0-.8-.7-1.5-1.5-1.5h-5.8c-.8 0-1.5.7-1.5 1.5v21.4c0 6.3-3.3 10.4-10.2 10.4-5.5 0-9.7-2.8-9.7-9.6V229c0-.8-.7-1.5-1.5-1.5h-5.9c-.8 0-1.5.7-1.5 1.5v22c0 11.4 7.5 18.1 16.7 18.1 5.7 0 8.9-1.7 12.4-5.5h.2v2.2c0 7.1-5.1 10.6-11 10.6-4 0-6.4-1.2-8.8-3-1.1-.8-1.9-.5-2.6-.1-.3.2-3.9 2.3-4.8 2.9-.7.4-.8 1.3-.2 1.8 4.3 3.6 9.3 6.6 16.9 6.6 7.7 0 18.8-5.4 18.8-17.8v-37.7zm19.4 33.6c-.7-.5-1.1-1-1.6-1.4-1.7-1.4-2.4-3.2-2.4-7.1v-37.3c0-.8-.7-1.5-1.5-1.5H297c-.8 0-1.5.7-1.5 1.5v38.9c0 4.6 1.3 7.6 3.9 10.1.2.2.7.6.7.6.7.6 1.3 1.1 2.1 1.7l1 .8c.6.5 1.6.4 2.1-.2l3.4-4.1c.4-.6.3-1.5-.3-2zm45.6-14.1c-1-15.6-12.3-22-20.9-22-13.4 0-21.7 10.7-21.7 21.4s8.2 21.3 22.3 21.3c5.9-.1 11.4-2.5 15.9-6.7.1-.1.6-.6 1-.9.3-.3.7-.8.7-.8.5-.7.4-1.4-.3-1.8l-4.6-2.6c-1-.5-1.9-.3-2.4.3 0 0-.5.5-.5.6-2.7 2.7-6.1 4.2-9.9 4.2-5.8 0-11.3-4-12.2-9.7 0-.3 0-.5.1-.7.2-.3.7-.2.7-.2h30.5c.8 0 1.5-.7 1.5-1.5-.2 0-.2-.6-.2-.9zm-9.8-5.1c-.1.3-.5.3-.5.3H322s-.4 0-.6-.2c-.2-.2-.1-.5 0-.6 1.6-5.5 6.4-8.6 11.6-8.6 5.2 0 9.5 3.1 11.3 8.6 0 .2 0 .3-.1.5zm38.1 1.3l-9-1.7c-3.4-.6-5.4-1.8-5.4-4.3 0-3.3 3.8-5.1 7.6-5.1 2.2 0 5 .6 8.2 2.4.3.2 1.8 1.1 1.8 1.1.7.4 1.7.2 2.2-.4l3.1-3.6c.5-.6.4-1.5-.3-1.9 0 0-.1-.1-.3-.2-5-3.2-9.7-4.6-14.9-4.6-10.4 0-16.3 6.4-16.3 13.3 0 5.8 3.3 9.5 14.9 11.6l5.1.9c3.3.6 5.4 2 5.4 4.7 0 2.3-3.1 5.1-8.2 5.1-3.7 0-7.8-1.7-10.9-4.1l-1-.8c-.7-.5-1.7-.4-2.3.1l-3.8 3.8c-.6.6-.5 1.4.2 1.9l.8.6c5.1 3.7 10.5 5.6 16.7 5.6 12.6 0 17.6-7.7 17.6-13.7-.2-5.9-3.8-9.3-11.2-10.7zm39.2 0l-9-1.7c-3.4-.6-5.4-1.8-5.4-4.3 0-3.3 3.8-5.1 7.6-5.1 2.2 0 5 .6 8.2 2.4.3.2 1.8 1.1 1.8 1.1.7.4 1.7.2 2.2-.4l3.1-3.6c.5-.6.4-1.5-.3-1.9 0 0-.1-.1-.3-.2-5-3.2-9.7-4.6-14.9-4.6-10.4 0-16.3 6.4-16.3 13.3 0 5.8 3.3 9.5 14.9 11.6l5.1.9c3.3.6 5.4 2 5.4 4.7 0 2.3-3.1 5.1-8.2 5.1-3.7 0-7.8-1.7-10.9-4.1l-1-.8c-.7-.5-1.7-.4-2.3.1l-3.8 3.8c-.6.6-.5 1.4.2 1.9l.9.6c5.1 3.7 10.5 5.6 16.7 5.6 12.6 0 17.6-7.7 17.6-13.7-.3-5.9-3.9-9.3-11.3-10.7z"/><path id="XMLID_29_" d="M103.2 212.2c-5.7.2-11 1.8-15.7 4.4 3.4-1.8 7.2-2.8 11.3-2.8 5.3 0 10.2 1.7 14.1 4.5 11.5 3 20.2 13.2 20.8 25.6.7 15.3-11.2 28.2-26.5 28.9-3.6.2-7.1-.4-10.3-1.5-1-.3-2.3-.9-3-1.2-.7-.3-2-1-2.4-1.2-.7-.2-1.7-.6-2.8.2-.5.3-1.1 1-1.1 1l-5.8 6.1c.3.2.8.7 1.1.9 1.8 1.4 4 2.8 6.1 3.7 5.2 2.6 11.2 3.9 17.4 3.6 20-.9 35.4-17.7 34.6-37.7-.9-19.8-17.8-35.3-37.8-34.5z" fill="#89c5ec"/><path id="XMLID_32_" class="st1" d="M98.8 213.8c-4.8 0-9.3 1.4-13.1 3.9-10.2 6.4-17.1 17.7-17.1 30.7 0 8.6 3 16.4 8 22.6.8 1 1.4 1.7 2.2 2.5 0 0 5.1-5.3 5.8-6 1-1 1.6-1.9.4-4-.3-.6-.8-1.3-1.2-1.8-1.8-2.5-2.9-5.2-3.6-8.3 4.4 5.4 11.2 8.8 18.7 8.8 13.4 0 24.2-10.9 24.2-24.2-.1-13.4-10.9-24.2-24.3-24.2zm0 37.8c-7.5 0-13.6-6.1-13.6-13.6s6.1-13.6 13.6-13.6 13.6 6.1 13.6 13.6c-.1 7.5-6.1 13.6-13.6 13.6z"/></g></svg>