<svg version="1.1" id="Layer_1" xmlns="http://www.w3.org/2000/svg" xmlns:xlink="http://www.w3.org/1999/xlink" x="0" y="0" viewBox="0 0 500 500" xml:space="preserve"><style>.st0{fill:#97bbbc}.st1{fill:#669292}.st2{fill:#b3dede}.st3{fill:#487f7e}.st4{fill:#296a69}.st6,.st7{clip-path:url(#XMLID_65_);fill:#97bbbc}.st7{fill:#118381}</style><g id="XMLID_1_"><path id="XMLID_3_" class="st0" d="M313.2 113.4l17.7 24.3 12.8-24.3z"/><path id="XMLID_4_" class="st1" d="M266 127l47.2-13.6 17.7 24.3z"/><path id="XMLID_5_" class="st2" d="M266 127l44.9 28.9 20-18.2z"/><path id="XMLID_6_" class="st1" d="M266 127l-2.9 32.6 26.4-17.6z"/><path id="XMLID_7_" class="st0" d="M263.1 159.6l47.8-3.7-21.4-13.9z"/><path id="XMLID_8_" class="st2" d="M263.1 159.6l8 24.8 39.7-28.6z"/><path id="XMLID_9_" class="st3" d="M230.8 140.2L266 127l-2.8 32.6z"/><path id="XMLID_10_" class="st0" d="M216.5 162l46.6-2.4 8 24.9z"/><path id="XMLID_11_" class="st1" d="M230.9 140.2L216.5 162l46.6-2.4z"/><path id="XMLID_12_" class="st4" d="M231.3 115.8l-.4 24.4 28.8-10.8z"/><path id="XMLID_13_" class="st4" d="M187.6 141.2l28.9 20.8 14.4-21.8z"/><path id="XMLID_14_" class="st1" d="M161.4 153.4l26.2-12.2 28.9 20.8z"/><path id="XMLID_15_" class="st3" d="M216.5 162l-14.9 23.6 34.3-15.5z"/><path id="XMLID_16_" class="st1" d="M201.6 185.6l43.5 11.7-9.2-27.2z"/><path id="XMLID_17_" class="st0" d="M235.9 170.1l12.3 4.9-3.1 22.3z"/><path id="XMLID_18_" class="st2" d="M245.1 197.3l26-12.8-22.9-9.5z"/><path id="XMLID_19_" class="st4" d="M201.6 185.6l-.4 36.7 16.1-32.8z"/><path id="XMLID_20_" class="st2" d="M201.2 222.3l43.9-25-27.8-7.8z"/><path id="XMLID_21_" class="st1" d="M201.4 205.3l-10.5 10.6 10.3 6.4z"/><path id="XMLID_22_" class="st0" d="M201.2 222.3l30.5 22.9-4.1-38z"/><path id="XMLID_23_" fill="#129489" d="M211.7 230.1l11.6 25.8 2.5-15.2z"/><path id="XMLID_24_" class="st2" d="M231.7 245.2l25-3.7-26.9-15z"/><path id="XMLID_25_" class="st0" d="M229.7 226.4l41-10.5-14 25.6z"/><path id="XMLID_26_" class="st1" d="M256.7 241.5l14-25.7 24.8-8.8-38.8 34.6z"/><path id="XMLID_27_" class="st4" d="M271 184.4l29.6 16.8 2.1-39.7z"/><path id="XMLID_28_" class="st1" d="M302.7 161.5l10.9 23-13 16.7z"/><g id="XMLID_31_"><defs><path id="XMLID_30_" d="M67.5 93h365v314h-365z"/></defs><clipPath id="XMLID_65_"><use xlink:href="#XMLID_30_" overflow="visible"/></clipPath><path id="XMLID_32_" class="st6" d="M300.6 201.2c-.2-.4 13-16.7 13-16.7l8 43.5-21-26.8z"/><path id="XMLID_33_" class="st6" d="M267.4 270.9l-10.7-29.5-25.7 3.7z"/><path id="XMLID_34_" class="st7" d="M119.2 297.5c-.8-.9-8.5-5.5-15.3-5.5-4.5 0-7 1.6-7 4.8 0 3.9 4.3 4.9 11.9 7 11 3 17.9 6.7 17.9 17.3 0 13-10.5 17.5-21.5 17.5-8.4 0-17.6-2.7-24.4-7.1l5.8-11.5c1 1.1 10.1 6.7 18.8 6.7 4.8 0 7-1.5 7-4.3 0-4.3-5.9-5.3-13.8-7.7-10.5-3.2-15.5-7.2-15.5-15.8 0-12.1 9.7-18.6 21.1-18.6 8.1 0 15.6 3.3 20.6 6.3l-5.6 10.9z"/><path id="XMLID_35_" class="st7" d="M201.4 280.7v57.2h-13.2v-23.4h-22.8v23.4h-13.2v-57.2h13.2v22.2h22.8v-22.2z"/><path id="XMLID_38_" class="st7" d="M315.1 307.9h12.1c3.1 0 5.7-3.3 5.7-7.9 0-4.7-3.1-7.7-6.1-7.7h-11.7v15.6zm-13.2 30v-57.2h25.8c10.8 0 18.7 9.8 18.7 19.3 0 7-3.6 13.4-9.3 16.6l13.1 21.3h-14.9l-11.5-18.4h-8.6v18.4h-13.3z"/><path id="XMLID_39_" class="st7" d="M374.4 337.9v-57.2h13.2v25.8l22.1-25.8h13.6l-21.4 25.6 22.9 31.6h-13.9l-16.8-24.2-6.5 7v17.2z"/><path id="XMLID_40_" class="st7" d="M197.4 361.7h-7.9v20.6h-5.9v-20.6h-8v-5.3h21.8z"/><path id="XMLID_43_" class="st7" d="M214.3 368.7h5.5c1.4 0 2.6-1.5 2.6-3.6s-1.4-3.5-2.8-3.5h-5.3v7.1zm-5.9 13.6v-25.9H220c4.9 0 8.5 4.4 8.5 8.7 0 3.2-1.6 6.1-4.2 7.5l5.9 9.6h-6.7l-5.2-8.3h-3.9v8.3h-6z"/><path id="XMLID_44_" class="st7" d="M257.5 369.6v-13.2h6v13.2c0 7.1-3.5 12.9-11.5 12.9-8.3 0-11.5-6.1-11.5-12.9v-13.2h6v13.2c0 3.9 1.5 7.5 5.5 7.5 4.1.1 5.5-3.6 5.5-7.5"/><path id="XMLID_45_" class="st7" d="M291.6 364c-.4-.4-3.8-2.5-6.9-2.5-2 0-3.2.7-3.2 2.1 0 1.8 1.9 2.2 5.4 3.2 5 1.3 8.1 3 8.1 7.8 0 5.9-4.7 7.9-9.7 7.9-3.8 0-8-1.2-11-3.2l2.6-5.2c.5.5 4.6 3 8.5 3 2.2 0 3.2-.7 3.2-1.9 0-1.9-2.7-2.4-6.2-3.5-4.8-1.5-7-3.2-7-7.1 0-5.5 4.4-8.4 9.5-8.4 3.7 0 7.1 1.5 9.3 2.8l-2.6 5z"/><path id="XMLID_46_" class="st7" d="M326.1 361.7h-7.8v20.6h-6v-20.6h-7.9v-5.3h21.7z"/><path id="XMLID_47_" class="st6" d="M79.2 369.2h73.9"/><path id="XMLID_48_" class="st6" d="M79.1 368.2h74v1.9h-74z"/><path id="XMLID_49_" class="st6" d="M349 369.2h74"/><path id="XMLID_50_" class="st6" d="M349 368.2h74v1.9h-74z"/><path id="XMLID_51_" class="st7" d="M251.6 295.6l15.3 42.3h15.4l-21.9-59.7h-17.3l-22 59.7h14.8z"/></g></g></svg>