<svg version="1.1" id="Layer_1" xmlns="http://www.w3.org/2000/svg" xmlns:xlink="http://www.w3.org/1999/xlink" x="0" y="0" viewBox="0 0 500 500" xml:space="preserve"><style>.st0{fill:#605350}.st2{fill:#fff}</style><g id="XMLID_1_"><path id="XMLID_13_" class="st0" d="M219.7 245.6c-1-.1-2-.2-3-.2h-4.2c-1 0-2 .1-3 .2-3.5.4-7.1 1.7-10.1 3.9-3-2.2-6.5-3.5-10-3.9-1-.1-2-.2-3-.2H182c-1 0-2 .1-3 .2-8.8 1.1-17.8 7.3-17.8 21.1v34.5h15.6v-35.1c0-3.5 1.9-5.4 5.2-5.4h4.2c3.4 0 5.2 1.9 5.2 5.4v35.1h15.7v-35.1c0-3.5 1.9-5.4 5.2-5.4h4.2c3.4 0 5.2 1.9 5.2 5.4v35.1h15.6v-34.5c.2-13.9-8.8-20.1-17.6-21.1M410 258.9h15.3v-13.5H410c-1 0-1.3-.4-1.3-1.3v-12.2H392v55.5c0 10.6 3.3 13.9 16.7 13.9h16.6v-13.9h-12.4c-2.8 0-4.3-1.4-4.3-4.7v-22.4c0-.8.6-1.4 1.4-1.4m-273.5 42.3h15.6v-54.5h-15.6v54.5zm168.2 0H320v-69.4h-15.3v69.4zm56.3-55.6h-10.1c-15 .5-22 3.9-22 27.5 0 23.2 7.4 28.7 22 28.7H361c14.6 0 22-5.4 22-28.7 0-23.5-7.1-26.9-22-27.5m-5.1 42.7c-8.9-.3-10.4-2.3-10.4-15 0-11.9 1.3-13.9 10.4-14.3 9.1.4 10.4 2.3 10.4 14.3-.1 12.7-1.5 14.6-10.4 15m-93.5-42.7c-10.2 0-15.8-.1-15.8-.1v80.4l15.7-.1v-23.7c21 0 33.5.1 33.5-28.9s-10.6-27.6-33.4-27.6m0 42.8V259c15 0 16.7 0 16.7 14.4 0 15.2-1.9 15-16.7 15M109.1 258H87.4c-2.7 0-4.6-2-4.6-4.6v-1.9c0-2.5 1.9-4.6 4.6-4.6h37.9v-15.2H88.8c-13.9 0-20.1 8.5-21.1 17.4-.1 1-.2 2-.2 3.1 0 1 .1 2 .2 3.2 1.1 8.8 7.2 19.3 21.1 19.3h19.9c2.7 0 4.6 2 4.6 4.6v2c0 2.5-1.9 4.6-4.6 4.6H69v15.6h38.3c13.9 0 20.1-9.3 21.1-18.3.1-1.1.2-2 .2-3.1 0-1-.1-2-.2-3.2-.8-8.6-6.6-18.6-19.3-18.9"/><path id="XMLID_14_" d="M289.5 201.9c-.1 0-8.2 29.1-43.2 29.1s-43.2-28.6-43.2-29c23-3.2 31 4.2 31 4.2s0-21 12.4-31.8c11.7 10.6 11.7 31.8 11.7 31.8s8.2-7.3 31.3-4.3" fill="#ffd108"/><path id="XMLID_15_" class="st2" d="M289.5 201.6c-.1 0-.1 0-.2.1l-.1.1v.1c-.1.2-.2.7-.6 1.6-1.2 3-4.3 9.9-10.9 16-6.6 6.1-16.5 11.4-31.5 11.4-17.4 0-28.1-7.1-34.5-14.3-3.2-3.6-5.3-7.2-6.6-9.9-.7-1.4-1.1-2.5-1.4-3.3-.1-.4-.2-.7-.3-1 0-.1-.1-.2-.1-.3v-.1h-.2.2-.2.2-.3v.3c4.1-.6 7.7-.8 10.8-.8 7.3 0 12.3 1.2 15.5 2.5 1.6.6 2.7 1.2 3.4 1.7.4.2.6.4.8.5.1.1.1.1.2.1.1.1.2.1.3 0 .1 0 .2-.1.2-.2v-.2c0-1.2.2-6.5 1.8-12.8 1.6-6.3 4.7-13.5 10.4-18.5l-.2-.2-.2.2c5.8 5.2 8.7 13.1 10.2 19.7.7 3.3 1.1 6.3 1.3 8.4.1 1.1.1 1.9.2 2.5V206.1c0 .1.1.2.2.2h.3c.3-.3 6-4.9 20.6-4.9 3.1 0 6.6.2 10.5.7.1 0 .3-.1.3-.2.2-.1.1-.2-.1-.3-3.9-.5-7.4-.7-10.6-.7-15.2 0-20.9 5-21 5.1l.2.2h.3s0-5.3-1.5-12c-1.5-6.6-4.4-14.6-10.3-20-.1-.1-.3-.1-.4 0-6.2 5.4-9.3 13.4-10.9 20.1-1.6 6.6-1.6 11.9-1.6 11.9h.3l.2-.2s-5.5-5-20.3-5c-3.2 0-6.8.2-10.9.8-.1 0-.2.1-.2.3v.1c0 .2.2.8.5 1.6 1.1 3.1 4.3 10 11 16.1 6.7 6.1 16.8 11.5 32 11.5 17.6 0 28.4-7.3 34.9-14.7 3.2-3.7 5.4-7.3 6.7-10.1.7-1.4 1.1-2.5 1.4-3.3.2-.4.3-.7.3-.9 0-.1.1-.2.1-.2v-.1l-.2-.1.2.1-.2-.1.2.1-.2-.1.2.2-.2-.1.2.2-.2-.2v.3c.1 0 .2-.1.2-.1l-.2-.2v.3c.1 0 .3-.1.3-.3 0-.3-.1-.5-.3-.5"/><g id="XMLID_23_"><defs><path id="XMLID_22_" d="M203.5 174.8h85.7V231h-85.7v-56.2"/></defs><clipPath id="XMLID_46_"><use xlink:href="#XMLID_22_" overflow="visible"/></clipPath><g id="XMLID_30_" clip-path="url(#XMLID_46_)"><defs><path id="XMLID_29_" d="M289.2 202c-.1 0-8.1 29-42.8 29-34.7 0-42.8-28.4-42.8-28.8 22.8-3.2 30.7 4.2 30.7 4.2s0-20.8 12.2-31.5c11.6 10.5 11.6 31.5 11.6 31.5s8.2-7.4 31.1-4.4"/></defs><clipPath id="XMLID_47_"><use xlink:href="#XMLID_29_" overflow="visible"/></clipPath><linearGradient id="XMLID_51_" gradientUnits="userSpaceOnUse" x1="-1.08" y1=".017" x2="-.495" y2=".017" gradientTransform="matrix(146.4 0 0 -146.4 361.649 205.251)"><stop offset="0" stop-color="#ffd108"/><stop offset=".544" stop-color="#fdd00a"/><stop offset=".74" stop-color="#f9cd10"/><stop offset=".879" stop-color="#f3c715"/><stop offset=".991" stop-color="#eac11a"/><stop offset="1" stop-color="#e9c01b"/></linearGradient><path id="XMLID_31_" d="M246.4 174.8c-1.1 1-2.1 2-3.1 3.2-3.7 4.6-5.9 10.2-7.2 15.2-1.6 6.3-1.8 11.6-1.8 12.8v.2c0 .1-.1.2-.2.2h-.1c-.1 0-.1 0-.2-.1 0 0-.1-.1-.2-.1-.2-.1-.4-.3-.8-.5-.7-.5-1.8-1.1-3.4-1.7-3.2-1.2-8.1-2.5-15.5-2.5-3.1 0-6.5.2-10.5.7.1.4 1.1 3.7 3.6 7.9 1.2 2 2.7 4.2 4.7 6.3 6.4 7.2 17.1 14.3 34.5 14.3 14.9 0 24.9-5.3 31.5-11.4 6.6-6.1 9.7-12.9 10.9-16 .2-.6.4-1 .5-1.3-3.8-.5-7.2-.7-10.2-.7-14.6 0-20.3 4.7-20.6 4.9-.1 0-.1.1-.2.1h-.1c-.1 0-.2-.1-.2-.2v-.2-.7c0-.6-.1-1.5-.2-2.5-.2-2.1-.5-5.1-1.3-8.4-1.2-5.5-3.5-11.9-7.5-16.9-.7-.9-1.5-1.8-2.4-2.6" clip-path="url(#XMLID_47_)" fill="url(#XMLID_51_)"/><linearGradient id="XMLID_52_" gradientUnits="userSpaceOnUse" x1="-1.08" y1=".007" x2="-.495" y2=".007" gradientTransform="matrix(146.4 0 0 -146.4 361.649 205.251)"><stop offset="0" stop-color="#ffe36b"/><stop offset=".544" stop-color="#fde26d"/><stop offset=".74" stop-color="#f9df73"/><stop offset=".879" stop-color="#f3da78"/><stop offset=".991" stop-color="#ead37d"/><stop offset="1" stop-color="#e9d37d"/></linearGradient><path id="XMLID_34_" d="M243.4 178c-9.2 11.2-9.2 28.4-9.2 28.4s-5.3-4.9-19.9-4.9c-3.1 0-6.7.2-10.8.8 3.9-.5 7.4-.7 10.5-.7 7.3 0 12.3 1.2 15.5 2.5 1.6.6 2.7 1.2 3.4 1.7.4.2.6.4.8.5.1.1.1.1.2.1s.1.1.2.1h.1c.1 0 .2-.1.2-.2v-.2c0-1.2.2-6.5 1.8-12.8 1.3-5.2 3.5-10.7 7.2-15.3m5.5-.6c4.1 5 6.3 11.4 7.5 16.9.7 3.3 1.1 6.3 1.3 8.4.1 1.1.1 1.9.2 2.5V206.1c0 .1.1.2.2.2h.1c.1 0 .1 0 .2-.1.3-.3 6-4.9 20.6-4.9 3 0 6.4.2 10.2.7-.1.3-.3.7-.5 1.3-1.2 3-4.3 9.9-10.9 16-6.6 6.1-16.5 11.4-31.5 11.4-17.4 0-28.1-7.1-34.5-14.3-1.9-2.2-3.5-4.4-4.7-6.3 5.1 8.5 16.4 20.8 39.3 20.8 34.7 0 42.7-29 42.8-29-3.9-.5-7.4-.7-10.4-.7-15.1 0-20.8 5-20.8 5s0-17.8-9.1-28.8" clip-path="url(#XMLID_47_)" fill="url(#XMLID_52_)"/></g></g><g id="XMLID_35_"><defs><path id="XMLID_25_" d="M235.4 208.9s-10.3-8.2-29.7-5.3c0 .4 7.4 17.6 26.2 23.9 2.9-12.9 11.9-23.5 23.9-28.5-1.2-6.8-3.7-16-9.4-21.5-10.4 9.9-11 31.4-11 31.4"/></defs><clipPath id="XMLID_53_"><use xlink:href="#XMLID_25_" overflow="visible"/></clipPath><linearGradient id="XMLID_54_" gradientUnits="userSpaceOnUse" x1="-1.893" y1="-2.041" x2="-1.307" y2="-2.041" gradientTransform="scale(60.493 -60.493) rotate(-45 -.478 -9.246)"><stop offset="0" stop-color="#ffeab5"/><stop offset=".115" stop-color="#ffe9ae"/><stop offset=".298" stop-color="#ffe59c"/><stop offset=".524" stop-color="#ffdf7f"/><stop offset=".783" stop-color="#ffd74f"/><stop offset="1" stop-color="#ffd108"/></linearGradient><path id="XMLID_36_" clip-path="url(#XMLID_53_)" fill="url(#XMLID_54_)" d="M230.7 152.4l50.1 50.1-50.1 50.1-50.1-50.1z"/></g><path id="XMLID_16_" class="st2" d="M289.5 201.7h-.1l-.1.1v.1c-.1.2-.2.7-.6 1.6-1.2 3.1-4.3 9.9-10.9 16-6.6 6.1-16.6 11.4-31.5 11.4-17.4 0-28.2-7.1-34.6-14.3-3.2-3.6-5.3-7.2-6.6-9.9-.7-1.4-1.1-2.5-1.4-3.3-.1-.4-.2-.7-.3-1 0-.1-.1-.2-.1-.3v-.1h-.1.1-.1.1-.2v.2c4.1-.6 7.7-.8 10.8-.8 7.3 0 12.3 1.2 15.5 2.5 1.6.6 2.7 1.2 3.4 1.7.4.2.6.4.8.5l.2.2c.1.1.2.1.2 0 .1 0 .1-.1.1-.2v-.9c.1-2.1.5-7.4 2.2-13.4 1.7-6 4.7-12.6 10.1-17.3l-.2-.2-.2.2c5.8 5.2 8.7 13.1 10.2 19.7.7 3.3 1.1 6.3 1.3 8.4.1 1.1.1 1.9.2 2.5v.9c0 .1.1.2.1.2h.2c.3-.3 6-4.9 20.6-4.9 3.1 0 6.6.2 10.5.7.1 0 .2-.1.3-.2.4 0 .3-.1.1-.1-3.9-.5-7.4-.7-10.6-.7-15.2 0-20.9 5-21 5.1l.2.2h.2s0-5.3-1.5-12c-1.5-6.6-4.4-14.6-10.3-20-.1-.1-.2-.1-.3 0-6.2 5.4-9.3 13.4-10.9 20.1-1.5 6.6-1.5 11.9-1.5 11.9h.2l.2-.2s-5.5-5-20.2-5c-3.2 0-6.8.2-10.9.8-.1 0-.2.1-.2.2v.1c0 .2.2.8.5 1.6 1.1 3.1 4.3 10 10.9 16.1 6.7 6.1 16.8 11.4 31.9 11.4 17.6 0 28.4-7.3 34.9-14.7 3.2-3.7 5.3-7.3 6.7-10.1.7-1.4 1.1-2.5 1.4-3.3.2-.4.3-.7.3-.9 0-.1.1-.2.1-.2v-.1l-.1-.1.1.1-.1-.1.1.1-.2-.1.2.2-.2-.1.2.2-.2-.2v.2c.1 0 .1-.1.2-.1l-.2-.2v.2c.1 0 .2-.1.2-.2.1-.1 0-.2-.1-.2z"/><path id="XMLID_41_" class="st0" d="M429.3 301.4c-.8 0-1.1-.2-1.3-.4-.3-.3-.5-.8-.5-2.3 0-1.5.2-2 .5-2.3.2-.3.5-.4 1.3-.4h1.4c.8 0 1.1.2 1.3.4.3.3.5.8.5 2.3 0 1.5-.2 2-.5 2.3-.2.2-.5.4-1.3.4h-1.4zm1.3-.5c.6 0 .8-.1 1-.3.2-.2.4-.6.4-2 0-1.3-.1-1.8-.4-2-.2-.2-.4-.3-1-.3h-1.2c-.6 0-.8.1-1 .3-.2.2-.4.6-.4 2s.2 1.8.4 2c.2.2.4.3 1 .3h1.2zm-.2-1.8c-.1-.1-.1-.1-.3-.1h-.6v1.1h-.8v-3h1.8c.2 0 .4.1.5.1.1.1.2.3.2.7 0 .5-.1.7-.5.8.4.1.5.1.5.6 0 .4 0 .6.1.8h-.8c-.1-.2-.1-.4-.1-.7.1-.3.1-.3 0-.3m.1-1.4c-.1-.1-.1-.1-.2-.1h-.7v.8h.7c.1 0 .2 0 .2-.1s.1-.1.1-.4-.1-.1-.1-.2"/></g></svg>