<svg version="1.1" id="Layer_1" xmlns="http://www.w3.org/2000/svg" x="0" y="0" viewBox="0 0 500 500" xml:space="preserve"><style>.st0{fill:#ee3f35}.st1{fill:#194f75}</style><g id="XMLID_1_"><path id="XMLID_5_" class="st0" d="M125.1 242.9c0-15.8-12.9-28.6-28.8-28.6s-28.8 12.8-28.8 28.6 12.9 28.6 28.8 28.6c15.9.1 28.8-12.7 28.8-28.6m-2.6 0c0 14.4-11.7 26-26.2 26-14.4 0-26.2-11.7-26.2-26 0-14.4 11.7-26 26.2-26 14.4 0 26.2 11.7 26.2 26"/><path id="XMLID_6_" class="st0" d="M97.6 218.1H98.4c.3.1.1.7.2.9.1.2.2.2.4.3.5.1 1.1.1 1.7.1.5 0 1.3-.1 1.6.2l.2.3c0 .2 0 .4-.1.5-.1.2-.4.7-.1.8.2.1.6.1.8.1 1 .1 2.3.1 2.8 1 .2.2.2.5.1.8-.1.2-.3.6-.2.8.1.2.5.2.7.2l.3.1c.3.1.5.2.7.3.4.2.9.4 1.2.8.2.2.5.4.7.7v.1l-.5-.2c-.2-.1-.3-.2-.5-.2-.4-.2-1-.4-1.5-.5-.3 0-.5-.1-.8-.1-.4-.1-.8-.1-1-.4-.3-.4.3-1.1-.2-1.5-.2-.1-.5-.1-.7-.1-.6-.1-1.2-.1-1.9-.2-.3-.1-.7-.1-.9-.3-.2-.2-.3-.5-.2-.8 0-.2.3-.5.1-.7l-.2-.1c-.3-.1-.7 0-1 0h-1.3l-.1.1c-.1.1 0 .7 0 .9v3.4l.1.1.3.1c.3.1.7.3 1 .4 1.1.4 2.2.9 3.2 1.4.5.2 1 .5 1.5.8l.9.6c1.2.8 2.2 1.8 3.1 2.9.1.2.2.3.3.5.2.3.4.6.6 1 .2.3.3.6.4.9.1.3.3.7.3 1 .2.8.4 1.5.4 2.4 0 .3.1.7.1 1 0 .4 0 .8-.1 1.1 0 .1 0 .3-.1.5-.1.7-.3 1.4-.6 2.1-1.2 2.8-3.5 5.2-6 7.2-1 .8-2 1.5-3.1 2.3-.2.2-.5.3-.7.5l-.4.2h-.1c0-.2.1-.3.2-.4.1-.2.2-.4.3-.5.5-.9.8-2.1.1-3-.2-.2-.4-.4-.7-.5-.2-.1-1.1-.5-1.3-.4l-.1.1v6c.1.2.3.2.4.3.1.2.1.4.2.5.2.6.6 1.1 1.4 1.1h.1l.1-.1.3-.1c.4-.2.6-.7.7-1.1l.1-.3.1-.4.3-.1.3.1c.1.1.2.4.2.6.2.4.5.9 1 1h.4l.3-.1c.4-.2.6-.6.7-.9.1-.2.1-.3.1-.5.1-.3 0-.6.4-.7l.2-.1.2.1.2.3c0 .2.1.3.2.4.3.5.7.7 1.2.7h.2l.3-.1c.4-.3.7-.8.7-1.3v-.3c0-.2-.1-.7.2-.7l.2.1.1.2c.1.2.2.3.3.4.4.5.8.8 1.4.8l.4-.1c.5-.4.7-1.1.6-1.7l-.1-.4c0-.2-.2-.4-.1-.6l.4-.3.4-.3c.6-.4 1.2-.9 1.6-1.5.3-.4.4-.7.5-1.2.3-1.2.2-2.7.2-4v-.6c0-.7 0-1.4.1-2 .2-.9 1.1-2.7 2.2-2.7h.4c.4.1.7.3.9.6.1.2.2.4.4.4.3.1.7.1.9.3.1.1.2.3.2.4 0 .3-.3.5-.5.6l-.3.1-.1.3c-.1.3-.3.5-.6.6-.2 0-.4 0-.5-.1l-.3-.2h-.3c-.3 0-.4.2-.4.5v.9c0 .3 0 .7.1 1v.5c0 .4.1.9.2 1.3l.3 1.2c.1.3.1.6.2.9.1.3.1.6.2.9.1.5.1 1 .1 1.6v.3c0 1.6-.4 3.2-.9 4.5-.3.7-.6 1.4-1 2.1l-.6.9c-.1.1-.2.4-.4.4s-.4-.1-.5-.1c-.4-.1-.9-.2-1.3-.3h-.3c-.3-.1-.7-.1-1-.2-.3 0-.5-.1-.8-.1h-1.4c-.9.1-1.7.4-2.5.7l-.9.3c-.3.1-.7.2-1 .3-.5.2-1 .2-1.6.3-1 .1-1.9-.2-2.8-.4-.2 0-.4-.1-.5-.2-.3-.1-.6-.2-.8-.2l-.4-.1c-.7-.2-1.4-.3-2.1-.4h-.7c-.3 0-.6.1-.9.1-.2 0-.4.1-.6.1l-.9.3c-.2 0-.3.1-.5.1-.9.2-1.7.5-2.7.5-.7 0-1.4-.1-2-.2-.2 0-.4-.1-.5-.1-.6-.1-1.1-.3-1.7-.5-.3-.1-.6-.2-.8-.3-.4-.1-.7-.2-1.1-.3-.3 0-.5-.1-.8-.1-.2 0-.3 0-.4-.1-.6 0-1.3 0-1.9.1-.3 0-.6.1-.9.2-.3.1-.6.1-.9.2-.4.1-.7.2-1.1.3-.2.1-.4.1-.6.2h-.5l-.4-.5c-.1-.3-.3-.5-.4-.8-.2-.2-.3-.5-.4-.8-.3-.5-.5-1.1-.6-1.7-.1-.5-.1-1.1-.2-1.7 0-.4-.1-.7-.1-1.1 0-.6.1-1.2.2-1.8.1-.5.1-1 .2-1.6v-.2c0-.3.1-.7.1-1v-.3c0-.4.1-.9.1-1.3v-1.2c-.1-.8-.8-.8-1.3-1.3-.1-.1-.2-.2-.3-.4-.2-.6.1-1.5.6-1.8.1-.1.3-.1.4-.1h.1l.7.1c.9.3 1 1.1 1 2v4.6c.2 1.5.8 3 2 3.9.5.4 1.1.7 1.7 1l.4.2c.2.1.3.1.4.2.1.1.1.4.1.5v.4c0 .7.3 1.6 1 1.8h.6l.2-.1c.4-.2.7-.6.8-1 .1-.2.1-.6.3-.7l.7.1c.2.1.2.5.2.7.1.6.4 1.2 1 1.5.2.1.4.1.6.1l.3-.1c.3-.2.6-.6.8-.9.1-.2.1-.5.3-.7h.6c.2.1.2.4.2.6.1.7.4 1.5 1.2 1.7H91.3l.2-.1c.4-.2.7-.8.8-1.2 0-.2 0-.5.2-.6l.5-.1c.3.1.2.4.3.6.2.7.6 1.3 1.4 1.3h.1l.3-.1c.2-.1.4-.3.5-.5l.3-.6c.1-.2.1-.5.2-.6l.4-.1.1-.1c.1-.1 0-.4 0-.6v-.6c0-.9 0-1.7.1-2.5v-1.1-1.3l-.2-.1c-.3 0-.6 0-1 .1-1.1.2-2.2.5-3.3.8-.3.1-.7.2-1 .3-.5.2-1.1.3-1.6.5-.7.2-1.5.4-2.2.7-.3.1-.7.2-1 .3-.3.1-.7.3-1 .4l-.7.2v-.1l.3-.3.3-.3.9-.9c.4-.5.9-.9 1.2-1.5 1.4-1.9 2.6-4 3.2-6.2.4-1.3.6-2.6.6-4.1 0-.7-.2-1.5-.3-2.1l-.3-1.2c-.1-.3-.2-.5-.2-.8-.2-.5-.3-1-.5-1.5l-.1-.4c-.3-.8-.7-1.5-1.1-2.2-.2-.4-.5-.8-.8-1.2l-.2-.3c-.2-.2-.3-.4-.5-.5-.3-.3-.5-.6-.8-.8-.5-.5-1-.9-1.5-1.4l-1-.9.1-.8h1.7c.4 0 .8 0 1.2.1 1 .1 2.1.2 3.1.2.8.1 1.6.2 2.4.2.7.1 1.3.2 2 .2.5.1 1 .2 1.5.2.2 0 .4.1.7.1.2 0 .5.1.6.1l.1-.1v-.8-.6-1.5-.7-.5-1.3-.9-.5l.3-.1z"/><path id="XMLID_7_" class="st0" d="M82.8 257.8c1.1 0 2.2.3 3.1.7.4.2.8.3 1.1.5l.9.3c.9.2 1.8.3 2.8.3H92c.4-.1.7-.2 1-.2.5-.1.9-.3 1.4-.4.2-.1.5-.2.8-.2H96.4c.7 0 1.3.1 1.9.2.2.1.5.1.7.2.2.1.4.1.6.2 1.2.4 2.4.7 3.8.7h1.1c.2 0 .3-.1.5-.1.3-.1.7-.2 1-.2.8-.3 1.6-.6 2.4-.8.2-.1.5-.2.7-.2H110.4c.9 0 1.8.2 2.6.4l.4.1.3.1V259.7l-.3.3-.7.7c-.3.2-.5.5-.7.7l-.2.2c-.3.1-.8 0-1.1-.1-.7-.1-1.5-.1-2.2 0-2.1.3-3.7 1.4-6 1.4-.4 0-.9-.1-1.2-.2-.5-.1-1-.3-1.5-.4-.9-.3-1.8-.6-2.8-.7h-.4c-1.1 0-2.1.2-3.1.4-.8.2-1.6.5-2.5.6-.2 0-.4.1-.7.1-.7 0-1.3 0-1.9-.2-.6-.1-1.3-.4-1.8-.6-.3-.1-.7-.2-1-.3-.2 0-.4-.1-.5-.1-.4-.1-.9-.2-1.4-.3-.7-.1-1.4 0-2.1 0-.3 0-.7.1-1 .2-.2 0-.4.1-.5 0l-.4-.3c-.3-.2-.6-.6-.9-.8-.2-.2-.5-.5-.6-.7l-.1-.2.1-.1c.2-.1.4-.1.6-.2.2 0 .3-.1.5-.1s.4-.1.5-.1l.5-.1.4-.1H82c.5-.9.7-.9.8-.9"/><path id="XMLID_8_" class="st0" d="M82.5 261.3h.9c.4 0 .7.1 1 .1.7.1 1.4.4 2.1.7.6.2 1.2.4 1.9.6.8.2 1.7.2 2.6.2H91.9c.3-.1.5-.1.8-.2.5-.1.9-.3 1.4-.4.3-.1.6-.2.9-.2l.6-.1h1.6c.4 0 .8.1 1.1.2 1.6.4 3 1 4.8 1h1.6l.9-.3c.8-.2 1.5-.5 2.3-.7.2-.1.5-.1.8-.1h1.5c.2 0 .7-.1.7.2l-.3.2c-.3.2-.6.4-.8.6-1.2.8-2.4 1.4-3.7 2-1.4.6-2.8 1.1-4.4 1.5-1.3.3-2.6.5-4 .6-.6 0-1.2.1-1.8 0-2.4-.1-4.5-.5-6.6-1.1l-2.4-.9c-.4-.2-.9-.4-1.3-.6-.7-.3-1.4-.7-2-1.1-.4-.3-.8-.5-1.2-.8-.2-.1-.4-.3-.6-.4l-.2-.2c-.1-.2.1-.3.3-.3h.5l.1-.5"/><path id="XMLID_9_" class="st1" d="M234.4 259.5h28.9v-7.1h-17.2v-26.1h-11.7z"/><path id="XMLID_10_" class="st1" d="M264.7 259.5h28.8v-7.1h-17.1v-26.1h-11.7z"/><path id="XMLID_11_" class="st1" d="M306.7 239.3v-5.9h18.4v-7.1H295v33.2h30.1v-7.1h-18.4v-6.1h15.5v-7z"/><path id="XMLID_12_" class="st1" d="M326.6 259.5h11.2v-26.2h5.7c1.7 0 5.3 0 5.3 3.5 0 3.2-3.5 4.3-6.7 4.3-.9 0-1.8-.1-2.9-.2 3.1 6 5.7 12.3 8.2 18.6H360c-2.7-4.5-5.4-9.7-8.1-14.7 5.1-1.6 8.1-4.5 8.1-8.4 0-6.6-3.8-10.1-13.6-10.1h-19.8v33.2z"/><path id="XMLID_13_" class="st1" d="M361.2 226.3v22.5c0 8 7.6 11.3 18.5 11.3s18.5-3.3 18.5-11.3v-22.5h-11.7v18.9c0 4.8-1.5 7.6-6.8 7.6s-6.8-2.8-6.8-7.6v-18.9h-11.7z"/><path id="XMLID_14_" class="st1" d="M401.1 259.5h11.2v-26.2h4c2.5 0 4.7.3 4.7 3.6 0 2.5-2.4 3.6-5.5 3.6-.8 0-1.6-.2-2.3-.3l2.2 6.5c1.2.1 2.5.3 3.7.3 7.6 0 13-4.2 13-10.7 0-8.3-7.6-10-10.3-10h-20.7v33.2z"/><path id="XMLID_15_" class="st1" d="M138.3 258.9c3.6.6 7.4 1.1 11.1 1.1 10.3 0 14.1-4.6 14.1-9 0-8.6-14.1-10.9-14.1-15.8 0-1.7 3.1-2.4 4.9-2.4 2.7 0 5.6.7 8.2 1.7l-1.3-7.9c-3.1-.5-6.5-.9-9.8-.9-10.2 0-13.6 4.7-13.6 8.6 0 8.4 14.1 11.8 14.1 16 0 2.3-3.3 2.6-5.2 2.6-3.2 0-6.7-.9-9.7-2.2l1.3 8.2z"/><path id="XMLID_18_" class="st1" d="M177.1 242l12.5 17.5h13.9l-14.3-17.6 12.8-15.5h-13.2L177.1 242zm-12.3 17.5h11.7v-33.1h-11.7v33.1z"/><path id="XMLID_19_" class="st1" d="M214.5 239.2v-5.8H233v-7.1h-30.2v33.2H233v-7.1h-18.5v-6.1h15.6v-7.1z"/><path id="XMLID_20_" class="st1" d="M137 283.6l1.3-1.6c1.2 1.1 2.4 1.6 4 1.6 1.4 0 2.2-.7 2.2-1.6 0-.9-.5-1.4-2.9-1.9-2.7-.7-4.2-1.4-4.2-3.8 0-2.2 1.8-3.7 4.3-3.7 1.8 0 3.3.6 4.6 1.6l-1.2 1.7c-1.1-.9-2.3-1.3-3.4-1.3-1.3 0-2.1.7-2.1 1.5 0 1 .6 1.4 3 2 2.7.7 4 1.6 4 3.7 0 2.4-1.9 3.8-4.5 3.8-1.8.1-3.6-.6-5.1-2"/><path id="XMLID_21_" class="st1" d="M149.4 272.8h2.2v6.4l6-6.4h2.8l-5.3 5.5 5.5 7.2h-2.7l-4.3-5.7-2 2v3.7h-2.2z"/><path id="XMLID_22_" class="st1" d="M162.5 272.8h9.4v2h-7.2v3.3h6.4v2h-6.4v3.4h7.3v2h-9.5z"/><path id="XMLID_23_" class="st1" d="M174.6 272.8h2.2v10.7h6.7v2h-8.9z"/><path id="XMLID_24_" class="st1" d="M185.8 272.8h2.2v10.7h6.7v2h-8.9z"/><path id="XMLID_25_" class="st1" d="M197 272.8h9.4v2h-7.2v3.3h6.3v2h-6.3v3.4h7.3v2H197z"/><path id="XMLID_28_" class="st1" d="M209.1 272.8h5.6c1.6 0 2.8.5 3.7 1.3.7.7 1 1.6 1 2.7 0 2.1-1.2 3.3-3 3.8l3.4 4.8h-2.6l-3.1-4.4h-2.8v4.4h-2.2v-12.6zm5.5 6.3c1.6 0 2.6-.8 2.6-2.1 0-1.4-1-2.1-2.6-2.1h-3.2v4.2h3.2z"/><path id="XMLID_29_" class="st1" d="M222 280.1v-7.3h2.2v7.2c0 2.4 1.2 3.6 3.2 3.6s3.2-1.2 3.2-3.5v-7.3h2.2v7.2c0 3.8-2.1 5.7-5.4 5.7-3.4 0-5.4-1.9-5.4-5.6"/><path id="XMLID_32_" class="st1" d="M235.8 272.8h5c3 0 4.8 1.7 4.8 4.2 0 2.8-2.3 4.3-5.1 4.3H238v4.1h-2.2v-12.6zm4.8 6.6c1.7 0 2.7-.9 2.7-2.3 0-1.5-1.1-2.3-2.7-2.3H238v4.6h2.6z"/><path id="XMLID_33_" class="st1" d="M253.3 272.8h2.2v5.3h6.1v-5.3h2.2v12.7h-2.2v-5.3h-6.1v5.3h-2.2z"/><path id="XMLID_36_" class="st1" d="M266.5 279.2c0-3.6 2.7-6.6 6.6-6.6s6.6 2.9 6.6 6.5-2.7 6.5-6.6 6.5c-3.9.1-6.6-2.8-6.6-6.4m10.9 0c0-2.5-1.8-4.5-4.3-4.5s-4.3 2-4.3 4.5 1.8 4.5 4.3 4.5c2.5-.1 4.3-2 4.3-4.5"/><path id="XMLID_37_" class="st1" d="M282.4 272.8h2.2v10.7h6.7v2h-8.9z"/><path id="XMLID_40_" class="st1" d="M293.6 272.8h4.7c4 0 6.7 2.7 6.7 6.3 0 3.6-2.8 6.3-6.7 6.3h-4.7v-12.6zm2.2 2.1v8.6h2.5c2.7 0 4.4-1.8 4.4-4.3s-1.7-4.3-4.4-4.3h-2.5z"/><path id="XMLID_41_" class="st1" d="M307.9 272.8h2.2v12.7h-2.2z"/><path id="XMLID_42_" class="st1" d="M313.5 272.8h2l6.8 8.8v-8.8h2.2v12.7h-1.9l-6.9-9v9h-2.2z"/><path id="XMLID_43_" class="st1" d="M327.2 279.2c0-3.6 2.7-6.6 6.5-6.6 2.2 0 3.6.6 4.9 1.7l-1.4 1.7c-1-.8-1.9-1.4-3.5-1.4-2.3 0-4.1 2-4.1 4.5 0 2.6 1.7 4.5 4.3 4.5 1.2 0 2.3-.4 3.1-1v-2.4h-3.2v-1.9h5.4v5.3c-1.2 1.1-3 2-5.3 2-4.1.1-6.7-2.7-6.7-6.4"/><path id="XMLID_44_" class="st1" d="M341.1 283.6l1.3-1.6c1.2 1.1 2.4 1.6 4 1.6 1.4 0 2.2-.7 2.2-1.6 0-.9-.5-1.4-2.9-1.9-2.7-.7-4.2-1.4-4.2-3.8 0-2.2 1.8-3.7 4.3-3.7 1.8 0 3.3.6 4.6 1.6l-1.2 1.7c-1.1-.9-2.3-1.3-3.4-1.3-1.3 0-2.1.7-2.1 1.5 0 1 .6 1.4 3 2 2.7.7 4 1.6 4 3.7 0 2.4-1.9 3.8-4.5 3.8-1.8.1-3.6-.6-5.1-2"/><path id="XMLID_45_" class="st1" d="M358.9 272.8h2.2v10.7h6.7v2h-8.9z"/><path id="XMLID_46_" class="st1" d="M370.2 272.8h2.2v12.7h-2.2z"/><path id="XMLID_47_" class="st1" d="M375.8 272.8h2.4l3.8 6 3.9-6h2.4v12.7H386v-9.1l-4 6-4-5.9v9h-2.2z"/><path id="XMLID_48_" class="st1" d="M391.6 272.8h2.2v12.7h-2.2z"/><path id="XMLID_49_" class="st1" d="M400.3 274.9h-4v-2.1h10.3v2.1h-4v10.6h-2.3z"/><path id="XMLID_50_" class="st1" d="M408.9 272.8h9.4v2h-7.1v3.3h6.3v2h-6.3v3.4h7.2v2h-9.5z"/><path id="XMLID_53_" class="st1" d="M421.1 272.8h4.7c4 0 6.7 2.7 6.7 6.3 0 3.6-2.8 6.3-6.7 6.3h-4.7v-12.6zm2.2 2.1v8.6h2.5c2.7 0 4.4-1.8 4.4-4.3s-1.7-4.3-4.4-4.3h-2.5z"/></g></svg>